G04 #@! TF.FileFunction,Paste,Top*
%FSLAX46Y46*%
G04 Gerber Fmt 4.6, Leading zero omitted, Abs format (unit mm)*
G04 Created by KiCad (PCBNEW 4.0.2-stable) date 2016-07-26 17:25.47*
%MOMM*%
G01*
G04 APERTURE LIST*
%ADD10C,0.100000*%
%ADD11R,0.900000X0.500000*%
%ADD12R,3.657600X2.032000*%
%ADD13R,1.016000X2.032000*%
%ADD14R,0.500000X0.600000*%
%ADD15R,0.600000X0.500000*%
%ADD16R,0.797560X0.797560*%
%ADD17R,1.700000X0.900000*%
%ADD18R,0.500000X0.900000*%
%ADD19R,0.550000X0.800000*%
%ADD20R,0.800100X0.800100*%
%ADD21R,2.200000X1.000000*%
%ADD22R,1.400000X0.300000*%
%ADD23R,0.450000X1.450000*%
%ADD24R,1.550000X0.600000*%
%ADD25R,0.250000X1.000000*%
%ADD26R,1.000000X0.250000*%
%ADD27R,2.600960X1.600200*%
%ADD28R,1.600200X2.600960*%
G04 APERTURE END LIST*
D10*
D11*
X150800000Y-126550000D03*
X150800000Y-128050000D03*
D12*
X121800000Y-122002000D03*
D13*
X121800000Y-115398000D03*
X119514000Y-115398000D03*
X124086000Y-115398000D03*
D14*
X107400000Y-122150000D03*
X107400000Y-121050000D03*
X114700000Y-114250000D03*
X114700000Y-113150000D03*
X125700000Y-111050000D03*
X125700000Y-109950000D03*
X145000000Y-142650000D03*
X145000000Y-143750000D03*
X138700000Y-138050000D03*
X138700000Y-139150000D03*
X154400000Y-145600000D03*
X154400000Y-144500000D03*
X155050000Y-133900000D03*
X155050000Y-135000000D03*
X153300000Y-117750000D03*
X153300000Y-116650000D03*
D15*
X140150000Y-129000000D03*
X141250000Y-129000000D03*
X151800000Y-125000000D03*
X150700000Y-125000000D03*
D14*
X153300000Y-105950000D03*
X153300000Y-107050000D03*
D15*
X135550000Y-138800000D03*
X136650000Y-138800000D03*
D14*
X120900000Y-136750000D03*
X120900000Y-135650000D03*
D15*
X126050000Y-131200000D03*
X124950000Y-131200000D03*
D14*
X129900000Y-145750000D03*
X129900000Y-146850000D03*
D15*
X120850000Y-139500000D03*
X119750000Y-139500000D03*
D14*
X127200000Y-145750000D03*
X127200000Y-146850000D03*
X135500000Y-141850000D03*
X135500000Y-142950000D03*
X121000000Y-143250000D03*
X121000000Y-144350000D03*
X119400000Y-142750000D03*
X119400000Y-141650000D03*
D15*
X117450000Y-140300000D03*
X116350000Y-140300000D03*
X124250000Y-145800000D03*
X125350000Y-145800000D03*
D16*
X101100000Y-121749300D03*
X101100000Y-120250700D03*
X101100000Y-140250700D03*
X101100000Y-141749300D03*
D17*
X112550000Y-121800000D03*
X112550000Y-118900000D03*
D11*
X112800000Y-115850000D03*
X112800000Y-114350000D03*
D18*
X122250000Y-112100000D03*
X123750000Y-112100000D03*
D11*
X128750000Y-148450000D03*
X128750000Y-149950000D03*
D18*
X117850000Y-136500000D03*
X119350000Y-136500000D03*
X118350000Y-134800000D03*
X116850000Y-134800000D03*
X162850000Y-113100000D03*
X161350000Y-113100000D03*
X162850000Y-114800000D03*
X161350000Y-114800000D03*
X161450000Y-118000000D03*
X159950000Y-118000000D03*
X161450000Y-119700000D03*
X159950000Y-119700000D03*
D11*
X161700000Y-122050000D03*
X161700000Y-123550000D03*
D18*
X162750000Y-126000000D03*
X161250000Y-126000000D03*
X162750000Y-127800000D03*
X161250000Y-127800000D03*
X162750000Y-131000000D03*
X161250000Y-131000000D03*
D11*
X162300000Y-147550000D03*
X162300000Y-146050000D03*
D18*
X133750000Y-130400000D03*
X135250000Y-130400000D03*
X133750000Y-128600000D03*
X135250000Y-128600000D03*
X139850000Y-127400000D03*
X141350000Y-127400000D03*
X141350000Y-125600000D03*
X139850000Y-125600000D03*
X150750000Y-137500000D03*
X149250000Y-137500000D03*
X150750000Y-140900000D03*
X149250000Y-140900000D03*
D11*
X152700000Y-133550000D03*
X152700000Y-135050000D03*
X157700000Y-146100000D03*
X157700000Y-144600000D03*
X150300000Y-135050000D03*
X150300000Y-133550000D03*
D18*
X157950000Y-142750000D03*
X159450000Y-142750000D03*
D11*
X143200000Y-123450000D03*
X143200000Y-121950000D03*
X145100000Y-121950000D03*
X145100000Y-123450000D03*
D18*
X150750000Y-139200000D03*
X149250000Y-139200000D03*
X150750000Y-142600000D03*
X149250000Y-142600000D03*
D11*
X152800000Y-146350000D03*
X152800000Y-144850000D03*
X156650000Y-133550000D03*
X156650000Y-135050000D03*
D18*
X151250000Y-145000000D03*
X149750000Y-145000000D03*
D11*
X158450000Y-136450000D03*
X158450000Y-134950000D03*
X148400000Y-130550000D03*
X148400000Y-132050000D03*
X150800000Y-130750000D03*
X150800000Y-129250000D03*
X149300000Y-114650000D03*
X149300000Y-113150000D03*
D18*
X149750000Y-109900000D03*
X148250000Y-109900000D03*
X149750000Y-111600000D03*
X148250000Y-111600000D03*
D11*
X151700000Y-118550000D03*
X151700000Y-120050000D03*
D18*
X156350000Y-106900000D03*
X154850000Y-106900000D03*
X150350000Y-116900000D03*
X151850000Y-116900000D03*
D11*
X157100000Y-111050000D03*
X157100000Y-109550000D03*
X156700000Y-116950000D03*
X156700000Y-118450000D03*
X151700000Y-107150000D03*
X151700000Y-105650000D03*
X154900000Y-117050000D03*
X154900000Y-118550000D03*
X158900000Y-112350000D03*
X158900000Y-110850000D03*
X157100000Y-114150000D03*
X157100000Y-115650000D03*
D18*
X110650000Y-153550000D03*
X109150000Y-153550000D03*
X110650000Y-151700000D03*
X109150000Y-151700000D03*
X106700000Y-147300000D03*
X105200000Y-147300000D03*
X106700000Y-145500000D03*
X105200000Y-145500000D03*
D19*
X117100000Y-129300000D03*
X118050000Y-129300000D03*
X119000000Y-129300000D03*
X119000000Y-131700000D03*
X118050000Y-131700000D03*
X117100000Y-131700000D03*
D20*
X136799240Y-132250000D03*
X136799240Y-134150000D03*
X138798220Y-133200000D03*
D21*
X128340000Y-117700000D03*
X128340000Y-115160000D03*
X128340000Y-110080000D03*
X128340000Y-107540000D03*
X138160000Y-115160000D03*
X138160000Y-107540000D03*
D22*
X144800000Y-141000000D03*
X144800000Y-140500000D03*
X144800000Y-140000000D03*
X144800000Y-139500000D03*
X144800000Y-139000000D03*
X140400000Y-139000000D03*
X140400000Y-139500000D03*
X140400000Y-140000000D03*
X140400000Y-140500000D03*
X140400000Y-141000000D03*
D23*
X152450000Y-142700000D03*
X153100000Y-142700000D03*
X153750000Y-142700000D03*
X154400000Y-142700000D03*
X155050000Y-142700000D03*
X155700000Y-142700000D03*
X156350000Y-142700000D03*
X156350000Y-136800000D03*
X155700000Y-136800000D03*
X155050000Y-136800000D03*
X154400000Y-136800000D03*
X153750000Y-136800000D03*
X153100000Y-136800000D03*
X152450000Y-136800000D03*
D24*
X143250000Y-125045000D03*
X143250000Y-126315000D03*
X143250000Y-127585000D03*
X143250000Y-128855000D03*
X148400000Y-128855000D03*
X148400000Y-127585000D03*
X148400000Y-126315000D03*
X148400000Y-125045000D03*
D23*
X151350000Y-114850000D03*
X152000000Y-114850000D03*
X152650000Y-114850000D03*
X153300000Y-114850000D03*
X153950000Y-114850000D03*
X154600000Y-114850000D03*
X155250000Y-114850000D03*
X155250000Y-108950000D03*
X154600000Y-108950000D03*
X153950000Y-108950000D03*
X153300000Y-108950000D03*
X152650000Y-108950000D03*
X152000000Y-108950000D03*
X151350000Y-108950000D03*
D25*
X124450000Y-144200000D03*
X124950000Y-144200000D03*
X125450000Y-144200000D03*
X125950000Y-144200000D03*
X126450000Y-144200000D03*
X126950000Y-144200000D03*
X127450000Y-144200000D03*
X127950000Y-144200000D03*
X128450000Y-144200000D03*
X128950000Y-144200000D03*
X129450000Y-144200000D03*
X129950000Y-144200000D03*
X130450000Y-144200000D03*
X130950000Y-144200000D03*
X131450000Y-144200000D03*
X131950000Y-144200000D03*
D26*
X133900000Y-142250000D03*
X133900000Y-141750000D03*
X133900000Y-141250000D03*
X133900000Y-140750000D03*
X133900000Y-140250000D03*
X133900000Y-139750000D03*
X133900000Y-139250000D03*
X133900000Y-138750000D03*
X133900000Y-138250000D03*
X133900000Y-137750000D03*
X133900000Y-137250000D03*
X133900000Y-136750000D03*
X133900000Y-136250000D03*
X133900000Y-135750000D03*
X133900000Y-135250000D03*
X133900000Y-134750000D03*
D25*
X131950000Y-132800000D03*
X131450000Y-132800000D03*
X130950000Y-132800000D03*
X130450000Y-132800000D03*
X129950000Y-132800000D03*
X129450000Y-132800000D03*
X128950000Y-132800000D03*
X128450000Y-132800000D03*
X127950000Y-132800000D03*
X127450000Y-132800000D03*
X126950000Y-132800000D03*
X126450000Y-132800000D03*
X125950000Y-132800000D03*
X125450000Y-132800000D03*
X124950000Y-132800000D03*
X124450000Y-132800000D03*
D26*
X122500000Y-134750000D03*
X122500000Y-135250000D03*
X122500000Y-135750000D03*
X122500000Y-136250000D03*
X122500000Y-136750000D03*
X122500000Y-137250000D03*
X122500000Y-137750000D03*
X122500000Y-138250000D03*
X122500000Y-138750000D03*
X122500000Y-139250000D03*
X122500000Y-139750000D03*
X122500000Y-140250000D03*
X122500000Y-140750000D03*
X122500000Y-141250000D03*
X122500000Y-141750000D03*
X122500000Y-142250000D03*
D10*
G36*
X121701476Y-149566141D02*
X120216141Y-151051476D01*
X116255848Y-147091183D01*
X117741183Y-145605848D01*
X121701476Y-149566141D01*
X121701476Y-149566141D01*
G37*
G36*
X114844152Y-142708817D02*
X113358817Y-144194152D01*
X109398524Y-140233859D01*
X110883859Y-138748524D01*
X114844152Y-142708817D01*
X114844152Y-142708817D01*
G37*
D27*
X109200860Y-115500000D03*
X105599140Y-115500000D03*
D28*
X110900000Y-110800860D03*
X110900000Y-107199140D03*
X118700000Y-112100860D03*
X118700000Y-108499140D03*
X141900000Y-112199140D03*
X141900000Y-115800860D03*
D27*
X134650860Y-123400000D03*
X131049140Y-123400000D03*
D28*
X143750000Y-136400860D03*
X143750000Y-132799140D03*
X126700000Y-127050860D03*
X126700000Y-123449140D03*
X132450000Y-149449140D03*
X132450000Y-153050860D03*
X125150000Y-149549140D03*
X125150000Y-153150860D03*
M02*
