M48
;DRILL file {KiCad 4.0.2-stable} date 2016-06-28 10:59.17
;FORMAT={-:-/ absolute / metric / decimal}
FMAT,2
METRIC,TZ
T1C0.400
T2C0.813
T3C1.016
T4C2.301
T5C3.190
%
G90
G05
M71
T1
X102.3Y-121.2
X102.3Y-141.8
X108.7Y-142.8
X111.Y-139.8
X112.25Y-118.25
X114.Y-113.6
X115.3Y-111.2
X116.9Y-112.7
X119.Y-138.8
X119.2Y-136.4
X119.5Y-131.5
X119.9Y-142.2
X120.6Y-152.1
X121.3Y-135.4
X121.9Y-111.
X122.1Y-109.2
X122.1Y-131.4
X122.9Y-126.7
X123.6Y-112.5
X123.6Y-131.5
X123.9Y-137.
X123.9Y-139.5
X124.6Y-151.6
X124.7Y-135.8
X125.1Y-108.8
X125.3Y-115.3
X125.3Y-130.8
X125.5Y-135.
X125.8Y-139.2
X125.8Y-145.5
X127.1Y-129.1
X127.6Y-141.1
X128.1Y-124.2
X128.6Y-130.7
X128.6Y-136.1
X129.9Y-137.4
X130.3Y-147.1
X130.7Y-139.3
X130.7Y-141.9
X132.Y-123.2
X132.2Y-148.3
X132.9Y-140.2
X133.2Y-126.5
X135.Y-141.9
X135.5Y-126.5
X135.8Y-139.8
X136.3Y-118.4
X136.6Y-136.5
X138.3Y-129.9
X138.5Y-139.
X138.6Y-134.2
X138.7Y-136.3
X139.6Y-113.5
X139.6Y-141.
X139.9Y-123.9
X140.Y-120.
X140.4Y-129.9
X140.4Y-138.5
X140.8Y-114.6
X141.Y-127.3
X141.7Y-120.8
X141.7Y-126.1
X142.Y-118.6
X142.8Y-139.
X143.6Y-119.7
X143.7Y-134.9
X143.7Y-143.1
X144.1Y-117.3
X144.3Y-123.9
X144.5Y-128.6
X144.5Y-136.6
X144.9Y-139.1
X145.Y-146.7
X145.Y-149.4
X146.5Y-137.1
X147.2Y-133.5
X147.5Y-130.5
X148.1Y-118.6
X148.1Y-124.6
X148.1Y-146.1
X148.2Y-116.7
X148.8Y-138.5
X149.3Y-134.2
X149.3Y-136.5
X150.1Y-125.4
X150.3Y-115.3
X150.4Y-139.5
X150.5Y-130.5
X150.6Y-122.4
X150.6Y-138.5
X150.8Y-118.6
X153.9Y-128.7
X154.Y-149.3
X154.9Y-130.8
X154.9Y-142.1
X155.Y-114.3
X155.Y-115.5
X156.8Y-148.6
X157.1Y-129.3
X157.2Y-112.
X157.2Y-119.1
X158.1Y-135.4
T2
X112.251Y-130.21
X112.251Y-132.75
X114.25Y-130.21
X114.25Y-132.75
T3
X109.2Y-106.4
X109.2Y-108.94
X109.2Y-111.48
X165.08Y-113.84
X165.08Y-116.634
X165.08Y-119.301
X165.08Y-122.095
X165.08Y-124.889
X165.08Y-127.683
X165.08Y-130.35
X165.08Y-133.144
X165.08Y-135.938
X165.08Y-138.732
X165.08Y-141.399
X165.08Y-144.193
X165.08Y-146.987
X167.92Y-115.415
X167.92Y-117.955
X167.92Y-120.749
X167.92Y-123.492
X167.92Y-126.235
X167.92Y-129.029
X167.92Y-131.772
X167.92Y-134.516
X167.92Y-137.36
X167.92Y-140.053
X167.92Y-142.796
X167.92Y-145.59
T4
X109.551Y-125.481
X109.551Y-137.479
T5
X166.5Y-106.9
X166.5Y-154.
T0
M30
