G04 #@! TF.FileFunction,Soldermask,Top*
%FSLAX46Y46*%
G04 Gerber Fmt 4.6, Leading zero omitted, Abs format (unit mm)*
G04 Created by KiCad (PCBNEW 4.0.2-stable) date 2016-06-28 10:59.27*
%MOMM*%
G01*
G04 APERTURE LIST*
%ADD10C,0.100000*%
%ADD11C,2.540000*%
%ADD12R,1.550000X0.600000*%
%ADD13R,1.000000X1.250000*%
%ADD14R,0.250000X1.000000*%
%ADD15R,1.000000X0.250000*%
%ADD16R,3.657600X2.032000*%
%ADD17R,1.016000X2.032000*%
%ADD18R,0.900000X0.500000*%
%ADD19R,0.500000X0.600000*%
%ADD20R,0.600000X0.500000*%
%ADD21R,1.250000X1.000000*%
%ADD22R,0.797560X0.797560*%
%ADD23R,0.900000X1.700000*%
%ADD24C,3.810000*%
%ADD25R,1.524000X1.524000*%
%ADD26C,1.524000*%
%ADD27R,2.032000X1.727200*%
%ADD28O,2.032000X1.727200*%
%ADD29R,0.500000X0.900000*%
%ADD30R,0.550000X0.800000*%
%ADD31R,0.800100X0.800100*%
%ADD32R,2.200000X1.000000*%
%ADD33R,0.300000X1.400000*%
%ADD34R,1.450000X0.450000*%
%ADD35C,2.700020*%
G04 APERTURE END LIST*
D10*
D11*
X161000000Y-110100000D03*
X138500000Y-148700000D03*
D12*
X146550000Y-143045000D03*
X146550000Y-144315000D03*
X146550000Y-145585000D03*
X146550000Y-146855000D03*
X151700000Y-146855000D03*
X151700000Y-145585000D03*
X151700000Y-144315000D03*
X151700000Y-143045000D03*
D13*
X130500000Y-149800000D03*
X132500000Y-149800000D03*
D14*
X124650000Y-143300000D03*
X125150000Y-143300000D03*
X125650000Y-143300000D03*
X126150000Y-143300000D03*
X126650000Y-143300000D03*
X127150000Y-143300000D03*
X127650000Y-143300000D03*
X128150000Y-143300000D03*
X128650000Y-143300000D03*
X129150000Y-143300000D03*
X129650000Y-143300000D03*
X130150000Y-143300000D03*
X130650000Y-143300000D03*
X131150000Y-143300000D03*
X131650000Y-143300000D03*
X132150000Y-143300000D03*
D15*
X134100000Y-141350000D03*
X134100000Y-140850000D03*
X134100000Y-140350000D03*
X134100000Y-139850000D03*
X134100000Y-139350000D03*
X134100000Y-138850000D03*
X134100000Y-138350000D03*
X134100000Y-137850000D03*
X134100000Y-137350000D03*
X134100000Y-136850000D03*
X134100000Y-136350000D03*
X134100000Y-135850000D03*
X134100000Y-135350000D03*
X134100000Y-134850000D03*
X134100000Y-134350000D03*
X134100000Y-133850000D03*
D14*
X132150000Y-131900000D03*
X131650000Y-131900000D03*
X131150000Y-131900000D03*
X130650000Y-131900000D03*
X130150000Y-131900000D03*
X129650000Y-131900000D03*
X129150000Y-131900000D03*
X128650000Y-131900000D03*
X128150000Y-131900000D03*
X127650000Y-131900000D03*
X127150000Y-131900000D03*
X126650000Y-131900000D03*
X126150000Y-131900000D03*
X125650000Y-131900000D03*
X125150000Y-131900000D03*
X124650000Y-131900000D03*
D15*
X122700000Y-133850000D03*
X122700000Y-134350000D03*
X122700000Y-134850000D03*
X122700000Y-135350000D03*
X122700000Y-135850000D03*
X122700000Y-136350000D03*
X122700000Y-136850000D03*
X122700000Y-137350000D03*
X122700000Y-137850000D03*
X122700000Y-138350000D03*
X122700000Y-138850000D03*
X122700000Y-139350000D03*
X122700000Y-139850000D03*
X122700000Y-140350000D03*
X122700000Y-140850000D03*
X122700000Y-141350000D03*
D16*
X120800000Y-120702000D03*
D17*
X120800000Y-114098000D03*
X118514000Y-114098000D03*
X123086000Y-114098000D03*
D18*
X142000000Y-114550000D03*
X142000000Y-113050000D03*
D13*
X115250000Y-118250000D03*
X113250000Y-118250000D03*
D19*
X107700000Y-140750000D03*
X107700000Y-141850000D03*
D20*
X115300000Y-112750000D03*
X114200000Y-112750000D03*
D13*
X118600000Y-111000000D03*
X120600000Y-111000000D03*
X124600000Y-124200000D03*
X126600000Y-124200000D03*
D21*
X123600000Y-111200000D03*
X123600000Y-109200000D03*
X137800000Y-118800000D03*
X137800000Y-120800000D03*
D13*
X135400000Y-123200000D03*
X133400000Y-123200000D03*
D20*
X142650000Y-134100000D03*
X143750000Y-134100000D03*
D21*
X141400000Y-130200000D03*
X141400000Y-128200000D03*
D20*
X139950000Y-142300000D03*
X141050000Y-142300000D03*
D19*
X144100000Y-116150000D03*
X144100000Y-115050000D03*
X146000000Y-149650000D03*
X146000000Y-148550000D03*
D20*
X154950000Y-143100000D03*
X153850000Y-143100000D03*
D19*
X153900000Y-129650000D03*
X153900000Y-130750000D03*
X144100000Y-129450000D03*
X144100000Y-130550000D03*
X154100000Y-114250000D03*
X154100000Y-115350000D03*
D20*
X120950000Y-136400000D03*
X119850000Y-136400000D03*
D19*
X135800000Y-137550000D03*
X135800000Y-136450000D03*
X126200000Y-130150000D03*
X126200000Y-129050000D03*
X130200000Y-145050000D03*
X130200000Y-146150000D03*
D21*
X122900000Y-129700000D03*
X122900000Y-127700000D03*
D20*
X120950000Y-138800000D03*
X119850000Y-138800000D03*
D19*
X127200000Y-145050000D03*
X127200000Y-146150000D03*
X135800000Y-141050000D03*
X135800000Y-142150000D03*
D20*
X120950000Y-141400000D03*
X119850000Y-141400000D03*
X122050000Y-153100000D03*
X120950000Y-153100000D03*
D21*
X126100000Y-149600000D03*
X126100000Y-151600000D03*
D19*
X110100000Y-141850000D03*
X110100000Y-140750000D03*
X124600000Y-145050000D03*
X124600000Y-146150000D03*
D22*
X101200000Y-122749300D03*
X101200000Y-121250700D03*
X101200000Y-140250700D03*
X101200000Y-141749300D03*
D23*
X112300000Y-121250000D03*
X115200000Y-121250000D03*
D18*
X115250000Y-116000000D03*
X115250000Y-114500000D03*
X128400000Y-149450000D03*
X128400000Y-150950000D03*
D24*
X166500000Y-154000000D03*
X166500000Y-106900000D03*
D25*
X165080000Y-113840000D03*
D26*
X165080000Y-116634000D03*
X165080000Y-119301000D03*
X165080000Y-122095000D03*
X165080000Y-124889000D03*
X165080000Y-127683000D03*
X165080000Y-130350000D03*
X165080000Y-133144000D03*
X165080000Y-135938000D03*
X165080000Y-138732000D03*
X165080000Y-141399000D03*
X165080000Y-144193000D03*
X165080000Y-146987000D03*
X167920000Y-115414800D03*
X167920000Y-117954800D03*
X167920000Y-120748800D03*
X167920000Y-123492000D03*
X167920000Y-126235200D03*
X167920000Y-129029200D03*
X167920000Y-131772400D03*
X167920000Y-134515600D03*
X167920000Y-137360400D03*
X167920000Y-140052800D03*
X167920000Y-142796000D03*
X167920000Y-145590000D03*
D27*
X109200000Y-106400000D03*
D28*
X109200000Y-108940000D03*
X109200000Y-111480000D03*
D29*
X118850000Y-134600000D03*
X120350000Y-134600000D03*
X119350000Y-132800000D03*
X117850000Y-132800000D03*
X159754000Y-113284000D03*
X158254000Y-113284000D03*
X159754000Y-115062000D03*
X158254000Y-115062000D03*
X159754000Y-116840000D03*
X158254000Y-116840000D03*
X159754000Y-118618000D03*
X158254000Y-118618000D03*
X159754000Y-120396000D03*
X158254000Y-120396000D03*
X159754000Y-122174000D03*
X158254000Y-122174000D03*
X159754000Y-123952000D03*
X158254000Y-123952000D03*
X159754000Y-125730000D03*
X158254000Y-125730000D03*
X159754000Y-127508000D03*
X158254000Y-127508000D03*
X159754000Y-129286000D03*
X158254000Y-129286000D03*
X159754000Y-131064000D03*
X158254000Y-131064000D03*
X159754000Y-132842000D03*
X158254000Y-132842000D03*
X159754000Y-147066000D03*
X158254000Y-147066000D03*
X137450000Y-127900000D03*
X135950000Y-127900000D03*
X137450000Y-129900000D03*
X135950000Y-129900000D03*
D18*
X141600000Y-144050000D03*
X141600000Y-145550000D03*
X143600000Y-145550000D03*
X143600000Y-144050000D03*
X154400000Y-125950000D03*
X154400000Y-124450000D03*
X147500000Y-137050000D03*
X147500000Y-138550000D03*
D29*
X150250000Y-126600000D03*
X151750000Y-126600000D03*
D18*
X147500000Y-134850000D03*
X147500000Y-136350000D03*
D29*
X145950000Y-140700000D03*
X147450000Y-140700000D03*
X148850000Y-140700000D03*
X150350000Y-140700000D03*
D18*
X150500000Y-134450000D03*
X150500000Y-135950000D03*
D29*
X146950000Y-124800000D03*
X145450000Y-124800000D03*
D18*
X154600000Y-133950000D03*
X154600000Y-132450000D03*
D29*
X145450000Y-126600000D03*
X146950000Y-126600000D03*
D18*
X155200000Y-149350000D03*
X155200000Y-147850000D03*
X155200000Y-144850000D03*
X155200000Y-146350000D03*
D29*
X151050000Y-121200000D03*
X149550000Y-121200000D03*
D18*
X140000000Y-116050000D03*
X140000000Y-117550000D03*
X155200000Y-118450000D03*
X155200000Y-116950000D03*
X156200000Y-113650000D03*
X156200000Y-115150000D03*
X142000000Y-117550000D03*
X142000000Y-116050000D03*
D29*
X151750000Y-111000000D03*
X150250000Y-111000000D03*
X146850000Y-119400000D03*
X145350000Y-119400000D03*
X134550000Y-153500000D03*
X133050000Y-153500000D03*
D18*
X130300000Y-154650000D03*
X130300000Y-156150000D03*
D30*
X118250000Y-128100000D03*
X119200000Y-128100000D03*
X120150000Y-128100000D03*
X120150000Y-130500000D03*
X119200000Y-130500000D03*
X118250000Y-130500000D03*
D31*
X136599240Y-132050000D03*
X136599240Y-133950000D03*
X138598220Y-133000000D03*
D32*
X126940000Y-118900000D03*
X126940000Y-116360000D03*
X126940000Y-111280000D03*
X126940000Y-108740000D03*
X136760000Y-116360000D03*
X136760000Y-108740000D03*
D33*
X142600000Y-136000000D03*
X142100000Y-136000000D03*
X141600000Y-136000000D03*
X141100000Y-136000000D03*
X140600000Y-136000000D03*
X140600000Y-140400000D03*
X141100000Y-140400000D03*
X141600000Y-140400000D03*
X142100000Y-140400000D03*
X142600000Y-140400000D03*
D34*
X146050000Y-128650000D03*
X146050000Y-129300000D03*
X146050000Y-129950000D03*
X146050000Y-130600000D03*
X146050000Y-131250000D03*
X146050000Y-131900000D03*
X146050000Y-132550000D03*
X151950000Y-132550000D03*
X151950000Y-131900000D03*
X151950000Y-131250000D03*
X151950000Y-130600000D03*
X151950000Y-129950000D03*
X151950000Y-129300000D03*
X151950000Y-128650000D03*
X146148000Y-113366000D03*
X146148000Y-114016000D03*
X146148000Y-114666000D03*
X146148000Y-115316000D03*
X146148000Y-115966000D03*
X146148000Y-116616000D03*
X146148000Y-117266000D03*
X152048000Y-117266000D03*
X152048000Y-116616000D03*
X152048000Y-115966000D03*
X152048000Y-115316000D03*
X152048000Y-114666000D03*
X152048000Y-114016000D03*
X152048000Y-113366000D03*
D10*
G36*
X123651476Y-150366141D02*
X122166141Y-151851476D01*
X118205848Y-147891183D01*
X119691183Y-146405848D01*
X123651476Y-150366141D01*
X123651476Y-150366141D01*
G37*
G36*
X116794152Y-143508817D02*
X115308817Y-144994152D01*
X111348524Y-141033859D01*
X112833859Y-139548524D01*
X116794152Y-143508817D01*
X116794152Y-143508817D01*
G37*
D26*
X114250000Y-130210000D03*
X114250000Y-132750000D03*
X112251020Y-132750000D03*
X112251020Y-130210000D03*
D35*
X109551000Y-125480520D03*
X109551000Y-137479480D03*
D29*
X134550000Y-155300000D03*
X133050000Y-155300000D03*
D18*
X128400000Y-154650000D03*
X128400000Y-156150000D03*
D11*
X130500000Y-128500000D03*
M02*
