G04 #@! TF.FileFunction,Legend,Top*
%FSLAX46Y46*%
G04 Gerber Fmt 4.6, Leading zero omitted, Abs format (unit mm)*
G04 Created by KiCad (PCBNEW 4.0.2-stable) date 2016-06-28 10:59.27*
%MOMM*%
G01*
G04 APERTURE LIST*
%ADD10C,0.100000*%
%ADD11C,0.200000*%
%ADD12C,0.300000*%
%ADD13C,0.150000*%
%ADD14C,0.500000*%
%ADD15C,1.000000*%
%ADD16C,0.400000*%
G04 APERTURE END LIST*
D10*
D11*
X101100000Y-117500000D02*
X100900000Y-117500000D01*
X108500000Y-117500000D02*
X101100000Y-117500000D01*
X108500000Y-123300000D02*
X108500000Y-117500000D01*
X106500000Y-145500000D02*
X106500000Y-139400000D01*
X101000000Y-145500000D02*
X106500000Y-145500000D01*
D12*
X102078572Y-119978571D02*
X101364286Y-119978571D01*
X101364286Y-118478571D01*
X102507143Y-119550000D02*
X103221429Y-119550000D01*
X102364286Y-119978571D02*
X102864286Y-118478571D01*
X103364286Y-119978571D01*
X103792857Y-119907143D02*
X104007143Y-119978571D01*
X104364286Y-119978571D01*
X104507143Y-119907143D01*
X104578572Y-119835714D01*
X104650000Y-119692857D01*
X104650000Y-119550000D01*
X104578572Y-119407143D01*
X104507143Y-119335714D01*
X104364286Y-119264286D01*
X104078572Y-119192857D01*
X103935714Y-119121429D01*
X103864286Y-119050000D01*
X103792857Y-118907143D01*
X103792857Y-118764286D01*
X103864286Y-118621429D01*
X103935714Y-118550000D01*
X104078572Y-118478571D01*
X104435714Y-118478571D01*
X104650000Y-118550000D01*
X105292857Y-119192857D02*
X105792857Y-119192857D01*
X106007143Y-119978571D02*
X105292857Y-119978571D01*
X105292857Y-118478571D01*
X106007143Y-118478571D01*
X107507143Y-119978571D02*
X107007143Y-119264286D01*
X106650000Y-119978571D02*
X106650000Y-118478571D01*
X107221428Y-118478571D01*
X107364286Y-118550000D01*
X107435714Y-118621429D01*
X107507143Y-118764286D01*
X107507143Y-118978571D01*
X107435714Y-119121429D01*
X107364286Y-119192857D01*
X107221428Y-119264286D01*
X106650000Y-119264286D01*
D11*
X109300000Y-145900000D02*
X109300000Y-145800000D01*
D12*
X101400000Y-144478571D02*
X101400000Y-142978571D01*
X101971428Y-142978571D01*
X102114286Y-143050000D01*
X102185714Y-143121429D01*
X102257143Y-143264286D01*
X102257143Y-143478571D01*
X102185714Y-143621429D01*
X102114286Y-143692857D01*
X101971428Y-143764286D01*
X101400000Y-143764286D01*
X102757143Y-142978571D02*
X103114286Y-144478571D01*
X103400000Y-143407143D01*
X103685714Y-144478571D01*
X104042857Y-142978571D01*
X105471429Y-144478571D02*
X104971429Y-143764286D01*
X104614286Y-144478571D02*
X104614286Y-142978571D01*
X105185714Y-142978571D01*
X105328572Y-143050000D01*
X105400000Y-143121429D01*
X105471429Y-143264286D01*
X105471429Y-143478571D01*
X105400000Y-143621429D01*
X105328572Y-143692857D01*
X105185714Y-143764286D01*
X104614286Y-143764286D01*
X142950000Y-156078571D02*
X142950000Y-157292857D01*
X142878571Y-157435714D01*
X142807143Y-157507143D01*
X142664286Y-157578571D01*
X142450000Y-157578571D01*
X142307143Y-157507143D01*
X142950000Y-157007143D02*
X142807143Y-157078571D01*
X142521429Y-157078571D01*
X142378571Y-157007143D01*
X142307143Y-156935714D01*
X142235714Y-156792857D01*
X142235714Y-156364286D01*
X142307143Y-156221429D01*
X142378571Y-156150000D01*
X142521429Y-156078571D01*
X142807143Y-156078571D01*
X142950000Y-156150000D01*
X143664286Y-157078571D02*
X143664286Y-156078571D01*
X143664286Y-155578571D02*
X143592857Y-155650000D01*
X143664286Y-155721429D01*
X143735714Y-155650000D01*
X143664286Y-155578571D01*
X143664286Y-155721429D01*
X144164286Y-156078571D02*
X144735715Y-156078571D01*
X144378572Y-155578571D02*
X144378572Y-156864286D01*
X144450000Y-157007143D01*
X144592858Y-157078571D01*
X144735715Y-157078571D01*
X145450001Y-157078571D02*
X145307143Y-157007143D01*
X145235715Y-156864286D01*
X145235715Y-155578571D01*
X146592857Y-157007143D02*
X146450000Y-157078571D01*
X146164286Y-157078571D01*
X146021429Y-157007143D01*
X145950000Y-156864286D01*
X145950000Y-156292857D01*
X146021429Y-156150000D01*
X146164286Y-156078571D01*
X146450000Y-156078571D01*
X146592857Y-156150000D01*
X146664286Y-156292857D01*
X146664286Y-156435714D01*
X145950000Y-156578571D01*
X147307143Y-157078571D02*
X147307143Y-156078571D01*
X147307143Y-156221429D02*
X147378571Y-156150000D01*
X147521429Y-156078571D01*
X147735714Y-156078571D01*
X147878571Y-156150000D01*
X147950000Y-156292857D01*
X147950000Y-157078571D01*
X147950000Y-156292857D02*
X148021429Y-156150000D01*
X148164286Y-156078571D01*
X148378571Y-156078571D01*
X148521429Y-156150000D01*
X148592857Y-156292857D01*
X148592857Y-157078571D01*
X150235714Y-156364286D02*
X150164286Y-156292857D01*
X150021429Y-156221429D01*
X149878571Y-156221429D01*
X149735714Y-156292857D01*
X149664286Y-156364286D01*
X149592857Y-156507143D01*
X149592857Y-156650000D01*
X149664286Y-156792857D01*
X149735714Y-156864286D01*
X149878571Y-156935714D01*
X150021429Y-156935714D01*
X150164286Y-156864286D01*
X150235714Y-156792857D01*
X150235714Y-156221429D02*
X150235714Y-156792857D01*
X150307143Y-156864286D01*
X150378571Y-156864286D01*
X150521429Y-156792857D01*
X150592857Y-156650000D01*
X150592857Y-156292857D01*
X150450000Y-156078571D01*
X150235714Y-155935714D01*
X149950000Y-155864286D01*
X149664286Y-155935714D01*
X149450000Y-156078571D01*
X149307143Y-156292857D01*
X149235714Y-156578571D01*
X149307143Y-156864286D01*
X149450000Y-157078571D01*
X149664286Y-157221429D01*
X149950000Y-157292857D01*
X150235714Y-157221429D01*
X150450000Y-157078571D01*
X151878571Y-156078571D02*
X151878571Y-157292857D01*
X151807142Y-157435714D01*
X151735714Y-157507143D01*
X151592857Y-157578571D01*
X151378571Y-157578571D01*
X151235714Y-157507143D01*
X151878571Y-157007143D02*
X151735714Y-157078571D01*
X151450000Y-157078571D01*
X151307142Y-157007143D01*
X151235714Y-156935714D01*
X151164285Y-156792857D01*
X151164285Y-156364286D01*
X151235714Y-156221429D01*
X151307142Y-156150000D01*
X151450000Y-156078571D01*
X151735714Y-156078571D01*
X151878571Y-156150000D01*
X152592857Y-157078571D02*
X152592857Y-156078571D01*
X152592857Y-156221429D02*
X152664285Y-156150000D01*
X152807143Y-156078571D01*
X153021428Y-156078571D01*
X153164285Y-156150000D01*
X153235714Y-156292857D01*
X153235714Y-157078571D01*
X153235714Y-156292857D02*
X153307143Y-156150000D01*
X153450000Y-156078571D01*
X153664285Y-156078571D01*
X153807143Y-156150000D01*
X153878571Y-156292857D01*
X153878571Y-157078571D01*
X155235714Y-157078571D02*
X155235714Y-156292857D01*
X155164285Y-156150000D01*
X155021428Y-156078571D01*
X154735714Y-156078571D01*
X154592857Y-156150000D01*
X155235714Y-157007143D02*
X155092857Y-157078571D01*
X154735714Y-157078571D01*
X154592857Y-157007143D01*
X154521428Y-156864286D01*
X154521428Y-156721429D01*
X154592857Y-156578571D01*
X154735714Y-156507143D01*
X155092857Y-156507143D01*
X155235714Y-156435714D01*
X155950000Y-157078571D02*
X155950000Y-156078571D01*
X155950000Y-155578571D02*
X155878571Y-155650000D01*
X155950000Y-155721429D01*
X156021428Y-155650000D01*
X155950000Y-155578571D01*
X155950000Y-155721429D01*
X156878572Y-157078571D02*
X156735714Y-157007143D01*
X156664286Y-156864286D01*
X156664286Y-155578571D01*
X157450000Y-156935714D02*
X157521428Y-157007143D01*
X157450000Y-157078571D01*
X157378571Y-157007143D01*
X157450000Y-156935714D01*
X157450000Y-157078571D01*
X158807143Y-157007143D02*
X158664286Y-157078571D01*
X158378572Y-157078571D01*
X158235714Y-157007143D01*
X158164286Y-156935714D01*
X158092857Y-156792857D01*
X158092857Y-156364286D01*
X158164286Y-156221429D01*
X158235714Y-156150000D01*
X158378572Y-156078571D01*
X158664286Y-156078571D01*
X158807143Y-156150000D01*
X159664286Y-157078571D02*
X159521428Y-157007143D01*
X159450000Y-156935714D01*
X159378571Y-156792857D01*
X159378571Y-156364286D01*
X159450000Y-156221429D01*
X159521428Y-156150000D01*
X159664286Y-156078571D01*
X159878571Y-156078571D01*
X160021428Y-156150000D01*
X160092857Y-156221429D01*
X160164286Y-156364286D01*
X160164286Y-156792857D01*
X160092857Y-156935714D01*
X160021428Y-157007143D01*
X159878571Y-157078571D01*
X159664286Y-157078571D01*
X160807143Y-157078571D02*
X160807143Y-156078571D01*
X160807143Y-156221429D02*
X160878571Y-156150000D01*
X161021429Y-156078571D01*
X161235714Y-156078571D01*
X161378571Y-156150000D01*
X161450000Y-156292857D01*
X161450000Y-157078571D01*
X161450000Y-156292857D02*
X161521429Y-156150000D01*
X161664286Y-156078571D01*
X161878571Y-156078571D01*
X162021429Y-156150000D01*
X162092857Y-156292857D01*
X162092857Y-157078571D01*
D11*
X144371428Y-103980000D02*
X144276190Y-103941905D01*
X144133333Y-103941905D01*
X143990475Y-103980000D01*
X143895237Y-104056190D01*
X143847618Y-104132381D01*
X143799999Y-104284762D01*
X143799999Y-104399048D01*
X143847618Y-104551429D01*
X143895237Y-104627619D01*
X143990475Y-104703810D01*
X144133333Y-104741905D01*
X144228571Y-104741905D01*
X144371428Y-104703810D01*
X144419047Y-104665714D01*
X144419047Y-104399048D01*
X144228571Y-104399048D01*
X144847618Y-104741905D02*
X144847618Y-104208571D01*
X144847618Y-103941905D02*
X144799999Y-103980000D01*
X144847618Y-104018095D01*
X144895237Y-103980000D01*
X144847618Y-103941905D01*
X144847618Y-104018095D01*
X145180951Y-104208571D02*
X145561903Y-104208571D01*
X145323808Y-103941905D02*
X145323808Y-104627619D01*
X145371427Y-104703810D01*
X145466665Y-104741905D01*
X145561903Y-104741905D01*
X146038094Y-104741905D02*
X145942856Y-104703810D01*
X145895237Y-104627619D01*
X145895237Y-103941905D01*
X146800000Y-104703810D02*
X146704762Y-104741905D01*
X146514285Y-104741905D01*
X146419047Y-104703810D01*
X146371428Y-104627619D01*
X146371428Y-104322857D01*
X146419047Y-104246667D01*
X146514285Y-104208571D01*
X146704762Y-104208571D01*
X146800000Y-104246667D01*
X146847619Y-104322857D01*
X146847619Y-104399048D01*
X146371428Y-104475238D01*
X148038095Y-104741905D02*
X148038095Y-103941905D01*
X148371429Y-104513333D01*
X148704762Y-103941905D01*
X148704762Y-104741905D01*
X149180952Y-104741905D02*
X149180952Y-104208571D01*
X149180952Y-103941905D02*
X149133333Y-103980000D01*
X149180952Y-104018095D01*
X149228571Y-103980000D01*
X149180952Y-103941905D01*
X149180952Y-104018095D01*
X149657142Y-104741905D02*
X149657142Y-103941905D01*
X149752380Y-104437143D02*
X150038095Y-104741905D01*
X150038095Y-104208571D02*
X149657142Y-104513333D01*
X150466666Y-104741905D02*
X150466666Y-103941905D01*
X150561904Y-104437143D02*
X150847619Y-104741905D01*
X150847619Y-104208571D02*
X150466666Y-104513333D01*
X151657143Y-104703810D02*
X151561905Y-104741905D01*
X151371428Y-104741905D01*
X151276190Y-104703810D01*
X151228571Y-104627619D01*
X151228571Y-104322857D01*
X151276190Y-104246667D01*
X151371428Y-104208571D01*
X151561905Y-104208571D01*
X151657143Y-104246667D01*
X151704762Y-104322857D01*
X151704762Y-104399048D01*
X151228571Y-104475238D01*
X152276190Y-104741905D02*
X152180952Y-104703810D01*
X152133333Y-104627619D01*
X152133333Y-103941905D01*
X152609524Y-104703810D02*
X152704762Y-104741905D01*
X152895238Y-104741905D01*
X152990477Y-104703810D01*
X153038096Y-104627619D01*
X153038096Y-104589524D01*
X152990477Y-104513333D01*
X152895238Y-104475238D01*
X152752381Y-104475238D01*
X152657143Y-104437143D01*
X152609524Y-104360952D01*
X152609524Y-104322857D01*
X152657143Y-104246667D01*
X152752381Y-104208571D01*
X152895238Y-104208571D01*
X152990477Y-104246667D01*
X153847620Y-104703810D02*
X153752382Y-104741905D01*
X153561905Y-104741905D01*
X153466667Y-104703810D01*
X153419048Y-104627619D01*
X153419048Y-104322857D01*
X153466667Y-104246667D01*
X153561905Y-104208571D01*
X153752382Y-104208571D01*
X153847620Y-104246667D01*
X153895239Y-104322857D01*
X153895239Y-104399048D01*
X153419048Y-104475238D01*
X154323810Y-104208571D02*
X154323810Y-104741905D01*
X154323810Y-104284762D02*
X154371429Y-104246667D01*
X154466667Y-104208571D01*
X154609525Y-104208571D01*
X154704763Y-104246667D01*
X154752382Y-104322857D01*
X154752382Y-104741905D01*
X139752380Y-105261905D02*
X140323809Y-105261905D01*
X140038094Y-106061905D02*
X140038094Y-105261905D01*
X140657142Y-106061905D02*
X140657142Y-105261905D01*
X141085714Y-106061905D02*
X141085714Y-105642857D01*
X141038095Y-105566667D01*
X140942857Y-105528571D01*
X140799999Y-105528571D01*
X140704761Y-105566667D01*
X140657142Y-105604762D01*
X141704761Y-106061905D02*
X141609523Y-106023810D01*
X141561904Y-105985714D01*
X141514285Y-105909524D01*
X141514285Y-105680952D01*
X141561904Y-105604762D01*
X141609523Y-105566667D01*
X141704761Y-105528571D01*
X141847619Y-105528571D01*
X141942857Y-105566667D01*
X141990476Y-105604762D01*
X142038095Y-105680952D01*
X142038095Y-105909524D01*
X141990476Y-105985714D01*
X141942857Y-106023810D01*
X141847619Y-106061905D01*
X141704761Y-106061905D01*
X142466666Y-106061905D02*
X142466666Y-105528571D01*
X142466666Y-105604762D02*
X142514285Y-105566667D01*
X142609523Y-105528571D01*
X142752381Y-105528571D01*
X142847619Y-105566667D01*
X142895238Y-105642857D01*
X142895238Y-106061905D01*
X142895238Y-105642857D02*
X142942857Y-105566667D01*
X143038095Y-105528571D01*
X143180952Y-105528571D01*
X143276190Y-105566667D01*
X143323809Y-105642857D01*
X143323809Y-106061905D01*
X144228571Y-106061905D02*
X144228571Y-105642857D01*
X144180952Y-105566667D01*
X144085714Y-105528571D01*
X143895237Y-105528571D01*
X143799999Y-105566667D01*
X144228571Y-106023810D02*
X144133333Y-106061905D01*
X143895237Y-106061905D01*
X143799999Y-106023810D01*
X143752380Y-105947619D01*
X143752380Y-105871429D01*
X143799999Y-105795238D01*
X143895237Y-105757143D01*
X144133333Y-105757143D01*
X144228571Y-105719048D01*
X144657142Y-106023810D02*
X144752380Y-106061905D01*
X144942856Y-106061905D01*
X145038095Y-106023810D01*
X145085714Y-105947619D01*
X145085714Y-105909524D01*
X145038095Y-105833333D01*
X144942856Y-105795238D01*
X144799999Y-105795238D01*
X144704761Y-105757143D01*
X144657142Y-105680952D01*
X144657142Y-105642857D01*
X144704761Y-105566667D01*
X144799999Y-105528571D01*
X144942856Y-105528571D01*
X145038095Y-105566667D01*
X146752381Y-106061905D02*
X146276190Y-106061905D01*
X146276190Y-105261905D01*
X147514286Y-105528571D02*
X147514286Y-106061905D01*
X147085714Y-105528571D02*
X147085714Y-105947619D01*
X147133333Y-106023810D01*
X147228571Y-106061905D01*
X147371429Y-106061905D01*
X147466667Y-106023810D01*
X147514286Y-105985714D01*
X147990476Y-105528571D02*
X147990476Y-106061905D01*
X147990476Y-105604762D02*
X148038095Y-105566667D01*
X148133333Y-105528571D01*
X148276191Y-105528571D01*
X148371429Y-105566667D01*
X148419048Y-105642857D01*
X148419048Y-106061905D01*
X149323810Y-106061905D02*
X149323810Y-105261905D01*
X149323810Y-106023810D02*
X149228572Y-106061905D01*
X149038095Y-106061905D01*
X148942857Y-106023810D01*
X148895238Y-105985714D01*
X148847619Y-105909524D01*
X148847619Y-105680952D01*
X148895238Y-105604762D01*
X148942857Y-105566667D01*
X149038095Y-105528571D01*
X149228572Y-105528571D01*
X149323810Y-105566667D01*
X149800000Y-106061905D02*
X149800000Y-105261905D01*
X149800000Y-105566667D02*
X149895238Y-105528571D01*
X150085715Y-105528571D01*
X150180953Y-105566667D01*
X150228572Y-105604762D01*
X150276191Y-105680952D01*
X150276191Y-105909524D01*
X150228572Y-105985714D01*
X150180953Y-106023810D01*
X150085715Y-106061905D01*
X149895238Y-106061905D01*
X149800000Y-106023810D01*
X150609524Y-105528571D02*
X150847619Y-106061905D01*
X151085715Y-105528571D02*
X150847619Y-106061905D01*
X150752381Y-106252381D01*
X150704762Y-106290476D01*
X150609524Y-106328571D01*
X152228572Y-106061905D02*
X152228572Y-105261905D01*
X152228572Y-105642857D02*
X152800001Y-105642857D01*
X152800001Y-106061905D02*
X152800001Y-105261905D01*
X153657144Y-106023810D02*
X153561906Y-106061905D01*
X153371429Y-106061905D01*
X153276191Y-106023810D01*
X153228572Y-105947619D01*
X153228572Y-105642857D01*
X153276191Y-105566667D01*
X153371429Y-105528571D01*
X153561906Y-105528571D01*
X153657144Y-105566667D01*
X153704763Y-105642857D01*
X153704763Y-105719048D01*
X153228572Y-105795238D01*
X154561906Y-105528571D02*
X154561906Y-106176190D01*
X154514287Y-106252381D01*
X154466668Y-106290476D01*
X154371429Y-106328571D01*
X154228572Y-106328571D01*
X154133334Y-106290476D01*
X154561906Y-106023810D02*
X154466668Y-106061905D01*
X154276191Y-106061905D01*
X154180953Y-106023810D01*
X154133334Y-105985714D01*
X154085715Y-105909524D01*
X154085715Y-105680952D01*
X154133334Y-105604762D01*
X154180953Y-105566667D01*
X154276191Y-105528571D01*
X154466668Y-105528571D01*
X154561906Y-105566667D01*
X155466668Y-105528571D02*
X155466668Y-106176190D01*
X155419049Y-106252381D01*
X155371430Y-106290476D01*
X155276191Y-106328571D01*
X155133334Y-106328571D01*
X155038096Y-106290476D01*
X155466668Y-106023810D02*
X155371430Y-106061905D01*
X155180953Y-106061905D01*
X155085715Y-106023810D01*
X155038096Y-105985714D01*
X154990477Y-105909524D01*
X154990477Y-105680952D01*
X155038096Y-105604762D01*
X155085715Y-105566667D01*
X155180953Y-105528571D01*
X155371430Y-105528571D01*
X155466668Y-105566667D01*
X156085715Y-106061905D02*
X155990477Y-106023810D01*
X155942858Y-105947619D01*
X155942858Y-105261905D01*
X156895240Y-106061905D02*
X156895240Y-105642857D01*
X156847621Y-105566667D01*
X156752383Y-105528571D01*
X156561906Y-105528571D01*
X156466668Y-105566667D01*
X156895240Y-106023810D02*
X156800002Y-106061905D01*
X156561906Y-106061905D01*
X156466668Y-106023810D01*
X156419049Y-105947619D01*
X156419049Y-105871429D01*
X156466668Y-105795238D01*
X156561906Y-105757143D01*
X156800002Y-105757143D01*
X156895240Y-105719048D01*
X157371430Y-105528571D02*
X157371430Y-106061905D01*
X157371430Y-105604762D02*
X157419049Y-105566667D01*
X157514287Y-105528571D01*
X157657145Y-105528571D01*
X157752383Y-105566667D01*
X157800002Y-105642857D01*
X157800002Y-106061905D01*
X158704764Y-106061905D02*
X158704764Y-105261905D01*
X158704764Y-106023810D02*
X158609526Y-106061905D01*
X158419049Y-106061905D01*
X158323811Y-106023810D01*
X158276192Y-105985714D01*
X158228573Y-105909524D01*
X158228573Y-105680952D01*
X158276192Y-105604762D01*
X158323811Y-105566667D01*
X158419049Y-105528571D01*
X158609526Y-105528571D01*
X158704764Y-105566667D01*
X141299999Y-106962857D02*
X141442856Y-107000952D01*
X141490475Y-107039048D01*
X141538094Y-107115238D01*
X141538094Y-107229524D01*
X141490475Y-107305714D01*
X141442856Y-107343810D01*
X141347618Y-107381905D01*
X140966665Y-107381905D01*
X140966665Y-106581905D01*
X141299999Y-106581905D01*
X141395237Y-106620000D01*
X141442856Y-106658095D01*
X141490475Y-106734286D01*
X141490475Y-106810476D01*
X141442856Y-106886667D01*
X141395237Y-106924762D01*
X141299999Y-106962857D01*
X140966665Y-106962857D01*
X142395237Y-107381905D02*
X142395237Y-106962857D01*
X142347618Y-106886667D01*
X142252380Y-106848571D01*
X142061903Y-106848571D01*
X141966665Y-106886667D01*
X142395237Y-107343810D02*
X142299999Y-107381905D01*
X142061903Y-107381905D01*
X141966665Y-107343810D01*
X141919046Y-107267619D01*
X141919046Y-107191429D01*
X141966665Y-107115238D01*
X142061903Y-107077143D01*
X142299999Y-107077143D01*
X142395237Y-107039048D01*
X142157141Y-106658095D02*
X142061903Y-106620000D01*
X142014284Y-106543810D01*
X142061903Y-106467619D01*
X142157141Y-106429524D01*
X142252380Y-106467619D01*
X142299999Y-106543810D01*
X142252380Y-106620000D01*
X142157141Y-106658095D01*
X142871427Y-107381905D02*
X142871427Y-106848571D01*
X142871427Y-107000952D02*
X142919046Y-106924762D01*
X142966665Y-106886667D01*
X143061903Y-106848571D01*
X143157142Y-106848571D01*
X143919047Y-107381905D02*
X143919047Y-106581905D01*
X143919047Y-107343810D02*
X143823809Y-107381905D01*
X143633332Y-107381905D01*
X143538094Y-107343810D01*
X143490475Y-107305714D01*
X143442856Y-107229524D01*
X143442856Y-107000952D01*
X143490475Y-106924762D01*
X143538094Y-106886667D01*
X143633332Y-106848571D01*
X143823809Y-106848571D01*
X143919047Y-106886667D01*
X145680952Y-106620000D02*
X145585714Y-106581905D01*
X145442857Y-106581905D01*
X145299999Y-106620000D01*
X145204761Y-106696190D01*
X145157142Y-106772381D01*
X145109523Y-106924762D01*
X145109523Y-107039048D01*
X145157142Y-107191429D01*
X145204761Y-107267619D01*
X145299999Y-107343810D01*
X145442857Y-107381905D01*
X145538095Y-107381905D01*
X145680952Y-107343810D01*
X145728571Y-107305714D01*
X145728571Y-107039048D01*
X145538095Y-107039048D01*
X146585714Y-106848571D02*
X146585714Y-107381905D01*
X146157142Y-106848571D02*
X146157142Y-107267619D01*
X146204761Y-107343810D01*
X146299999Y-107381905D01*
X146442857Y-107381905D01*
X146538095Y-107343810D01*
X146585714Y-107305714D01*
X147014285Y-107343810D02*
X147109523Y-107381905D01*
X147299999Y-107381905D01*
X147395238Y-107343810D01*
X147442857Y-107267619D01*
X147442857Y-107229524D01*
X147395238Y-107153333D01*
X147299999Y-107115238D01*
X147157142Y-107115238D01*
X147061904Y-107077143D01*
X147014285Y-107000952D01*
X147014285Y-106962857D01*
X147061904Y-106886667D01*
X147157142Y-106848571D01*
X147299999Y-106848571D01*
X147395238Y-106886667D01*
X147728571Y-106848571D02*
X148109523Y-106848571D01*
X147871428Y-106581905D02*
X147871428Y-107267619D01*
X147919047Y-107343810D01*
X148014285Y-107381905D01*
X148109523Y-107381905D01*
X148871429Y-107381905D02*
X148871429Y-106962857D01*
X148823810Y-106886667D01*
X148728572Y-106848571D01*
X148538095Y-106848571D01*
X148442857Y-106886667D01*
X148871429Y-107343810D02*
X148776191Y-107381905D01*
X148538095Y-107381905D01*
X148442857Y-107343810D01*
X148395238Y-107267619D01*
X148395238Y-107191429D01*
X148442857Y-107115238D01*
X148538095Y-107077143D01*
X148776191Y-107077143D01*
X148871429Y-107039048D01*
X149252381Y-106848571D02*
X149490476Y-107381905D01*
X149728572Y-106848571D01*
X150871429Y-107381905D02*
X150871429Y-106581905D01*
X150871429Y-106962857D02*
X151442858Y-106962857D01*
X151442858Y-107381905D02*
X151442858Y-106581905D01*
X152061905Y-107381905D02*
X151966667Y-107343810D01*
X151919048Y-107305714D01*
X151871429Y-107229524D01*
X151871429Y-107000952D01*
X151919048Y-106924762D01*
X151966667Y-106886667D01*
X152061905Y-106848571D01*
X152204763Y-106848571D01*
X152300001Y-106886667D01*
X152347620Y-106924762D01*
X152395239Y-107000952D01*
X152395239Y-107229524D01*
X152347620Y-107305714D01*
X152300001Y-107343810D01*
X152204763Y-107381905D01*
X152061905Y-107381905D01*
X152966667Y-107381905D02*
X152871429Y-107343810D01*
X152823810Y-107267619D01*
X152823810Y-106581905D01*
X153728573Y-107343810D02*
X153633335Y-107381905D01*
X153442858Y-107381905D01*
X153347620Y-107343810D01*
X153300001Y-107267619D01*
X153300001Y-106962857D01*
X153347620Y-106886667D01*
X153442858Y-106848571D01*
X153633335Y-106848571D01*
X153728573Y-106886667D01*
X153776192Y-106962857D01*
X153776192Y-107039048D01*
X153300001Y-107115238D01*
X154966668Y-106962857D02*
X155300002Y-106962857D01*
X155442859Y-107381905D02*
X154966668Y-107381905D01*
X154966668Y-106581905D01*
X155442859Y-106581905D01*
X155871430Y-107381905D02*
X155871430Y-106848571D01*
X155871430Y-106581905D02*
X155823811Y-106620000D01*
X155871430Y-106658095D01*
X155919049Y-106620000D01*
X155871430Y-106581905D01*
X155871430Y-106658095D01*
X156776192Y-107381905D02*
X156776192Y-106581905D01*
X156776192Y-107343810D02*
X156680954Y-107381905D01*
X156490477Y-107381905D01*
X156395239Y-107343810D01*
X156347620Y-107305714D01*
X156300001Y-107229524D01*
X156300001Y-107000952D01*
X156347620Y-106924762D01*
X156395239Y-106886667D01*
X156490477Y-106848571D01*
X156680954Y-106848571D01*
X156776192Y-106886667D01*
X157633335Y-107343810D02*
X157538097Y-107381905D01*
X157347620Y-107381905D01*
X157252382Y-107343810D01*
X157204763Y-107267619D01*
X157204763Y-106962857D01*
X157252382Y-106886667D01*
X157347620Y-106848571D01*
X157538097Y-106848571D01*
X157633335Y-106886667D01*
X157680954Y-106962857D01*
X157680954Y-107039048D01*
X157204763Y-107115238D01*
D12*
X113421429Y-106492857D02*
X114135714Y-105992857D01*
X113421429Y-105635714D02*
X114921429Y-105635714D01*
X114921429Y-106207142D01*
X114850000Y-106350000D01*
X114778571Y-106421428D01*
X114635714Y-106492857D01*
X114421429Y-106492857D01*
X114278571Y-106421428D01*
X114207143Y-106350000D01*
X114135714Y-106207142D01*
X114135714Y-105635714D01*
X114921429Y-107135714D02*
X113707143Y-107135714D01*
X113564286Y-107207142D01*
X113492857Y-107278571D01*
X113421429Y-107421428D01*
X113421429Y-107707142D01*
X113492857Y-107850000D01*
X113564286Y-107921428D01*
X113707143Y-107992857D01*
X114921429Y-107992857D01*
X113421429Y-108707143D02*
X114921429Y-108707143D01*
X113421429Y-109564286D01*
X114921429Y-109564286D01*
D11*
X112500000Y-105400000D02*
X111500000Y-105400000D01*
X112500000Y-109800000D02*
X112500000Y-105400000D01*
X111400000Y-109800000D02*
X112500000Y-109800000D01*
D12*
X104607143Y-107092858D02*
X104607143Y-107592858D01*
X103821429Y-107807144D02*
X103821429Y-107092858D01*
X105321429Y-107092858D01*
X105321429Y-107807144D01*
X103821429Y-109307144D02*
X104535714Y-108807144D01*
X103821429Y-108450001D02*
X105321429Y-108450001D01*
X105321429Y-109021429D01*
X105250000Y-109164287D01*
X105178571Y-109235715D01*
X105035714Y-109307144D01*
X104821429Y-109307144D01*
X104678571Y-109235715D01*
X104607143Y-109164287D01*
X104535714Y-109021429D01*
X104535714Y-108450001D01*
X104250000Y-109878572D02*
X104250000Y-110592858D01*
X103821429Y-109735715D02*
X105321429Y-110235715D01*
X103821429Y-110735715D01*
X103892857Y-111164286D02*
X103821429Y-111378572D01*
X103821429Y-111735715D01*
X103892857Y-111878572D01*
X103964286Y-111950001D01*
X104107143Y-112021429D01*
X104250000Y-112021429D01*
X104392857Y-111950001D01*
X104464286Y-111878572D01*
X104535714Y-111735715D01*
X104607143Y-111450001D01*
X104678571Y-111307143D01*
X104750000Y-111235715D01*
X104892857Y-111164286D01*
X105035714Y-111164286D01*
X105178571Y-111235715D01*
X105250000Y-111307143D01*
X105321429Y-111450001D01*
X105321429Y-111807143D01*
X105250000Y-112021429D01*
X104607143Y-112664286D02*
X104607143Y-113164286D01*
X103821429Y-113378572D02*
X103821429Y-112664286D01*
X105321429Y-112664286D01*
X105321429Y-113378572D01*
D11*
X106100000Y-112400000D02*
X106900000Y-112400000D01*
X106100000Y-108000000D02*
X106100000Y-112400000D01*
X107000000Y-108000000D02*
X106100000Y-108000000D01*
X170000000Y-102000000D02*
X174300000Y-102000000D01*
X170000000Y-159000000D02*
X174300000Y-159000000D01*
X100700000Y-159000000D02*
X100800000Y-159000000D01*
X105000000Y-159000000D02*
X100700000Y-159000000D01*
X105000000Y-102000000D02*
X100700000Y-102000000D01*
D12*
X107321429Y-149392857D02*
X108821429Y-149392857D01*
X108107143Y-149392857D02*
X108107143Y-150250000D01*
X107321429Y-150250000D02*
X108821429Y-150250000D01*
X107392857Y-151535714D02*
X107321429Y-151392857D01*
X107321429Y-151107143D01*
X107392857Y-150964286D01*
X107535714Y-150892857D01*
X108107143Y-150892857D01*
X108250000Y-150964286D01*
X108321429Y-151107143D01*
X108321429Y-151392857D01*
X108250000Y-151535714D01*
X108107143Y-151607143D01*
X107964286Y-151607143D01*
X107821429Y-150892857D01*
X107321429Y-152464286D02*
X107392857Y-152321428D01*
X107535714Y-152250000D01*
X108821429Y-152250000D01*
X107321429Y-153035714D02*
X108321429Y-153035714D01*
X108821429Y-153035714D02*
X108750000Y-152964285D01*
X108678571Y-153035714D01*
X108750000Y-153107142D01*
X108821429Y-153035714D01*
X108678571Y-153035714D01*
X107321429Y-153964286D02*
X107392857Y-153821428D01*
X107464286Y-153750000D01*
X107607143Y-153678571D01*
X108035714Y-153678571D01*
X108178571Y-153750000D01*
X108250000Y-153821428D01*
X108321429Y-153964286D01*
X108321429Y-154178571D01*
X108250000Y-154321428D01*
X108178571Y-154392857D01*
X108035714Y-154464286D01*
X107607143Y-154464286D01*
X107464286Y-154392857D01*
X107392857Y-154321428D01*
X107321429Y-154178571D01*
X107321429Y-153964286D01*
X107392857Y-155035714D02*
X107321429Y-155178571D01*
X107321429Y-155464286D01*
X107392857Y-155607143D01*
X107535714Y-155678571D01*
X107607143Y-155678571D01*
X107750000Y-155607143D01*
X107821429Y-155464286D01*
X107821429Y-155250000D01*
X107892857Y-155107143D01*
X108035714Y-155035714D01*
X108107143Y-155035714D01*
X108250000Y-155107143D01*
X108321429Y-155250000D01*
X108321429Y-155464286D01*
X108250000Y-155607143D01*
X104921429Y-147857144D02*
X104921429Y-147142858D01*
X106421429Y-147142858D01*
X104921429Y-149000001D02*
X105707143Y-149000001D01*
X105850000Y-148928572D01*
X105921429Y-148785715D01*
X105921429Y-148500001D01*
X105850000Y-148357144D01*
X104992857Y-149000001D02*
X104921429Y-148857144D01*
X104921429Y-148500001D01*
X104992857Y-148357144D01*
X105135714Y-148285715D01*
X105278571Y-148285715D01*
X105421429Y-148357144D01*
X105492857Y-148500001D01*
X105492857Y-148857144D01*
X105564286Y-149000001D01*
X104992857Y-149642858D02*
X104921429Y-149785715D01*
X104921429Y-150071430D01*
X104992857Y-150214287D01*
X105135714Y-150285715D01*
X105207143Y-150285715D01*
X105350000Y-150214287D01*
X105421429Y-150071430D01*
X105421429Y-149857144D01*
X105492857Y-149714287D01*
X105635714Y-149642858D01*
X105707143Y-149642858D01*
X105850000Y-149714287D01*
X105921429Y-149857144D01*
X105921429Y-150071430D01*
X105850000Y-150214287D01*
X104992857Y-151500001D02*
X104921429Y-151357144D01*
X104921429Y-151071430D01*
X104992857Y-150928573D01*
X105135714Y-150857144D01*
X105707143Y-150857144D01*
X105850000Y-150928573D01*
X105921429Y-151071430D01*
X105921429Y-151357144D01*
X105850000Y-151500001D01*
X105707143Y-151571430D01*
X105564286Y-151571430D01*
X105421429Y-150857144D01*
X104921429Y-152214287D02*
X105921429Y-152214287D01*
X105635714Y-152214287D02*
X105778571Y-152285715D01*
X105850000Y-152357144D01*
X105921429Y-152500001D01*
X105921429Y-152642858D01*
X104921429Y-154285715D02*
X106421429Y-154285715D01*
X106421429Y-154642858D01*
X106350000Y-154857143D01*
X106207143Y-155000001D01*
X106064286Y-155071429D01*
X105778571Y-155142858D01*
X105564286Y-155142858D01*
X105278571Y-155071429D01*
X105135714Y-155000001D01*
X104992857Y-154857143D01*
X104921429Y-154642858D01*
X104921429Y-154285715D01*
X105350000Y-155714286D02*
X105350000Y-156428572D01*
X104921429Y-155571429D02*
X106421429Y-156071429D01*
X104921429Y-156571429D01*
X105064286Y-157928572D02*
X104992857Y-157857143D01*
X104921429Y-157642857D01*
X104921429Y-157500000D01*
X104992857Y-157285715D01*
X105135714Y-157142857D01*
X105278571Y-157071429D01*
X105564286Y-157000000D01*
X105778571Y-157000000D01*
X106064286Y-157071429D01*
X106207143Y-157142857D01*
X106350000Y-157285715D01*
X106421429Y-157500000D01*
X106421429Y-157642857D01*
X106350000Y-157857143D01*
X106278571Y-157928572D01*
X102521429Y-149035715D02*
X103235714Y-148535715D01*
X102521429Y-148178572D02*
X104021429Y-148178572D01*
X104021429Y-148750000D01*
X103950000Y-148892858D01*
X103878571Y-148964286D01*
X103735714Y-149035715D01*
X103521429Y-149035715D01*
X103378571Y-148964286D01*
X103307143Y-148892858D01*
X103235714Y-148750000D01*
X103235714Y-148178572D01*
X102592857Y-150250000D02*
X102521429Y-150107143D01*
X102521429Y-149821429D01*
X102592857Y-149678572D01*
X102735714Y-149607143D01*
X103307143Y-149607143D01*
X103450000Y-149678572D01*
X103521429Y-149821429D01*
X103521429Y-150107143D01*
X103450000Y-150250000D01*
X103307143Y-150321429D01*
X103164286Y-150321429D01*
X103021429Y-149607143D01*
X103521429Y-150821429D02*
X102521429Y-151178572D01*
X103521429Y-151535714D01*
X102664286Y-152107143D02*
X102592857Y-152178571D01*
X102521429Y-152107143D01*
X102592857Y-152035714D01*
X102664286Y-152107143D01*
X102521429Y-152107143D01*
X102521429Y-154750000D02*
X102521429Y-153892857D01*
X102521429Y-154321429D02*
X104021429Y-154321429D01*
X103807143Y-154178572D01*
X103664286Y-154035714D01*
X103592857Y-153892857D01*
X102664286Y-155392857D02*
X102592857Y-155464285D01*
X102521429Y-155392857D01*
X102592857Y-155321428D01*
X102664286Y-155392857D01*
X102521429Y-155392857D01*
X104021429Y-156392857D02*
X104021429Y-156535714D01*
X103950000Y-156678571D01*
X103878571Y-156750000D01*
X103735714Y-156821429D01*
X103450000Y-156892857D01*
X103092857Y-156892857D01*
X102807143Y-156821429D01*
X102664286Y-156750000D01*
X102592857Y-156678571D01*
X102521429Y-156535714D01*
X102521429Y-156392857D01*
X102592857Y-156250000D01*
X102664286Y-156178571D01*
X102807143Y-156107143D01*
X103092857Y-156035714D01*
X103450000Y-156035714D01*
X103735714Y-156107143D01*
X103878571Y-156178571D01*
X103950000Y-156250000D01*
X104021429Y-156392857D01*
D11*
X105000000Y-159000000D02*
X170000000Y-159000000D01*
X170000000Y-102000000D02*
X105000000Y-102000000D01*
D10*
X148200000Y-142400000D02*
X148200000Y-142750000D01*
X148200000Y-142750000D02*
X149800000Y-142750000D01*
X149800000Y-142750000D02*
X149800000Y-142400000D01*
D13*
X147000000Y-142550000D02*
X146000000Y-142550000D01*
X147025000Y-142525000D02*
X147025000Y-142380000D01*
D14*
X148438000Y-143526000D02*
G75*
G03X148438000Y-143526000I-254000J0D01*
G01*
D13*
X151275000Y-142375000D02*
X151275000Y-142520000D01*
X151275000Y-147525000D02*
X151275000Y-147380000D01*
X147125000Y-147525000D02*
X147125000Y-147380000D01*
X147125000Y-142375000D02*
X151275000Y-142375000D01*
X147125000Y-147525000D02*
X151275000Y-147525000D01*
X132000000Y-148950000D02*
X131000000Y-148950000D01*
X131000000Y-150650000D02*
X132000000Y-150650000D01*
X124336000Y-143696000D02*
X124336000Y-142680000D01*
D14*
X124796000Y-141410000D02*
G75*
G03X124796000Y-141410000I-206000J0D01*
G01*
D13*
X124336000Y-142680000D02*
X123320000Y-141664000D01*
X123225000Y-132425000D02*
X124300000Y-132425000D01*
X133575000Y-132425000D02*
X132500000Y-132425000D01*
X133575000Y-142775000D02*
X132500000Y-142775000D01*
X133575000Y-142775000D02*
X133575000Y-141700000D01*
X133575000Y-132425000D02*
X133575000Y-133500000D01*
X123225000Y-132425000D02*
X123225000Y-133500000D01*
X124356000Y-115876000D02*
X124356000Y-112828000D01*
X124356000Y-112828000D02*
X117244000Y-112828000D01*
X117244000Y-112828000D02*
X117244000Y-115876000D01*
X124356000Y-118924000D02*
X124356000Y-119686000D01*
X124356000Y-119686000D02*
X122832000Y-121972000D01*
X122832000Y-121972000D02*
X118768000Y-121972000D01*
X118768000Y-121972000D02*
X117244000Y-119686000D01*
X117244000Y-119686000D02*
X117244000Y-118924000D01*
X142675000Y-113300000D02*
X142675000Y-114300000D01*
X141325000Y-114300000D02*
X141325000Y-113300000D01*
X113750000Y-119100000D02*
X114750000Y-119100000D01*
X114750000Y-117400000D02*
X113750000Y-117400000D01*
X108175000Y-141550000D02*
X108175000Y-141050000D01*
X107225000Y-141050000D02*
X107225000Y-141550000D01*
X114500000Y-113225000D02*
X115000000Y-113225000D01*
X115000000Y-112275000D02*
X114500000Y-112275000D01*
X120100000Y-110150000D02*
X119100000Y-110150000D01*
X119100000Y-111850000D02*
X120100000Y-111850000D01*
X126100000Y-123350000D02*
X125100000Y-123350000D01*
X125100000Y-125050000D02*
X126100000Y-125050000D01*
X122750000Y-109700000D02*
X122750000Y-110700000D01*
X124450000Y-110700000D02*
X124450000Y-109700000D01*
X138650000Y-120300000D02*
X138650000Y-119300000D01*
X136950000Y-119300000D02*
X136950000Y-120300000D01*
X133900000Y-124050000D02*
X134900000Y-124050000D01*
X134900000Y-122350000D02*
X133900000Y-122350000D01*
X143450000Y-133625000D02*
X142950000Y-133625000D01*
X142950000Y-134575000D02*
X143450000Y-134575000D01*
X140550000Y-128700000D02*
X140550000Y-129700000D01*
X142250000Y-129700000D02*
X142250000Y-128700000D01*
X140750000Y-141825000D02*
X140250000Y-141825000D01*
X140250000Y-142775000D02*
X140750000Y-142775000D01*
X143625000Y-115350000D02*
X143625000Y-115850000D01*
X144575000Y-115850000D02*
X144575000Y-115350000D01*
X145525000Y-148850000D02*
X145525000Y-149350000D01*
X146475000Y-149350000D02*
X146475000Y-148850000D01*
X154150000Y-143575000D02*
X154650000Y-143575000D01*
X154650000Y-142625000D02*
X154150000Y-142625000D01*
X154375000Y-130450000D02*
X154375000Y-129950000D01*
X153425000Y-129950000D02*
X153425000Y-130450000D01*
X144575000Y-130250000D02*
X144575000Y-129750000D01*
X143625000Y-129750000D02*
X143625000Y-130250000D01*
X154575000Y-115050000D02*
X154575000Y-114550000D01*
X153625000Y-114550000D02*
X153625000Y-115050000D01*
X120150000Y-136875000D02*
X120650000Y-136875000D01*
X120650000Y-135925000D02*
X120150000Y-135925000D01*
X135325000Y-136750000D02*
X135325000Y-137250000D01*
X136275000Y-137250000D02*
X136275000Y-136750000D01*
X125725000Y-129350000D02*
X125725000Y-129850000D01*
X126675000Y-129850000D02*
X126675000Y-129350000D01*
X130675000Y-145850000D02*
X130675000Y-145350000D01*
X129725000Y-145350000D02*
X129725000Y-145850000D01*
X122050000Y-128200000D02*
X122050000Y-129200000D01*
X123750000Y-129200000D02*
X123750000Y-128200000D01*
X120150000Y-139275000D02*
X120650000Y-139275000D01*
X120650000Y-138325000D02*
X120150000Y-138325000D01*
X127675000Y-145850000D02*
X127675000Y-145350000D01*
X126725000Y-145350000D02*
X126725000Y-145850000D01*
X136275000Y-141850000D02*
X136275000Y-141350000D01*
X135325000Y-141350000D02*
X135325000Y-141850000D01*
X120150000Y-141875000D02*
X120650000Y-141875000D01*
X120650000Y-140925000D02*
X120150000Y-140925000D01*
X121250000Y-153575000D02*
X121750000Y-153575000D01*
X121750000Y-152625000D02*
X121250000Y-152625000D01*
X126950000Y-151100000D02*
X126950000Y-150100000D01*
X125250000Y-150100000D02*
X125250000Y-151100000D01*
X109625000Y-141050000D02*
X109625000Y-141550000D01*
X110575000Y-141550000D02*
X110575000Y-141050000D01*
X125075000Y-145850000D02*
X125075000Y-145350000D01*
X124125000Y-145350000D02*
X124125000Y-145850000D01*
X100650000Y-120900000D02*
X100650000Y-122800000D01*
X101750000Y-120900000D02*
X101750000Y-122800000D01*
X101200000Y-121800000D02*
X101200000Y-122250000D01*
X101450000Y-121750000D02*
X100950000Y-121750000D01*
X101200000Y-121750000D02*
X101450000Y-122000000D01*
X101450000Y-122000000D02*
X100950000Y-122000000D01*
X100950000Y-122000000D02*
X101200000Y-121750000D01*
X101750000Y-142100000D02*
X101750000Y-140200000D01*
X100650000Y-142100000D02*
X100650000Y-140200000D01*
X101200000Y-141200000D02*
X101200000Y-140750000D01*
X100950000Y-141250000D02*
X101450000Y-141250000D01*
X101200000Y-141250000D02*
X100950000Y-141000000D01*
X100950000Y-141000000D02*
X101450000Y-141000000D01*
X101450000Y-141000000D02*
X101200000Y-141250000D01*
X114750000Y-122325000D02*
X112750000Y-122325000D01*
X112750000Y-120175000D02*
X114750000Y-120175000D01*
X115925000Y-114750000D02*
X115925000Y-115750000D01*
X114575000Y-115750000D02*
X114575000Y-114750000D01*
X127725000Y-150700000D02*
X127725000Y-149700000D01*
X129075000Y-149700000D02*
X129075000Y-150700000D01*
X181300000Y-149400000D02*
X181300000Y-111300000D01*
X181200000Y-111200000D02*
X169000000Y-111200000D01*
X181400000Y-149400000D02*
X169200000Y-149400000D01*
X176100000Y-103600000D02*
X176100000Y-109700000D01*
X176100000Y-103900000D02*
X176100000Y-110000000D01*
X176000000Y-103600000D02*
X163800000Y-103600000D01*
X176100000Y-150700000D02*
X176100000Y-156800000D01*
X176100000Y-156800000D02*
X176100000Y-157000000D01*
X176100000Y-157000000D02*
X163900000Y-157000000D01*
X172700000Y-149400000D02*
X163810000Y-149400000D01*
X172700000Y-111300000D02*
X163810000Y-111300000D01*
X172800000Y-156920000D02*
X172800000Y-149300000D01*
X172700000Y-103680000D02*
X172700000Y-111300000D01*
X163910000Y-149300000D02*
X163910000Y-156920000D01*
X176105000Y-110030000D02*
X176105000Y-150670000D01*
X163810000Y-103680000D02*
X163810000Y-111300000D01*
X107930000Y-107670000D02*
X107930000Y-112750000D01*
X107930000Y-112750000D02*
X110470000Y-112750000D01*
X110470000Y-112750000D02*
X110470000Y-107670000D01*
X110750000Y-104850000D02*
X110750000Y-106400000D01*
X110470000Y-107670000D02*
X107930000Y-107670000D01*
X107650000Y-106400000D02*
X107650000Y-104850000D01*
X107650000Y-104850000D02*
X110750000Y-104850000D01*
X120100000Y-135275000D02*
X119100000Y-135275000D01*
X119100000Y-133925000D02*
X120100000Y-133925000D01*
X118100000Y-132125000D02*
X119100000Y-132125000D01*
X119100000Y-133475000D02*
X118100000Y-133475000D01*
X158504000Y-112609000D02*
X159504000Y-112609000D01*
X159504000Y-113959000D02*
X158504000Y-113959000D01*
X158504000Y-114387000D02*
X159504000Y-114387000D01*
X159504000Y-115737000D02*
X158504000Y-115737000D01*
X158504000Y-116165000D02*
X159504000Y-116165000D01*
X159504000Y-117515000D02*
X158504000Y-117515000D01*
X158504000Y-117943000D02*
X159504000Y-117943000D01*
X159504000Y-119293000D02*
X158504000Y-119293000D01*
X158504000Y-119721000D02*
X159504000Y-119721000D01*
X159504000Y-121071000D02*
X158504000Y-121071000D01*
X158504000Y-121499000D02*
X159504000Y-121499000D01*
X159504000Y-122849000D02*
X158504000Y-122849000D01*
X158504000Y-123277000D02*
X159504000Y-123277000D01*
X159504000Y-124627000D02*
X158504000Y-124627000D01*
X158504000Y-125055000D02*
X159504000Y-125055000D01*
X159504000Y-126405000D02*
X158504000Y-126405000D01*
X158504000Y-126833000D02*
X159504000Y-126833000D01*
X159504000Y-128183000D02*
X158504000Y-128183000D01*
X158504000Y-128611000D02*
X159504000Y-128611000D01*
X159504000Y-129961000D02*
X158504000Y-129961000D01*
X158504000Y-130389000D02*
X159504000Y-130389000D01*
X159504000Y-131739000D02*
X158504000Y-131739000D01*
X158504000Y-132167000D02*
X159504000Y-132167000D01*
X159504000Y-133517000D02*
X158504000Y-133517000D01*
X158504000Y-146391000D02*
X159504000Y-146391000D01*
X159504000Y-147741000D02*
X158504000Y-147741000D01*
X136200000Y-127225000D02*
X137200000Y-127225000D01*
X137200000Y-128575000D02*
X136200000Y-128575000D01*
X136200000Y-129225000D02*
X137200000Y-129225000D01*
X137200000Y-130575000D02*
X136200000Y-130575000D01*
X140925000Y-145300000D02*
X140925000Y-144300000D01*
X142275000Y-144300000D02*
X142275000Y-145300000D01*
X144275000Y-144300000D02*
X144275000Y-145300000D01*
X142925000Y-145300000D02*
X142925000Y-144300000D01*
X155075000Y-124700000D02*
X155075000Y-125700000D01*
X153725000Y-125700000D02*
X153725000Y-124700000D01*
X146825000Y-138300000D02*
X146825000Y-137300000D01*
X148175000Y-137300000D02*
X148175000Y-138300000D01*
X151500000Y-127275000D02*
X150500000Y-127275000D01*
X150500000Y-125925000D02*
X151500000Y-125925000D01*
X146825000Y-136100000D02*
X146825000Y-135100000D01*
X148175000Y-135100000D02*
X148175000Y-136100000D01*
X147200000Y-141375000D02*
X146200000Y-141375000D01*
X146200000Y-140025000D02*
X147200000Y-140025000D01*
X150100000Y-141375000D02*
X149100000Y-141375000D01*
X149100000Y-140025000D02*
X150100000Y-140025000D01*
X149825000Y-135700000D02*
X149825000Y-134700000D01*
X151175000Y-134700000D02*
X151175000Y-135700000D01*
X145700000Y-124125000D02*
X146700000Y-124125000D01*
X146700000Y-125475000D02*
X145700000Y-125475000D01*
X155275000Y-132700000D02*
X155275000Y-133700000D01*
X153925000Y-133700000D02*
X153925000Y-132700000D01*
X146700000Y-127275000D02*
X145700000Y-127275000D01*
X145700000Y-125925000D02*
X146700000Y-125925000D01*
X155875000Y-148100000D02*
X155875000Y-149100000D01*
X154525000Y-149100000D02*
X154525000Y-148100000D01*
X154525000Y-146100000D02*
X154525000Y-145100000D01*
X155875000Y-145100000D02*
X155875000Y-146100000D01*
X149800000Y-120525000D02*
X150800000Y-120525000D01*
X150800000Y-121875000D02*
X149800000Y-121875000D01*
X139325000Y-117300000D02*
X139325000Y-116300000D01*
X140675000Y-116300000D02*
X140675000Y-117300000D01*
X155875000Y-117200000D02*
X155875000Y-118200000D01*
X154525000Y-118200000D02*
X154525000Y-117200000D01*
X155525000Y-114900000D02*
X155525000Y-113900000D01*
X156875000Y-113900000D02*
X156875000Y-114900000D01*
X142675000Y-116300000D02*
X142675000Y-117300000D01*
X141325000Y-117300000D02*
X141325000Y-116300000D01*
X150500000Y-110325000D02*
X151500000Y-110325000D01*
X151500000Y-111675000D02*
X150500000Y-111675000D01*
X145600000Y-118725000D02*
X146600000Y-118725000D01*
X146600000Y-120075000D02*
X145600000Y-120075000D01*
X133300000Y-152825000D02*
X134300000Y-152825000D01*
X134300000Y-154175000D02*
X133300000Y-154175000D01*
X129625000Y-155900000D02*
X129625000Y-154900000D01*
X130975000Y-154900000D02*
X130975000Y-155900000D01*
D10*
X117900000Y-130150000D02*
X117900000Y-130700000D01*
D14*
X118180000Y-129700000D02*
G75*
G03X118180000Y-129700000I-30000J0D01*
G01*
D10*
X120500000Y-130150000D02*
X120750000Y-130150000D01*
X120750000Y-130150000D02*
X120750000Y-128450000D01*
X120750000Y-128450000D02*
X120500000Y-128450000D01*
X117900000Y-130150000D02*
X117700000Y-130150000D01*
X117700000Y-130150000D02*
X117700000Y-128450000D01*
X117700000Y-128450000D02*
X117900000Y-128450000D01*
D13*
X138250240Y-134299160D02*
X138250240Y-134250900D01*
X137549200Y-131500180D02*
X138250240Y-131500180D01*
X138250240Y-131500180D02*
X138250240Y-131749100D01*
X138250240Y-134299160D02*
X138250240Y-134499820D01*
X138250240Y-134499820D02*
X137549200Y-134499820D01*
D15*
X129540000Y-107470000D02*
G75*
G03X129540000Y-107470000I-230000J0D01*
G01*
D13*
X135660000Y-106200000D02*
X135660000Y-121440000D01*
X135660000Y-121440000D02*
X128040000Y-121440000D01*
X128040000Y-121440000D02*
X128040000Y-106200000D01*
X128040000Y-106200000D02*
X135660000Y-106200000D01*
D16*
X142808000Y-137438000D02*
G75*
G03X142808000Y-137438000I-192000J0D01*
G01*
D13*
X143275000Y-136525000D02*
X142975000Y-136525000D01*
X143275000Y-139875000D02*
X142975000Y-139875000D01*
X139925000Y-139875000D02*
X140225000Y-139875000D01*
X139925000Y-136525000D02*
X140225000Y-136525000D01*
X143275000Y-136525000D02*
X143275000Y-139875000D01*
X139925000Y-136525000D02*
X139925000Y-139875000D01*
X142975000Y-136525000D02*
X142975000Y-135300000D01*
D14*
X147984000Y-129076000D02*
G75*
G03X147984000Y-129076000I-254000J0D01*
G01*
D13*
X146675000Y-127975000D02*
X146675000Y-128200000D01*
X151325000Y-127975000D02*
X151325000Y-128200000D01*
X151325000Y-133225000D02*
X151325000Y-133000000D01*
X146675000Y-133225000D02*
X146675000Y-133000000D01*
X146675000Y-127975000D02*
X151325000Y-127975000D01*
X146675000Y-133225000D02*
X151325000Y-133225000D01*
X146675000Y-128200000D02*
X145325000Y-128200000D01*
D14*
X148082000Y-113792000D02*
G75*
G03X148082000Y-113792000I-254000J0D01*
G01*
D13*
X146773000Y-112691000D02*
X146773000Y-112916000D01*
X151423000Y-112691000D02*
X151423000Y-112916000D01*
X151423000Y-117941000D02*
X151423000Y-117716000D01*
X146773000Y-117941000D02*
X146773000Y-117716000D01*
X146773000Y-112691000D02*
X151423000Y-112691000D01*
X146773000Y-117941000D02*
X151423000Y-117941000D01*
X146773000Y-112916000D02*
X145423000Y-112916000D01*
X123403620Y-148068992D02*
X115131008Y-139796380D01*
X111596380Y-143331008D02*
X119868992Y-151603620D01*
X115131008Y-139796380D02*
X114531127Y-140396261D01*
X111596380Y-143331008D02*
X112196261Y-142731127D01*
X123403620Y-148068992D02*
X122803739Y-148668873D01*
X119868992Y-151603620D02*
X120468873Y-151003739D01*
X107900000Y-125384000D02*
X99264000Y-125384000D01*
X116282000Y-125384000D02*
X111202000Y-125384000D01*
X107900000Y-137576000D02*
X99264000Y-137576000D01*
X116282000Y-137576000D02*
X111202000Y-137576000D01*
X99264000Y-137576000D02*
X99264000Y-125384000D01*
X116282000Y-125384000D02*
X116282000Y-137576000D01*
X133300000Y-154625000D02*
X134300000Y-154625000D01*
X134300000Y-155975000D02*
X133300000Y-155975000D01*
X127725000Y-155900000D02*
X127725000Y-154900000D01*
X129075000Y-154900000D02*
X129075000Y-155900000D01*
X148738095Y-148002381D02*
X148738095Y-148811905D01*
X148785714Y-148907143D01*
X148833333Y-148954762D01*
X148928571Y-149002381D01*
X149119048Y-149002381D01*
X149214286Y-148954762D01*
X149261905Y-148907143D01*
X149309524Y-148811905D01*
X149309524Y-148002381D01*
X149690476Y-148002381D02*
X150357143Y-148002381D01*
X149928571Y-149002381D01*
X134057143Y-150257143D02*
X134009524Y-150304762D01*
X133866667Y-150352381D01*
X133771429Y-150352381D01*
X133628571Y-150304762D01*
X133533333Y-150209524D01*
X133485714Y-150114286D01*
X133438095Y-149923810D01*
X133438095Y-149780952D01*
X133485714Y-149590476D01*
X133533333Y-149495238D01*
X133628571Y-149400000D01*
X133771429Y-149352381D01*
X133866667Y-149352381D01*
X134009524Y-149400000D01*
X134057143Y-149447619D01*
X134438095Y-149447619D02*
X134485714Y-149400000D01*
X134580952Y-149352381D01*
X134819048Y-149352381D01*
X134914286Y-149400000D01*
X134961905Y-149447619D01*
X135009524Y-149542857D01*
X135009524Y-149638095D01*
X134961905Y-149780952D01*
X134390476Y-150352381D01*
X135009524Y-150352381D01*
X135342857Y-149352381D02*
X135961905Y-149352381D01*
X135628571Y-149733333D01*
X135771429Y-149733333D01*
X135866667Y-149780952D01*
X135914286Y-149828571D01*
X135961905Y-149923810D01*
X135961905Y-150161905D01*
X135914286Y-150257143D01*
X135866667Y-150304762D01*
X135771429Y-150352381D01*
X135485714Y-150352381D01*
X135390476Y-150304762D01*
X135342857Y-150257143D01*
X122238095Y-142352381D02*
X122238095Y-143161905D01*
X122285714Y-143257143D01*
X122333333Y-143304762D01*
X122428571Y-143352381D01*
X122619048Y-143352381D01*
X122714286Y-143304762D01*
X122761905Y-143257143D01*
X122809524Y-143161905D01*
X122809524Y-142352381D01*
X123333333Y-143352381D02*
X123523809Y-143352381D01*
X123619048Y-143304762D01*
X123666667Y-143257143D01*
X123761905Y-143114286D01*
X123809524Y-142923810D01*
X123809524Y-142542857D01*
X123761905Y-142447619D01*
X123714286Y-142400000D01*
X123619048Y-142352381D01*
X123428571Y-142352381D01*
X123333333Y-142400000D01*
X123285714Y-142447619D01*
X123238095Y-142542857D01*
X123238095Y-142780952D01*
X123285714Y-142876190D01*
X123333333Y-142923810D01*
X123428571Y-142971429D01*
X123619048Y-142971429D01*
X123714286Y-142923810D01*
X123761905Y-142876190D01*
X123809524Y-142780952D01*
X119038095Y-122252381D02*
X119038095Y-123061905D01*
X119085714Y-123157143D01*
X119133333Y-123204762D01*
X119228571Y-123252381D01*
X119419048Y-123252381D01*
X119514286Y-123204762D01*
X119561905Y-123157143D01*
X119609524Y-123061905D01*
X119609524Y-122252381D01*
X120038095Y-122347619D02*
X120085714Y-122300000D01*
X120180952Y-122252381D01*
X120419048Y-122252381D01*
X120514286Y-122300000D01*
X120561905Y-122347619D01*
X120609524Y-122442857D01*
X120609524Y-122538095D01*
X120561905Y-122680952D01*
X119990476Y-123252381D01*
X120609524Y-123252381D01*
X142452381Y-111442857D02*
X141976190Y-111776191D01*
X142452381Y-112014286D02*
X141452381Y-112014286D01*
X141452381Y-111633333D01*
X141500000Y-111538095D01*
X141547619Y-111490476D01*
X141642857Y-111442857D01*
X141785714Y-111442857D01*
X141880952Y-111490476D01*
X141928571Y-111538095D01*
X141976190Y-111633333D01*
X141976190Y-112014286D01*
X141452381Y-111109524D02*
X141452381Y-110490476D01*
X141833333Y-110823810D01*
X141833333Y-110680952D01*
X141880952Y-110585714D01*
X141928571Y-110538095D01*
X142023810Y-110490476D01*
X142261905Y-110490476D01*
X142357143Y-110538095D01*
X142404762Y-110585714D01*
X142452381Y-110680952D01*
X142452381Y-110966667D01*
X142404762Y-111061905D01*
X142357143Y-111109524D01*
X141452381Y-109585714D02*
X141452381Y-110061905D01*
X141928571Y-110109524D01*
X141880952Y-110061905D01*
X141833333Y-109966667D01*
X141833333Y-109728571D01*
X141880952Y-109633333D01*
X141928571Y-109585714D01*
X142023810Y-109538095D01*
X142261905Y-109538095D01*
X142357143Y-109585714D01*
X142404762Y-109633333D01*
X142452381Y-109728571D01*
X142452381Y-109966667D01*
X142404762Y-110061905D01*
X142357143Y-110109524D01*
X111333334Y-118607143D02*
X111285715Y-118654762D01*
X111142858Y-118702381D01*
X111047620Y-118702381D01*
X110904762Y-118654762D01*
X110809524Y-118559524D01*
X110761905Y-118464286D01*
X110714286Y-118273810D01*
X110714286Y-118130952D01*
X110761905Y-117940476D01*
X110809524Y-117845238D01*
X110904762Y-117750000D01*
X111047620Y-117702381D01*
X111142858Y-117702381D01*
X111285715Y-117750000D01*
X111333334Y-117797619D01*
X112285715Y-118702381D02*
X111714286Y-118702381D01*
X112000000Y-118702381D02*
X112000000Y-117702381D01*
X111904762Y-117845238D01*
X111809524Y-117940476D01*
X111714286Y-117988095D01*
X108157143Y-143666666D02*
X108204762Y-143714285D01*
X108252381Y-143857142D01*
X108252381Y-143952380D01*
X108204762Y-144095238D01*
X108109524Y-144190476D01*
X108014286Y-144238095D01*
X107823810Y-144285714D01*
X107680952Y-144285714D01*
X107490476Y-144238095D01*
X107395238Y-144190476D01*
X107300000Y-144095238D01*
X107252381Y-143952380D01*
X107252381Y-143857142D01*
X107300000Y-143714285D01*
X107347619Y-143666666D01*
X107347619Y-143285714D02*
X107300000Y-143238095D01*
X107252381Y-143142857D01*
X107252381Y-142904761D01*
X107300000Y-142809523D01*
X107347619Y-142761904D01*
X107442857Y-142714285D01*
X107538095Y-142714285D01*
X107680952Y-142761904D01*
X108252381Y-143333333D01*
X108252381Y-142714285D01*
X112333334Y-113107143D02*
X112285715Y-113154762D01*
X112142858Y-113202381D01*
X112047620Y-113202381D01*
X111904762Y-113154762D01*
X111809524Y-113059524D01*
X111761905Y-112964286D01*
X111714286Y-112773810D01*
X111714286Y-112630952D01*
X111761905Y-112440476D01*
X111809524Y-112345238D01*
X111904762Y-112250000D01*
X112047620Y-112202381D01*
X112142858Y-112202381D01*
X112285715Y-112250000D01*
X112333334Y-112297619D01*
X112666667Y-112202381D02*
X113285715Y-112202381D01*
X112952381Y-112583333D01*
X113095239Y-112583333D01*
X113190477Y-112630952D01*
X113238096Y-112678571D01*
X113285715Y-112773810D01*
X113285715Y-113011905D01*
X113238096Y-113107143D01*
X113190477Y-113154762D01*
X113095239Y-113202381D01*
X112809524Y-113202381D01*
X112714286Y-113154762D01*
X112666667Y-113107143D01*
X116633334Y-111357143D02*
X116585715Y-111404762D01*
X116442858Y-111452381D01*
X116347620Y-111452381D01*
X116204762Y-111404762D01*
X116109524Y-111309524D01*
X116061905Y-111214286D01*
X116014286Y-111023810D01*
X116014286Y-110880952D01*
X116061905Y-110690476D01*
X116109524Y-110595238D01*
X116204762Y-110500000D01*
X116347620Y-110452381D01*
X116442858Y-110452381D01*
X116585715Y-110500000D01*
X116633334Y-110547619D01*
X117490477Y-110785714D02*
X117490477Y-111452381D01*
X117252381Y-110404762D02*
X117014286Y-111119048D01*
X117633334Y-111119048D01*
X125733334Y-122857143D02*
X125685715Y-122904762D01*
X125542858Y-122952381D01*
X125447620Y-122952381D01*
X125304762Y-122904762D01*
X125209524Y-122809524D01*
X125161905Y-122714286D01*
X125114286Y-122523810D01*
X125114286Y-122380952D01*
X125161905Y-122190476D01*
X125209524Y-122095238D01*
X125304762Y-122000000D01*
X125447620Y-121952381D01*
X125542858Y-121952381D01*
X125685715Y-122000000D01*
X125733334Y-122047619D01*
X126638096Y-121952381D02*
X126161905Y-121952381D01*
X126114286Y-122428571D01*
X126161905Y-122380952D01*
X126257143Y-122333333D01*
X126495239Y-122333333D01*
X126590477Y-122380952D01*
X126638096Y-122428571D01*
X126685715Y-122523810D01*
X126685715Y-122761905D01*
X126638096Y-122857143D01*
X126590477Y-122904762D01*
X126495239Y-122952381D01*
X126257143Y-122952381D01*
X126161905Y-122904762D01*
X126114286Y-122857143D01*
X124157143Y-107366666D02*
X124204762Y-107414285D01*
X124252381Y-107557142D01*
X124252381Y-107652380D01*
X124204762Y-107795238D01*
X124109524Y-107890476D01*
X124014286Y-107938095D01*
X123823810Y-107985714D01*
X123680952Y-107985714D01*
X123490476Y-107938095D01*
X123395238Y-107890476D01*
X123300000Y-107795238D01*
X123252381Y-107652380D01*
X123252381Y-107557142D01*
X123300000Y-107414285D01*
X123347619Y-107366666D01*
X123252381Y-106509523D02*
X123252381Y-106700000D01*
X123300000Y-106795238D01*
X123347619Y-106842857D01*
X123490476Y-106938095D01*
X123680952Y-106985714D01*
X124061905Y-106985714D01*
X124157143Y-106938095D01*
X124204762Y-106890476D01*
X124252381Y-106795238D01*
X124252381Y-106604761D01*
X124204762Y-106509523D01*
X124157143Y-106461904D01*
X124061905Y-106414285D01*
X123823810Y-106414285D01*
X123728571Y-106461904D01*
X123680952Y-106509523D01*
X123633333Y-106604761D01*
X123633333Y-106795238D01*
X123680952Y-106890476D01*
X123728571Y-106938095D01*
X123823810Y-106985714D01*
X138557143Y-122766666D02*
X138604762Y-122814285D01*
X138652381Y-122957142D01*
X138652381Y-123052380D01*
X138604762Y-123195238D01*
X138509524Y-123290476D01*
X138414286Y-123338095D01*
X138223810Y-123385714D01*
X138080952Y-123385714D01*
X137890476Y-123338095D01*
X137795238Y-123290476D01*
X137700000Y-123195238D01*
X137652381Y-123052380D01*
X137652381Y-122957142D01*
X137700000Y-122814285D01*
X137747619Y-122766666D01*
X137652381Y-122433333D02*
X137652381Y-121766666D01*
X138652381Y-122195238D01*
X134133334Y-125357143D02*
X134085715Y-125404762D01*
X133942858Y-125452381D01*
X133847620Y-125452381D01*
X133704762Y-125404762D01*
X133609524Y-125309524D01*
X133561905Y-125214286D01*
X133514286Y-125023810D01*
X133514286Y-124880952D01*
X133561905Y-124690476D01*
X133609524Y-124595238D01*
X133704762Y-124500000D01*
X133847620Y-124452381D01*
X133942858Y-124452381D01*
X134085715Y-124500000D01*
X134133334Y-124547619D01*
X134704762Y-124880952D02*
X134609524Y-124833333D01*
X134561905Y-124785714D01*
X134514286Y-124690476D01*
X134514286Y-124642857D01*
X134561905Y-124547619D01*
X134609524Y-124500000D01*
X134704762Y-124452381D01*
X134895239Y-124452381D01*
X134990477Y-124500000D01*
X135038096Y-124547619D01*
X135085715Y-124642857D01*
X135085715Y-124690476D01*
X135038096Y-124785714D01*
X134990477Y-124833333D01*
X134895239Y-124880952D01*
X134704762Y-124880952D01*
X134609524Y-124928571D01*
X134561905Y-124976190D01*
X134514286Y-125071429D01*
X134514286Y-125261905D01*
X134561905Y-125357143D01*
X134609524Y-125404762D01*
X134704762Y-125452381D01*
X134895239Y-125452381D01*
X134990477Y-125404762D01*
X135038096Y-125357143D01*
X135085715Y-125261905D01*
X135085715Y-125071429D01*
X135038096Y-124976190D01*
X134990477Y-124928571D01*
X134895239Y-124880952D01*
X143033334Y-133257143D02*
X142985715Y-133304762D01*
X142842858Y-133352381D01*
X142747620Y-133352381D01*
X142604762Y-133304762D01*
X142509524Y-133209524D01*
X142461905Y-133114286D01*
X142414286Y-132923810D01*
X142414286Y-132780952D01*
X142461905Y-132590476D01*
X142509524Y-132495238D01*
X142604762Y-132400000D01*
X142747620Y-132352381D01*
X142842858Y-132352381D01*
X142985715Y-132400000D01*
X143033334Y-132447619D01*
X143509524Y-133352381D02*
X143700000Y-133352381D01*
X143795239Y-133304762D01*
X143842858Y-133257143D01*
X143938096Y-133114286D01*
X143985715Y-132923810D01*
X143985715Y-132542857D01*
X143938096Y-132447619D01*
X143890477Y-132400000D01*
X143795239Y-132352381D01*
X143604762Y-132352381D01*
X143509524Y-132400000D01*
X143461905Y-132447619D01*
X143414286Y-132542857D01*
X143414286Y-132780952D01*
X143461905Y-132876190D01*
X143509524Y-132923810D01*
X143604762Y-132971429D01*
X143795239Y-132971429D01*
X143890477Y-132923810D01*
X143938096Y-132876190D01*
X143985715Y-132780952D01*
X140157143Y-128942857D02*
X140204762Y-128990476D01*
X140252381Y-129133333D01*
X140252381Y-129228571D01*
X140204762Y-129371429D01*
X140109524Y-129466667D01*
X140014286Y-129514286D01*
X139823810Y-129561905D01*
X139680952Y-129561905D01*
X139490476Y-129514286D01*
X139395238Y-129466667D01*
X139300000Y-129371429D01*
X139252381Y-129228571D01*
X139252381Y-129133333D01*
X139300000Y-128990476D01*
X139347619Y-128942857D01*
X140252381Y-127990476D02*
X140252381Y-128561905D01*
X140252381Y-128276191D02*
X139252381Y-128276191D01*
X139395238Y-128371429D01*
X139490476Y-128466667D01*
X139538095Y-128561905D01*
X139252381Y-127371429D02*
X139252381Y-127276190D01*
X139300000Y-127180952D01*
X139347619Y-127133333D01*
X139442857Y-127085714D01*
X139633333Y-127038095D01*
X139871429Y-127038095D01*
X140061905Y-127085714D01*
X140157143Y-127133333D01*
X140204762Y-127180952D01*
X140252381Y-127276190D01*
X140252381Y-127371429D01*
X140204762Y-127466667D01*
X140157143Y-127514286D01*
X140061905Y-127561905D01*
X139871429Y-127609524D01*
X139633333Y-127609524D01*
X139442857Y-127561905D01*
X139347619Y-127514286D01*
X139300000Y-127466667D01*
X139252381Y-127371429D01*
X142457143Y-142557143D02*
X142409524Y-142604762D01*
X142266667Y-142652381D01*
X142171429Y-142652381D01*
X142028571Y-142604762D01*
X141933333Y-142509524D01*
X141885714Y-142414286D01*
X141838095Y-142223810D01*
X141838095Y-142080952D01*
X141885714Y-141890476D01*
X141933333Y-141795238D01*
X142028571Y-141700000D01*
X142171429Y-141652381D01*
X142266667Y-141652381D01*
X142409524Y-141700000D01*
X142457143Y-141747619D01*
X143409524Y-142652381D02*
X142838095Y-142652381D01*
X143123809Y-142652381D02*
X143123809Y-141652381D01*
X143028571Y-141795238D01*
X142933333Y-141890476D01*
X142838095Y-141938095D01*
X144361905Y-142652381D02*
X143790476Y-142652381D01*
X144076190Y-142652381D02*
X144076190Y-141652381D01*
X143980952Y-141795238D01*
X143885714Y-141890476D01*
X143790476Y-141938095D01*
X144457143Y-113442857D02*
X144504762Y-113490476D01*
X144552381Y-113633333D01*
X144552381Y-113728571D01*
X144504762Y-113871429D01*
X144409524Y-113966667D01*
X144314286Y-114014286D01*
X144123810Y-114061905D01*
X143980952Y-114061905D01*
X143790476Y-114014286D01*
X143695238Y-113966667D01*
X143600000Y-113871429D01*
X143552381Y-113728571D01*
X143552381Y-113633333D01*
X143600000Y-113490476D01*
X143647619Y-113442857D01*
X144552381Y-112490476D02*
X144552381Y-113061905D01*
X144552381Y-112776191D02*
X143552381Y-112776191D01*
X143695238Y-112871429D01*
X143790476Y-112966667D01*
X143838095Y-113061905D01*
X143647619Y-112109524D02*
X143600000Y-112061905D01*
X143552381Y-111966667D01*
X143552381Y-111728571D01*
X143600000Y-111633333D01*
X143647619Y-111585714D01*
X143742857Y-111538095D01*
X143838095Y-111538095D01*
X143980952Y-111585714D01*
X144552381Y-112157143D01*
X144552381Y-111538095D01*
X146357143Y-152542857D02*
X146404762Y-152590476D01*
X146452381Y-152733333D01*
X146452381Y-152828571D01*
X146404762Y-152971429D01*
X146309524Y-153066667D01*
X146214286Y-153114286D01*
X146023810Y-153161905D01*
X145880952Y-153161905D01*
X145690476Y-153114286D01*
X145595238Y-153066667D01*
X145500000Y-152971429D01*
X145452381Y-152828571D01*
X145452381Y-152733333D01*
X145500000Y-152590476D01*
X145547619Y-152542857D01*
X146452381Y-151590476D02*
X146452381Y-152161905D01*
X146452381Y-151876191D02*
X145452381Y-151876191D01*
X145595238Y-151971429D01*
X145690476Y-152066667D01*
X145738095Y-152161905D01*
X145452381Y-151257143D02*
X145452381Y-150638095D01*
X145833333Y-150971429D01*
X145833333Y-150828571D01*
X145880952Y-150733333D01*
X145928571Y-150685714D01*
X146023810Y-150638095D01*
X146261905Y-150638095D01*
X146357143Y-150685714D01*
X146404762Y-150733333D01*
X146452381Y-150828571D01*
X146452381Y-151114286D01*
X146404762Y-151209524D01*
X146357143Y-151257143D01*
X156357143Y-143457143D02*
X156309524Y-143504762D01*
X156166667Y-143552381D01*
X156071429Y-143552381D01*
X155928571Y-143504762D01*
X155833333Y-143409524D01*
X155785714Y-143314286D01*
X155738095Y-143123810D01*
X155738095Y-142980952D01*
X155785714Y-142790476D01*
X155833333Y-142695238D01*
X155928571Y-142600000D01*
X156071429Y-142552381D01*
X156166667Y-142552381D01*
X156309524Y-142600000D01*
X156357143Y-142647619D01*
X157309524Y-143552381D02*
X156738095Y-143552381D01*
X157023809Y-143552381D02*
X157023809Y-142552381D01*
X156928571Y-142695238D01*
X156833333Y-142790476D01*
X156738095Y-142838095D01*
X158166667Y-142885714D02*
X158166667Y-143552381D01*
X157928571Y-142504762D02*
X157690476Y-143219048D01*
X158309524Y-143219048D01*
X155557143Y-130742857D02*
X155604762Y-130790476D01*
X155652381Y-130933333D01*
X155652381Y-131028571D01*
X155604762Y-131171429D01*
X155509524Y-131266667D01*
X155414286Y-131314286D01*
X155223810Y-131361905D01*
X155080952Y-131361905D01*
X154890476Y-131314286D01*
X154795238Y-131266667D01*
X154700000Y-131171429D01*
X154652381Y-131028571D01*
X154652381Y-130933333D01*
X154700000Y-130790476D01*
X154747619Y-130742857D01*
X155652381Y-129790476D02*
X155652381Y-130361905D01*
X155652381Y-130076191D02*
X154652381Y-130076191D01*
X154795238Y-130171429D01*
X154890476Y-130266667D01*
X154938095Y-130361905D01*
X154652381Y-128885714D02*
X154652381Y-129361905D01*
X155128571Y-129409524D01*
X155080952Y-129361905D01*
X155033333Y-129266667D01*
X155033333Y-129028571D01*
X155080952Y-128933333D01*
X155128571Y-128885714D01*
X155223810Y-128838095D01*
X155461905Y-128838095D01*
X155557143Y-128885714D01*
X155604762Y-128933333D01*
X155652381Y-129028571D01*
X155652381Y-129266667D01*
X155604762Y-129361905D01*
X155557143Y-129409524D01*
X143557143Y-130642857D02*
X143604762Y-130690476D01*
X143652381Y-130833333D01*
X143652381Y-130928571D01*
X143604762Y-131071429D01*
X143509524Y-131166667D01*
X143414286Y-131214286D01*
X143223810Y-131261905D01*
X143080952Y-131261905D01*
X142890476Y-131214286D01*
X142795238Y-131166667D01*
X142700000Y-131071429D01*
X142652381Y-130928571D01*
X142652381Y-130833333D01*
X142700000Y-130690476D01*
X142747619Y-130642857D01*
X143652381Y-129690476D02*
X143652381Y-130261905D01*
X143652381Y-129976191D02*
X142652381Y-129976191D01*
X142795238Y-130071429D01*
X142890476Y-130166667D01*
X142938095Y-130261905D01*
X142652381Y-128833333D02*
X142652381Y-129023810D01*
X142700000Y-129119048D01*
X142747619Y-129166667D01*
X142890476Y-129261905D01*
X143080952Y-129309524D01*
X143461905Y-129309524D01*
X143557143Y-129261905D01*
X143604762Y-129214286D01*
X143652381Y-129119048D01*
X143652381Y-128928571D01*
X143604762Y-128833333D01*
X143557143Y-128785714D01*
X143461905Y-128738095D01*
X143223810Y-128738095D01*
X143128571Y-128785714D01*
X143080952Y-128833333D01*
X143033333Y-128928571D01*
X143033333Y-129119048D01*
X143080952Y-129214286D01*
X143128571Y-129261905D01*
X143223810Y-129309524D01*
X154457143Y-112842857D02*
X154504762Y-112890476D01*
X154552381Y-113033333D01*
X154552381Y-113128571D01*
X154504762Y-113271429D01*
X154409524Y-113366667D01*
X154314286Y-113414286D01*
X154123810Y-113461905D01*
X153980952Y-113461905D01*
X153790476Y-113414286D01*
X153695238Y-113366667D01*
X153600000Y-113271429D01*
X153552381Y-113128571D01*
X153552381Y-113033333D01*
X153600000Y-112890476D01*
X153647619Y-112842857D01*
X154552381Y-111890476D02*
X154552381Y-112461905D01*
X154552381Y-112176191D02*
X153552381Y-112176191D01*
X153695238Y-112271429D01*
X153790476Y-112366667D01*
X153838095Y-112461905D01*
X153552381Y-111557143D02*
X153552381Y-110890476D01*
X154552381Y-111319048D01*
X117157143Y-136757143D02*
X117109524Y-136804762D01*
X116966667Y-136852381D01*
X116871429Y-136852381D01*
X116728571Y-136804762D01*
X116633333Y-136709524D01*
X116585714Y-136614286D01*
X116538095Y-136423810D01*
X116538095Y-136280952D01*
X116585714Y-136090476D01*
X116633333Y-135995238D01*
X116728571Y-135900000D01*
X116871429Y-135852381D01*
X116966667Y-135852381D01*
X117109524Y-135900000D01*
X117157143Y-135947619D01*
X118109524Y-136852381D02*
X117538095Y-136852381D01*
X117823809Y-136852381D02*
X117823809Y-135852381D01*
X117728571Y-135995238D01*
X117633333Y-136090476D01*
X117538095Y-136138095D01*
X118680952Y-136280952D02*
X118585714Y-136233333D01*
X118538095Y-136185714D01*
X118490476Y-136090476D01*
X118490476Y-136042857D01*
X118538095Y-135947619D01*
X118585714Y-135900000D01*
X118680952Y-135852381D01*
X118871429Y-135852381D01*
X118966667Y-135900000D01*
X119014286Y-135947619D01*
X119061905Y-136042857D01*
X119061905Y-136090476D01*
X119014286Y-136185714D01*
X118966667Y-136233333D01*
X118871429Y-136280952D01*
X118680952Y-136280952D01*
X118585714Y-136328571D01*
X118538095Y-136376190D01*
X118490476Y-136471429D01*
X118490476Y-136661905D01*
X118538095Y-136757143D01*
X118585714Y-136804762D01*
X118680952Y-136852381D01*
X118871429Y-136852381D01*
X118966667Y-136804762D01*
X119014286Y-136757143D01*
X119061905Y-136661905D01*
X119061905Y-136471429D01*
X119014286Y-136376190D01*
X118966667Y-136328571D01*
X118871429Y-136280952D01*
X137557143Y-137442857D02*
X137604762Y-137490476D01*
X137652381Y-137633333D01*
X137652381Y-137728571D01*
X137604762Y-137871429D01*
X137509524Y-137966667D01*
X137414286Y-138014286D01*
X137223810Y-138061905D01*
X137080952Y-138061905D01*
X136890476Y-138014286D01*
X136795238Y-137966667D01*
X136700000Y-137871429D01*
X136652381Y-137728571D01*
X136652381Y-137633333D01*
X136700000Y-137490476D01*
X136747619Y-137442857D01*
X137652381Y-136490476D02*
X137652381Y-137061905D01*
X137652381Y-136776191D02*
X136652381Y-136776191D01*
X136795238Y-136871429D01*
X136890476Y-136966667D01*
X136938095Y-137061905D01*
X137652381Y-136014286D02*
X137652381Y-135823810D01*
X137604762Y-135728571D01*
X137557143Y-135680952D01*
X137414286Y-135585714D01*
X137223810Y-135538095D01*
X136842857Y-135538095D01*
X136747619Y-135585714D01*
X136700000Y-135633333D01*
X136652381Y-135728571D01*
X136652381Y-135919048D01*
X136700000Y-136014286D01*
X136747619Y-136061905D01*
X136842857Y-136109524D01*
X137080952Y-136109524D01*
X137176190Y-136061905D01*
X137223810Y-136014286D01*
X137271429Y-135919048D01*
X137271429Y-135728571D01*
X137223810Y-135633333D01*
X137176190Y-135585714D01*
X137080952Y-135538095D01*
X127957143Y-130042857D02*
X128004762Y-130090476D01*
X128052381Y-130233333D01*
X128052381Y-130328571D01*
X128004762Y-130471429D01*
X127909524Y-130566667D01*
X127814286Y-130614286D01*
X127623810Y-130661905D01*
X127480952Y-130661905D01*
X127290476Y-130614286D01*
X127195238Y-130566667D01*
X127100000Y-130471429D01*
X127052381Y-130328571D01*
X127052381Y-130233333D01*
X127100000Y-130090476D01*
X127147619Y-130042857D01*
X127147619Y-129661905D02*
X127100000Y-129614286D01*
X127052381Y-129519048D01*
X127052381Y-129280952D01*
X127100000Y-129185714D01*
X127147619Y-129138095D01*
X127242857Y-129090476D01*
X127338095Y-129090476D01*
X127480952Y-129138095D01*
X128052381Y-129709524D01*
X128052381Y-129090476D01*
X127052381Y-128471429D02*
X127052381Y-128376190D01*
X127100000Y-128280952D01*
X127147619Y-128233333D01*
X127242857Y-128185714D01*
X127433333Y-128138095D01*
X127671429Y-128138095D01*
X127861905Y-128185714D01*
X127957143Y-128233333D01*
X128004762Y-128280952D01*
X128052381Y-128376190D01*
X128052381Y-128471429D01*
X128004762Y-128566667D01*
X127957143Y-128614286D01*
X127861905Y-128661905D01*
X127671429Y-128709524D01*
X127433333Y-128709524D01*
X127242857Y-128661905D01*
X127147619Y-128614286D01*
X127100000Y-128566667D01*
X127052381Y-128471429D01*
X132057143Y-146442857D02*
X132104762Y-146490476D01*
X132152381Y-146633333D01*
X132152381Y-146728571D01*
X132104762Y-146871429D01*
X132009524Y-146966667D01*
X131914286Y-147014286D01*
X131723810Y-147061905D01*
X131580952Y-147061905D01*
X131390476Y-147014286D01*
X131295238Y-146966667D01*
X131200000Y-146871429D01*
X131152381Y-146728571D01*
X131152381Y-146633333D01*
X131200000Y-146490476D01*
X131247619Y-146442857D01*
X131247619Y-146061905D02*
X131200000Y-146014286D01*
X131152381Y-145919048D01*
X131152381Y-145680952D01*
X131200000Y-145585714D01*
X131247619Y-145538095D01*
X131342857Y-145490476D01*
X131438095Y-145490476D01*
X131580952Y-145538095D01*
X132152381Y-146109524D01*
X132152381Y-145490476D01*
X132152381Y-144538095D02*
X132152381Y-145109524D01*
X132152381Y-144823810D02*
X131152381Y-144823810D01*
X131295238Y-144919048D01*
X131390476Y-145014286D01*
X131438095Y-145109524D01*
X122257143Y-126042857D02*
X122304762Y-126090476D01*
X122352381Y-126233333D01*
X122352381Y-126328571D01*
X122304762Y-126471429D01*
X122209524Y-126566667D01*
X122114286Y-126614286D01*
X121923810Y-126661905D01*
X121780952Y-126661905D01*
X121590476Y-126614286D01*
X121495238Y-126566667D01*
X121400000Y-126471429D01*
X121352381Y-126328571D01*
X121352381Y-126233333D01*
X121400000Y-126090476D01*
X121447619Y-126042857D01*
X121447619Y-125661905D02*
X121400000Y-125614286D01*
X121352381Y-125519048D01*
X121352381Y-125280952D01*
X121400000Y-125185714D01*
X121447619Y-125138095D01*
X121542857Y-125090476D01*
X121638095Y-125090476D01*
X121780952Y-125138095D01*
X122352381Y-125709524D01*
X122352381Y-125090476D01*
X121447619Y-124709524D02*
X121400000Y-124661905D01*
X121352381Y-124566667D01*
X121352381Y-124328571D01*
X121400000Y-124233333D01*
X121447619Y-124185714D01*
X121542857Y-124138095D01*
X121638095Y-124138095D01*
X121780952Y-124185714D01*
X122352381Y-124757143D01*
X122352381Y-124138095D01*
X116957143Y-139357143D02*
X116909524Y-139404762D01*
X116766667Y-139452381D01*
X116671429Y-139452381D01*
X116528571Y-139404762D01*
X116433333Y-139309524D01*
X116385714Y-139214286D01*
X116338095Y-139023810D01*
X116338095Y-138880952D01*
X116385714Y-138690476D01*
X116433333Y-138595238D01*
X116528571Y-138500000D01*
X116671429Y-138452381D01*
X116766667Y-138452381D01*
X116909524Y-138500000D01*
X116957143Y-138547619D01*
X117338095Y-138547619D02*
X117385714Y-138500000D01*
X117480952Y-138452381D01*
X117719048Y-138452381D01*
X117814286Y-138500000D01*
X117861905Y-138547619D01*
X117909524Y-138642857D01*
X117909524Y-138738095D01*
X117861905Y-138880952D01*
X117290476Y-139452381D01*
X117909524Y-139452381D01*
X118766667Y-138785714D02*
X118766667Y-139452381D01*
X118528571Y-138404762D02*
X118290476Y-139119048D01*
X118909524Y-139119048D01*
X126457143Y-147857143D02*
X126409524Y-147904762D01*
X126266667Y-147952381D01*
X126171429Y-147952381D01*
X126028571Y-147904762D01*
X125933333Y-147809524D01*
X125885714Y-147714286D01*
X125838095Y-147523810D01*
X125838095Y-147380952D01*
X125885714Y-147190476D01*
X125933333Y-147095238D01*
X126028571Y-147000000D01*
X126171429Y-146952381D01*
X126266667Y-146952381D01*
X126409524Y-147000000D01*
X126457143Y-147047619D01*
X126838095Y-147047619D02*
X126885714Y-147000000D01*
X126980952Y-146952381D01*
X127219048Y-146952381D01*
X127314286Y-147000000D01*
X127361905Y-147047619D01*
X127409524Y-147142857D01*
X127409524Y-147238095D01*
X127361905Y-147380952D01*
X126790476Y-147952381D01*
X127409524Y-147952381D01*
X128314286Y-146952381D02*
X127838095Y-146952381D01*
X127790476Y-147428571D01*
X127838095Y-147380952D01*
X127933333Y-147333333D01*
X128171429Y-147333333D01*
X128266667Y-147380952D01*
X128314286Y-147428571D01*
X128361905Y-147523810D01*
X128361905Y-147761905D01*
X128314286Y-147857143D01*
X128266667Y-147904762D01*
X128171429Y-147952381D01*
X127933333Y-147952381D01*
X127838095Y-147904762D01*
X127790476Y-147857143D01*
X137657143Y-142242857D02*
X137704762Y-142290476D01*
X137752381Y-142433333D01*
X137752381Y-142528571D01*
X137704762Y-142671429D01*
X137609524Y-142766667D01*
X137514286Y-142814286D01*
X137323810Y-142861905D01*
X137180952Y-142861905D01*
X136990476Y-142814286D01*
X136895238Y-142766667D01*
X136800000Y-142671429D01*
X136752381Y-142528571D01*
X136752381Y-142433333D01*
X136800000Y-142290476D01*
X136847619Y-142242857D01*
X136847619Y-141861905D02*
X136800000Y-141814286D01*
X136752381Y-141719048D01*
X136752381Y-141480952D01*
X136800000Y-141385714D01*
X136847619Y-141338095D01*
X136942857Y-141290476D01*
X137038095Y-141290476D01*
X137180952Y-141338095D01*
X137752381Y-141909524D01*
X137752381Y-141290476D01*
X136752381Y-140433333D02*
X136752381Y-140623810D01*
X136800000Y-140719048D01*
X136847619Y-140766667D01*
X136990476Y-140861905D01*
X137180952Y-140909524D01*
X137561905Y-140909524D01*
X137657143Y-140861905D01*
X137704762Y-140814286D01*
X137752381Y-140719048D01*
X137752381Y-140528571D01*
X137704762Y-140433333D01*
X137657143Y-140385714D01*
X137561905Y-140338095D01*
X137323810Y-140338095D01*
X137228571Y-140385714D01*
X137180952Y-140433333D01*
X137133333Y-140528571D01*
X137133333Y-140719048D01*
X137180952Y-140814286D01*
X137228571Y-140861905D01*
X137323810Y-140909524D01*
X117357143Y-141057143D02*
X117309524Y-141104762D01*
X117166667Y-141152381D01*
X117071429Y-141152381D01*
X116928571Y-141104762D01*
X116833333Y-141009524D01*
X116785714Y-140914286D01*
X116738095Y-140723810D01*
X116738095Y-140580952D01*
X116785714Y-140390476D01*
X116833333Y-140295238D01*
X116928571Y-140200000D01*
X117071429Y-140152381D01*
X117166667Y-140152381D01*
X117309524Y-140200000D01*
X117357143Y-140247619D01*
X117738095Y-140247619D02*
X117785714Y-140200000D01*
X117880952Y-140152381D01*
X118119048Y-140152381D01*
X118214286Y-140200000D01*
X118261905Y-140247619D01*
X118309524Y-140342857D01*
X118309524Y-140438095D01*
X118261905Y-140580952D01*
X117690476Y-141152381D01*
X118309524Y-141152381D01*
X118642857Y-140152381D02*
X119309524Y-140152381D01*
X118880952Y-141152381D01*
X120857143Y-155157143D02*
X120809524Y-155204762D01*
X120666667Y-155252381D01*
X120571429Y-155252381D01*
X120428571Y-155204762D01*
X120333333Y-155109524D01*
X120285714Y-155014286D01*
X120238095Y-154823810D01*
X120238095Y-154680952D01*
X120285714Y-154490476D01*
X120333333Y-154395238D01*
X120428571Y-154300000D01*
X120571429Y-154252381D01*
X120666667Y-154252381D01*
X120809524Y-154300000D01*
X120857143Y-154347619D01*
X121238095Y-154347619D02*
X121285714Y-154300000D01*
X121380952Y-154252381D01*
X121619048Y-154252381D01*
X121714286Y-154300000D01*
X121761905Y-154347619D01*
X121809524Y-154442857D01*
X121809524Y-154538095D01*
X121761905Y-154680952D01*
X121190476Y-155252381D01*
X121809524Y-155252381D01*
X122380952Y-154680952D02*
X122285714Y-154633333D01*
X122238095Y-154585714D01*
X122190476Y-154490476D01*
X122190476Y-154442857D01*
X122238095Y-154347619D01*
X122285714Y-154300000D01*
X122380952Y-154252381D01*
X122571429Y-154252381D01*
X122666667Y-154300000D01*
X122714286Y-154347619D01*
X122761905Y-154442857D01*
X122761905Y-154490476D01*
X122714286Y-154585714D01*
X122666667Y-154633333D01*
X122571429Y-154680952D01*
X122380952Y-154680952D01*
X122285714Y-154728571D01*
X122238095Y-154776190D01*
X122190476Y-154871429D01*
X122190476Y-155061905D01*
X122238095Y-155157143D01*
X122285714Y-155204762D01*
X122380952Y-155252381D01*
X122571429Y-155252381D01*
X122666667Y-155204762D01*
X122714286Y-155157143D01*
X122761905Y-155061905D01*
X122761905Y-154871429D01*
X122714286Y-154776190D01*
X122666667Y-154728571D01*
X122571429Y-154680952D01*
X126357143Y-154542857D02*
X126404762Y-154590476D01*
X126452381Y-154733333D01*
X126452381Y-154828571D01*
X126404762Y-154971429D01*
X126309524Y-155066667D01*
X126214286Y-155114286D01*
X126023810Y-155161905D01*
X125880952Y-155161905D01*
X125690476Y-155114286D01*
X125595238Y-155066667D01*
X125500000Y-154971429D01*
X125452381Y-154828571D01*
X125452381Y-154733333D01*
X125500000Y-154590476D01*
X125547619Y-154542857D01*
X125547619Y-154161905D02*
X125500000Y-154114286D01*
X125452381Y-154019048D01*
X125452381Y-153780952D01*
X125500000Y-153685714D01*
X125547619Y-153638095D01*
X125642857Y-153590476D01*
X125738095Y-153590476D01*
X125880952Y-153638095D01*
X126452381Y-154209524D01*
X126452381Y-153590476D01*
X126452381Y-153114286D02*
X126452381Y-152923810D01*
X126404762Y-152828571D01*
X126357143Y-152780952D01*
X126214286Y-152685714D01*
X126023810Y-152638095D01*
X125642857Y-152638095D01*
X125547619Y-152685714D01*
X125500000Y-152733333D01*
X125452381Y-152828571D01*
X125452381Y-153019048D01*
X125500000Y-153114286D01*
X125547619Y-153161905D01*
X125642857Y-153209524D01*
X125880952Y-153209524D01*
X125976190Y-153161905D01*
X126023810Y-153114286D01*
X126071429Y-153019048D01*
X126071429Y-152828571D01*
X126023810Y-152733333D01*
X125976190Y-152685714D01*
X125880952Y-152638095D01*
X110657143Y-144642857D02*
X110704762Y-144690476D01*
X110752381Y-144833333D01*
X110752381Y-144928571D01*
X110704762Y-145071429D01*
X110609524Y-145166667D01*
X110514286Y-145214286D01*
X110323810Y-145261905D01*
X110180952Y-145261905D01*
X109990476Y-145214286D01*
X109895238Y-145166667D01*
X109800000Y-145071429D01*
X109752381Y-144928571D01*
X109752381Y-144833333D01*
X109800000Y-144690476D01*
X109847619Y-144642857D01*
X109752381Y-144309524D02*
X109752381Y-143690476D01*
X110133333Y-144023810D01*
X110133333Y-143880952D01*
X110180952Y-143785714D01*
X110228571Y-143738095D01*
X110323810Y-143690476D01*
X110561905Y-143690476D01*
X110657143Y-143738095D01*
X110704762Y-143785714D01*
X110752381Y-143880952D01*
X110752381Y-144166667D01*
X110704762Y-144261905D01*
X110657143Y-144309524D01*
X109752381Y-143071429D02*
X109752381Y-142976190D01*
X109800000Y-142880952D01*
X109847619Y-142833333D01*
X109942857Y-142785714D01*
X110133333Y-142738095D01*
X110371429Y-142738095D01*
X110561905Y-142785714D01*
X110657143Y-142833333D01*
X110704762Y-142880952D01*
X110752381Y-142976190D01*
X110752381Y-143071429D01*
X110704762Y-143166667D01*
X110657143Y-143214286D01*
X110561905Y-143261905D01*
X110371429Y-143309524D01*
X110133333Y-143309524D01*
X109942857Y-143261905D01*
X109847619Y-143214286D01*
X109800000Y-143166667D01*
X109752381Y-143071429D01*
X121957143Y-145457143D02*
X121909524Y-145504762D01*
X121766667Y-145552381D01*
X121671429Y-145552381D01*
X121528571Y-145504762D01*
X121433333Y-145409524D01*
X121385714Y-145314286D01*
X121338095Y-145123810D01*
X121338095Y-144980952D01*
X121385714Y-144790476D01*
X121433333Y-144695238D01*
X121528571Y-144600000D01*
X121671429Y-144552381D01*
X121766667Y-144552381D01*
X121909524Y-144600000D01*
X121957143Y-144647619D01*
X122290476Y-144552381D02*
X122909524Y-144552381D01*
X122576190Y-144933333D01*
X122719048Y-144933333D01*
X122814286Y-144980952D01*
X122861905Y-145028571D01*
X122909524Y-145123810D01*
X122909524Y-145361905D01*
X122861905Y-145457143D01*
X122814286Y-145504762D01*
X122719048Y-145552381D01*
X122433333Y-145552381D01*
X122338095Y-145504762D01*
X122290476Y-145457143D01*
X123861905Y-145552381D02*
X123290476Y-145552381D01*
X123576190Y-145552381D02*
X123576190Y-144552381D01*
X123480952Y-144695238D01*
X123385714Y-144790476D01*
X123290476Y-144838095D01*
X102461905Y-123152381D02*
X102461905Y-122152381D01*
X102700000Y-122152381D01*
X102842858Y-122200000D01*
X102938096Y-122295238D01*
X102985715Y-122390476D01*
X103033334Y-122580952D01*
X103033334Y-122723810D01*
X102985715Y-122914286D01*
X102938096Y-123009524D01*
X102842858Y-123104762D01*
X102700000Y-123152381D01*
X102461905Y-123152381D01*
X103985715Y-123152381D02*
X103414286Y-123152381D01*
X103700000Y-123152381D02*
X103700000Y-122152381D01*
X103604762Y-122295238D01*
X103509524Y-122390476D01*
X103414286Y-122438095D01*
X102361905Y-140552381D02*
X102361905Y-139552381D01*
X102600000Y-139552381D01*
X102742858Y-139600000D01*
X102838096Y-139695238D01*
X102885715Y-139790476D01*
X102933334Y-139980952D01*
X102933334Y-140123810D01*
X102885715Y-140314286D01*
X102838096Y-140409524D01*
X102742858Y-140504762D01*
X102600000Y-140552381D01*
X102361905Y-140552381D01*
X103314286Y-139647619D02*
X103361905Y-139600000D01*
X103457143Y-139552381D01*
X103695239Y-139552381D01*
X103790477Y-139600000D01*
X103838096Y-139647619D01*
X103885715Y-139742857D01*
X103885715Y-139838095D01*
X103838096Y-139980952D01*
X103266667Y-140552381D01*
X103885715Y-140552381D01*
X110166667Y-121178571D02*
X109833333Y-121178571D01*
X109833333Y-121702381D02*
X109833333Y-120702381D01*
X110309524Y-120702381D01*
X111214286Y-121702381D02*
X110642857Y-121702381D01*
X110928571Y-121702381D02*
X110928571Y-120702381D01*
X110833333Y-120845238D01*
X110738095Y-120940476D01*
X110642857Y-120988095D01*
X114077381Y-115541666D02*
X114077381Y-116017857D01*
X113077381Y-116017857D01*
X114077381Y-114684523D02*
X114077381Y-115255952D01*
X114077381Y-114970238D02*
X113077381Y-114970238D01*
X113220238Y-115065476D01*
X113315476Y-115160714D01*
X113363095Y-115255952D01*
X128852381Y-152566666D02*
X128852381Y-153042857D01*
X127852381Y-153042857D01*
X127947619Y-152280952D02*
X127900000Y-152233333D01*
X127852381Y-152138095D01*
X127852381Y-151899999D01*
X127900000Y-151804761D01*
X127947619Y-151757142D01*
X128042857Y-151709523D01*
X128138095Y-151709523D01*
X128280952Y-151757142D01*
X128852381Y-152328571D01*
X128852381Y-151709523D01*
X161861905Y-106152381D02*
X161861905Y-105152381D01*
X162242858Y-105152381D01*
X162338096Y-105200000D01*
X162385715Y-105247619D01*
X162433334Y-105342857D01*
X162433334Y-105485714D01*
X162385715Y-105580952D01*
X162338096Y-105628571D01*
X162242858Y-105676190D01*
X161861905Y-105676190D01*
X162814286Y-105247619D02*
X162861905Y-105200000D01*
X162957143Y-105152381D01*
X163195239Y-105152381D01*
X163290477Y-105200000D01*
X163338096Y-105247619D01*
X163385715Y-105342857D01*
X163385715Y-105438095D01*
X163338096Y-105580952D01*
X162766667Y-106152381D01*
X163385715Y-106152381D01*
X108461905Y-114552381D02*
X108461905Y-113552381D01*
X108842858Y-113552381D01*
X108938096Y-113600000D01*
X108985715Y-113647619D01*
X109033334Y-113742857D01*
X109033334Y-113885714D01*
X108985715Y-113980952D01*
X108938096Y-114028571D01*
X108842858Y-114076190D01*
X108461905Y-114076190D01*
X109366667Y-113552381D02*
X109985715Y-113552381D01*
X109652381Y-113933333D01*
X109795239Y-113933333D01*
X109890477Y-113980952D01*
X109938096Y-114028571D01*
X109985715Y-114123810D01*
X109985715Y-114361905D01*
X109938096Y-114457143D01*
X109890477Y-114504762D01*
X109795239Y-114552381D01*
X109509524Y-114552381D01*
X109414286Y-114504762D01*
X109366667Y-114457143D01*
X117233334Y-135052381D02*
X116900000Y-134576190D01*
X116661905Y-135052381D02*
X116661905Y-134052381D01*
X117042858Y-134052381D01*
X117138096Y-134100000D01*
X117185715Y-134147619D01*
X117233334Y-134242857D01*
X117233334Y-134385714D01*
X117185715Y-134480952D01*
X117138096Y-134528571D01*
X117042858Y-134576190D01*
X116661905Y-134576190D01*
X118185715Y-135052381D02*
X117614286Y-135052381D01*
X117900000Y-135052381D02*
X117900000Y-134052381D01*
X117804762Y-134195238D01*
X117709524Y-134290476D01*
X117614286Y-134338095D01*
X120683334Y-133252381D02*
X120350000Y-132776190D01*
X120111905Y-133252381D02*
X120111905Y-132252381D01*
X120492858Y-132252381D01*
X120588096Y-132300000D01*
X120635715Y-132347619D01*
X120683334Y-132442857D01*
X120683334Y-132585714D01*
X120635715Y-132680952D01*
X120588096Y-132728571D01*
X120492858Y-132776190D01*
X120111905Y-132776190D01*
X121064286Y-132347619D02*
X121111905Y-132300000D01*
X121207143Y-132252381D01*
X121445239Y-132252381D01*
X121540477Y-132300000D01*
X121588096Y-132347619D01*
X121635715Y-132442857D01*
X121635715Y-132538095D01*
X121588096Y-132680952D01*
X121016667Y-133252381D01*
X121635715Y-133252381D01*
X161377334Y-113736381D02*
X161044000Y-113260190D01*
X160805905Y-113736381D02*
X160805905Y-112736381D01*
X161186858Y-112736381D01*
X161282096Y-112784000D01*
X161329715Y-112831619D01*
X161377334Y-112926857D01*
X161377334Y-113069714D01*
X161329715Y-113164952D01*
X161282096Y-113212571D01*
X161186858Y-113260190D01*
X160805905Y-113260190D01*
X161710667Y-112736381D02*
X162329715Y-112736381D01*
X161996381Y-113117333D01*
X162139239Y-113117333D01*
X162234477Y-113164952D01*
X162282096Y-113212571D01*
X162329715Y-113307810D01*
X162329715Y-113545905D01*
X162282096Y-113641143D01*
X162234477Y-113688762D01*
X162139239Y-113736381D01*
X161853524Y-113736381D01*
X161758286Y-113688762D01*
X161710667Y-113641143D01*
X161377334Y-115514381D02*
X161044000Y-115038190D01*
X160805905Y-115514381D02*
X160805905Y-114514381D01*
X161186858Y-114514381D01*
X161282096Y-114562000D01*
X161329715Y-114609619D01*
X161377334Y-114704857D01*
X161377334Y-114847714D01*
X161329715Y-114942952D01*
X161282096Y-114990571D01*
X161186858Y-115038190D01*
X160805905Y-115038190D01*
X162234477Y-114847714D02*
X162234477Y-115514381D01*
X161996381Y-114466762D02*
X161758286Y-115181048D01*
X162377334Y-115181048D01*
X161377334Y-117292381D02*
X161044000Y-116816190D01*
X160805905Y-117292381D02*
X160805905Y-116292381D01*
X161186858Y-116292381D01*
X161282096Y-116340000D01*
X161329715Y-116387619D01*
X161377334Y-116482857D01*
X161377334Y-116625714D01*
X161329715Y-116720952D01*
X161282096Y-116768571D01*
X161186858Y-116816190D01*
X160805905Y-116816190D01*
X162282096Y-116292381D02*
X161805905Y-116292381D01*
X161758286Y-116768571D01*
X161805905Y-116720952D01*
X161901143Y-116673333D01*
X162139239Y-116673333D01*
X162234477Y-116720952D01*
X162282096Y-116768571D01*
X162329715Y-116863810D01*
X162329715Y-117101905D01*
X162282096Y-117197143D01*
X162234477Y-117244762D01*
X162139239Y-117292381D01*
X161901143Y-117292381D01*
X161805905Y-117244762D01*
X161758286Y-117197143D01*
X161377334Y-119070381D02*
X161044000Y-118594190D01*
X160805905Y-119070381D02*
X160805905Y-118070381D01*
X161186858Y-118070381D01*
X161282096Y-118118000D01*
X161329715Y-118165619D01*
X161377334Y-118260857D01*
X161377334Y-118403714D01*
X161329715Y-118498952D01*
X161282096Y-118546571D01*
X161186858Y-118594190D01*
X160805905Y-118594190D01*
X162234477Y-118070381D02*
X162044000Y-118070381D01*
X161948762Y-118118000D01*
X161901143Y-118165619D01*
X161805905Y-118308476D01*
X161758286Y-118498952D01*
X161758286Y-118879905D01*
X161805905Y-118975143D01*
X161853524Y-119022762D01*
X161948762Y-119070381D01*
X162139239Y-119070381D01*
X162234477Y-119022762D01*
X162282096Y-118975143D01*
X162329715Y-118879905D01*
X162329715Y-118641810D01*
X162282096Y-118546571D01*
X162234477Y-118498952D01*
X162139239Y-118451333D01*
X161948762Y-118451333D01*
X161853524Y-118498952D01*
X161805905Y-118546571D01*
X161758286Y-118641810D01*
X161377334Y-120848381D02*
X161044000Y-120372190D01*
X160805905Y-120848381D02*
X160805905Y-119848381D01*
X161186858Y-119848381D01*
X161282096Y-119896000D01*
X161329715Y-119943619D01*
X161377334Y-120038857D01*
X161377334Y-120181714D01*
X161329715Y-120276952D01*
X161282096Y-120324571D01*
X161186858Y-120372190D01*
X160805905Y-120372190D01*
X161710667Y-119848381D02*
X162377334Y-119848381D01*
X161948762Y-120848381D01*
X161377334Y-122626381D02*
X161044000Y-122150190D01*
X160805905Y-122626381D02*
X160805905Y-121626381D01*
X161186858Y-121626381D01*
X161282096Y-121674000D01*
X161329715Y-121721619D01*
X161377334Y-121816857D01*
X161377334Y-121959714D01*
X161329715Y-122054952D01*
X161282096Y-122102571D01*
X161186858Y-122150190D01*
X160805905Y-122150190D01*
X161948762Y-122054952D02*
X161853524Y-122007333D01*
X161805905Y-121959714D01*
X161758286Y-121864476D01*
X161758286Y-121816857D01*
X161805905Y-121721619D01*
X161853524Y-121674000D01*
X161948762Y-121626381D01*
X162139239Y-121626381D01*
X162234477Y-121674000D01*
X162282096Y-121721619D01*
X162329715Y-121816857D01*
X162329715Y-121864476D01*
X162282096Y-121959714D01*
X162234477Y-122007333D01*
X162139239Y-122054952D01*
X161948762Y-122054952D01*
X161853524Y-122102571D01*
X161805905Y-122150190D01*
X161758286Y-122245429D01*
X161758286Y-122435905D01*
X161805905Y-122531143D01*
X161853524Y-122578762D01*
X161948762Y-122626381D01*
X162139239Y-122626381D01*
X162234477Y-122578762D01*
X162282096Y-122531143D01*
X162329715Y-122435905D01*
X162329715Y-122245429D01*
X162282096Y-122150190D01*
X162234477Y-122102571D01*
X162139239Y-122054952D01*
X161377334Y-124404381D02*
X161044000Y-123928190D01*
X160805905Y-124404381D02*
X160805905Y-123404381D01*
X161186858Y-123404381D01*
X161282096Y-123452000D01*
X161329715Y-123499619D01*
X161377334Y-123594857D01*
X161377334Y-123737714D01*
X161329715Y-123832952D01*
X161282096Y-123880571D01*
X161186858Y-123928190D01*
X160805905Y-123928190D01*
X161853524Y-124404381D02*
X162044000Y-124404381D01*
X162139239Y-124356762D01*
X162186858Y-124309143D01*
X162282096Y-124166286D01*
X162329715Y-123975810D01*
X162329715Y-123594857D01*
X162282096Y-123499619D01*
X162234477Y-123452000D01*
X162139239Y-123404381D01*
X161948762Y-123404381D01*
X161853524Y-123452000D01*
X161805905Y-123499619D01*
X161758286Y-123594857D01*
X161758286Y-123832952D01*
X161805905Y-123928190D01*
X161853524Y-123975810D01*
X161948762Y-124023429D01*
X162139239Y-124023429D01*
X162234477Y-123975810D01*
X162282096Y-123928190D01*
X162329715Y-123832952D01*
X161155143Y-126182381D02*
X160821809Y-125706190D01*
X160583714Y-126182381D02*
X160583714Y-125182381D01*
X160964667Y-125182381D01*
X161059905Y-125230000D01*
X161107524Y-125277619D01*
X161155143Y-125372857D01*
X161155143Y-125515714D01*
X161107524Y-125610952D01*
X161059905Y-125658571D01*
X160964667Y-125706190D01*
X160583714Y-125706190D01*
X162107524Y-126182381D02*
X161536095Y-126182381D01*
X161821809Y-126182381D02*
X161821809Y-125182381D01*
X161726571Y-125325238D01*
X161631333Y-125420476D01*
X161536095Y-125468095D01*
X162726571Y-125182381D02*
X162821810Y-125182381D01*
X162917048Y-125230000D01*
X162964667Y-125277619D01*
X163012286Y-125372857D01*
X163059905Y-125563333D01*
X163059905Y-125801429D01*
X163012286Y-125991905D01*
X162964667Y-126087143D01*
X162917048Y-126134762D01*
X162821810Y-126182381D01*
X162726571Y-126182381D01*
X162631333Y-126134762D01*
X162583714Y-126087143D01*
X162536095Y-125991905D01*
X162488476Y-125801429D01*
X162488476Y-125563333D01*
X162536095Y-125372857D01*
X162583714Y-125277619D01*
X162631333Y-125230000D01*
X162726571Y-125182381D01*
X161155143Y-127960381D02*
X160821809Y-127484190D01*
X160583714Y-127960381D02*
X160583714Y-126960381D01*
X160964667Y-126960381D01*
X161059905Y-127008000D01*
X161107524Y-127055619D01*
X161155143Y-127150857D01*
X161155143Y-127293714D01*
X161107524Y-127388952D01*
X161059905Y-127436571D01*
X160964667Y-127484190D01*
X160583714Y-127484190D01*
X162107524Y-127960381D02*
X161536095Y-127960381D01*
X161821809Y-127960381D02*
X161821809Y-126960381D01*
X161726571Y-127103238D01*
X161631333Y-127198476D01*
X161536095Y-127246095D01*
X163059905Y-127960381D02*
X162488476Y-127960381D01*
X162774190Y-127960381D02*
X162774190Y-126960381D01*
X162678952Y-127103238D01*
X162583714Y-127198476D01*
X162488476Y-127246095D01*
X161155143Y-129738381D02*
X160821809Y-129262190D01*
X160583714Y-129738381D02*
X160583714Y-128738381D01*
X160964667Y-128738381D01*
X161059905Y-128786000D01*
X161107524Y-128833619D01*
X161155143Y-128928857D01*
X161155143Y-129071714D01*
X161107524Y-129166952D01*
X161059905Y-129214571D01*
X160964667Y-129262190D01*
X160583714Y-129262190D01*
X162107524Y-129738381D02*
X161536095Y-129738381D01*
X161821809Y-129738381D02*
X161821809Y-128738381D01*
X161726571Y-128881238D01*
X161631333Y-128976476D01*
X161536095Y-129024095D01*
X162488476Y-128833619D02*
X162536095Y-128786000D01*
X162631333Y-128738381D01*
X162869429Y-128738381D01*
X162964667Y-128786000D01*
X163012286Y-128833619D01*
X163059905Y-128928857D01*
X163059905Y-129024095D01*
X163012286Y-129166952D01*
X162440857Y-129738381D01*
X163059905Y-129738381D01*
X161155143Y-131516381D02*
X160821809Y-131040190D01*
X160583714Y-131516381D02*
X160583714Y-130516381D01*
X160964667Y-130516381D01*
X161059905Y-130564000D01*
X161107524Y-130611619D01*
X161155143Y-130706857D01*
X161155143Y-130849714D01*
X161107524Y-130944952D01*
X161059905Y-130992571D01*
X160964667Y-131040190D01*
X160583714Y-131040190D01*
X162107524Y-131516381D02*
X161536095Y-131516381D01*
X161821809Y-131516381D02*
X161821809Y-130516381D01*
X161726571Y-130659238D01*
X161631333Y-130754476D01*
X161536095Y-130802095D01*
X162440857Y-130516381D02*
X163059905Y-130516381D01*
X162726571Y-130897333D01*
X162869429Y-130897333D01*
X162964667Y-130944952D01*
X163012286Y-130992571D01*
X163059905Y-131087810D01*
X163059905Y-131325905D01*
X163012286Y-131421143D01*
X162964667Y-131468762D01*
X162869429Y-131516381D01*
X162583714Y-131516381D01*
X162488476Y-131468762D01*
X162440857Y-131421143D01*
X161155143Y-133294381D02*
X160821809Y-132818190D01*
X160583714Y-133294381D02*
X160583714Y-132294381D01*
X160964667Y-132294381D01*
X161059905Y-132342000D01*
X161107524Y-132389619D01*
X161155143Y-132484857D01*
X161155143Y-132627714D01*
X161107524Y-132722952D01*
X161059905Y-132770571D01*
X160964667Y-132818190D01*
X160583714Y-132818190D01*
X162107524Y-133294381D02*
X161536095Y-133294381D01*
X161821809Y-133294381D02*
X161821809Y-132294381D01*
X161726571Y-132437238D01*
X161631333Y-132532476D01*
X161536095Y-132580095D01*
X162964667Y-132627714D02*
X162964667Y-133294381D01*
X162726571Y-132246762D02*
X162488476Y-132961048D01*
X163107524Y-132961048D01*
X161155143Y-147518381D02*
X160821809Y-147042190D01*
X160583714Y-147518381D02*
X160583714Y-146518381D01*
X160964667Y-146518381D01*
X161059905Y-146566000D01*
X161107524Y-146613619D01*
X161155143Y-146708857D01*
X161155143Y-146851714D01*
X161107524Y-146946952D01*
X161059905Y-146994571D01*
X160964667Y-147042190D01*
X160583714Y-147042190D01*
X162107524Y-147518381D02*
X161536095Y-147518381D01*
X161821809Y-147518381D02*
X161821809Y-146518381D01*
X161726571Y-146661238D01*
X161631333Y-146756476D01*
X161536095Y-146804095D01*
X163012286Y-146518381D02*
X162536095Y-146518381D01*
X162488476Y-146994571D01*
X162536095Y-146946952D01*
X162631333Y-146899333D01*
X162869429Y-146899333D01*
X162964667Y-146946952D01*
X163012286Y-146994571D01*
X163059905Y-147089810D01*
X163059905Y-147327905D01*
X163012286Y-147423143D01*
X162964667Y-147470762D01*
X162869429Y-147518381D01*
X162631333Y-147518381D01*
X162536095Y-147470762D01*
X162488476Y-147423143D01*
X133257143Y-128452381D02*
X132923809Y-127976190D01*
X132685714Y-128452381D02*
X132685714Y-127452381D01*
X133066667Y-127452381D01*
X133161905Y-127500000D01*
X133209524Y-127547619D01*
X133257143Y-127642857D01*
X133257143Y-127785714D01*
X133209524Y-127880952D01*
X133161905Y-127928571D01*
X133066667Y-127976190D01*
X132685714Y-127976190D01*
X134209524Y-128452381D02*
X133638095Y-128452381D01*
X133923809Y-128452381D02*
X133923809Y-127452381D01*
X133828571Y-127595238D01*
X133733333Y-127690476D01*
X133638095Y-127738095D01*
X135066667Y-127452381D02*
X134876190Y-127452381D01*
X134780952Y-127500000D01*
X134733333Y-127547619D01*
X134638095Y-127690476D01*
X134590476Y-127880952D01*
X134590476Y-128261905D01*
X134638095Y-128357143D01*
X134685714Y-128404762D01*
X134780952Y-128452381D01*
X134971429Y-128452381D01*
X135066667Y-128404762D01*
X135114286Y-128357143D01*
X135161905Y-128261905D01*
X135161905Y-128023810D01*
X135114286Y-127928571D01*
X135066667Y-127880952D01*
X134971429Y-127833333D01*
X134780952Y-127833333D01*
X134685714Y-127880952D01*
X134638095Y-127928571D01*
X134590476Y-128023810D01*
X133357143Y-130352381D02*
X133023809Y-129876190D01*
X132785714Y-130352381D02*
X132785714Y-129352381D01*
X133166667Y-129352381D01*
X133261905Y-129400000D01*
X133309524Y-129447619D01*
X133357143Y-129542857D01*
X133357143Y-129685714D01*
X133309524Y-129780952D01*
X133261905Y-129828571D01*
X133166667Y-129876190D01*
X132785714Y-129876190D01*
X134309524Y-130352381D02*
X133738095Y-130352381D01*
X134023809Y-130352381D02*
X134023809Y-129352381D01*
X133928571Y-129495238D01*
X133833333Y-129590476D01*
X133738095Y-129638095D01*
X134642857Y-129352381D02*
X135309524Y-129352381D01*
X134880952Y-130352381D01*
X142252381Y-148442857D02*
X141776190Y-148776191D01*
X142252381Y-149014286D02*
X141252381Y-149014286D01*
X141252381Y-148633333D01*
X141300000Y-148538095D01*
X141347619Y-148490476D01*
X141442857Y-148442857D01*
X141585714Y-148442857D01*
X141680952Y-148490476D01*
X141728571Y-148538095D01*
X141776190Y-148633333D01*
X141776190Y-149014286D01*
X142252381Y-147490476D02*
X142252381Y-148061905D01*
X142252381Y-147776191D02*
X141252381Y-147776191D01*
X141395238Y-147871429D01*
X141490476Y-147966667D01*
X141538095Y-148061905D01*
X141680952Y-146919048D02*
X141633333Y-147014286D01*
X141585714Y-147061905D01*
X141490476Y-147109524D01*
X141442857Y-147109524D01*
X141347619Y-147061905D01*
X141300000Y-147014286D01*
X141252381Y-146919048D01*
X141252381Y-146728571D01*
X141300000Y-146633333D01*
X141347619Y-146585714D01*
X141442857Y-146538095D01*
X141490476Y-146538095D01*
X141585714Y-146585714D01*
X141633333Y-146633333D01*
X141680952Y-146728571D01*
X141680952Y-146919048D01*
X141728571Y-147014286D01*
X141776190Y-147061905D01*
X141871429Y-147109524D01*
X142061905Y-147109524D01*
X142157143Y-147061905D01*
X142204762Y-147014286D01*
X142252381Y-146919048D01*
X142252381Y-146728571D01*
X142204762Y-146633333D01*
X142157143Y-146585714D01*
X142061905Y-146538095D01*
X141871429Y-146538095D01*
X141776190Y-146585714D01*
X141728571Y-146633333D01*
X141680952Y-146728571D01*
X144052381Y-148442857D02*
X143576190Y-148776191D01*
X144052381Y-149014286D02*
X143052381Y-149014286D01*
X143052381Y-148633333D01*
X143100000Y-148538095D01*
X143147619Y-148490476D01*
X143242857Y-148442857D01*
X143385714Y-148442857D01*
X143480952Y-148490476D01*
X143528571Y-148538095D01*
X143576190Y-148633333D01*
X143576190Y-149014286D01*
X144052381Y-147490476D02*
X144052381Y-148061905D01*
X144052381Y-147776191D02*
X143052381Y-147776191D01*
X143195238Y-147871429D01*
X143290476Y-147966667D01*
X143338095Y-148061905D01*
X144052381Y-147014286D02*
X144052381Y-146823810D01*
X144004762Y-146728571D01*
X143957143Y-146680952D01*
X143814286Y-146585714D01*
X143623810Y-146538095D01*
X143242857Y-146538095D01*
X143147619Y-146585714D01*
X143100000Y-146633333D01*
X143052381Y-146728571D01*
X143052381Y-146919048D01*
X143100000Y-147014286D01*
X143147619Y-147061905D01*
X143242857Y-147109524D01*
X143480952Y-147109524D01*
X143576190Y-147061905D01*
X143623810Y-147014286D01*
X143671429Y-146919048D01*
X143671429Y-146728571D01*
X143623810Y-146633333D01*
X143576190Y-146585714D01*
X143480952Y-146538095D01*
X156452381Y-125942857D02*
X155976190Y-126276191D01*
X156452381Y-126514286D02*
X155452381Y-126514286D01*
X155452381Y-126133333D01*
X155500000Y-126038095D01*
X155547619Y-125990476D01*
X155642857Y-125942857D01*
X155785714Y-125942857D01*
X155880952Y-125990476D01*
X155928571Y-126038095D01*
X155976190Y-126133333D01*
X155976190Y-126514286D01*
X155547619Y-125561905D02*
X155500000Y-125514286D01*
X155452381Y-125419048D01*
X155452381Y-125180952D01*
X155500000Y-125085714D01*
X155547619Y-125038095D01*
X155642857Y-124990476D01*
X155738095Y-124990476D01*
X155880952Y-125038095D01*
X156452381Y-125609524D01*
X156452381Y-124990476D01*
X155452381Y-124371429D02*
X155452381Y-124276190D01*
X155500000Y-124180952D01*
X155547619Y-124133333D01*
X155642857Y-124085714D01*
X155833333Y-124038095D01*
X156071429Y-124038095D01*
X156261905Y-124085714D01*
X156357143Y-124133333D01*
X156404762Y-124180952D01*
X156452381Y-124276190D01*
X156452381Y-124371429D01*
X156404762Y-124466667D01*
X156357143Y-124514286D01*
X156261905Y-124561905D01*
X156071429Y-124609524D01*
X155833333Y-124609524D01*
X155642857Y-124561905D01*
X155547619Y-124514286D01*
X155500000Y-124466667D01*
X155452381Y-124371429D01*
X146452381Y-135842857D02*
X145976190Y-136176191D01*
X146452381Y-136414286D02*
X145452381Y-136414286D01*
X145452381Y-136033333D01*
X145500000Y-135938095D01*
X145547619Y-135890476D01*
X145642857Y-135842857D01*
X145785714Y-135842857D01*
X145880952Y-135890476D01*
X145928571Y-135938095D01*
X145976190Y-136033333D01*
X145976190Y-136414286D01*
X145547619Y-135461905D02*
X145500000Y-135414286D01*
X145452381Y-135319048D01*
X145452381Y-135080952D01*
X145500000Y-134985714D01*
X145547619Y-134938095D01*
X145642857Y-134890476D01*
X145738095Y-134890476D01*
X145880952Y-134938095D01*
X146452381Y-135509524D01*
X146452381Y-134890476D01*
X146452381Y-133938095D02*
X146452381Y-134509524D01*
X146452381Y-134223810D02*
X145452381Y-134223810D01*
X145595238Y-134319048D01*
X145690476Y-134414286D01*
X145738095Y-134509524D01*
X150357143Y-125452381D02*
X150023809Y-124976190D01*
X149785714Y-125452381D02*
X149785714Y-124452381D01*
X150166667Y-124452381D01*
X150261905Y-124500000D01*
X150309524Y-124547619D01*
X150357143Y-124642857D01*
X150357143Y-124785714D01*
X150309524Y-124880952D01*
X150261905Y-124928571D01*
X150166667Y-124976190D01*
X149785714Y-124976190D01*
X150738095Y-124547619D02*
X150785714Y-124500000D01*
X150880952Y-124452381D01*
X151119048Y-124452381D01*
X151214286Y-124500000D01*
X151261905Y-124547619D01*
X151309524Y-124642857D01*
X151309524Y-124738095D01*
X151261905Y-124880952D01*
X150690476Y-125452381D01*
X151309524Y-125452381D01*
X151690476Y-124547619D02*
X151738095Y-124500000D01*
X151833333Y-124452381D01*
X152071429Y-124452381D01*
X152166667Y-124500000D01*
X152214286Y-124547619D01*
X152261905Y-124642857D01*
X152261905Y-124738095D01*
X152214286Y-124880952D01*
X151642857Y-125452381D01*
X152261905Y-125452381D01*
X149452381Y-138942857D02*
X148976190Y-139276191D01*
X149452381Y-139514286D02*
X148452381Y-139514286D01*
X148452381Y-139133333D01*
X148500000Y-139038095D01*
X148547619Y-138990476D01*
X148642857Y-138942857D01*
X148785714Y-138942857D01*
X148880952Y-138990476D01*
X148928571Y-139038095D01*
X148976190Y-139133333D01*
X148976190Y-139514286D01*
X148547619Y-138561905D02*
X148500000Y-138514286D01*
X148452381Y-138419048D01*
X148452381Y-138180952D01*
X148500000Y-138085714D01*
X148547619Y-138038095D01*
X148642857Y-137990476D01*
X148738095Y-137990476D01*
X148880952Y-138038095D01*
X149452381Y-138609524D01*
X149452381Y-137990476D01*
X148452381Y-137657143D02*
X148452381Y-137038095D01*
X148833333Y-137371429D01*
X148833333Y-137228571D01*
X148880952Y-137133333D01*
X148928571Y-137085714D01*
X149023810Y-137038095D01*
X149261905Y-137038095D01*
X149357143Y-137085714D01*
X149404762Y-137133333D01*
X149452381Y-137228571D01*
X149452381Y-137514286D01*
X149404762Y-137609524D01*
X149357143Y-137657143D01*
X145152381Y-140642857D02*
X144676190Y-140976191D01*
X145152381Y-141214286D02*
X144152381Y-141214286D01*
X144152381Y-140833333D01*
X144200000Y-140738095D01*
X144247619Y-140690476D01*
X144342857Y-140642857D01*
X144485714Y-140642857D01*
X144580952Y-140690476D01*
X144628571Y-140738095D01*
X144676190Y-140833333D01*
X144676190Y-141214286D01*
X144247619Y-140261905D02*
X144200000Y-140214286D01*
X144152381Y-140119048D01*
X144152381Y-139880952D01*
X144200000Y-139785714D01*
X144247619Y-139738095D01*
X144342857Y-139690476D01*
X144438095Y-139690476D01*
X144580952Y-139738095D01*
X145152381Y-140309524D01*
X145152381Y-139690476D01*
X144485714Y-138833333D02*
X145152381Y-138833333D01*
X144104762Y-139071429D02*
X144819048Y-139309524D01*
X144819048Y-138690476D01*
X151757143Y-141252381D02*
X151423809Y-140776190D01*
X151185714Y-141252381D02*
X151185714Y-140252381D01*
X151566667Y-140252381D01*
X151661905Y-140300000D01*
X151709524Y-140347619D01*
X151757143Y-140442857D01*
X151757143Y-140585714D01*
X151709524Y-140680952D01*
X151661905Y-140728571D01*
X151566667Y-140776190D01*
X151185714Y-140776190D01*
X152138095Y-140347619D02*
X152185714Y-140300000D01*
X152280952Y-140252381D01*
X152519048Y-140252381D01*
X152614286Y-140300000D01*
X152661905Y-140347619D01*
X152709524Y-140442857D01*
X152709524Y-140538095D01*
X152661905Y-140680952D01*
X152090476Y-141252381D01*
X152709524Y-141252381D01*
X153614286Y-140252381D02*
X153138095Y-140252381D01*
X153090476Y-140728571D01*
X153138095Y-140680952D01*
X153233333Y-140633333D01*
X153471429Y-140633333D01*
X153566667Y-140680952D01*
X153614286Y-140728571D01*
X153661905Y-140823810D01*
X153661905Y-141061905D01*
X153614286Y-141157143D01*
X153566667Y-141204762D01*
X153471429Y-141252381D01*
X153233333Y-141252381D01*
X153138095Y-141204762D01*
X153090476Y-141157143D01*
X152552381Y-136842857D02*
X152076190Y-137176191D01*
X152552381Y-137414286D02*
X151552381Y-137414286D01*
X151552381Y-137033333D01*
X151600000Y-136938095D01*
X151647619Y-136890476D01*
X151742857Y-136842857D01*
X151885714Y-136842857D01*
X151980952Y-136890476D01*
X152028571Y-136938095D01*
X152076190Y-137033333D01*
X152076190Y-137414286D01*
X151647619Y-136461905D02*
X151600000Y-136414286D01*
X151552381Y-136319048D01*
X151552381Y-136080952D01*
X151600000Y-135985714D01*
X151647619Y-135938095D01*
X151742857Y-135890476D01*
X151838095Y-135890476D01*
X151980952Y-135938095D01*
X152552381Y-136509524D01*
X152552381Y-135890476D01*
X151552381Y-135033333D02*
X151552381Y-135223810D01*
X151600000Y-135319048D01*
X151647619Y-135366667D01*
X151790476Y-135461905D01*
X151980952Y-135509524D01*
X152361905Y-135509524D01*
X152457143Y-135461905D01*
X152504762Y-135414286D01*
X152552381Y-135319048D01*
X152552381Y-135128571D01*
X152504762Y-135033333D01*
X152457143Y-134985714D01*
X152361905Y-134938095D01*
X152123810Y-134938095D01*
X152028571Y-134985714D01*
X151980952Y-135033333D01*
X151933333Y-135128571D01*
X151933333Y-135319048D01*
X151980952Y-135414286D01*
X152028571Y-135461905D01*
X152123810Y-135509524D01*
X142557143Y-125252381D02*
X142223809Y-124776190D01*
X141985714Y-125252381D02*
X141985714Y-124252381D01*
X142366667Y-124252381D01*
X142461905Y-124300000D01*
X142509524Y-124347619D01*
X142557143Y-124442857D01*
X142557143Y-124585714D01*
X142509524Y-124680952D01*
X142461905Y-124728571D01*
X142366667Y-124776190D01*
X141985714Y-124776190D01*
X142938095Y-124347619D02*
X142985714Y-124300000D01*
X143080952Y-124252381D01*
X143319048Y-124252381D01*
X143414286Y-124300000D01*
X143461905Y-124347619D01*
X143509524Y-124442857D01*
X143509524Y-124538095D01*
X143461905Y-124680952D01*
X142890476Y-125252381D01*
X143509524Y-125252381D01*
X143842857Y-124252381D02*
X144509524Y-124252381D01*
X144080952Y-125252381D01*
X155152381Y-136742857D02*
X154676190Y-137076191D01*
X155152381Y-137314286D02*
X154152381Y-137314286D01*
X154152381Y-136933333D01*
X154200000Y-136838095D01*
X154247619Y-136790476D01*
X154342857Y-136742857D01*
X154485714Y-136742857D01*
X154580952Y-136790476D01*
X154628571Y-136838095D01*
X154676190Y-136933333D01*
X154676190Y-137314286D01*
X154247619Y-136361905D02*
X154200000Y-136314286D01*
X154152381Y-136219048D01*
X154152381Y-135980952D01*
X154200000Y-135885714D01*
X154247619Y-135838095D01*
X154342857Y-135790476D01*
X154438095Y-135790476D01*
X154580952Y-135838095D01*
X155152381Y-136409524D01*
X155152381Y-135790476D01*
X154580952Y-135219048D02*
X154533333Y-135314286D01*
X154485714Y-135361905D01*
X154390476Y-135409524D01*
X154342857Y-135409524D01*
X154247619Y-135361905D01*
X154200000Y-135314286D01*
X154152381Y-135219048D01*
X154152381Y-135028571D01*
X154200000Y-134933333D01*
X154247619Y-134885714D01*
X154342857Y-134838095D01*
X154390476Y-134838095D01*
X154485714Y-134885714D01*
X154533333Y-134933333D01*
X154580952Y-135028571D01*
X154580952Y-135219048D01*
X154628571Y-135314286D01*
X154676190Y-135361905D01*
X154771429Y-135409524D01*
X154961905Y-135409524D01*
X155057143Y-135361905D01*
X155104762Y-135314286D01*
X155152381Y-135219048D01*
X155152381Y-135028571D01*
X155104762Y-134933333D01*
X155057143Y-134885714D01*
X154961905Y-134838095D01*
X154771429Y-134838095D01*
X154676190Y-134885714D01*
X154628571Y-134933333D01*
X154580952Y-135028571D01*
X142757143Y-127052381D02*
X142423809Y-126576190D01*
X142185714Y-127052381D02*
X142185714Y-126052381D01*
X142566667Y-126052381D01*
X142661905Y-126100000D01*
X142709524Y-126147619D01*
X142757143Y-126242857D01*
X142757143Y-126385714D01*
X142709524Y-126480952D01*
X142661905Y-126528571D01*
X142566667Y-126576190D01*
X142185714Y-126576190D01*
X143138095Y-126147619D02*
X143185714Y-126100000D01*
X143280952Y-126052381D01*
X143519048Y-126052381D01*
X143614286Y-126100000D01*
X143661905Y-126147619D01*
X143709524Y-126242857D01*
X143709524Y-126338095D01*
X143661905Y-126480952D01*
X143090476Y-127052381D01*
X143709524Y-127052381D01*
X144185714Y-127052381D02*
X144376190Y-127052381D01*
X144471429Y-127004762D01*
X144519048Y-126957143D01*
X144614286Y-126814286D01*
X144661905Y-126623810D01*
X144661905Y-126242857D01*
X144614286Y-126147619D01*
X144566667Y-126100000D01*
X144471429Y-126052381D01*
X144280952Y-126052381D01*
X144185714Y-126100000D01*
X144138095Y-126147619D01*
X144090476Y-126242857D01*
X144090476Y-126480952D01*
X144138095Y-126576190D01*
X144185714Y-126623810D01*
X144280952Y-126671429D01*
X144471429Y-126671429D01*
X144566667Y-126623810D01*
X144614286Y-126576190D01*
X144661905Y-126480952D01*
X155652381Y-152242857D02*
X155176190Y-152576191D01*
X155652381Y-152814286D02*
X154652381Y-152814286D01*
X154652381Y-152433333D01*
X154700000Y-152338095D01*
X154747619Y-152290476D01*
X154842857Y-152242857D01*
X154985714Y-152242857D01*
X155080952Y-152290476D01*
X155128571Y-152338095D01*
X155176190Y-152433333D01*
X155176190Y-152814286D01*
X154652381Y-151909524D02*
X154652381Y-151290476D01*
X155033333Y-151623810D01*
X155033333Y-151480952D01*
X155080952Y-151385714D01*
X155128571Y-151338095D01*
X155223810Y-151290476D01*
X155461905Y-151290476D01*
X155557143Y-151338095D01*
X155604762Y-151385714D01*
X155652381Y-151480952D01*
X155652381Y-151766667D01*
X155604762Y-151861905D01*
X155557143Y-151909524D01*
X154652381Y-150671429D02*
X154652381Y-150576190D01*
X154700000Y-150480952D01*
X154747619Y-150433333D01*
X154842857Y-150385714D01*
X155033333Y-150338095D01*
X155271429Y-150338095D01*
X155461905Y-150385714D01*
X155557143Y-150433333D01*
X155604762Y-150480952D01*
X155652381Y-150576190D01*
X155652381Y-150671429D01*
X155604762Y-150766667D01*
X155557143Y-150814286D01*
X155461905Y-150861905D01*
X155271429Y-150909524D01*
X155033333Y-150909524D01*
X154842857Y-150861905D01*
X154747619Y-150814286D01*
X154700000Y-150766667D01*
X154652381Y-150671429D01*
X157252381Y-146242857D02*
X156776190Y-146576191D01*
X157252381Y-146814286D02*
X156252381Y-146814286D01*
X156252381Y-146433333D01*
X156300000Y-146338095D01*
X156347619Y-146290476D01*
X156442857Y-146242857D01*
X156585714Y-146242857D01*
X156680952Y-146290476D01*
X156728571Y-146338095D01*
X156776190Y-146433333D01*
X156776190Y-146814286D01*
X156252381Y-145909524D02*
X156252381Y-145290476D01*
X156633333Y-145623810D01*
X156633333Y-145480952D01*
X156680952Y-145385714D01*
X156728571Y-145338095D01*
X156823810Y-145290476D01*
X157061905Y-145290476D01*
X157157143Y-145338095D01*
X157204762Y-145385714D01*
X157252381Y-145480952D01*
X157252381Y-145766667D01*
X157204762Y-145861905D01*
X157157143Y-145909524D01*
X157252381Y-144338095D02*
X157252381Y-144909524D01*
X157252381Y-144623810D02*
X156252381Y-144623810D01*
X156395238Y-144719048D01*
X156490476Y-144814286D01*
X156538095Y-144909524D01*
X150757143Y-123252381D02*
X150423809Y-122776190D01*
X150185714Y-123252381D02*
X150185714Y-122252381D01*
X150566667Y-122252381D01*
X150661905Y-122300000D01*
X150709524Y-122347619D01*
X150757143Y-122442857D01*
X150757143Y-122585714D01*
X150709524Y-122680952D01*
X150661905Y-122728571D01*
X150566667Y-122776190D01*
X150185714Y-122776190D01*
X151090476Y-122252381D02*
X151709524Y-122252381D01*
X151376190Y-122633333D01*
X151519048Y-122633333D01*
X151614286Y-122680952D01*
X151661905Y-122728571D01*
X151709524Y-122823810D01*
X151709524Y-123061905D01*
X151661905Y-123157143D01*
X151614286Y-123204762D01*
X151519048Y-123252381D01*
X151233333Y-123252381D01*
X151138095Y-123204762D01*
X151090476Y-123157143D01*
X152090476Y-122347619D02*
X152138095Y-122300000D01*
X152233333Y-122252381D01*
X152471429Y-122252381D01*
X152566667Y-122300000D01*
X152614286Y-122347619D01*
X152661905Y-122442857D01*
X152661905Y-122538095D01*
X152614286Y-122680952D01*
X152042857Y-123252381D01*
X152661905Y-123252381D01*
X140452381Y-120142857D02*
X139976190Y-120476191D01*
X140452381Y-120714286D02*
X139452381Y-120714286D01*
X139452381Y-120333333D01*
X139500000Y-120238095D01*
X139547619Y-120190476D01*
X139642857Y-120142857D01*
X139785714Y-120142857D01*
X139880952Y-120190476D01*
X139928571Y-120238095D01*
X139976190Y-120333333D01*
X139976190Y-120714286D01*
X139452381Y-119809524D02*
X139452381Y-119190476D01*
X139833333Y-119523810D01*
X139833333Y-119380952D01*
X139880952Y-119285714D01*
X139928571Y-119238095D01*
X140023810Y-119190476D01*
X140261905Y-119190476D01*
X140357143Y-119238095D01*
X140404762Y-119285714D01*
X140452381Y-119380952D01*
X140452381Y-119666667D01*
X140404762Y-119761905D01*
X140357143Y-119809524D01*
X139452381Y-118857143D02*
X139452381Y-118238095D01*
X139833333Y-118571429D01*
X139833333Y-118428571D01*
X139880952Y-118333333D01*
X139928571Y-118285714D01*
X140023810Y-118238095D01*
X140261905Y-118238095D01*
X140357143Y-118285714D01*
X140404762Y-118333333D01*
X140452381Y-118428571D01*
X140452381Y-118714286D01*
X140404762Y-118809524D01*
X140357143Y-118857143D01*
X155852381Y-121142857D02*
X155376190Y-121476191D01*
X155852381Y-121714286D02*
X154852381Y-121714286D01*
X154852381Y-121333333D01*
X154900000Y-121238095D01*
X154947619Y-121190476D01*
X155042857Y-121142857D01*
X155185714Y-121142857D01*
X155280952Y-121190476D01*
X155328571Y-121238095D01*
X155376190Y-121333333D01*
X155376190Y-121714286D01*
X154852381Y-120809524D02*
X154852381Y-120190476D01*
X155233333Y-120523810D01*
X155233333Y-120380952D01*
X155280952Y-120285714D01*
X155328571Y-120238095D01*
X155423810Y-120190476D01*
X155661905Y-120190476D01*
X155757143Y-120238095D01*
X155804762Y-120285714D01*
X155852381Y-120380952D01*
X155852381Y-120666667D01*
X155804762Y-120761905D01*
X155757143Y-120809524D01*
X155185714Y-119333333D02*
X155852381Y-119333333D01*
X154804762Y-119571429D02*
X155519048Y-119809524D01*
X155519048Y-119190476D01*
X156852381Y-112242857D02*
X156376190Y-112576191D01*
X156852381Y-112814286D02*
X155852381Y-112814286D01*
X155852381Y-112433333D01*
X155900000Y-112338095D01*
X155947619Y-112290476D01*
X156042857Y-112242857D01*
X156185714Y-112242857D01*
X156280952Y-112290476D01*
X156328571Y-112338095D01*
X156376190Y-112433333D01*
X156376190Y-112814286D01*
X155852381Y-111909524D02*
X155852381Y-111290476D01*
X156233333Y-111623810D01*
X156233333Y-111480952D01*
X156280952Y-111385714D01*
X156328571Y-111338095D01*
X156423810Y-111290476D01*
X156661905Y-111290476D01*
X156757143Y-111338095D01*
X156804762Y-111385714D01*
X156852381Y-111480952D01*
X156852381Y-111766667D01*
X156804762Y-111861905D01*
X156757143Y-111909524D01*
X155852381Y-110433333D02*
X155852381Y-110623810D01*
X155900000Y-110719048D01*
X155947619Y-110766667D01*
X156090476Y-110861905D01*
X156280952Y-110909524D01*
X156661905Y-110909524D01*
X156757143Y-110861905D01*
X156804762Y-110814286D01*
X156852381Y-110719048D01*
X156852381Y-110528571D01*
X156804762Y-110433333D01*
X156757143Y-110385714D01*
X156661905Y-110338095D01*
X156423810Y-110338095D01*
X156328571Y-110385714D01*
X156280952Y-110433333D01*
X156233333Y-110528571D01*
X156233333Y-110719048D01*
X156280952Y-110814286D01*
X156328571Y-110861905D01*
X156423810Y-110909524D01*
X142452381Y-120742857D02*
X141976190Y-121076191D01*
X142452381Y-121314286D02*
X141452381Y-121314286D01*
X141452381Y-120933333D01*
X141500000Y-120838095D01*
X141547619Y-120790476D01*
X141642857Y-120742857D01*
X141785714Y-120742857D01*
X141880952Y-120790476D01*
X141928571Y-120838095D01*
X141976190Y-120933333D01*
X141976190Y-121314286D01*
X141452381Y-120409524D02*
X141452381Y-119790476D01*
X141833333Y-120123810D01*
X141833333Y-119980952D01*
X141880952Y-119885714D01*
X141928571Y-119838095D01*
X142023810Y-119790476D01*
X142261905Y-119790476D01*
X142357143Y-119838095D01*
X142404762Y-119885714D01*
X142452381Y-119980952D01*
X142452381Y-120266667D01*
X142404762Y-120361905D01*
X142357143Y-120409524D01*
X141452381Y-119457143D02*
X141452381Y-118790476D01*
X142452381Y-119219048D01*
X150357143Y-109952381D02*
X150023809Y-109476190D01*
X149785714Y-109952381D02*
X149785714Y-108952381D01*
X150166667Y-108952381D01*
X150261905Y-109000000D01*
X150309524Y-109047619D01*
X150357143Y-109142857D01*
X150357143Y-109285714D01*
X150309524Y-109380952D01*
X150261905Y-109428571D01*
X150166667Y-109476190D01*
X149785714Y-109476190D01*
X150690476Y-108952381D02*
X151309524Y-108952381D01*
X150976190Y-109333333D01*
X151119048Y-109333333D01*
X151214286Y-109380952D01*
X151261905Y-109428571D01*
X151309524Y-109523810D01*
X151309524Y-109761905D01*
X151261905Y-109857143D01*
X151214286Y-109904762D01*
X151119048Y-109952381D01*
X150833333Y-109952381D01*
X150738095Y-109904762D01*
X150690476Y-109857143D01*
X151880952Y-109380952D02*
X151785714Y-109333333D01*
X151738095Y-109285714D01*
X151690476Y-109190476D01*
X151690476Y-109142857D01*
X151738095Y-109047619D01*
X151785714Y-109000000D01*
X151880952Y-108952381D01*
X152071429Y-108952381D01*
X152166667Y-109000000D01*
X152214286Y-109047619D01*
X152261905Y-109142857D01*
X152261905Y-109190476D01*
X152214286Y-109285714D01*
X152166667Y-109333333D01*
X152071429Y-109380952D01*
X151880952Y-109380952D01*
X151785714Y-109428571D01*
X151738095Y-109476190D01*
X151690476Y-109571429D01*
X151690476Y-109761905D01*
X151738095Y-109857143D01*
X151785714Y-109904762D01*
X151880952Y-109952381D01*
X152071429Y-109952381D01*
X152166667Y-109904762D01*
X152214286Y-109857143D01*
X152261905Y-109761905D01*
X152261905Y-109571429D01*
X152214286Y-109476190D01*
X152166667Y-109428571D01*
X152071429Y-109380952D01*
X144757143Y-121452381D02*
X144423809Y-120976190D01*
X144185714Y-121452381D02*
X144185714Y-120452381D01*
X144566667Y-120452381D01*
X144661905Y-120500000D01*
X144709524Y-120547619D01*
X144757143Y-120642857D01*
X144757143Y-120785714D01*
X144709524Y-120880952D01*
X144661905Y-120928571D01*
X144566667Y-120976190D01*
X144185714Y-120976190D01*
X145090476Y-120452381D02*
X145709524Y-120452381D01*
X145376190Y-120833333D01*
X145519048Y-120833333D01*
X145614286Y-120880952D01*
X145661905Y-120928571D01*
X145709524Y-121023810D01*
X145709524Y-121261905D01*
X145661905Y-121357143D01*
X145614286Y-121404762D01*
X145519048Y-121452381D01*
X145233333Y-121452381D01*
X145138095Y-121404762D01*
X145090476Y-121357143D01*
X146185714Y-121452381D02*
X146376190Y-121452381D01*
X146471429Y-121404762D01*
X146519048Y-121357143D01*
X146614286Y-121214286D01*
X146661905Y-121023810D01*
X146661905Y-120642857D01*
X146614286Y-120547619D01*
X146566667Y-120500000D01*
X146471429Y-120452381D01*
X146280952Y-120452381D01*
X146185714Y-120500000D01*
X146138095Y-120547619D01*
X146090476Y-120642857D01*
X146090476Y-120880952D01*
X146138095Y-120976190D01*
X146185714Y-121023810D01*
X146280952Y-121071429D01*
X146471429Y-121071429D01*
X146566667Y-121023810D01*
X146614286Y-120976190D01*
X146661905Y-120880952D01*
X136157143Y-154052381D02*
X135823809Y-153576190D01*
X135585714Y-154052381D02*
X135585714Y-153052381D01*
X135966667Y-153052381D01*
X136061905Y-153100000D01*
X136109524Y-153147619D01*
X136157143Y-153242857D01*
X136157143Y-153385714D01*
X136109524Y-153480952D01*
X136061905Y-153528571D01*
X135966667Y-153576190D01*
X135585714Y-153576190D01*
X137014286Y-153385714D02*
X137014286Y-154052381D01*
X136776190Y-153004762D02*
X136538095Y-153719048D01*
X137157143Y-153719048D01*
X137728571Y-153052381D02*
X137823810Y-153052381D01*
X137919048Y-153100000D01*
X137966667Y-153147619D01*
X138014286Y-153242857D01*
X138061905Y-153433333D01*
X138061905Y-153671429D01*
X138014286Y-153861905D01*
X137966667Y-153957143D01*
X137919048Y-154004762D01*
X137823810Y-154052381D01*
X137728571Y-154052381D01*
X137633333Y-154004762D01*
X137585714Y-153957143D01*
X137538095Y-153861905D01*
X137490476Y-153671429D01*
X137490476Y-153433333D01*
X137538095Y-153242857D01*
X137585714Y-153147619D01*
X137633333Y-153100000D01*
X137728571Y-153052381D01*
X130557143Y-157952381D02*
X130223809Y-157476190D01*
X129985714Y-157952381D02*
X129985714Y-156952381D01*
X130366667Y-156952381D01*
X130461905Y-157000000D01*
X130509524Y-157047619D01*
X130557143Y-157142857D01*
X130557143Y-157285714D01*
X130509524Y-157380952D01*
X130461905Y-157428571D01*
X130366667Y-157476190D01*
X129985714Y-157476190D01*
X131414286Y-157285714D02*
X131414286Y-157952381D01*
X131176190Y-156904762D02*
X130938095Y-157619048D01*
X131557143Y-157619048D01*
X132461905Y-157952381D02*
X131890476Y-157952381D01*
X132176190Y-157952381D02*
X132176190Y-156952381D01*
X132080952Y-157095238D01*
X131985714Y-157190476D01*
X131890476Y-157238095D01*
X118702381Y-127261905D02*
X119511905Y-127261905D01*
X119607143Y-127214286D01*
X119654762Y-127166667D01*
X119702381Y-127071429D01*
X119702381Y-126880952D01*
X119654762Y-126785714D01*
X119607143Y-126738095D01*
X119511905Y-126690476D01*
X118702381Y-126690476D01*
X119702381Y-125690476D02*
X119702381Y-126261905D01*
X119702381Y-125976191D02*
X118702381Y-125976191D01*
X118845238Y-126071429D01*
X118940476Y-126166667D01*
X118988095Y-126261905D01*
X139452381Y-134061905D02*
X140261905Y-134061905D01*
X140357143Y-134014286D01*
X140404762Y-133966667D01*
X140452381Y-133871429D01*
X140452381Y-133680952D01*
X140404762Y-133585714D01*
X140357143Y-133538095D01*
X140261905Y-133490476D01*
X139452381Y-133490476D01*
X139452381Y-133109524D02*
X139452381Y-132490476D01*
X139833333Y-132823810D01*
X139833333Y-132680952D01*
X139880952Y-132585714D01*
X139928571Y-132538095D01*
X140023810Y-132490476D01*
X140261905Y-132490476D01*
X140357143Y-132538095D01*
X140404762Y-132585714D01*
X140452381Y-132680952D01*
X140452381Y-132966667D01*
X140404762Y-133061905D01*
X140357143Y-133109524D01*
X131438095Y-104652381D02*
X131438095Y-105461905D01*
X131485714Y-105557143D01*
X131533333Y-105604762D01*
X131628571Y-105652381D01*
X131819048Y-105652381D01*
X131914286Y-105604762D01*
X131961905Y-105557143D01*
X132009524Y-105461905D01*
X132009524Y-104652381D01*
X132914286Y-104985714D02*
X132914286Y-105652381D01*
X132676190Y-104604762D02*
X132438095Y-105319048D01*
X133057143Y-105319048D01*
X143652381Y-137361905D02*
X144461905Y-137361905D01*
X144557143Y-137314286D01*
X144604762Y-137266667D01*
X144652381Y-137171429D01*
X144652381Y-136980952D01*
X144604762Y-136885714D01*
X144557143Y-136838095D01*
X144461905Y-136790476D01*
X143652381Y-136790476D01*
X143652381Y-135838095D02*
X143652381Y-136314286D01*
X144128571Y-136361905D01*
X144080952Y-136314286D01*
X144033333Y-136219048D01*
X144033333Y-135980952D01*
X144080952Y-135885714D01*
X144128571Y-135838095D01*
X144223810Y-135790476D01*
X144461905Y-135790476D01*
X144557143Y-135838095D01*
X144604762Y-135885714D01*
X144652381Y-135980952D01*
X144652381Y-136219048D01*
X144604762Y-136314286D01*
X144557143Y-136361905D01*
X147838095Y-126452381D02*
X147838095Y-127261905D01*
X147885714Y-127357143D01*
X147933333Y-127404762D01*
X148028571Y-127452381D01*
X148219048Y-127452381D01*
X148314286Y-127404762D01*
X148361905Y-127357143D01*
X148409524Y-127261905D01*
X148409524Y-126452381D01*
X149314286Y-126452381D02*
X149123809Y-126452381D01*
X149028571Y-126500000D01*
X148980952Y-126547619D01*
X148885714Y-126690476D01*
X148838095Y-126880952D01*
X148838095Y-127261905D01*
X148885714Y-127357143D01*
X148933333Y-127404762D01*
X149028571Y-127452381D01*
X149219048Y-127452381D01*
X149314286Y-127404762D01*
X149361905Y-127357143D01*
X149409524Y-127261905D01*
X149409524Y-127023810D01*
X149361905Y-126928571D01*
X149314286Y-126880952D01*
X149219048Y-126833333D01*
X149028571Y-126833333D01*
X148933333Y-126880952D01*
X148885714Y-126928571D01*
X148838095Y-127023810D01*
X147038095Y-111052381D02*
X147038095Y-111861905D01*
X147085714Y-111957143D01*
X147133333Y-112004762D01*
X147228571Y-112052381D01*
X147419048Y-112052381D01*
X147514286Y-112004762D01*
X147561905Y-111957143D01*
X147609524Y-111861905D01*
X147609524Y-111052381D01*
X148228571Y-111480952D02*
X148133333Y-111433333D01*
X148085714Y-111385714D01*
X148038095Y-111290476D01*
X148038095Y-111242857D01*
X148085714Y-111147619D01*
X148133333Y-111100000D01*
X148228571Y-111052381D01*
X148419048Y-111052381D01*
X148514286Y-111100000D01*
X148561905Y-111147619D01*
X148609524Y-111242857D01*
X148609524Y-111290476D01*
X148561905Y-111385714D01*
X148514286Y-111433333D01*
X148419048Y-111480952D01*
X148228571Y-111480952D01*
X148133333Y-111528571D01*
X148085714Y-111576190D01*
X148038095Y-111671429D01*
X148038095Y-111861905D01*
X148085714Y-111957143D01*
X148133333Y-112004762D01*
X148228571Y-112052381D01*
X148419048Y-112052381D01*
X148514286Y-112004762D01*
X148561905Y-111957143D01*
X148609524Y-111861905D01*
X148609524Y-111671429D01*
X148561905Y-111576190D01*
X148514286Y-111528571D01*
X148419048Y-111480952D01*
X114580118Y-147646446D02*
X114243400Y-147983164D01*
X114714805Y-147040355D02*
X114580118Y-147646446D01*
X115186210Y-147511760D01*
X115085195Y-148824958D02*
X114681133Y-148420897D01*
X114883164Y-148622927D02*
X115590271Y-147915820D01*
X115421912Y-147949492D01*
X115287225Y-147949492D01*
X115186210Y-147915820D01*
X112561905Y-125052381D02*
X112561905Y-124052381D01*
X112942858Y-124052381D01*
X113038096Y-124100000D01*
X113085715Y-124147619D01*
X113133334Y-124242857D01*
X113133334Y-124385714D01*
X113085715Y-124480952D01*
X113038096Y-124528571D01*
X112942858Y-124576190D01*
X112561905Y-124576190D01*
X114085715Y-125052381D02*
X113514286Y-125052381D01*
X113800000Y-125052381D02*
X113800000Y-124052381D01*
X113704762Y-124195238D01*
X113609524Y-124290476D01*
X113514286Y-124338095D01*
X136157143Y-155852381D02*
X135823809Y-155376190D01*
X135585714Y-155852381D02*
X135585714Y-154852381D01*
X135966667Y-154852381D01*
X136061905Y-154900000D01*
X136109524Y-154947619D01*
X136157143Y-155042857D01*
X136157143Y-155185714D01*
X136109524Y-155280952D01*
X136061905Y-155328571D01*
X135966667Y-155376190D01*
X135585714Y-155376190D01*
X137014286Y-155185714D02*
X137014286Y-155852381D01*
X136776190Y-154804762D02*
X136538095Y-155519048D01*
X137157143Y-155519048D01*
X137490476Y-154947619D02*
X137538095Y-154900000D01*
X137633333Y-154852381D01*
X137871429Y-154852381D01*
X137966667Y-154900000D01*
X138014286Y-154947619D01*
X138061905Y-155042857D01*
X138061905Y-155138095D01*
X138014286Y-155280952D01*
X137442857Y-155852381D01*
X138061905Y-155852381D01*
X126757143Y-157952381D02*
X126423809Y-157476190D01*
X126185714Y-157952381D02*
X126185714Y-156952381D01*
X126566667Y-156952381D01*
X126661905Y-157000000D01*
X126709524Y-157047619D01*
X126757143Y-157142857D01*
X126757143Y-157285714D01*
X126709524Y-157380952D01*
X126661905Y-157428571D01*
X126566667Y-157476190D01*
X126185714Y-157476190D01*
X127614286Y-157285714D02*
X127614286Y-157952381D01*
X127376190Y-156904762D02*
X127138095Y-157619048D01*
X127757143Y-157619048D01*
X128042857Y-156952381D02*
X128661905Y-156952381D01*
X128328571Y-157333333D01*
X128471429Y-157333333D01*
X128566667Y-157380952D01*
X128614286Y-157428571D01*
X128661905Y-157523810D01*
X128661905Y-157761905D01*
X128614286Y-157857143D01*
X128566667Y-157904762D01*
X128471429Y-157952381D01*
X128185714Y-157952381D01*
X128090476Y-157904762D01*
X128042857Y-157857143D01*
M02*
