G04 #@! TF.FileFunction,Copper,L2,Bot,Signal*
%FSLAX46Y46*%
G04 Gerber Fmt 4.6, Leading zero omitted, Abs format (unit mm)*
G04 Created by KiCad (PCBNEW 4.0.2-stable) date 2016-08-13 10:38.46*
%MOMM*%
G01*
G04 APERTURE LIST*
%ADD10C,0.100000*%
%ADD11C,1.506220*%
%ADD12C,1.524000*%
%ADD13C,2.700020*%
%ADD14C,3.810000*%
%ADD15R,1.524000X1.524000*%
%ADD16C,0.600000*%
%ADD17C,0.250000*%
%ADD18C,0.500000*%
%ADD19C,0.254000*%
G04 APERTURE END LIST*
D10*
D11*
X122650000Y-129470000D03*
X122650000Y-126930000D03*
D12*
X113750000Y-129710000D03*
X113750000Y-132250000D03*
X111751020Y-132250000D03*
X111751020Y-129710000D03*
D13*
X109051000Y-124980520D03*
X109051000Y-136979480D03*
D14*
X167000000Y-154500000D03*
X167000000Y-107400000D03*
D15*
X165580000Y-114340000D03*
D12*
X165580000Y-117134000D03*
X165580000Y-119801000D03*
X165580000Y-122595000D03*
X165580000Y-125389000D03*
X165580000Y-128183000D03*
X165580000Y-130850000D03*
X165580000Y-133644000D03*
X165580000Y-136438000D03*
X165580000Y-139232000D03*
X165580000Y-141899000D03*
X165580000Y-144693000D03*
X165580000Y-147487000D03*
X168420000Y-115914800D03*
X168420000Y-118454800D03*
X168420000Y-121248800D03*
X168420000Y-123992000D03*
X168420000Y-126735200D03*
X168420000Y-129529200D03*
X168420000Y-132272400D03*
X168420000Y-135015600D03*
X168420000Y-137860400D03*
X168420000Y-140552800D03*
X168420000Y-143296000D03*
X168420000Y-146090000D03*
D16*
X171800000Y-114100000D03*
X171900000Y-121100000D03*
X172300000Y-129100000D03*
X172000000Y-135300000D03*
X171800000Y-142200000D03*
X168700000Y-150000000D03*
X161000000Y-150400000D03*
X148800000Y-151300000D03*
X153400000Y-146500000D03*
X154600000Y-146300000D03*
X156400000Y-146500000D03*
X156600000Y-132900000D03*
X155100000Y-133300000D03*
X152700000Y-133000000D03*
X106600000Y-116950000D03*
X112500000Y-108150000D03*
X117100000Y-108800000D03*
X128250000Y-124650000D03*
X126700000Y-121550000D03*
X131000000Y-153000000D03*
X123700000Y-153050000D03*
X142300000Y-132800000D03*
X140950000Y-138300000D03*
X129600000Y-131600000D03*
X123700000Y-140550000D03*
X118050000Y-132700000D03*
X149900000Y-130300000D03*
X152700000Y-124850000D03*
X153800000Y-118500000D03*
X152850000Y-105050000D03*
X120050000Y-141250000D03*
X116550000Y-139500000D03*
X118650000Y-139300000D03*
X139050000Y-134150000D03*
X138450000Y-137200000D03*
X136650000Y-138000000D03*
X136350000Y-142900000D03*
X126400000Y-146250000D03*
X129050000Y-146700000D03*
X102350000Y-141900000D03*
X126650000Y-115100000D03*
X123700000Y-117100000D03*
X124900000Y-130300000D03*
X144100000Y-143750000D03*
X139250000Y-129100000D03*
X146300000Y-123450000D03*
X139000000Y-125600000D03*
X126750000Y-107850000D03*
X124850000Y-110000000D03*
X115600000Y-113050000D03*
X101650000Y-119300000D03*
X120900000Y-135000000D03*
X108100000Y-121100000D03*
X130900000Y-122050000D03*
X140500000Y-112250000D03*
X129850000Y-129400000D03*
X127150000Y-129050000D03*
X145700000Y-113900000D03*
X147900000Y-113900000D03*
X156850000Y-124600000D03*
X159550000Y-127250000D03*
X155450000Y-140500000D03*
X154400000Y-141500000D03*
X137200000Y-122200000D03*
X138800000Y-123800000D03*
X152850000Y-131550000D03*
X154150000Y-132450000D03*
X134350000Y-148050000D03*
X136400000Y-146050000D03*
X136400000Y-128700000D03*
X137400000Y-127600000D03*
X123650000Y-137250000D03*
X126950000Y-137300000D03*
X127950000Y-141400000D03*
X129300000Y-142600000D03*
X132600000Y-140200000D03*
X131350000Y-141350000D03*
X151400000Y-110300000D03*
X154100000Y-111700000D03*
X160550000Y-137350000D03*
X158650000Y-137400000D03*
X127800000Y-131550000D03*
X127800000Y-134900000D03*
X128650000Y-131250000D03*
X128650000Y-135000000D03*
X149250000Y-118900000D03*
X146300000Y-118750000D03*
X152500000Y-110300000D03*
X154900000Y-110900000D03*
X137700000Y-139100000D03*
X138800000Y-140700000D03*
X150700000Y-134100000D03*
X152400000Y-134500000D03*
D17*
X167000000Y-107400000D02*
X167000000Y-109300000D01*
X167000000Y-109300000D02*
X171800000Y-114100000D01*
X171900000Y-121100000D02*
X172300000Y-121500000D01*
X172300000Y-121500000D02*
X172300000Y-129100000D01*
X172000000Y-135300000D02*
X171800000Y-135500000D01*
X171800000Y-135500000D02*
X171800000Y-142200000D01*
X168700000Y-150000000D02*
X168300000Y-150400000D01*
X168300000Y-150400000D02*
X161000000Y-150400000D01*
X116550000Y-139500000D02*
X116550000Y-139450000D01*
X126400000Y-146250000D02*
X126350000Y-146250000D01*
X123700000Y-117100000D02*
X123550000Y-117250000D01*
D18*
X109051000Y-124980520D02*
X109051000Y-136979480D01*
X127500000Y-129400000D02*
X129850000Y-129400000D01*
X127150000Y-129050000D02*
X127500000Y-129400000D01*
X145700000Y-113900000D02*
X147900000Y-113900000D01*
D17*
X156900000Y-124600000D02*
X156850000Y-124600000D01*
X159550000Y-127250000D02*
X156900000Y-124600000D01*
X155400000Y-140500000D02*
X155450000Y-140500000D01*
X154400000Y-141500000D02*
X155400000Y-140500000D01*
X137200000Y-122200000D02*
X138800000Y-123800000D01*
X152850000Y-131550000D02*
X153750000Y-132450000D01*
X153750000Y-132450000D02*
X154150000Y-132450000D01*
X134350000Y-148050000D02*
X136350000Y-146050000D01*
X136350000Y-146050000D02*
X136400000Y-146050000D01*
X136400000Y-128600000D02*
X136400000Y-128700000D01*
X137400000Y-127600000D02*
X136400000Y-128600000D01*
X123650000Y-137250000D02*
X123700000Y-137300000D01*
X123700000Y-137300000D02*
X126950000Y-137300000D01*
X128100000Y-141400000D02*
X127950000Y-141400000D01*
X129300000Y-142600000D02*
X128100000Y-141400000D01*
X132600000Y-140200000D02*
X131450000Y-141350000D01*
X131450000Y-141350000D02*
X131350000Y-141350000D01*
X152300000Y-111200000D02*
X151400000Y-110300000D01*
X153600000Y-111200000D02*
X152300000Y-111200000D01*
X154100000Y-111700000D02*
X153600000Y-111200000D01*
X158700000Y-137350000D02*
X160550000Y-137350000D01*
X158650000Y-137400000D02*
X158700000Y-137350000D01*
X127800000Y-131550000D02*
X127800000Y-134900000D01*
X128650000Y-131250000D02*
X128600000Y-131300000D01*
X128600000Y-131300000D02*
X128650000Y-135000000D01*
X149250000Y-118900000D02*
X149100000Y-118750000D01*
X149100000Y-118750000D02*
X146300000Y-118750000D01*
X154300000Y-110300000D02*
X152500000Y-110300000D01*
X154900000Y-110900000D02*
X154300000Y-110300000D01*
X138800000Y-140300000D02*
X138800000Y-140700000D01*
X137700000Y-139100000D02*
X138800000Y-140300000D01*
X152000000Y-134100000D02*
X150700000Y-134100000D01*
X152400000Y-134500000D02*
X152000000Y-134100000D01*
D19*
G36*
X174473000Y-160464950D02*
X100635050Y-160464950D01*
X100635050Y-156306440D01*
X165373165Y-156306440D01*
X165582353Y-156667289D01*
X166519650Y-157044824D01*
X167530077Y-157034933D01*
X168417647Y-156667289D01*
X168626835Y-156306440D01*
X167000000Y-154679605D01*
X165373165Y-156306440D01*
X100635050Y-156306440D01*
X100635050Y-154019650D01*
X164455176Y-154019650D01*
X164465067Y-155030077D01*
X164832711Y-155917647D01*
X165193560Y-156126835D01*
X166820395Y-154500000D01*
X167179605Y-154500000D01*
X168806440Y-156126835D01*
X169167289Y-155917647D01*
X169544824Y-154980350D01*
X169534933Y-153969923D01*
X169167289Y-153082353D01*
X168806440Y-152873165D01*
X167179605Y-154500000D01*
X166820395Y-154500000D01*
X165193560Y-152873165D01*
X164832711Y-153082353D01*
X164455176Y-154019650D01*
X100635050Y-154019650D01*
X100635050Y-152693560D01*
X165373165Y-152693560D01*
X167000000Y-154320395D01*
X168626835Y-152693560D01*
X168417647Y-152332711D01*
X167480350Y-151955176D01*
X166469923Y-151965067D01*
X165582353Y-152332711D01*
X165373165Y-152693560D01*
X100635050Y-152693560D01*
X100635050Y-148235167D01*
X133414838Y-148235167D01*
X133556883Y-148578943D01*
X133819673Y-148842192D01*
X134163201Y-148984838D01*
X134535167Y-148985162D01*
X134878943Y-148843117D01*
X135142192Y-148580327D01*
X135284838Y-148236799D01*
X135284879Y-148189923D01*
X136489723Y-146985079D01*
X136585167Y-146985162D01*
X136928943Y-146843117D01*
X137192192Y-146580327D01*
X137334838Y-146236799D01*
X137335162Y-145864833D01*
X137193117Y-145521057D01*
X136930327Y-145257808D01*
X136586799Y-145115162D01*
X136214833Y-145114838D01*
X135871057Y-145256883D01*
X135607808Y-145519673D01*
X135467409Y-145857789D01*
X134210320Y-147114878D01*
X134164833Y-147114838D01*
X133821057Y-147256883D01*
X133557808Y-147519673D01*
X133415162Y-147863201D01*
X133414838Y-148235167D01*
X100635050Y-148235167D01*
X100635050Y-144969661D01*
X164182758Y-144969661D01*
X164394990Y-145483303D01*
X164787630Y-145876629D01*
X165300900Y-146089757D01*
X165303336Y-146089759D01*
X164789697Y-146301990D01*
X164396371Y-146694630D01*
X164183243Y-147207900D01*
X164182758Y-147763661D01*
X164394990Y-148277303D01*
X164787630Y-148670629D01*
X165300900Y-148883757D01*
X165856661Y-148884242D01*
X166370303Y-148672010D01*
X166763629Y-148279370D01*
X166976757Y-147766100D01*
X166977242Y-147210339D01*
X166919344Y-147070213D01*
X167619392Y-147070213D01*
X167688857Y-147312397D01*
X168212302Y-147499144D01*
X168767368Y-147471362D01*
X169151143Y-147312397D01*
X169220608Y-147070213D01*
X168420000Y-146269605D01*
X167619392Y-147070213D01*
X166919344Y-147070213D01*
X166765010Y-146696697D01*
X166372370Y-146303371D01*
X165859100Y-146090243D01*
X165856664Y-146090241D01*
X166359915Y-145882302D01*
X167010856Y-145882302D01*
X167038638Y-146437368D01*
X167197603Y-146821143D01*
X167439787Y-146890608D01*
X168240395Y-146090000D01*
X168599605Y-146090000D01*
X169400213Y-146890608D01*
X169642397Y-146821143D01*
X169829144Y-146297698D01*
X169801362Y-145742632D01*
X169642397Y-145358857D01*
X169400213Y-145289392D01*
X168599605Y-146090000D01*
X168240395Y-146090000D01*
X167439787Y-145289392D01*
X167197603Y-145358857D01*
X167010856Y-145882302D01*
X166359915Y-145882302D01*
X166370303Y-145878010D01*
X166763629Y-145485370D01*
X166976757Y-144972100D01*
X166977242Y-144416339D01*
X166919344Y-144276213D01*
X167619392Y-144276213D01*
X167688857Y-144518397D01*
X168203707Y-144702077D01*
X168072632Y-144708638D01*
X167688857Y-144867603D01*
X167619392Y-145109787D01*
X168420000Y-145910395D01*
X169220608Y-145109787D01*
X169151143Y-144867603D01*
X168636293Y-144683923D01*
X168767368Y-144677362D01*
X169151143Y-144518397D01*
X169220608Y-144276213D01*
X168420000Y-143475605D01*
X167619392Y-144276213D01*
X166919344Y-144276213D01*
X166765010Y-143902697D01*
X166372370Y-143509371D01*
X165859100Y-143296243D01*
X165614344Y-143296029D01*
X165927368Y-143280362D01*
X166311143Y-143121397D01*
X166320635Y-143088302D01*
X167010856Y-143088302D01*
X167038638Y-143643368D01*
X167197603Y-144027143D01*
X167439787Y-144096608D01*
X168240395Y-143296000D01*
X168599605Y-143296000D01*
X169400213Y-144096608D01*
X169642397Y-144027143D01*
X169829144Y-143503698D01*
X169801362Y-142948632D01*
X169642397Y-142564857D01*
X169400213Y-142495392D01*
X168599605Y-143296000D01*
X168240395Y-143296000D01*
X167439787Y-142495392D01*
X167197603Y-142564857D01*
X167010856Y-143088302D01*
X166320635Y-143088302D01*
X166380608Y-142879213D01*
X165580000Y-142078605D01*
X164779392Y-142879213D01*
X164848857Y-143121397D01*
X165337668Y-143295788D01*
X165303339Y-143295758D01*
X164789697Y-143507990D01*
X164396371Y-143900630D01*
X164183243Y-144413900D01*
X164182758Y-144969661D01*
X100635050Y-144969661D01*
X100635050Y-141585167D01*
X127014838Y-141585167D01*
X127156883Y-141928943D01*
X127419673Y-142192192D01*
X127763201Y-142334838D01*
X127960208Y-142335010D01*
X128364878Y-142739680D01*
X128364838Y-142785167D01*
X128506883Y-143128943D01*
X128769673Y-143392192D01*
X129113201Y-143534838D01*
X129485167Y-143535162D01*
X129828943Y-143393117D01*
X130092192Y-143130327D01*
X130234838Y-142786799D01*
X130235162Y-142414833D01*
X130093117Y-142071057D01*
X129830327Y-141807808D01*
X129486799Y-141665162D01*
X129439923Y-141665121D01*
X129309969Y-141535167D01*
X130414838Y-141535167D01*
X130556883Y-141878943D01*
X130819673Y-142142192D01*
X131163201Y-142284838D01*
X131535167Y-142285162D01*
X131878943Y-142143117D01*
X132142192Y-141880327D01*
X132223230Y-141685167D01*
X153464838Y-141685167D01*
X153606883Y-142028943D01*
X153869673Y-142292192D01*
X154213201Y-142434838D01*
X154585167Y-142435162D01*
X154928943Y-142293117D01*
X155192192Y-142030327D01*
X155332968Y-141691302D01*
X164170856Y-141691302D01*
X164198638Y-142246368D01*
X164357603Y-142630143D01*
X164599787Y-142699608D01*
X165400395Y-141899000D01*
X165759605Y-141899000D01*
X166560213Y-142699608D01*
X166802397Y-142630143D01*
X166989144Y-142106698D01*
X166961362Y-141551632D01*
X166953650Y-141533013D01*
X167619392Y-141533013D01*
X167688857Y-141775197D01*
X168078835Y-141914328D01*
X168072632Y-141914638D01*
X167688857Y-142073603D01*
X167619392Y-142315787D01*
X168420000Y-143116395D01*
X169220608Y-142315787D01*
X169151143Y-142073603D01*
X168761165Y-141934472D01*
X168767368Y-141934162D01*
X169151143Y-141775197D01*
X169220608Y-141533013D01*
X168420000Y-140732405D01*
X167619392Y-141533013D01*
X166953650Y-141533013D01*
X166802397Y-141167857D01*
X166560213Y-141098392D01*
X165759605Y-141899000D01*
X165400395Y-141899000D01*
X164599787Y-141098392D01*
X164357603Y-141167857D01*
X164170856Y-141691302D01*
X155332968Y-141691302D01*
X155334838Y-141686799D01*
X155334879Y-141639923D01*
X155539723Y-141435079D01*
X155635167Y-141435162D01*
X155978943Y-141293117D01*
X156242192Y-141030327D01*
X156384838Y-140686799D01*
X156385162Y-140314833D01*
X156342761Y-140212213D01*
X164779392Y-140212213D01*
X164848857Y-140454397D01*
X165137070Y-140557221D01*
X164848857Y-140676603D01*
X164779392Y-140918787D01*
X165580000Y-141719395D01*
X166380608Y-140918787D01*
X166311143Y-140676603D01*
X166022930Y-140573779D01*
X166311143Y-140454397D01*
X166342491Y-140345102D01*
X167010856Y-140345102D01*
X167038638Y-140900168D01*
X167197603Y-141283943D01*
X167439787Y-141353408D01*
X168240395Y-140552800D01*
X168599605Y-140552800D01*
X169400213Y-141353408D01*
X169642397Y-141283943D01*
X169829144Y-140760498D01*
X169801362Y-140205432D01*
X169642397Y-139821657D01*
X169400213Y-139752192D01*
X168599605Y-140552800D01*
X168240395Y-140552800D01*
X167439787Y-139752192D01*
X167197603Y-139821657D01*
X167010856Y-140345102D01*
X166342491Y-140345102D01*
X166380608Y-140212213D01*
X165580000Y-139411605D01*
X164779392Y-140212213D01*
X156342761Y-140212213D01*
X156243117Y-139971057D01*
X155980327Y-139707808D01*
X155636799Y-139565162D01*
X155264833Y-139564838D01*
X154921057Y-139706883D01*
X154657808Y-139969673D01*
X154517409Y-140307789D01*
X154260320Y-140564878D01*
X154214833Y-140564838D01*
X153871057Y-140706883D01*
X153607808Y-140969673D01*
X153465162Y-141313201D01*
X153464838Y-141685167D01*
X132223230Y-141685167D01*
X132247086Y-141627716D01*
X132739680Y-141135122D01*
X132785167Y-141135162D01*
X133128943Y-140993117D01*
X133392192Y-140730327D01*
X133534838Y-140386799D01*
X133535162Y-140014833D01*
X133393117Y-139671057D01*
X133130327Y-139407808D01*
X132834977Y-139285167D01*
X136764838Y-139285167D01*
X136906883Y-139628943D01*
X137169673Y-139892192D01*
X137513201Y-140034838D01*
X137525953Y-140034849D01*
X137896114Y-140438661D01*
X137865162Y-140513201D01*
X137864838Y-140885167D01*
X138006883Y-141228943D01*
X138269673Y-141492192D01*
X138613201Y-141634838D01*
X138985167Y-141635162D01*
X139328943Y-141493117D01*
X139592192Y-141230327D01*
X139734838Y-140886799D01*
X139735162Y-140514833D01*
X139593117Y-140171057D01*
X139523592Y-140101410D01*
X139514118Y-140039934D01*
X139505419Y-140025604D01*
X139502148Y-140009161D01*
X139428775Y-139899350D01*
X139360237Y-139786449D01*
X138661603Y-139024302D01*
X164170856Y-139024302D01*
X164198638Y-139579368D01*
X164357603Y-139963143D01*
X164599787Y-140032608D01*
X165400395Y-139232000D01*
X165759605Y-139232000D01*
X166560213Y-140032608D01*
X166802397Y-139963143D01*
X166989144Y-139439698D01*
X166961362Y-138884632D01*
X166943129Y-138840613D01*
X167619392Y-138840613D01*
X167688857Y-139082797D01*
X168010015Y-139197375D01*
X167688857Y-139330403D01*
X167619392Y-139572587D01*
X168420000Y-140373195D01*
X169220608Y-139572587D01*
X169151143Y-139330403D01*
X168829985Y-139215825D01*
X169151143Y-139082797D01*
X169220608Y-138840613D01*
X168420000Y-138040005D01*
X167619392Y-138840613D01*
X166943129Y-138840613D01*
X166802397Y-138500857D01*
X166560213Y-138431392D01*
X165759605Y-139232000D01*
X165400395Y-139232000D01*
X164599787Y-138431392D01*
X164357603Y-138500857D01*
X164170856Y-139024302D01*
X138661603Y-139024302D01*
X138635092Y-138995382D01*
X138635162Y-138914833D01*
X138493117Y-138571057D01*
X138230327Y-138307808D01*
X137886799Y-138165162D01*
X137514833Y-138164838D01*
X137171057Y-138306883D01*
X136907808Y-138569673D01*
X136765162Y-138913201D01*
X136764838Y-139285167D01*
X132834977Y-139285167D01*
X132786799Y-139265162D01*
X132414833Y-139264838D01*
X132071057Y-139406883D01*
X131807808Y-139669673D01*
X131665162Y-140013201D01*
X131665121Y-140060077D01*
X131310233Y-140414965D01*
X131164833Y-140414838D01*
X130821057Y-140556883D01*
X130557808Y-140819673D01*
X130415162Y-141163201D01*
X130414838Y-141535167D01*
X129309969Y-141535167D01*
X128811599Y-141036797D01*
X128743117Y-140871057D01*
X128480327Y-140607808D01*
X128136799Y-140465162D01*
X127764833Y-140464838D01*
X127421057Y-140606883D01*
X127157808Y-140869673D01*
X127015162Y-141213201D01*
X127014838Y-141585167D01*
X100635050Y-141585167D01*
X100635050Y-125373631D01*
X107065646Y-125373631D01*
X107367209Y-126103469D01*
X107925114Y-126662349D01*
X108166000Y-126762373D01*
X108166000Y-135197370D01*
X107928051Y-135295689D01*
X107369171Y-135853594D01*
X107066335Y-136582905D01*
X107065646Y-137372591D01*
X107367209Y-138102429D01*
X107925114Y-138661309D01*
X108654425Y-138964145D01*
X109444111Y-138964834D01*
X110173949Y-138663271D01*
X110732829Y-138105366D01*
X111011119Y-137435167D01*
X122714838Y-137435167D01*
X122856883Y-137778943D01*
X123119673Y-138042192D01*
X123463201Y-138184838D01*
X123835167Y-138185162D01*
X124138083Y-138060000D01*
X126387537Y-138060000D01*
X126419673Y-138092192D01*
X126763201Y-138234838D01*
X127135167Y-138235162D01*
X127478943Y-138093117D01*
X127742192Y-137830327D01*
X127843991Y-137585167D01*
X157714838Y-137585167D01*
X157856883Y-137928943D01*
X158119673Y-138192192D01*
X158463201Y-138334838D01*
X158835167Y-138335162D01*
X159178943Y-138193117D01*
X159262205Y-138110000D01*
X159987537Y-138110000D01*
X160019673Y-138142192D01*
X160363201Y-138284838D01*
X160735167Y-138285162D01*
X161078943Y-138143117D01*
X161342192Y-137880327D01*
X161484838Y-137536799D01*
X161484941Y-137418213D01*
X164779392Y-137418213D01*
X164848857Y-137660397D01*
X165363707Y-137844077D01*
X165232632Y-137850638D01*
X164848857Y-138009603D01*
X164779392Y-138251787D01*
X165580000Y-139052395D01*
X166380608Y-138251787D01*
X166311143Y-138009603D01*
X165796293Y-137825923D01*
X165927368Y-137819362D01*
X166311143Y-137660397D01*
X166313350Y-137652702D01*
X167010856Y-137652702D01*
X167038638Y-138207768D01*
X167197603Y-138591543D01*
X167439787Y-138661008D01*
X168240395Y-137860400D01*
X168599605Y-137860400D01*
X169400213Y-138661008D01*
X169642397Y-138591543D01*
X169829144Y-138068098D01*
X169801362Y-137513032D01*
X169642397Y-137129257D01*
X169400213Y-137059792D01*
X168599605Y-137860400D01*
X168240395Y-137860400D01*
X167439787Y-137059792D01*
X167197603Y-137129257D01*
X167010856Y-137652702D01*
X166313350Y-137652702D01*
X166380608Y-137418213D01*
X165580000Y-136617605D01*
X164779392Y-137418213D01*
X161484941Y-137418213D01*
X161485162Y-137164833D01*
X161343117Y-136821057D01*
X161080327Y-136557808D01*
X160736799Y-136415162D01*
X160364833Y-136414838D01*
X160021057Y-136556883D01*
X159987882Y-136590000D01*
X159137441Y-136590000D01*
X158836799Y-136465162D01*
X158464833Y-136464838D01*
X158121057Y-136606883D01*
X157857808Y-136869673D01*
X157715162Y-137213201D01*
X157714838Y-137585167D01*
X127843991Y-137585167D01*
X127884838Y-137486799D01*
X127885162Y-137114833D01*
X127743117Y-136771057D01*
X127480327Y-136507808D01*
X127136799Y-136365162D01*
X126764833Y-136364838D01*
X126421057Y-136506883D01*
X126387882Y-136540000D01*
X124262376Y-136540000D01*
X124180327Y-136457808D01*
X123836799Y-136315162D01*
X123464833Y-136314838D01*
X123121057Y-136456883D01*
X122857808Y-136719673D01*
X122715162Y-137063201D01*
X122714838Y-137435167D01*
X111011119Y-137435167D01*
X111035665Y-137376055D01*
X111036354Y-136586369D01*
X110889231Y-136230302D01*
X164170856Y-136230302D01*
X164198638Y-136785368D01*
X164357603Y-137169143D01*
X164599787Y-137238608D01*
X165400395Y-136438000D01*
X165759605Y-136438000D01*
X166560213Y-137238608D01*
X166802397Y-137169143D01*
X166905486Y-136880187D01*
X167619392Y-136880187D01*
X168420000Y-137680795D01*
X169220608Y-136880187D01*
X169151143Y-136638003D01*
X168627698Y-136451256D01*
X168072632Y-136479038D01*
X167688857Y-136638003D01*
X167619392Y-136880187D01*
X166905486Y-136880187D01*
X166989144Y-136645698D01*
X166961362Y-136090632D01*
X166922087Y-135995813D01*
X167619392Y-135995813D01*
X167688857Y-136237997D01*
X168212302Y-136424744D01*
X168767368Y-136396962D01*
X169151143Y-136237997D01*
X169220608Y-135995813D01*
X168420000Y-135195205D01*
X167619392Y-135995813D01*
X166922087Y-135995813D01*
X166802397Y-135706857D01*
X166560213Y-135637392D01*
X165759605Y-136438000D01*
X165400395Y-136438000D01*
X164599787Y-135637392D01*
X164357603Y-135706857D01*
X164170856Y-136230302D01*
X110889231Y-136230302D01*
X110734791Y-135856531D01*
X110176886Y-135297651D01*
X109936000Y-135197627D01*
X109936000Y-133230213D01*
X110950412Y-133230213D01*
X111019877Y-133472397D01*
X111543322Y-133659144D01*
X112098388Y-133631362D01*
X112482163Y-133472397D01*
X112551628Y-133230213D01*
X111751020Y-132429605D01*
X110950412Y-133230213D01*
X109936000Y-133230213D01*
X109936000Y-132042302D01*
X110341876Y-132042302D01*
X110369658Y-132597368D01*
X110528623Y-132981143D01*
X110770807Y-133050608D01*
X111571415Y-132250000D01*
X110770807Y-131449392D01*
X110528623Y-131518857D01*
X110341876Y-132042302D01*
X109936000Y-132042302D01*
X109936000Y-129986661D01*
X110353778Y-129986661D01*
X110566010Y-130500303D01*
X110958650Y-130893629D01*
X111150747Y-130973395D01*
X111019877Y-131027603D01*
X110950412Y-131269787D01*
X111751020Y-132070395D01*
X112551628Y-131269787D01*
X112482163Y-131027603D01*
X112341702Y-130977491D01*
X112541323Y-130895010D01*
X112750530Y-130686168D01*
X112957630Y-130893629D01*
X113165512Y-130979949D01*
X112959697Y-131064990D01*
X112566371Y-131457630D01*
X112455154Y-131725471D01*
X111930625Y-132250000D01*
X112455189Y-132774564D01*
X112564990Y-133040303D01*
X112957630Y-133433629D01*
X113470900Y-133646757D01*
X114026661Y-133647242D01*
X114540303Y-133435010D01*
X114933629Y-133042370D01*
X115146757Y-132529100D01*
X115147242Y-131973339D01*
X115048832Y-131735167D01*
X126864838Y-131735167D01*
X127006883Y-132078943D01*
X127040000Y-132112118D01*
X127040000Y-134337537D01*
X127007808Y-134369673D01*
X126865162Y-134713201D01*
X126864838Y-135085167D01*
X127006883Y-135428943D01*
X127269673Y-135692192D01*
X127613201Y-135834838D01*
X127985167Y-135835162D01*
X128110763Y-135783267D01*
X128119673Y-135792192D01*
X128463201Y-135934838D01*
X128835167Y-135935162D01*
X129178943Y-135793117D01*
X129442192Y-135530327D01*
X129584838Y-135186799D01*
X129585162Y-134814833D01*
X129443117Y-134471057D01*
X129402370Y-134430239D01*
X129400410Y-134285167D01*
X149764838Y-134285167D01*
X149906883Y-134628943D01*
X150169673Y-134892192D01*
X150513201Y-135034838D01*
X150885167Y-135035162D01*
X151228943Y-134893117D01*
X151262118Y-134860000D01*
X151537077Y-134860000D01*
X151606883Y-135028943D01*
X151869673Y-135292192D01*
X152213201Y-135434838D01*
X152585167Y-135435162D01*
X152928943Y-135293117D01*
X153192192Y-135030327D01*
X153334838Y-134686799D01*
X153334892Y-134624213D01*
X164779392Y-134624213D01*
X164848857Y-134866397D01*
X165363707Y-135050077D01*
X165232632Y-135056638D01*
X164848857Y-135215603D01*
X164779392Y-135457787D01*
X165580000Y-136258395D01*
X166380608Y-135457787D01*
X166311143Y-135215603D01*
X165796293Y-135031923D01*
X165927368Y-135025362D01*
X166311143Y-134866397D01*
X166327920Y-134807902D01*
X167010856Y-134807902D01*
X167038638Y-135362968D01*
X167197603Y-135746743D01*
X167439787Y-135816208D01*
X168240395Y-135015600D01*
X168599605Y-135015600D01*
X169400213Y-135816208D01*
X169642397Y-135746743D01*
X169829144Y-135223298D01*
X169801362Y-134668232D01*
X169642397Y-134284457D01*
X169400213Y-134214992D01*
X168599605Y-135015600D01*
X168240395Y-135015600D01*
X167439787Y-134214992D01*
X167197603Y-134284457D01*
X167010856Y-134807902D01*
X166327920Y-134807902D01*
X166380608Y-134624213D01*
X165580000Y-133823605D01*
X164779392Y-134624213D01*
X153334892Y-134624213D01*
X153335162Y-134314833D01*
X153193117Y-133971057D01*
X152930327Y-133707808D01*
X152586799Y-133565162D01*
X152539923Y-133565121D01*
X152537401Y-133562599D01*
X152348384Y-133436302D01*
X164170856Y-133436302D01*
X164198638Y-133991368D01*
X164357603Y-134375143D01*
X164599787Y-134444608D01*
X165400395Y-133644000D01*
X165759605Y-133644000D01*
X166560213Y-134444608D01*
X166802397Y-134375143D01*
X166989144Y-133851698D01*
X166961362Y-133296632D01*
X166943129Y-133252613D01*
X167619392Y-133252613D01*
X167688857Y-133494797D01*
X168078835Y-133633928D01*
X168072632Y-133634238D01*
X167688857Y-133793203D01*
X167619392Y-134035387D01*
X168420000Y-134835995D01*
X169220608Y-134035387D01*
X169151143Y-133793203D01*
X168761165Y-133654072D01*
X168767368Y-133653762D01*
X169151143Y-133494797D01*
X169220608Y-133252613D01*
X168420000Y-132452005D01*
X167619392Y-133252613D01*
X166943129Y-133252613D01*
X166802397Y-132912857D01*
X166560213Y-132843392D01*
X165759605Y-133644000D01*
X165400395Y-133644000D01*
X164599787Y-132843392D01*
X164357603Y-132912857D01*
X164170856Y-133436302D01*
X152348384Y-133436302D01*
X152290839Y-133397852D01*
X152000000Y-133340000D01*
X151262463Y-133340000D01*
X151230327Y-133307808D01*
X150886799Y-133165162D01*
X150514833Y-133164838D01*
X150171057Y-133306883D01*
X149907808Y-133569673D01*
X149765162Y-133913201D01*
X149764838Y-134285167D01*
X129400410Y-134285167D01*
X129367567Y-131854822D01*
X129442192Y-131780327D01*
X129460944Y-131735167D01*
X151914838Y-131735167D01*
X152056883Y-132078943D01*
X152319673Y-132342192D01*
X152663201Y-132484838D01*
X152710077Y-132484879D01*
X153212599Y-132987401D01*
X153459160Y-133152148D01*
X153547285Y-133169677D01*
X153619673Y-133242192D01*
X153963201Y-133384838D01*
X154335167Y-133385162D01*
X154678943Y-133243117D01*
X154942192Y-132980327D01*
X155084838Y-132636799D01*
X155085162Y-132264833D01*
X154943117Y-131921057D01*
X154680327Y-131657808D01*
X154336799Y-131515162D01*
X153964833Y-131514838D01*
X153911625Y-131536823D01*
X153785122Y-131410320D01*
X153785162Y-131364833D01*
X153643117Y-131021057D01*
X153380327Y-130757808D01*
X153036799Y-130615162D01*
X152664833Y-130614838D01*
X152321057Y-130756883D01*
X152057808Y-131019673D01*
X151915162Y-131363201D01*
X151914838Y-131735167D01*
X129460944Y-131735167D01*
X129584838Y-131436799D01*
X129585162Y-131064833D01*
X129443117Y-130721057D01*
X129180327Y-130457808D01*
X128836799Y-130315162D01*
X128464833Y-130314838D01*
X128121057Y-130456883D01*
X127962523Y-130615141D01*
X127614833Y-130614838D01*
X127271057Y-130756883D01*
X127007808Y-131019673D01*
X126865162Y-131363201D01*
X126864838Y-131735167D01*
X115048832Y-131735167D01*
X114935010Y-131459697D01*
X114542370Y-131066371D01*
X114334488Y-130980051D01*
X114540303Y-130895010D01*
X114933629Y-130502370D01*
X115146757Y-129989100D01*
X115147242Y-129433339D01*
X114935010Y-128919697D01*
X114542370Y-128526371D01*
X114029100Y-128313243D01*
X113473339Y-128312758D01*
X112959697Y-128524990D01*
X112750490Y-128733832D01*
X112543390Y-128526371D01*
X112030120Y-128313243D01*
X111474359Y-128312758D01*
X110960717Y-128524990D01*
X110567391Y-128917630D01*
X110354263Y-129430900D01*
X110353778Y-129986661D01*
X109936000Y-129986661D01*
X109936000Y-127204901D01*
X121261649Y-127204901D01*
X121472531Y-127715274D01*
X121862672Y-128106096D01*
X122088743Y-128199969D01*
X121864726Y-128292531D01*
X121473904Y-128682672D01*
X121262131Y-129192676D01*
X121261649Y-129744901D01*
X121472531Y-130255274D01*
X121862672Y-130646096D01*
X122372676Y-130857869D01*
X122924901Y-130858351D01*
X123435274Y-130647469D01*
X123826096Y-130257328D01*
X124037869Y-129747324D01*
X124038316Y-129235167D01*
X126214838Y-129235167D01*
X126356883Y-129578943D01*
X126619673Y-129842192D01*
X126740987Y-129892566D01*
X126874208Y-130025787D01*
X126874210Y-130025790D01*
X127161325Y-130217633D01*
X127217516Y-130228810D01*
X127500000Y-130285001D01*
X127500005Y-130285000D01*
X129543178Y-130285000D01*
X129663201Y-130334838D01*
X130035167Y-130335162D01*
X130378943Y-130193117D01*
X130642192Y-129930327D01*
X130784838Y-129586799D01*
X130785162Y-129214833D01*
X130648948Y-128885167D01*
X135464838Y-128885167D01*
X135606883Y-129228943D01*
X135869673Y-129492192D01*
X136213201Y-129634838D01*
X136585167Y-129635162D01*
X136928943Y-129493117D01*
X137192192Y-129230327D01*
X137334838Y-128886799D01*
X137334966Y-128739836D01*
X137539680Y-128535122D01*
X137585167Y-128535162D01*
X137928943Y-128393117D01*
X138192192Y-128130327D01*
X138334838Y-127786799D01*
X138335162Y-127414833D01*
X138193117Y-127071057D01*
X137930327Y-126807808D01*
X137586799Y-126665162D01*
X137214833Y-126664838D01*
X136871057Y-126806883D01*
X136607808Y-127069673D01*
X136465162Y-127413201D01*
X136465121Y-127460077D01*
X136122004Y-127803194D01*
X135871057Y-127906883D01*
X135607808Y-128169673D01*
X135465162Y-128513201D01*
X135464838Y-128885167D01*
X130648948Y-128885167D01*
X130643117Y-128871057D01*
X130380327Y-128607808D01*
X130036799Y-128465162D01*
X129664833Y-128464838D01*
X129543431Y-128515000D01*
X127937071Y-128515000D01*
X127680327Y-128257808D01*
X127336799Y-128115162D01*
X126964833Y-128114838D01*
X126621057Y-128256883D01*
X126357808Y-128519673D01*
X126215162Y-128863201D01*
X126214838Y-129235167D01*
X124038316Y-129235167D01*
X124038351Y-129195099D01*
X123827469Y-128684726D01*
X123437328Y-128293904D01*
X123211257Y-128200031D01*
X123435274Y-128107469D01*
X123826096Y-127717328D01*
X124037869Y-127207324D01*
X124038351Y-126655099D01*
X123827469Y-126144726D01*
X123437328Y-125753904D01*
X122927324Y-125542131D01*
X122375099Y-125541649D01*
X121864726Y-125752531D01*
X121473904Y-126142672D01*
X121262131Y-126652676D01*
X121261649Y-127204901D01*
X109936000Y-127204901D01*
X109936000Y-126762630D01*
X110173949Y-126664311D01*
X110732829Y-126106406D01*
X111035665Y-125377095D01*
X111036181Y-124785167D01*
X155914838Y-124785167D01*
X156056883Y-125128943D01*
X156319673Y-125392192D01*
X156663201Y-125534838D01*
X156760120Y-125534922D01*
X158614878Y-127389680D01*
X158614838Y-127435167D01*
X158756883Y-127778943D01*
X159019673Y-128042192D01*
X159363201Y-128184838D01*
X159735167Y-128185162D01*
X160078943Y-128043117D01*
X160342192Y-127780327D01*
X160484838Y-127436799D01*
X160485162Y-127064833D01*
X160343117Y-126721057D01*
X160080327Y-126457808D01*
X159736799Y-126315162D01*
X159689923Y-126315121D01*
X157782012Y-124407210D01*
X157643117Y-124071057D01*
X157380327Y-123807808D01*
X157036799Y-123665162D01*
X156664833Y-123664838D01*
X156321057Y-123806883D01*
X156057808Y-124069673D01*
X155915162Y-124413201D01*
X155914838Y-124785167D01*
X111036181Y-124785167D01*
X111036354Y-124587409D01*
X110734791Y-123857571D01*
X110176886Y-123298691D01*
X109447575Y-122995855D01*
X108657889Y-122995166D01*
X107928051Y-123296729D01*
X107369171Y-123854634D01*
X107066335Y-124583945D01*
X107065646Y-125373631D01*
X100635050Y-125373631D01*
X100635050Y-122385167D01*
X136264838Y-122385167D01*
X136406883Y-122728943D01*
X136669673Y-122992192D01*
X137013201Y-123134838D01*
X137060077Y-123134879D01*
X137864878Y-123939680D01*
X137864838Y-123985167D01*
X138006883Y-124328943D01*
X138269673Y-124592192D01*
X138613201Y-124734838D01*
X138985167Y-124735162D01*
X139328943Y-124593117D01*
X139592192Y-124330327D01*
X139734838Y-123986799D01*
X139735162Y-123614833D01*
X139593117Y-123271057D01*
X139330327Y-123007808D01*
X138986799Y-122865162D01*
X138939923Y-122865121D01*
X138135122Y-122060320D01*
X138135162Y-122014833D01*
X137993117Y-121671057D01*
X137730327Y-121407808D01*
X137386799Y-121265162D01*
X137014833Y-121264838D01*
X136671057Y-121406883D01*
X136407808Y-121669673D01*
X136265162Y-122013201D01*
X136264838Y-122385167D01*
X100635050Y-122385167D01*
X100635050Y-118935167D01*
X145364838Y-118935167D01*
X145506883Y-119278943D01*
X145769673Y-119542192D01*
X146113201Y-119684838D01*
X146485167Y-119685162D01*
X146828943Y-119543117D01*
X146862118Y-119510000D01*
X148537799Y-119510000D01*
X148719673Y-119692192D01*
X149063201Y-119834838D01*
X149435167Y-119835162D01*
X149778943Y-119693117D01*
X150042192Y-119430327D01*
X150184838Y-119086799D01*
X150185162Y-118714833D01*
X150043117Y-118371057D01*
X149780327Y-118107808D01*
X149436799Y-117965162D01*
X149064833Y-117964838D01*
X149003936Y-117990000D01*
X146862463Y-117990000D01*
X146830327Y-117957808D01*
X146486799Y-117815162D01*
X146114833Y-117814838D01*
X145771057Y-117956883D01*
X145507808Y-118219673D01*
X145365162Y-118563201D01*
X145364838Y-118935167D01*
X100635050Y-118935167D01*
X100635050Y-114085167D01*
X144764838Y-114085167D01*
X144906883Y-114428943D01*
X145169673Y-114692192D01*
X145513201Y-114834838D01*
X145885167Y-114835162D01*
X146006569Y-114785000D01*
X147593178Y-114785000D01*
X147713201Y-114834838D01*
X148085167Y-114835162D01*
X148428943Y-114693117D01*
X148692192Y-114430327D01*
X148834838Y-114086799D01*
X148835162Y-113714833D01*
X148778624Y-113578000D01*
X164170560Y-113578000D01*
X164170560Y-115102000D01*
X164214838Y-115337317D01*
X164353910Y-115553441D01*
X164566110Y-115698431D01*
X164818000Y-115749440D01*
X165272646Y-115749440D01*
X164789697Y-115948990D01*
X164396371Y-116341630D01*
X164183243Y-116854900D01*
X164182758Y-117410661D01*
X164394990Y-117924303D01*
X164787630Y-118317629D01*
X165148815Y-118467606D01*
X164789697Y-118615990D01*
X164396371Y-119008630D01*
X164183243Y-119521900D01*
X164182758Y-120077661D01*
X164394990Y-120591303D01*
X164787630Y-120984629D01*
X165300900Y-121197757D01*
X165303336Y-121197759D01*
X164789697Y-121409990D01*
X164396371Y-121802630D01*
X164183243Y-122315900D01*
X164182758Y-122871661D01*
X164394990Y-123385303D01*
X164787630Y-123778629D01*
X165300900Y-123991757D01*
X165303336Y-123991759D01*
X164789697Y-124203990D01*
X164396371Y-124596630D01*
X164183243Y-125109900D01*
X164182758Y-125665661D01*
X164394990Y-126179303D01*
X164787630Y-126572629D01*
X165300900Y-126785757D01*
X165303336Y-126785759D01*
X164789697Y-126997990D01*
X164396371Y-127390630D01*
X164183243Y-127903900D01*
X164182758Y-128459661D01*
X164394990Y-128973303D01*
X164787630Y-129366629D01*
X165148815Y-129516606D01*
X164789697Y-129664990D01*
X164396371Y-130057630D01*
X164183243Y-130570900D01*
X164182758Y-131126661D01*
X164394990Y-131640303D01*
X164787630Y-132033629D01*
X165300900Y-132246757D01*
X165545656Y-132246971D01*
X165232632Y-132262638D01*
X164848857Y-132421603D01*
X164779392Y-132663787D01*
X165580000Y-133464395D01*
X166380608Y-132663787D01*
X166311143Y-132421603D01*
X165822332Y-132247212D01*
X165856661Y-132247242D01*
X166298442Y-132064702D01*
X167010856Y-132064702D01*
X167038638Y-132619768D01*
X167197603Y-133003543D01*
X167439787Y-133073008D01*
X168240395Y-132272400D01*
X168599605Y-132272400D01*
X169400213Y-133073008D01*
X169642397Y-133003543D01*
X169829144Y-132480098D01*
X169801362Y-131925032D01*
X169642397Y-131541257D01*
X169400213Y-131471792D01*
X168599605Y-132272400D01*
X168240395Y-132272400D01*
X167439787Y-131471792D01*
X167197603Y-131541257D01*
X167010856Y-132064702D01*
X166298442Y-132064702D01*
X166370303Y-132035010D01*
X166763629Y-131642370D01*
X166976757Y-131129100D01*
X166977242Y-130573339D01*
X166950829Y-130509413D01*
X167619392Y-130509413D01*
X167688857Y-130751597D01*
X168078835Y-130890728D01*
X168072632Y-130891038D01*
X167688857Y-131050003D01*
X167619392Y-131292187D01*
X168420000Y-132092795D01*
X169220608Y-131292187D01*
X169151143Y-131050003D01*
X168761165Y-130910872D01*
X168767368Y-130910562D01*
X169151143Y-130751597D01*
X169220608Y-130509413D01*
X168420000Y-129708805D01*
X167619392Y-130509413D01*
X166950829Y-130509413D01*
X166765010Y-130059697D01*
X166372370Y-129666371D01*
X166011185Y-129516394D01*
X166370303Y-129368010D01*
X166416892Y-129321502D01*
X167010856Y-129321502D01*
X167038638Y-129876568D01*
X167197603Y-130260343D01*
X167439787Y-130329808D01*
X168240395Y-129529200D01*
X168599605Y-129529200D01*
X169400213Y-130329808D01*
X169642397Y-130260343D01*
X169829144Y-129736898D01*
X169801362Y-129181832D01*
X169642397Y-128798057D01*
X169400213Y-128728592D01*
X168599605Y-129529200D01*
X168240395Y-129529200D01*
X167439787Y-128728592D01*
X167197603Y-128798057D01*
X167010856Y-129321502D01*
X166416892Y-129321502D01*
X166763629Y-128975370D01*
X166976757Y-128462100D01*
X166977242Y-127906339D01*
X166898354Y-127715413D01*
X167619392Y-127715413D01*
X167688857Y-127957597D01*
X168203707Y-128141277D01*
X168072632Y-128147838D01*
X167688857Y-128306803D01*
X167619392Y-128548987D01*
X168420000Y-129349595D01*
X169220608Y-128548987D01*
X169151143Y-128306803D01*
X168636293Y-128123123D01*
X168767368Y-128116562D01*
X169151143Y-127957597D01*
X169220608Y-127715413D01*
X168420000Y-126914805D01*
X167619392Y-127715413D01*
X166898354Y-127715413D01*
X166765010Y-127392697D01*
X166372370Y-126999371D01*
X165859100Y-126786243D01*
X165856664Y-126786241D01*
X166370303Y-126574010D01*
X166416892Y-126527502D01*
X167010856Y-126527502D01*
X167038638Y-127082568D01*
X167197603Y-127466343D01*
X167439787Y-127535808D01*
X168240395Y-126735200D01*
X168599605Y-126735200D01*
X169400213Y-127535808D01*
X169642397Y-127466343D01*
X169829144Y-126942898D01*
X169801362Y-126387832D01*
X169642397Y-126004057D01*
X169400213Y-125934592D01*
X168599605Y-126735200D01*
X168240395Y-126735200D01*
X167439787Y-125934592D01*
X167197603Y-126004057D01*
X167010856Y-126527502D01*
X166416892Y-126527502D01*
X166763629Y-126181370D01*
X166976757Y-125668100D01*
X166977242Y-125112339D01*
X166765010Y-124598697D01*
X166435550Y-124268661D01*
X167022758Y-124268661D01*
X167234990Y-124782303D01*
X167627630Y-125175629D01*
X168064709Y-125357120D01*
X167688857Y-125512803D01*
X167619392Y-125754987D01*
X168420000Y-126555595D01*
X169220608Y-125754987D01*
X169151143Y-125512803D01*
X168746771Y-125368537D01*
X169210303Y-125177010D01*
X169603629Y-124784370D01*
X169816757Y-124271100D01*
X169817242Y-123715339D01*
X169605010Y-123201697D01*
X169212370Y-122808371D01*
X168775291Y-122626880D01*
X169151143Y-122471197D01*
X169220608Y-122229013D01*
X168420000Y-121428405D01*
X167619392Y-122229013D01*
X167688857Y-122471197D01*
X168093229Y-122615463D01*
X167629697Y-122806990D01*
X167236371Y-123199630D01*
X167023243Y-123712900D01*
X167022758Y-124268661D01*
X166435550Y-124268661D01*
X166372370Y-124205371D01*
X165859100Y-123992243D01*
X165856664Y-123992241D01*
X166370303Y-123780010D01*
X166763629Y-123387370D01*
X166976757Y-122874100D01*
X166977242Y-122318339D01*
X166765010Y-121804697D01*
X166372370Y-121411371D01*
X165859100Y-121198243D01*
X165856664Y-121198241D01*
X166236969Y-121041102D01*
X167010856Y-121041102D01*
X167038638Y-121596168D01*
X167197603Y-121979943D01*
X167439787Y-122049408D01*
X168240395Y-121248800D01*
X168599605Y-121248800D01*
X169400213Y-122049408D01*
X169642397Y-121979943D01*
X169829144Y-121456498D01*
X169801362Y-120901432D01*
X169642397Y-120517657D01*
X169400213Y-120448192D01*
X168599605Y-121248800D01*
X168240395Y-121248800D01*
X167439787Y-120448192D01*
X167197603Y-120517657D01*
X167010856Y-121041102D01*
X166236969Y-121041102D01*
X166370303Y-120986010D01*
X166763629Y-120593370D01*
X166976757Y-120080100D01*
X166977242Y-119524339D01*
X166765010Y-119010697D01*
X166372370Y-118617371D01*
X166011185Y-118467394D01*
X166370303Y-118319010D01*
X166763629Y-117926370D01*
X166976757Y-117413100D01*
X166977242Y-116857339D01*
X166765010Y-116343697D01*
X166613040Y-116191461D01*
X167022758Y-116191461D01*
X167234990Y-116705103D01*
X167627630Y-117098429D01*
X167835512Y-117184749D01*
X167629697Y-117269790D01*
X167236371Y-117662430D01*
X167023243Y-118175700D01*
X167022758Y-118731461D01*
X167234990Y-119245103D01*
X167627630Y-119638429D01*
X168140900Y-119851557D01*
X168385656Y-119851771D01*
X168072632Y-119867438D01*
X167688857Y-120026403D01*
X167619392Y-120268587D01*
X168420000Y-121069195D01*
X169220608Y-120268587D01*
X169151143Y-120026403D01*
X168662332Y-119852012D01*
X168696661Y-119852042D01*
X169210303Y-119639810D01*
X169603629Y-119247170D01*
X169816757Y-118733900D01*
X169817242Y-118178139D01*
X169605010Y-117664497D01*
X169212370Y-117271171D01*
X169004488Y-117184851D01*
X169210303Y-117099810D01*
X169603629Y-116707170D01*
X169816757Y-116193900D01*
X169817242Y-115638139D01*
X169605010Y-115124497D01*
X169212370Y-114731171D01*
X168699100Y-114518043D01*
X168143339Y-114517558D01*
X167629697Y-114729790D01*
X167236371Y-115122430D01*
X167023243Y-115635700D01*
X167022758Y-116191461D01*
X166613040Y-116191461D01*
X166372370Y-115950371D01*
X165888474Y-115749440D01*
X166342000Y-115749440D01*
X166577317Y-115705162D01*
X166793441Y-115566090D01*
X166938431Y-115353890D01*
X166989440Y-115102000D01*
X166989440Y-113578000D01*
X166945162Y-113342683D01*
X166806090Y-113126559D01*
X166593890Y-112981569D01*
X166342000Y-112930560D01*
X164818000Y-112930560D01*
X164582683Y-112974838D01*
X164366559Y-113113910D01*
X164221569Y-113326110D01*
X164170560Y-113578000D01*
X148778624Y-113578000D01*
X148693117Y-113371057D01*
X148430327Y-113107808D01*
X148086799Y-112965162D01*
X147714833Y-112964838D01*
X147593431Y-113015000D01*
X146006822Y-113015000D01*
X145886799Y-112965162D01*
X145514833Y-112964838D01*
X145171057Y-113106883D01*
X144907808Y-113369673D01*
X144765162Y-113713201D01*
X144764838Y-114085167D01*
X100635050Y-114085167D01*
X100635050Y-110485167D01*
X150464838Y-110485167D01*
X150606883Y-110828943D01*
X150869673Y-111092192D01*
X151213201Y-111234838D01*
X151260077Y-111234879D01*
X151762599Y-111737401D01*
X152009160Y-111902148D01*
X152300000Y-111960000D01*
X153195758Y-111960000D01*
X153306883Y-112228943D01*
X153569673Y-112492192D01*
X153913201Y-112634838D01*
X154285167Y-112635162D01*
X154628943Y-112493117D01*
X154892192Y-112230327D01*
X155034838Y-111886799D01*
X155034883Y-111835118D01*
X155085167Y-111835162D01*
X155428943Y-111693117D01*
X155692192Y-111430327D01*
X155834838Y-111086799D01*
X155835162Y-110714833D01*
X155693117Y-110371057D01*
X155430327Y-110107808D01*
X155086799Y-109965162D01*
X155039923Y-109965121D01*
X154837401Y-109762599D01*
X154590839Y-109597852D01*
X154300000Y-109540000D01*
X153062463Y-109540000D01*
X153030327Y-109507808D01*
X152686799Y-109365162D01*
X152314833Y-109364838D01*
X151971057Y-109506883D01*
X151950194Y-109527710D01*
X151930327Y-109507808D01*
X151586799Y-109365162D01*
X151214833Y-109364838D01*
X150871057Y-109506883D01*
X150607808Y-109769673D01*
X150465162Y-110113201D01*
X150464838Y-110485167D01*
X100635050Y-110485167D01*
X100635050Y-109206440D01*
X165373165Y-109206440D01*
X165582353Y-109567289D01*
X166519650Y-109944824D01*
X167530077Y-109934933D01*
X168417647Y-109567289D01*
X168626835Y-109206440D01*
X167000000Y-107579605D01*
X165373165Y-109206440D01*
X100635050Y-109206440D01*
X100635050Y-106919650D01*
X164455176Y-106919650D01*
X164465067Y-107930077D01*
X164832711Y-108817647D01*
X165193560Y-109026835D01*
X166820395Y-107400000D01*
X167179605Y-107400000D01*
X168806440Y-109026835D01*
X169167289Y-108817647D01*
X169544824Y-107880350D01*
X169534933Y-106869923D01*
X169167289Y-105982353D01*
X168806440Y-105773165D01*
X167179605Y-107400000D01*
X166820395Y-107400000D01*
X165193560Y-105773165D01*
X164832711Y-105982353D01*
X164455176Y-106919650D01*
X100635050Y-106919650D01*
X100635050Y-105593560D01*
X165373165Y-105593560D01*
X167000000Y-107220395D01*
X168626835Y-105593560D01*
X168417647Y-105232711D01*
X167480350Y-104855176D01*
X166469923Y-104865067D01*
X165582353Y-105232711D01*
X165373165Y-105593560D01*
X100635050Y-105593560D01*
X100635050Y-100635050D01*
X174473000Y-100635050D01*
X174473000Y-160464950D01*
X174473000Y-160464950D01*
G37*
X174473000Y-160464950D02*
X100635050Y-160464950D01*
X100635050Y-156306440D01*
X165373165Y-156306440D01*
X165582353Y-156667289D01*
X166519650Y-157044824D01*
X167530077Y-157034933D01*
X168417647Y-156667289D01*
X168626835Y-156306440D01*
X167000000Y-154679605D01*
X165373165Y-156306440D01*
X100635050Y-156306440D01*
X100635050Y-154019650D01*
X164455176Y-154019650D01*
X164465067Y-155030077D01*
X164832711Y-155917647D01*
X165193560Y-156126835D01*
X166820395Y-154500000D01*
X167179605Y-154500000D01*
X168806440Y-156126835D01*
X169167289Y-155917647D01*
X169544824Y-154980350D01*
X169534933Y-153969923D01*
X169167289Y-153082353D01*
X168806440Y-152873165D01*
X167179605Y-154500000D01*
X166820395Y-154500000D01*
X165193560Y-152873165D01*
X164832711Y-153082353D01*
X164455176Y-154019650D01*
X100635050Y-154019650D01*
X100635050Y-152693560D01*
X165373165Y-152693560D01*
X167000000Y-154320395D01*
X168626835Y-152693560D01*
X168417647Y-152332711D01*
X167480350Y-151955176D01*
X166469923Y-151965067D01*
X165582353Y-152332711D01*
X165373165Y-152693560D01*
X100635050Y-152693560D01*
X100635050Y-148235167D01*
X133414838Y-148235167D01*
X133556883Y-148578943D01*
X133819673Y-148842192D01*
X134163201Y-148984838D01*
X134535167Y-148985162D01*
X134878943Y-148843117D01*
X135142192Y-148580327D01*
X135284838Y-148236799D01*
X135284879Y-148189923D01*
X136489723Y-146985079D01*
X136585167Y-146985162D01*
X136928943Y-146843117D01*
X137192192Y-146580327D01*
X137334838Y-146236799D01*
X137335162Y-145864833D01*
X137193117Y-145521057D01*
X136930327Y-145257808D01*
X136586799Y-145115162D01*
X136214833Y-145114838D01*
X135871057Y-145256883D01*
X135607808Y-145519673D01*
X135467409Y-145857789D01*
X134210320Y-147114878D01*
X134164833Y-147114838D01*
X133821057Y-147256883D01*
X133557808Y-147519673D01*
X133415162Y-147863201D01*
X133414838Y-148235167D01*
X100635050Y-148235167D01*
X100635050Y-144969661D01*
X164182758Y-144969661D01*
X164394990Y-145483303D01*
X164787630Y-145876629D01*
X165300900Y-146089757D01*
X165303336Y-146089759D01*
X164789697Y-146301990D01*
X164396371Y-146694630D01*
X164183243Y-147207900D01*
X164182758Y-147763661D01*
X164394990Y-148277303D01*
X164787630Y-148670629D01*
X165300900Y-148883757D01*
X165856661Y-148884242D01*
X166370303Y-148672010D01*
X166763629Y-148279370D01*
X166976757Y-147766100D01*
X166977242Y-147210339D01*
X166919344Y-147070213D01*
X167619392Y-147070213D01*
X167688857Y-147312397D01*
X168212302Y-147499144D01*
X168767368Y-147471362D01*
X169151143Y-147312397D01*
X169220608Y-147070213D01*
X168420000Y-146269605D01*
X167619392Y-147070213D01*
X166919344Y-147070213D01*
X166765010Y-146696697D01*
X166372370Y-146303371D01*
X165859100Y-146090243D01*
X165856664Y-146090241D01*
X166359915Y-145882302D01*
X167010856Y-145882302D01*
X167038638Y-146437368D01*
X167197603Y-146821143D01*
X167439787Y-146890608D01*
X168240395Y-146090000D01*
X168599605Y-146090000D01*
X169400213Y-146890608D01*
X169642397Y-146821143D01*
X169829144Y-146297698D01*
X169801362Y-145742632D01*
X169642397Y-145358857D01*
X169400213Y-145289392D01*
X168599605Y-146090000D01*
X168240395Y-146090000D01*
X167439787Y-145289392D01*
X167197603Y-145358857D01*
X167010856Y-145882302D01*
X166359915Y-145882302D01*
X166370303Y-145878010D01*
X166763629Y-145485370D01*
X166976757Y-144972100D01*
X166977242Y-144416339D01*
X166919344Y-144276213D01*
X167619392Y-144276213D01*
X167688857Y-144518397D01*
X168203707Y-144702077D01*
X168072632Y-144708638D01*
X167688857Y-144867603D01*
X167619392Y-145109787D01*
X168420000Y-145910395D01*
X169220608Y-145109787D01*
X169151143Y-144867603D01*
X168636293Y-144683923D01*
X168767368Y-144677362D01*
X169151143Y-144518397D01*
X169220608Y-144276213D01*
X168420000Y-143475605D01*
X167619392Y-144276213D01*
X166919344Y-144276213D01*
X166765010Y-143902697D01*
X166372370Y-143509371D01*
X165859100Y-143296243D01*
X165614344Y-143296029D01*
X165927368Y-143280362D01*
X166311143Y-143121397D01*
X166320635Y-143088302D01*
X167010856Y-143088302D01*
X167038638Y-143643368D01*
X167197603Y-144027143D01*
X167439787Y-144096608D01*
X168240395Y-143296000D01*
X168599605Y-143296000D01*
X169400213Y-144096608D01*
X169642397Y-144027143D01*
X169829144Y-143503698D01*
X169801362Y-142948632D01*
X169642397Y-142564857D01*
X169400213Y-142495392D01*
X168599605Y-143296000D01*
X168240395Y-143296000D01*
X167439787Y-142495392D01*
X167197603Y-142564857D01*
X167010856Y-143088302D01*
X166320635Y-143088302D01*
X166380608Y-142879213D01*
X165580000Y-142078605D01*
X164779392Y-142879213D01*
X164848857Y-143121397D01*
X165337668Y-143295788D01*
X165303339Y-143295758D01*
X164789697Y-143507990D01*
X164396371Y-143900630D01*
X164183243Y-144413900D01*
X164182758Y-144969661D01*
X100635050Y-144969661D01*
X100635050Y-141585167D01*
X127014838Y-141585167D01*
X127156883Y-141928943D01*
X127419673Y-142192192D01*
X127763201Y-142334838D01*
X127960208Y-142335010D01*
X128364878Y-142739680D01*
X128364838Y-142785167D01*
X128506883Y-143128943D01*
X128769673Y-143392192D01*
X129113201Y-143534838D01*
X129485167Y-143535162D01*
X129828943Y-143393117D01*
X130092192Y-143130327D01*
X130234838Y-142786799D01*
X130235162Y-142414833D01*
X130093117Y-142071057D01*
X129830327Y-141807808D01*
X129486799Y-141665162D01*
X129439923Y-141665121D01*
X129309969Y-141535167D01*
X130414838Y-141535167D01*
X130556883Y-141878943D01*
X130819673Y-142142192D01*
X131163201Y-142284838D01*
X131535167Y-142285162D01*
X131878943Y-142143117D01*
X132142192Y-141880327D01*
X132223230Y-141685167D01*
X153464838Y-141685167D01*
X153606883Y-142028943D01*
X153869673Y-142292192D01*
X154213201Y-142434838D01*
X154585167Y-142435162D01*
X154928943Y-142293117D01*
X155192192Y-142030327D01*
X155332968Y-141691302D01*
X164170856Y-141691302D01*
X164198638Y-142246368D01*
X164357603Y-142630143D01*
X164599787Y-142699608D01*
X165400395Y-141899000D01*
X165759605Y-141899000D01*
X166560213Y-142699608D01*
X166802397Y-142630143D01*
X166989144Y-142106698D01*
X166961362Y-141551632D01*
X166953650Y-141533013D01*
X167619392Y-141533013D01*
X167688857Y-141775197D01*
X168078835Y-141914328D01*
X168072632Y-141914638D01*
X167688857Y-142073603D01*
X167619392Y-142315787D01*
X168420000Y-143116395D01*
X169220608Y-142315787D01*
X169151143Y-142073603D01*
X168761165Y-141934472D01*
X168767368Y-141934162D01*
X169151143Y-141775197D01*
X169220608Y-141533013D01*
X168420000Y-140732405D01*
X167619392Y-141533013D01*
X166953650Y-141533013D01*
X166802397Y-141167857D01*
X166560213Y-141098392D01*
X165759605Y-141899000D01*
X165400395Y-141899000D01*
X164599787Y-141098392D01*
X164357603Y-141167857D01*
X164170856Y-141691302D01*
X155332968Y-141691302D01*
X155334838Y-141686799D01*
X155334879Y-141639923D01*
X155539723Y-141435079D01*
X155635167Y-141435162D01*
X155978943Y-141293117D01*
X156242192Y-141030327D01*
X156384838Y-140686799D01*
X156385162Y-140314833D01*
X156342761Y-140212213D01*
X164779392Y-140212213D01*
X164848857Y-140454397D01*
X165137070Y-140557221D01*
X164848857Y-140676603D01*
X164779392Y-140918787D01*
X165580000Y-141719395D01*
X166380608Y-140918787D01*
X166311143Y-140676603D01*
X166022930Y-140573779D01*
X166311143Y-140454397D01*
X166342491Y-140345102D01*
X167010856Y-140345102D01*
X167038638Y-140900168D01*
X167197603Y-141283943D01*
X167439787Y-141353408D01*
X168240395Y-140552800D01*
X168599605Y-140552800D01*
X169400213Y-141353408D01*
X169642397Y-141283943D01*
X169829144Y-140760498D01*
X169801362Y-140205432D01*
X169642397Y-139821657D01*
X169400213Y-139752192D01*
X168599605Y-140552800D01*
X168240395Y-140552800D01*
X167439787Y-139752192D01*
X167197603Y-139821657D01*
X167010856Y-140345102D01*
X166342491Y-140345102D01*
X166380608Y-140212213D01*
X165580000Y-139411605D01*
X164779392Y-140212213D01*
X156342761Y-140212213D01*
X156243117Y-139971057D01*
X155980327Y-139707808D01*
X155636799Y-139565162D01*
X155264833Y-139564838D01*
X154921057Y-139706883D01*
X154657808Y-139969673D01*
X154517409Y-140307789D01*
X154260320Y-140564878D01*
X154214833Y-140564838D01*
X153871057Y-140706883D01*
X153607808Y-140969673D01*
X153465162Y-141313201D01*
X153464838Y-141685167D01*
X132223230Y-141685167D01*
X132247086Y-141627716D01*
X132739680Y-141135122D01*
X132785167Y-141135162D01*
X133128943Y-140993117D01*
X133392192Y-140730327D01*
X133534838Y-140386799D01*
X133535162Y-140014833D01*
X133393117Y-139671057D01*
X133130327Y-139407808D01*
X132834977Y-139285167D01*
X136764838Y-139285167D01*
X136906883Y-139628943D01*
X137169673Y-139892192D01*
X137513201Y-140034838D01*
X137525953Y-140034849D01*
X137896114Y-140438661D01*
X137865162Y-140513201D01*
X137864838Y-140885167D01*
X138006883Y-141228943D01*
X138269673Y-141492192D01*
X138613201Y-141634838D01*
X138985167Y-141635162D01*
X139328943Y-141493117D01*
X139592192Y-141230327D01*
X139734838Y-140886799D01*
X139735162Y-140514833D01*
X139593117Y-140171057D01*
X139523592Y-140101410D01*
X139514118Y-140039934D01*
X139505419Y-140025604D01*
X139502148Y-140009161D01*
X139428775Y-139899350D01*
X139360237Y-139786449D01*
X138661603Y-139024302D01*
X164170856Y-139024302D01*
X164198638Y-139579368D01*
X164357603Y-139963143D01*
X164599787Y-140032608D01*
X165400395Y-139232000D01*
X165759605Y-139232000D01*
X166560213Y-140032608D01*
X166802397Y-139963143D01*
X166989144Y-139439698D01*
X166961362Y-138884632D01*
X166943129Y-138840613D01*
X167619392Y-138840613D01*
X167688857Y-139082797D01*
X168010015Y-139197375D01*
X167688857Y-139330403D01*
X167619392Y-139572587D01*
X168420000Y-140373195D01*
X169220608Y-139572587D01*
X169151143Y-139330403D01*
X168829985Y-139215825D01*
X169151143Y-139082797D01*
X169220608Y-138840613D01*
X168420000Y-138040005D01*
X167619392Y-138840613D01*
X166943129Y-138840613D01*
X166802397Y-138500857D01*
X166560213Y-138431392D01*
X165759605Y-139232000D01*
X165400395Y-139232000D01*
X164599787Y-138431392D01*
X164357603Y-138500857D01*
X164170856Y-139024302D01*
X138661603Y-139024302D01*
X138635092Y-138995382D01*
X138635162Y-138914833D01*
X138493117Y-138571057D01*
X138230327Y-138307808D01*
X137886799Y-138165162D01*
X137514833Y-138164838D01*
X137171057Y-138306883D01*
X136907808Y-138569673D01*
X136765162Y-138913201D01*
X136764838Y-139285167D01*
X132834977Y-139285167D01*
X132786799Y-139265162D01*
X132414833Y-139264838D01*
X132071057Y-139406883D01*
X131807808Y-139669673D01*
X131665162Y-140013201D01*
X131665121Y-140060077D01*
X131310233Y-140414965D01*
X131164833Y-140414838D01*
X130821057Y-140556883D01*
X130557808Y-140819673D01*
X130415162Y-141163201D01*
X130414838Y-141535167D01*
X129309969Y-141535167D01*
X128811599Y-141036797D01*
X128743117Y-140871057D01*
X128480327Y-140607808D01*
X128136799Y-140465162D01*
X127764833Y-140464838D01*
X127421057Y-140606883D01*
X127157808Y-140869673D01*
X127015162Y-141213201D01*
X127014838Y-141585167D01*
X100635050Y-141585167D01*
X100635050Y-125373631D01*
X107065646Y-125373631D01*
X107367209Y-126103469D01*
X107925114Y-126662349D01*
X108166000Y-126762373D01*
X108166000Y-135197370D01*
X107928051Y-135295689D01*
X107369171Y-135853594D01*
X107066335Y-136582905D01*
X107065646Y-137372591D01*
X107367209Y-138102429D01*
X107925114Y-138661309D01*
X108654425Y-138964145D01*
X109444111Y-138964834D01*
X110173949Y-138663271D01*
X110732829Y-138105366D01*
X111011119Y-137435167D01*
X122714838Y-137435167D01*
X122856883Y-137778943D01*
X123119673Y-138042192D01*
X123463201Y-138184838D01*
X123835167Y-138185162D01*
X124138083Y-138060000D01*
X126387537Y-138060000D01*
X126419673Y-138092192D01*
X126763201Y-138234838D01*
X127135167Y-138235162D01*
X127478943Y-138093117D01*
X127742192Y-137830327D01*
X127843991Y-137585167D01*
X157714838Y-137585167D01*
X157856883Y-137928943D01*
X158119673Y-138192192D01*
X158463201Y-138334838D01*
X158835167Y-138335162D01*
X159178943Y-138193117D01*
X159262205Y-138110000D01*
X159987537Y-138110000D01*
X160019673Y-138142192D01*
X160363201Y-138284838D01*
X160735167Y-138285162D01*
X161078943Y-138143117D01*
X161342192Y-137880327D01*
X161484838Y-137536799D01*
X161484941Y-137418213D01*
X164779392Y-137418213D01*
X164848857Y-137660397D01*
X165363707Y-137844077D01*
X165232632Y-137850638D01*
X164848857Y-138009603D01*
X164779392Y-138251787D01*
X165580000Y-139052395D01*
X166380608Y-138251787D01*
X166311143Y-138009603D01*
X165796293Y-137825923D01*
X165927368Y-137819362D01*
X166311143Y-137660397D01*
X166313350Y-137652702D01*
X167010856Y-137652702D01*
X167038638Y-138207768D01*
X167197603Y-138591543D01*
X167439787Y-138661008D01*
X168240395Y-137860400D01*
X168599605Y-137860400D01*
X169400213Y-138661008D01*
X169642397Y-138591543D01*
X169829144Y-138068098D01*
X169801362Y-137513032D01*
X169642397Y-137129257D01*
X169400213Y-137059792D01*
X168599605Y-137860400D01*
X168240395Y-137860400D01*
X167439787Y-137059792D01*
X167197603Y-137129257D01*
X167010856Y-137652702D01*
X166313350Y-137652702D01*
X166380608Y-137418213D01*
X165580000Y-136617605D01*
X164779392Y-137418213D01*
X161484941Y-137418213D01*
X161485162Y-137164833D01*
X161343117Y-136821057D01*
X161080327Y-136557808D01*
X160736799Y-136415162D01*
X160364833Y-136414838D01*
X160021057Y-136556883D01*
X159987882Y-136590000D01*
X159137441Y-136590000D01*
X158836799Y-136465162D01*
X158464833Y-136464838D01*
X158121057Y-136606883D01*
X157857808Y-136869673D01*
X157715162Y-137213201D01*
X157714838Y-137585167D01*
X127843991Y-137585167D01*
X127884838Y-137486799D01*
X127885162Y-137114833D01*
X127743117Y-136771057D01*
X127480327Y-136507808D01*
X127136799Y-136365162D01*
X126764833Y-136364838D01*
X126421057Y-136506883D01*
X126387882Y-136540000D01*
X124262376Y-136540000D01*
X124180327Y-136457808D01*
X123836799Y-136315162D01*
X123464833Y-136314838D01*
X123121057Y-136456883D01*
X122857808Y-136719673D01*
X122715162Y-137063201D01*
X122714838Y-137435167D01*
X111011119Y-137435167D01*
X111035665Y-137376055D01*
X111036354Y-136586369D01*
X110889231Y-136230302D01*
X164170856Y-136230302D01*
X164198638Y-136785368D01*
X164357603Y-137169143D01*
X164599787Y-137238608D01*
X165400395Y-136438000D01*
X165759605Y-136438000D01*
X166560213Y-137238608D01*
X166802397Y-137169143D01*
X166905486Y-136880187D01*
X167619392Y-136880187D01*
X168420000Y-137680795D01*
X169220608Y-136880187D01*
X169151143Y-136638003D01*
X168627698Y-136451256D01*
X168072632Y-136479038D01*
X167688857Y-136638003D01*
X167619392Y-136880187D01*
X166905486Y-136880187D01*
X166989144Y-136645698D01*
X166961362Y-136090632D01*
X166922087Y-135995813D01*
X167619392Y-135995813D01*
X167688857Y-136237997D01*
X168212302Y-136424744D01*
X168767368Y-136396962D01*
X169151143Y-136237997D01*
X169220608Y-135995813D01*
X168420000Y-135195205D01*
X167619392Y-135995813D01*
X166922087Y-135995813D01*
X166802397Y-135706857D01*
X166560213Y-135637392D01*
X165759605Y-136438000D01*
X165400395Y-136438000D01*
X164599787Y-135637392D01*
X164357603Y-135706857D01*
X164170856Y-136230302D01*
X110889231Y-136230302D01*
X110734791Y-135856531D01*
X110176886Y-135297651D01*
X109936000Y-135197627D01*
X109936000Y-133230213D01*
X110950412Y-133230213D01*
X111019877Y-133472397D01*
X111543322Y-133659144D01*
X112098388Y-133631362D01*
X112482163Y-133472397D01*
X112551628Y-133230213D01*
X111751020Y-132429605D01*
X110950412Y-133230213D01*
X109936000Y-133230213D01*
X109936000Y-132042302D01*
X110341876Y-132042302D01*
X110369658Y-132597368D01*
X110528623Y-132981143D01*
X110770807Y-133050608D01*
X111571415Y-132250000D01*
X110770807Y-131449392D01*
X110528623Y-131518857D01*
X110341876Y-132042302D01*
X109936000Y-132042302D01*
X109936000Y-129986661D01*
X110353778Y-129986661D01*
X110566010Y-130500303D01*
X110958650Y-130893629D01*
X111150747Y-130973395D01*
X111019877Y-131027603D01*
X110950412Y-131269787D01*
X111751020Y-132070395D01*
X112551628Y-131269787D01*
X112482163Y-131027603D01*
X112341702Y-130977491D01*
X112541323Y-130895010D01*
X112750530Y-130686168D01*
X112957630Y-130893629D01*
X113165512Y-130979949D01*
X112959697Y-131064990D01*
X112566371Y-131457630D01*
X112455154Y-131725471D01*
X111930625Y-132250000D01*
X112455189Y-132774564D01*
X112564990Y-133040303D01*
X112957630Y-133433629D01*
X113470900Y-133646757D01*
X114026661Y-133647242D01*
X114540303Y-133435010D01*
X114933629Y-133042370D01*
X115146757Y-132529100D01*
X115147242Y-131973339D01*
X115048832Y-131735167D01*
X126864838Y-131735167D01*
X127006883Y-132078943D01*
X127040000Y-132112118D01*
X127040000Y-134337537D01*
X127007808Y-134369673D01*
X126865162Y-134713201D01*
X126864838Y-135085167D01*
X127006883Y-135428943D01*
X127269673Y-135692192D01*
X127613201Y-135834838D01*
X127985167Y-135835162D01*
X128110763Y-135783267D01*
X128119673Y-135792192D01*
X128463201Y-135934838D01*
X128835167Y-135935162D01*
X129178943Y-135793117D01*
X129442192Y-135530327D01*
X129584838Y-135186799D01*
X129585162Y-134814833D01*
X129443117Y-134471057D01*
X129402370Y-134430239D01*
X129400410Y-134285167D01*
X149764838Y-134285167D01*
X149906883Y-134628943D01*
X150169673Y-134892192D01*
X150513201Y-135034838D01*
X150885167Y-135035162D01*
X151228943Y-134893117D01*
X151262118Y-134860000D01*
X151537077Y-134860000D01*
X151606883Y-135028943D01*
X151869673Y-135292192D01*
X152213201Y-135434838D01*
X152585167Y-135435162D01*
X152928943Y-135293117D01*
X153192192Y-135030327D01*
X153334838Y-134686799D01*
X153334892Y-134624213D01*
X164779392Y-134624213D01*
X164848857Y-134866397D01*
X165363707Y-135050077D01*
X165232632Y-135056638D01*
X164848857Y-135215603D01*
X164779392Y-135457787D01*
X165580000Y-136258395D01*
X166380608Y-135457787D01*
X166311143Y-135215603D01*
X165796293Y-135031923D01*
X165927368Y-135025362D01*
X166311143Y-134866397D01*
X166327920Y-134807902D01*
X167010856Y-134807902D01*
X167038638Y-135362968D01*
X167197603Y-135746743D01*
X167439787Y-135816208D01*
X168240395Y-135015600D01*
X168599605Y-135015600D01*
X169400213Y-135816208D01*
X169642397Y-135746743D01*
X169829144Y-135223298D01*
X169801362Y-134668232D01*
X169642397Y-134284457D01*
X169400213Y-134214992D01*
X168599605Y-135015600D01*
X168240395Y-135015600D01*
X167439787Y-134214992D01*
X167197603Y-134284457D01*
X167010856Y-134807902D01*
X166327920Y-134807902D01*
X166380608Y-134624213D01*
X165580000Y-133823605D01*
X164779392Y-134624213D01*
X153334892Y-134624213D01*
X153335162Y-134314833D01*
X153193117Y-133971057D01*
X152930327Y-133707808D01*
X152586799Y-133565162D01*
X152539923Y-133565121D01*
X152537401Y-133562599D01*
X152348384Y-133436302D01*
X164170856Y-133436302D01*
X164198638Y-133991368D01*
X164357603Y-134375143D01*
X164599787Y-134444608D01*
X165400395Y-133644000D01*
X165759605Y-133644000D01*
X166560213Y-134444608D01*
X166802397Y-134375143D01*
X166989144Y-133851698D01*
X166961362Y-133296632D01*
X166943129Y-133252613D01*
X167619392Y-133252613D01*
X167688857Y-133494797D01*
X168078835Y-133633928D01*
X168072632Y-133634238D01*
X167688857Y-133793203D01*
X167619392Y-134035387D01*
X168420000Y-134835995D01*
X169220608Y-134035387D01*
X169151143Y-133793203D01*
X168761165Y-133654072D01*
X168767368Y-133653762D01*
X169151143Y-133494797D01*
X169220608Y-133252613D01*
X168420000Y-132452005D01*
X167619392Y-133252613D01*
X166943129Y-133252613D01*
X166802397Y-132912857D01*
X166560213Y-132843392D01*
X165759605Y-133644000D01*
X165400395Y-133644000D01*
X164599787Y-132843392D01*
X164357603Y-132912857D01*
X164170856Y-133436302D01*
X152348384Y-133436302D01*
X152290839Y-133397852D01*
X152000000Y-133340000D01*
X151262463Y-133340000D01*
X151230327Y-133307808D01*
X150886799Y-133165162D01*
X150514833Y-133164838D01*
X150171057Y-133306883D01*
X149907808Y-133569673D01*
X149765162Y-133913201D01*
X149764838Y-134285167D01*
X129400410Y-134285167D01*
X129367567Y-131854822D01*
X129442192Y-131780327D01*
X129460944Y-131735167D01*
X151914838Y-131735167D01*
X152056883Y-132078943D01*
X152319673Y-132342192D01*
X152663201Y-132484838D01*
X152710077Y-132484879D01*
X153212599Y-132987401D01*
X153459160Y-133152148D01*
X153547285Y-133169677D01*
X153619673Y-133242192D01*
X153963201Y-133384838D01*
X154335167Y-133385162D01*
X154678943Y-133243117D01*
X154942192Y-132980327D01*
X155084838Y-132636799D01*
X155085162Y-132264833D01*
X154943117Y-131921057D01*
X154680327Y-131657808D01*
X154336799Y-131515162D01*
X153964833Y-131514838D01*
X153911625Y-131536823D01*
X153785122Y-131410320D01*
X153785162Y-131364833D01*
X153643117Y-131021057D01*
X153380327Y-130757808D01*
X153036799Y-130615162D01*
X152664833Y-130614838D01*
X152321057Y-130756883D01*
X152057808Y-131019673D01*
X151915162Y-131363201D01*
X151914838Y-131735167D01*
X129460944Y-131735167D01*
X129584838Y-131436799D01*
X129585162Y-131064833D01*
X129443117Y-130721057D01*
X129180327Y-130457808D01*
X128836799Y-130315162D01*
X128464833Y-130314838D01*
X128121057Y-130456883D01*
X127962523Y-130615141D01*
X127614833Y-130614838D01*
X127271057Y-130756883D01*
X127007808Y-131019673D01*
X126865162Y-131363201D01*
X126864838Y-131735167D01*
X115048832Y-131735167D01*
X114935010Y-131459697D01*
X114542370Y-131066371D01*
X114334488Y-130980051D01*
X114540303Y-130895010D01*
X114933629Y-130502370D01*
X115146757Y-129989100D01*
X115147242Y-129433339D01*
X114935010Y-128919697D01*
X114542370Y-128526371D01*
X114029100Y-128313243D01*
X113473339Y-128312758D01*
X112959697Y-128524990D01*
X112750490Y-128733832D01*
X112543390Y-128526371D01*
X112030120Y-128313243D01*
X111474359Y-128312758D01*
X110960717Y-128524990D01*
X110567391Y-128917630D01*
X110354263Y-129430900D01*
X110353778Y-129986661D01*
X109936000Y-129986661D01*
X109936000Y-127204901D01*
X121261649Y-127204901D01*
X121472531Y-127715274D01*
X121862672Y-128106096D01*
X122088743Y-128199969D01*
X121864726Y-128292531D01*
X121473904Y-128682672D01*
X121262131Y-129192676D01*
X121261649Y-129744901D01*
X121472531Y-130255274D01*
X121862672Y-130646096D01*
X122372676Y-130857869D01*
X122924901Y-130858351D01*
X123435274Y-130647469D01*
X123826096Y-130257328D01*
X124037869Y-129747324D01*
X124038316Y-129235167D01*
X126214838Y-129235167D01*
X126356883Y-129578943D01*
X126619673Y-129842192D01*
X126740987Y-129892566D01*
X126874208Y-130025787D01*
X126874210Y-130025790D01*
X127161325Y-130217633D01*
X127217516Y-130228810D01*
X127500000Y-130285001D01*
X127500005Y-130285000D01*
X129543178Y-130285000D01*
X129663201Y-130334838D01*
X130035167Y-130335162D01*
X130378943Y-130193117D01*
X130642192Y-129930327D01*
X130784838Y-129586799D01*
X130785162Y-129214833D01*
X130648948Y-128885167D01*
X135464838Y-128885167D01*
X135606883Y-129228943D01*
X135869673Y-129492192D01*
X136213201Y-129634838D01*
X136585167Y-129635162D01*
X136928943Y-129493117D01*
X137192192Y-129230327D01*
X137334838Y-128886799D01*
X137334966Y-128739836D01*
X137539680Y-128535122D01*
X137585167Y-128535162D01*
X137928943Y-128393117D01*
X138192192Y-128130327D01*
X138334838Y-127786799D01*
X138335162Y-127414833D01*
X138193117Y-127071057D01*
X137930327Y-126807808D01*
X137586799Y-126665162D01*
X137214833Y-126664838D01*
X136871057Y-126806883D01*
X136607808Y-127069673D01*
X136465162Y-127413201D01*
X136465121Y-127460077D01*
X136122004Y-127803194D01*
X135871057Y-127906883D01*
X135607808Y-128169673D01*
X135465162Y-128513201D01*
X135464838Y-128885167D01*
X130648948Y-128885167D01*
X130643117Y-128871057D01*
X130380327Y-128607808D01*
X130036799Y-128465162D01*
X129664833Y-128464838D01*
X129543431Y-128515000D01*
X127937071Y-128515000D01*
X127680327Y-128257808D01*
X127336799Y-128115162D01*
X126964833Y-128114838D01*
X126621057Y-128256883D01*
X126357808Y-128519673D01*
X126215162Y-128863201D01*
X126214838Y-129235167D01*
X124038316Y-129235167D01*
X124038351Y-129195099D01*
X123827469Y-128684726D01*
X123437328Y-128293904D01*
X123211257Y-128200031D01*
X123435274Y-128107469D01*
X123826096Y-127717328D01*
X124037869Y-127207324D01*
X124038351Y-126655099D01*
X123827469Y-126144726D01*
X123437328Y-125753904D01*
X122927324Y-125542131D01*
X122375099Y-125541649D01*
X121864726Y-125752531D01*
X121473904Y-126142672D01*
X121262131Y-126652676D01*
X121261649Y-127204901D01*
X109936000Y-127204901D01*
X109936000Y-126762630D01*
X110173949Y-126664311D01*
X110732829Y-126106406D01*
X111035665Y-125377095D01*
X111036181Y-124785167D01*
X155914838Y-124785167D01*
X156056883Y-125128943D01*
X156319673Y-125392192D01*
X156663201Y-125534838D01*
X156760120Y-125534922D01*
X158614878Y-127389680D01*
X158614838Y-127435167D01*
X158756883Y-127778943D01*
X159019673Y-128042192D01*
X159363201Y-128184838D01*
X159735167Y-128185162D01*
X160078943Y-128043117D01*
X160342192Y-127780327D01*
X160484838Y-127436799D01*
X160485162Y-127064833D01*
X160343117Y-126721057D01*
X160080327Y-126457808D01*
X159736799Y-126315162D01*
X159689923Y-126315121D01*
X157782012Y-124407210D01*
X157643117Y-124071057D01*
X157380327Y-123807808D01*
X157036799Y-123665162D01*
X156664833Y-123664838D01*
X156321057Y-123806883D01*
X156057808Y-124069673D01*
X155915162Y-124413201D01*
X155914838Y-124785167D01*
X111036181Y-124785167D01*
X111036354Y-124587409D01*
X110734791Y-123857571D01*
X110176886Y-123298691D01*
X109447575Y-122995855D01*
X108657889Y-122995166D01*
X107928051Y-123296729D01*
X107369171Y-123854634D01*
X107066335Y-124583945D01*
X107065646Y-125373631D01*
X100635050Y-125373631D01*
X100635050Y-122385167D01*
X136264838Y-122385167D01*
X136406883Y-122728943D01*
X136669673Y-122992192D01*
X137013201Y-123134838D01*
X137060077Y-123134879D01*
X137864878Y-123939680D01*
X137864838Y-123985167D01*
X138006883Y-124328943D01*
X138269673Y-124592192D01*
X138613201Y-124734838D01*
X138985167Y-124735162D01*
X139328943Y-124593117D01*
X139592192Y-124330327D01*
X139734838Y-123986799D01*
X139735162Y-123614833D01*
X139593117Y-123271057D01*
X139330327Y-123007808D01*
X138986799Y-122865162D01*
X138939923Y-122865121D01*
X138135122Y-122060320D01*
X138135162Y-122014833D01*
X137993117Y-121671057D01*
X137730327Y-121407808D01*
X137386799Y-121265162D01*
X137014833Y-121264838D01*
X136671057Y-121406883D01*
X136407808Y-121669673D01*
X136265162Y-122013201D01*
X136264838Y-122385167D01*
X100635050Y-122385167D01*
X100635050Y-118935167D01*
X145364838Y-118935167D01*
X145506883Y-119278943D01*
X145769673Y-119542192D01*
X146113201Y-119684838D01*
X146485167Y-119685162D01*
X146828943Y-119543117D01*
X146862118Y-119510000D01*
X148537799Y-119510000D01*
X148719673Y-119692192D01*
X149063201Y-119834838D01*
X149435167Y-119835162D01*
X149778943Y-119693117D01*
X150042192Y-119430327D01*
X150184838Y-119086799D01*
X150185162Y-118714833D01*
X150043117Y-118371057D01*
X149780327Y-118107808D01*
X149436799Y-117965162D01*
X149064833Y-117964838D01*
X149003936Y-117990000D01*
X146862463Y-117990000D01*
X146830327Y-117957808D01*
X146486799Y-117815162D01*
X146114833Y-117814838D01*
X145771057Y-117956883D01*
X145507808Y-118219673D01*
X145365162Y-118563201D01*
X145364838Y-118935167D01*
X100635050Y-118935167D01*
X100635050Y-114085167D01*
X144764838Y-114085167D01*
X144906883Y-114428943D01*
X145169673Y-114692192D01*
X145513201Y-114834838D01*
X145885167Y-114835162D01*
X146006569Y-114785000D01*
X147593178Y-114785000D01*
X147713201Y-114834838D01*
X148085167Y-114835162D01*
X148428943Y-114693117D01*
X148692192Y-114430327D01*
X148834838Y-114086799D01*
X148835162Y-113714833D01*
X148778624Y-113578000D01*
X164170560Y-113578000D01*
X164170560Y-115102000D01*
X164214838Y-115337317D01*
X164353910Y-115553441D01*
X164566110Y-115698431D01*
X164818000Y-115749440D01*
X165272646Y-115749440D01*
X164789697Y-115948990D01*
X164396371Y-116341630D01*
X164183243Y-116854900D01*
X164182758Y-117410661D01*
X164394990Y-117924303D01*
X164787630Y-118317629D01*
X165148815Y-118467606D01*
X164789697Y-118615990D01*
X164396371Y-119008630D01*
X164183243Y-119521900D01*
X164182758Y-120077661D01*
X164394990Y-120591303D01*
X164787630Y-120984629D01*
X165300900Y-121197757D01*
X165303336Y-121197759D01*
X164789697Y-121409990D01*
X164396371Y-121802630D01*
X164183243Y-122315900D01*
X164182758Y-122871661D01*
X164394990Y-123385303D01*
X164787630Y-123778629D01*
X165300900Y-123991757D01*
X165303336Y-123991759D01*
X164789697Y-124203990D01*
X164396371Y-124596630D01*
X164183243Y-125109900D01*
X164182758Y-125665661D01*
X164394990Y-126179303D01*
X164787630Y-126572629D01*
X165300900Y-126785757D01*
X165303336Y-126785759D01*
X164789697Y-126997990D01*
X164396371Y-127390630D01*
X164183243Y-127903900D01*
X164182758Y-128459661D01*
X164394990Y-128973303D01*
X164787630Y-129366629D01*
X165148815Y-129516606D01*
X164789697Y-129664990D01*
X164396371Y-130057630D01*
X164183243Y-130570900D01*
X164182758Y-131126661D01*
X164394990Y-131640303D01*
X164787630Y-132033629D01*
X165300900Y-132246757D01*
X165545656Y-132246971D01*
X165232632Y-132262638D01*
X164848857Y-132421603D01*
X164779392Y-132663787D01*
X165580000Y-133464395D01*
X166380608Y-132663787D01*
X166311143Y-132421603D01*
X165822332Y-132247212D01*
X165856661Y-132247242D01*
X166298442Y-132064702D01*
X167010856Y-132064702D01*
X167038638Y-132619768D01*
X167197603Y-133003543D01*
X167439787Y-133073008D01*
X168240395Y-132272400D01*
X168599605Y-132272400D01*
X169400213Y-133073008D01*
X169642397Y-133003543D01*
X169829144Y-132480098D01*
X169801362Y-131925032D01*
X169642397Y-131541257D01*
X169400213Y-131471792D01*
X168599605Y-132272400D01*
X168240395Y-132272400D01*
X167439787Y-131471792D01*
X167197603Y-131541257D01*
X167010856Y-132064702D01*
X166298442Y-132064702D01*
X166370303Y-132035010D01*
X166763629Y-131642370D01*
X166976757Y-131129100D01*
X166977242Y-130573339D01*
X166950829Y-130509413D01*
X167619392Y-130509413D01*
X167688857Y-130751597D01*
X168078835Y-130890728D01*
X168072632Y-130891038D01*
X167688857Y-131050003D01*
X167619392Y-131292187D01*
X168420000Y-132092795D01*
X169220608Y-131292187D01*
X169151143Y-131050003D01*
X168761165Y-130910872D01*
X168767368Y-130910562D01*
X169151143Y-130751597D01*
X169220608Y-130509413D01*
X168420000Y-129708805D01*
X167619392Y-130509413D01*
X166950829Y-130509413D01*
X166765010Y-130059697D01*
X166372370Y-129666371D01*
X166011185Y-129516394D01*
X166370303Y-129368010D01*
X166416892Y-129321502D01*
X167010856Y-129321502D01*
X167038638Y-129876568D01*
X167197603Y-130260343D01*
X167439787Y-130329808D01*
X168240395Y-129529200D01*
X168599605Y-129529200D01*
X169400213Y-130329808D01*
X169642397Y-130260343D01*
X169829144Y-129736898D01*
X169801362Y-129181832D01*
X169642397Y-128798057D01*
X169400213Y-128728592D01*
X168599605Y-129529200D01*
X168240395Y-129529200D01*
X167439787Y-128728592D01*
X167197603Y-128798057D01*
X167010856Y-129321502D01*
X166416892Y-129321502D01*
X166763629Y-128975370D01*
X166976757Y-128462100D01*
X166977242Y-127906339D01*
X166898354Y-127715413D01*
X167619392Y-127715413D01*
X167688857Y-127957597D01*
X168203707Y-128141277D01*
X168072632Y-128147838D01*
X167688857Y-128306803D01*
X167619392Y-128548987D01*
X168420000Y-129349595D01*
X169220608Y-128548987D01*
X169151143Y-128306803D01*
X168636293Y-128123123D01*
X168767368Y-128116562D01*
X169151143Y-127957597D01*
X169220608Y-127715413D01*
X168420000Y-126914805D01*
X167619392Y-127715413D01*
X166898354Y-127715413D01*
X166765010Y-127392697D01*
X166372370Y-126999371D01*
X165859100Y-126786243D01*
X165856664Y-126786241D01*
X166370303Y-126574010D01*
X166416892Y-126527502D01*
X167010856Y-126527502D01*
X167038638Y-127082568D01*
X167197603Y-127466343D01*
X167439787Y-127535808D01*
X168240395Y-126735200D01*
X168599605Y-126735200D01*
X169400213Y-127535808D01*
X169642397Y-127466343D01*
X169829144Y-126942898D01*
X169801362Y-126387832D01*
X169642397Y-126004057D01*
X169400213Y-125934592D01*
X168599605Y-126735200D01*
X168240395Y-126735200D01*
X167439787Y-125934592D01*
X167197603Y-126004057D01*
X167010856Y-126527502D01*
X166416892Y-126527502D01*
X166763629Y-126181370D01*
X166976757Y-125668100D01*
X166977242Y-125112339D01*
X166765010Y-124598697D01*
X166435550Y-124268661D01*
X167022758Y-124268661D01*
X167234990Y-124782303D01*
X167627630Y-125175629D01*
X168064709Y-125357120D01*
X167688857Y-125512803D01*
X167619392Y-125754987D01*
X168420000Y-126555595D01*
X169220608Y-125754987D01*
X169151143Y-125512803D01*
X168746771Y-125368537D01*
X169210303Y-125177010D01*
X169603629Y-124784370D01*
X169816757Y-124271100D01*
X169817242Y-123715339D01*
X169605010Y-123201697D01*
X169212370Y-122808371D01*
X168775291Y-122626880D01*
X169151143Y-122471197D01*
X169220608Y-122229013D01*
X168420000Y-121428405D01*
X167619392Y-122229013D01*
X167688857Y-122471197D01*
X168093229Y-122615463D01*
X167629697Y-122806990D01*
X167236371Y-123199630D01*
X167023243Y-123712900D01*
X167022758Y-124268661D01*
X166435550Y-124268661D01*
X166372370Y-124205371D01*
X165859100Y-123992243D01*
X165856664Y-123992241D01*
X166370303Y-123780010D01*
X166763629Y-123387370D01*
X166976757Y-122874100D01*
X166977242Y-122318339D01*
X166765010Y-121804697D01*
X166372370Y-121411371D01*
X165859100Y-121198243D01*
X165856664Y-121198241D01*
X166236969Y-121041102D01*
X167010856Y-121041102D01*
X167038638Y-121596168D01*
X167197603Y-121979943D01*
X167439787Y-122049408D01*
X168240395Y-121248800D01*
X168599605Y-121248800D01*
X169400213Y-122049408D01*
X169642397Y-121979943D01*
X169829144Y-121456498D01*
X169801362Y-120901432D01*
X169642397Y-120517657D01*
X169400213Y-120448192D01*
X168599605Y-121248800D01*
X168240395Y-121248800D01*
X167439787Y-120448192D01*
X167197603Y-120517657D01*
X167010856Y-121041102D01*
X166236969Y-121041102D01*
X166370303Y-120986010D01*
X166763629Y-120593370D01*
X166976757Y-120080100D01*
X166977242Y-119524339D01*
X166765010Y-119010697D01*
X166372370Y-118617371D01*
X166011185Y-118467394D01*
X166370303Y-118319010D01*
X166763629Y-117926370D01*
X166976757Y-117413100D01*
X166977242Y-116857339D01*
X166765010Y-116343697D01*
X166613040Y-116191461D01*
X167022758Y-116191461D01*
X167234990Y-116705103D01*
X167627630Y-117098429D01*
X167835512Y-117184749D01*
X167629697Y-117269790D01*
X167236371Y-117662430D01*
X167023243Y-118175700D01*
X167022758Y-118731461D01*
X167234990Y-119245103D01*
X167627630Y-119638429D01*
X168140900Y-119851557D01*
X168385656Y-119851771D01*
X168072632Y-119867438D01*
X167688857Y-120026403D01*
X167619392Y-120268587D01*
X168420000Y-121069195D01*
X169220608Y-120268587D01*
X169151143Y-120026403D01*
X168662332Y-119852012D01*
X168696661Y-119852042D01*
X169210303Y-119639810D01*
X169603629Y-119247170D01*
X169816757Y-118733900D01*
X169817242Y-118178139D01*
X169605010Y-117664497D01*
X169212370Y-117271171D01*
X169004488Y-117184851D01*
X169210303Y-117099810D01*
X169603629Y-116707170D01*
X169816757Y-116193900D01*
X169817242Y-115638139D01*
X169605010Y-115124497D01*
X169212370Y-114731171D01*
X168699100Y-114518043D01*
X168143339Y-114517558D01*
X167629697Y-114729790D01*
X167236371Y-115122430D01*
X167023243Y-115635700D01*
X167022758Y-116191461D01*
X166613040Y-116191461D01*
X166372370Y-115950371D01*
X165888474Y-115749440D01*
X166342000Y-115749440D01*
X166577317Y-115705162D01*
X166793441Y-115566090D01*
X166938431Y-115353890D01*
X166989440Y-115102000D01*
X166989440Y-113578000D01*
X166945162Y-113342683D01*
X166806090Y-113126559D01*
X166593890Y-112981569D01*
X166342000Y-112930560D01*
X164818000Y-112930560D01*
X164582683Y-112974838D01*
X164366559Y-113113910D01*
X164221569Y-113326110D01*
X164170560Y-113578000D01*
X148778624Y-113578000D01*
X148693117Y-113371057D01*
X148430327Y-113107808D01*
X148086799Y-112965162D01*
X147714833Y-112964838D01*
X147593431Y-113015000D01*
X146006822Y-113015000D01*
X145886799Y-112965162D01*
X145514833Y-112964838D01*
X145171057Y-113106883D01*
X144907808Y-113369673D01*
X144765162Y-113713201D01*
X144764838Y-114085167D01*
X100635050Y-114085167D01*
X100635050Y-110485167D01*
X150464838Y-110485167D01*
X150606883Y-110828943D01*
X150869673Y-111092192D01*
X151213201Y-111234838D01*
X151260077Y-111234879D01*
X151762599Y-111737401D01*
X152009160Y-111902148D01*
X152300000Y-111960000D01*
X153195758Y-111960000D01*
X153306883Y-112228943D01*
X153569673Y-112492192D01*
X153913201Y-112634838D01*
X154285167Y-112635162D01*
X154628943Y-112493117D01*
X154892192Y-112230327D01*
X155034838Y-111886799D01*
X155034883Y-111835118D01*
X155085167Y-111835162D01*
X155428943Y-111693117D01*
X155692192Y-111430327D01*
X155834838Y-111086799D01*
X155835162Y-110714833D01*
X155693117Y-110371057D01*
X155430327Y-110107808D01*
X155086799Y-109965162D01*
X155039923Y-109965121D01*
X154837401Y-109762599D01*
X154590839Y-109597852D01*
X154300000Y-109540000D01*
X153062463Y-109540000D01*
X153030327Y-109507808D01*
X152686799Y-109365162D01*
X152314833Y-109364838D01*
X151971057Y-109506883D01*
X151950194Y-109527710D01*
X151930327Y-109507808D01*
X151586799Y-109365162D01*
X151214833Y-109364838D01*
X150871057Y-109506883D01*
X150607808Y-109769673D01*
X150465162Y-110113201D01*
X150464838Y-110485167D01*
X100635050Y-110485167D01*
X100635050Y-109206440D01*
X165373165Y-109206440D01*
X165582353Y-109567289D01*
X166519650Y-109944824D01*
X167530077Y-109934933D01*
X168417647Y-109567289D01*
X168626835Y-109206440D01*
X167000000Y-107579605D01*
X165373165Y-109206440D01*
X100635050Y-109206440D01*
X100635050Y-106919650D01*
X164455176Y-106919650D01*
X164465067Y-107930077D01*
X164832711Y-108817647D01*
X165193560Y-109026835D01*
X166820395Y-107400000D01*
X167179605Y-107400000D01*
X168806440Y-109026835D01*
X169167289Y-108817647D01*
X169544824Y-107880350D01*
X169534933Y-106869923D01*
X169167289Y-105982353D01*
X168806440Y-105773165D01*
X167179605Y-107400000D01*
X166820395Y-107400000D01*
X165193560Y-105773165D01*
X164832711Y-105982353D01*
X164455176Y-106919650D01*
X100635050Y-106919650D01*
X100635050Y-105593560D01*
X165373165Y-105593560D01*
X167000000Y-107220395D01*
X168626835Y-105593560D01*
X168417647Y-105232711D01*
X167480350Y-104855176D01*
X166469923Y-104865067D01*
X165582353Y-105232711D01*
X165373165Y-105593560D01*
X100635050Y-105593560D01*
X100635050Y-100635050D01*
X174473000Y-100635050D01*
X174473000Y-160464950D01*
M02*
