%TF.GenerationSoftware,KiCad,Pcbnew,8.0.2*%
%TF.CreationDate,2025-12-13T20:04:36+01:00*%
%TF.ProjectId,Helios,48656c69-6f73-42e6-9b69-6361645f7063,rev?*%
%TF.SameCoordinates,Original*%
%TF.FileFunction,Soldermask,Bot*%
%TF.FilePolarity,Negative*%
%FSLAX46Y46*%
G04 Gerber Fmt 4.6, Leading zero omitted, Abs format (unit mm)*
G04 Created by KiCad (PCBNEW 8.0.2) date 2025-12-13 20:04:36*
%MOMM*%
%LPD*%
G01*
G04 APERTURE LIST*
%ADD10C,1.524000*%
%ADD11C,3.300000*%
%ADD12R,1.524000X1.524000*%
%ADD13C,1.620000*%
%ADD14C,4.200000*%
%ADD15C,1.506220*%
%ADD16C,2.700000*%
%ADD17C,1.900000*%
G04 APERTURE END LIST*
D10*
%TO.C,P1*%
X113750000Y-132250000D03*
X113750000Y-129710000D03*
X111751020Y-129710000D03*
X111751020Y-132250000D03*
D11*
X109051000Y-136979480D03*
X109051000Y-124980520D03*
%TD*%
D12*
%TO.C,P2*%
X165580000Y-114340000D03*
D13*
X165580000Y-117134000D03*
X165580000Y-119801000D03*
X165580000Y-122595000D03*
X165580000Y-125389000D03*
X165580000Y-128183000D03*
X165580000Y-130850000D03*
X165580000Y-133644000D03*
X165580000Y-136438000D03*
X165580000Y-139232000D03*
X165580000Y-141899000D03*
X165580000Y-144693000D03*
X165580000Y-147487000D03*
X168420000Y-115700000D03*
X168420000Y-118454800D03*
X168420000Y-121248800D03*
X168420000Y-123992000D03*
X168420000Y-126735200D03*
X168420000Y-129529200D03*
X168420000Y-132272400D03*
X168420000Y-135015600D03*
X168420000Y-137860400D03*
X168420000Y-140552800D03*
X168420000Y-143296000D03*
X168420000Y-146090000D03*
D14*
X167000000Y-154500000D03*
X167000000Y-107400000D03*
%TD*%
D15*
%TO.C,ERASE1*%
X122650000Y-129470000D03*
X122650000Y-126930000D03*
%TD*%
D16*
%TO.C,H2*%
X104000000Y-156400000D03*
%TD*%
%TO.C,H1*%
X161000000Y-104400000D03*
%TD*%
D17*
%TO.C,U4*%
X128650000Y-108400000D03*
X131190000Y-108400000D03*
X138810000Y-108400000D03*
X141350000Y-108400000D03*
X143890000Y-108400000D03*
%TD*%
D16*
%TO.C,H3*%
X104000000Y-104400000D03*
%TD*%
%TO.C,H4*%
X161000000Y-156400000D03*
%TD*%
M02*
