M48
; DRILL file {KiCad 8.0.2} date 2025-12-07T10:49:59+0100
; FORMAT={-:-/ absolute / metric / decimal}
; #@! TF.CreationDate,2025-12-07T10:49:59+01:00
; #@! TF.GenerationSoftware,Kicad,Pcbnew,8.0.2
; #@! TF.FileFunction,Plated,1,2,PTH
FMAT,2
METRIC
; #@! TA.AperFunction,Plated,PTH,ViaDrill
T1C0.400
; #@! TA.AperFunction,Plated,PTH,ComponentDrill
T2C0.813
; #@! TA.AperFunction,Plated,PTH,ComponentDrill
T3C0.998
; #@! TA.AperFunction,Plated,PTH,ComponentDrill
T4C1.016
; #@! TA.AperFunction,Plated,PTH,ComponentDrill
T5C1.100
; #@! TA.AperFunction,Plated,PTH,ComponentDrill
T6C2.301
; #@! TA.AperFunction,Plated,PTH,ComponentDrill
T7C3.190
%
G90
G05
T1
X101.65Y-119.3
X102.35Y-141.9
X106.6Y-116.95
X108.1Y-121.1
X112.5Y-107.6
X115.5Y-112.7
X116.55Y-139.5
X117.1Y-108.8
X118.05Y-132.7
X118.65Y-139.3
X120.05Y-141.25
X120.9Y-135.0
X123.65Y-137.25
X123.7Y-117.1
X123.7Y-140.55
X123.7Y-153.05
X124.85Y-110.0
X124.9Y-130.3
X126.4Y-146.25
X126.7Y-121.55
X126.95Y-137.3
X127.95Y-141.4
X128.0Y-131.6
X128.1Y-129.0
X128.25Y-124.65
X129.0Y-134.95
X129.05Y-146.7
X129.1Y-119.1
X129.2Y-131.5
X129.3Y-116.6
X129.3Y-142.6
X130.05Y-134.95
X130.2Y-131.2
X130.9Y-129.3
X131.0Y-153.0
X131.35Y-141.35
X132.6Y-140.2
X134.35Y-148.05
X136.35Y-142.9
X136.4Y-128.7
X136.4Y-146.05
X136.65Y-138.0
X137.2Y-122.2
X137.4Y-127.6
X137.7Y-139.0
X138.45Y-137.2
X138.8Y-123.8
X138.8Y-140.7
X139.0Y-125.6
X139.05Y-134.15
X139.25Y-129.1
X140.0Y-119.2
X140.95Y-138.3
X142.3Y-132.8
X142.9Y-117.1
X144.1Y-143.75
X145.7Y-113.9
X146.3Y-118.75
X146.3Y-123.45
X148.0Y-114.0
X148.8Y-151.3
X149.25Y-118.9
X149.9Y-130.3
X150.7Y-134.1
X151.4Y-110.3
X152.4Y-134.5
X152.5Y-110.3
X152.7Y-124.85
X152.7Y-133.0
X152.85Y-105.05
X152.85Y-131.55
X153.4Y-146.5
X153.8Y-118.5
X154.1Y-111.7
X154.15Y-132.45
X154.4Y-141.5
X154.6Y-146.3
X154.9Y-110.9
X155.1Y-133.3
X155.45Y-140.5
X156.4Y-146.5
X156.6Y-132.9
X156.85Y-124.6
X158.65Y-137.4
X159.55Y-127.25
X160.55Y-137.35
X161.0Y-150.4
X168.7Y-150.0
X171.8Y-114.1
X171.8Y-142.2
X171.9Y-121.1
X172.0Y-135.3
X172.3Y-129.1
T2
X111.751Y-129.71
X111.751Y-132.25
X113.75Y-129.71
X113.75Y-132.25
T3
X122.65Y-126.93
X122.65Y-129.47
T4
X165.58Y-114.34
X165.58Y-117.134
X165.58Y-119.801
X165.58Y-122.595
X165.58Y-125.389
X165.58Y-128.183
X165.58Y-130.85
X165.58Y-133.644
X165.58Y-136.438
X165.58Y-139.232
X165.58Y-141.899
X165.58Y-144.693
X165.58Y-147.487
X168.42Y-115.915
X168.42Y-118.455
X168.42Y-121.249
X168.42Y-123.992
X168.42Y-126.735
X168.42Y-129.529
X168.42Y-132.272
X168.42Y-135.016
X168.42Y-137.86
X168.42Y-140.553
X168.42Y-143.296
X168.42Y-146.09
T5
X128.65Y-108.4
X131.19Y-108.4
X138.81Y-108.4
X141.35Y-108.4
X143.89Y-108.4
T6
X109.051Y-124.981
X109.051Y-136.979
T7
X167.0Y-107.4
X167.0Y-154.5
M30
