%TF.GenerationSoftware,KiCad,Pcbnew,8.0.2*%
%TF.CreationDate,2025-12-07T10:50:00+01:00*%
%TF.ProjectId,Helios,48656c69-6f73-42e6-9b69-6361645f7063,rev?*%
%TF.SameCoordinates,Original*%
%TF.FileFunction,Drillmap*%
%TF.FilePolarity,Positive*%
%FSLAX45Y45*%
G04 Gerber Fmt 4.5, Leading zero omitted, Abs format (unit mm)*
G04 Created by KiCad (PCBNEW 8.0.2) date 2025-12-07 10:50:00*
%MOMM*%
%LPD*%
G01*
G04 APERTURE LIST*
%ADD10C,0.000100*%
%ADD11C,0.200000*%
%ADD12C,0.100000*%
%ADD13C,0.101600*%
%ADD14C,0.110000*%
%ADD15C,0.230124*%
%ADD16C,0.319000*%
G04 APERTURE END LIST*
D10*
X10000000Y-16110000D02*
X10000000Y-10000000D01*
X17520000Y-16110000D02*
X10000000Y-16110000D01*
X17520000Y-10000000D02*
X17520000Y-16110000D01*
X10000000Y-10000000D02*
X17520000Y-10000000D01*
D11*
D12*
X10145000Y-11910000D02*
X10185000Y-11950000D01*
X10185000Y-11910000D02*
X10145000Y-11950000D01*
X10215000Y-14170000D02*
X10255000Y-14210000D01*
X10255000Y-14170000D02*
X10215000Y-14210000D01*
X10640000Y-11675000D02*
X10680000Y-11715000D01*
X10680000Y-11675000D02*
X10640000Y-11715000D01*
X10790000Y-12090000D02*
X10830000Y-12130000D01*
X10830000Y-12090000D02*
X10790000Y-12130000D01*
X11230000Y-10740000D02*
X11270000Y-10780000D01*
X11270000Y-10740000D02*
X11230000Y-10780000D01*
X11530000Y-11250000D02*
X11570000Y-11290000D01*
X11570000Y-11250000D02*
X11530000Y-11290000D01*
X11635000Y-13930000D02*
X11675000Y-13970000D01*
X11675000Y-13930000D02*
X11635000Y-13970000D01*
X11690000Y-10860000D02*
X11730000Y-10900000D01*
X11730000Y-10860000D02*
X11690000Y-10900000D01*
X11785000Y-13250000D02*
X11825000Y-13290000D01*
X11825000Y-13250000D02*
X11785000Y-13290000D01*
X11845000Y-13910000D02*
X11885000Y-13950000D01*
X11885000Y-13910000D02*
X11845000Y-13950000D01*
X11985000Y-14105000D02*
X12025000Y-14145000D01*
X12025000Y-14105000D02*
X11985000Y-14145000D01*
X12070000Y-13480000D02*
X12110000Y-13520000D01*
X12110000Y-13480000D02*
X12070000Y-13520000D01*
X12345000Y-13705000D02*
X12385000Y-13745000D01*
X12385000Y-13705000D02*
X12345000Y-13745000D01*
X12350000Y-11690000D02*
X12390000Y-11730000D01*
X12390000Y-11690000D02*
X12350000Y-11730000D01*
X12350000Y-14035000D02*
X12390000Y-14075000D01*
X12390000Y-14035000D02*
X12350000Y-14075000D01*
X12350000Y-15285000D02*
X12390000Y-15325000D01*
X12390000Y-15285000D02*
X12350000Y-15325000D01*
X12465000Y-10980000D02*
X12505000Y-11020000D01*
X12505000Y-10980000D02*
X12465000Y-11020000D01*
X12470000Y-13010000D02*
X12510000Y-13050000D01*
X12510000Y-13010000D02*
X12470000Y-13050000D01*
X12620000Y-14605000D02*
X12660000Y-14645000D01*
X12660000Y-14605000D02*
X12620000Y-14645000D01*
X12650000Y-12135000D02*
X12690000Y-12175000D01*
X12690000Y-12135000D02*
X12650000Y-12175000D01*
X12675000Y-13710000D02*
X12715000Y-13750000D01*
X12715000Y-13710000D02*
X12675000Y-13750000D01*
X12775000Y-14120000D02*
X12815000Y-14160000D01*
X12815000Y-14120000D02*
X12775000Y-14160000D01*
X12780000Y-13140000D02*
X12820000Y-13180000D01*
X12820000Y-13140000D02*
X12780000Y-13180000D01*
X12790000Y-12880000D02*
X12830000Y-12920000D01*
X12830000Y-12880000D02*
X12790000Y-12920000D01*
X12805000Y-12445000D02*
X12845000Y-12485000D01*
X12845000Y-12445000D02*
X12805000Y-12485000D01*
X12880000Y-13475000D02*
X12920000Y-13515000D01*
X12920000Y-13475000D02*
X12880000Y-13515000D01*
X12885000Y-14650000D02*
X12925000Y-14690000D01*
X12925000Y-14650000D02*
X12885000Y-14690000D01*
X12890000Y-11890000D02*
X12930000Y-11930000D01*
X12930000Y-11890000D02*
X12890000Y-11930000D01*
X12900000Y-13130000D02*
X12940000Y-13170000D01*
X12940000Y-13130000D02*
X12900000Y-13170000D01*
X12910000Y-11640000D02*
X12950000Y-11680000D01*
X12950000Y-11640000D02*
X12910000Y-11680000D01*
X12910000Y-14240000D02*
X12950000Y-14280000D01*
X12950000Y-14240000D02*
X12910000Y-14280000D01*
X12985000Y-13475000D02*
X13025000Y-13515000D01*
X13025000Y-13475000D02*
X12985000Y-13515000D01*
X13000000Y-13100000D02*
X13040000Y-13140000D01*
X13040000Y-13100000D02*
X13000000Y-13140000D01*
X13070000Y-12910000D02*
X13110000Y-12950000D01*
X13110000Y-12910000D02*
X13070000Y-12950000D01*
X13080000Y-15280000D02*
X13120000Y-15320000D01*
X13120000Y-15280000D02*
X13080000Y-15320000D01*
X13115000Y-14115000D02*
X13155000Y-14155000D01*
X13155000Y-14115000D02*
X13115000Y-14155000D01*
X13240000Y-14000000D02*
X13280000Y-14040000D01*
X13280000Y-14000000D02*
X13240000Y-14040000D01*
X13415000Y-14785000D02*
X13455000Y-14825000D01*
X13455000Y-14785000D02*
X13415000Y-14825000D01*
X13615000Y-14270000D02*
X13655000Y-14310000D01*
X13655000Y-14270000D02*
X13615000Y-14310000D01*
X13620000Y-12850000D02*
X13660000Y-12890000D01*
X13660000Y-12850000D02*
X13620000Y-12890000D01*
X13620000Y-14585000D02*
X13660000Y-14625000D01*
X13660000Y-14585000D02*
X13620000Y-14625000D01*
X13645000Y-13780000D02*
X13685000Y-13820000D01*
X13685000Y-13780000D02*
X13645000Y-13820000D01*
X13700000Y-12200000D02*
X13740000Y-12240000D01*
X13740000Y-12200000D02*
X13700000Y-12240000D01*
X13720000Y-12740000D02*
X13760000Y-12780000D01*
X13760000Y-12740000D02*
X13720000Y-12780000D01*
X13750000Y-13880000D02*
X13790000Y-13920000D01*
X13790000Y-13880000D02*
X13750000Y-13920000D01*
X13825000Y-13700000D02*
X13865000Y-13740000D01*
X13865000Y-13700000D02*
X13825000Y-13740000D01*
X13860000Y-12360000D02*
X13900000Y-12400000D01*
X13900000Y-12360000D02*
X13860000Y-12400000D01*
X13860000Y-14050000D02*
X13900000Y-14090000D01*
X13900000Y-14050000D02*
X13860000Y-14090000D01*
X13880000Y-12540000D02*
X13920000Y-12580000D01*
X13920000Y-12540000D02*
X13880000Y-12580000D01*
X13885000Y-13395000D02*
X13925000Y-13435000D01*
X13925000Y-13395000D02*
X13885000Y-13435000D01*
X13905000Y-12890000D02*
X13945000Y-12930000D01*
X13945000Y-12890000D02*
X13905000Y-12930000D01*
X13980000Y-11900000D02*
X14020000Y-11940000D01*
X14020000Y-11900000D02*
X13980000Y-11940000D01*
X14075000Y-13810000D02*
X14115000Y-13850000D01*
X14115000Y-13810000D02*
X14075000Y-13850000D01*
X14210000Y-13260000D02*
X14250000Y-13300000D01*
X14250000Y-13260000D02*
X14210000Y-13300000D01*
X14270000Y-11690000D02*
X14310000Y-11730000D01*
X14310000Y-11690000D02*
X14270000Y-11730000D01*
X14390000Y-14355000D02*
X14430000Y-14395000D01*
X14430000Y-14355000D02*
X14390000Y-14395000D01*
X14550000Y-11370000D02*
X14590000Y-11410000D01*
X14590000Y-11370000D02*
X14550000Y-11410000D01*
X14610000Y-11855000D02*
X14650000Y-11895000D01*
X14650000Y-11855000D02*
X14610000Y-11895000D01*
X14610000Y-12325000D02*
X14650000Y-12365000D01*
X14650000Y-12325000D02*
X14610000Y-12365000D01*
X14780000Y-11380000D02*
X14820000Y-11420000D01*
X14820000Y-11380000D02*
X14780000Y-11420000D01*
X14860000Y-15110000D02*
X14900000Y-15150000D01*
X14900000Y-15110000D02*
X14860000Y-15150000D01*
X14905000Y-11870000D02*
X14945000Y-11910000D01*
X14945000Y-11870000D02*
X14905000Y-11910000D01*
X14970000Y-13010000D02*
X15010000Y-13050000D01*
X15010000Y-13010000D02*
X14970000Y-13050000D01*
X15050000Y-13390000D02*
X15090000Y-13430000D01*
X15090000Y-13390000D02*
X15050000Y-13430000D01*
X15120000Y-11010000D02*
X15160000Y-11050000D01*
X15160000Y-11010000D02*
X15120000Y-11050000D01*
X15220000Y-13430000D02*
X15260000Y-13470000D01*
X15260000Y-13430000D02*
X15220000Y-13470000D01*
X15230000Y-11010000D02*
X15270000Y-11050000D01*
X15270000Y-11010000D02*
X15230000Y-11050000D01*
X15250000Y-12465000D02*
X15290000Y-12505000D01*
X15290000Y-12465000D02*
X15250000Y-12505000D01*
X15250000Y-13280000D02*
X15290000Y-13320000D01*
X15290000Y-13280000D02*
X15250000Y-13320000D01*
X15265000Y-10485000D02*
X15305000Y-10525000D01*
X15305000Y-10485000D02*
X15265000Y-10525000D01*
X15265000Y-13135000D02*
X15305000Y-13175000D01*
X15305000Y-13135000D02*
X15265000Y-13175000D01*
X15320000Y-14630000D02*
X15360000Y-14670000D01*
X15360000Y-14630000D02*
X15320000Y-14670000D01*
X15360000Y-11830000D02*
X15400000Y-11870000D01*
X15400000Y-11830000D02*
X15360000Y-11870000D01*
X15390000Y-11150000D02*
X15430000Y-11190000D01*
X15430000Y-11150000D02*
X15390000Y-11190000D01*
X15395000Y-13225000D02*
X15435000Y-13265000D01*
X15435000Y-13225000D02*
X15395000Y-13265000D01*
X15420000Y-14130000D02*
X15460000Y-14170000D01*
X15460000Y-14130000D02*
X15420000Y-14170000D01*
X15440000Y-14610000D02*
X15480000Y-14650000D01*
X15480000Y-14610000D02*
X15440000Y-14650000D01*
X15470000Y-11070000D02*
X15510000Y-11110000D01*
X15510000Y-11070000D02*
X15470000Y-11110000D01*
X15490000Y-13310000D02*
X15530000Y-13350000D01*
X15530000Y-13310000D02*
X15490000Y-13350000D01*
X15525000Y-14030000D02*
X15565000Y-14070000D01*
X15565000Y-14030000D02*
X15525000Y-14070000D01*
X15620000Y-14630000D02*
X15660000Y-14670000D01*
X15660000Y-14630000D02*
X15620000Y-14670000D01*
X15640000Y-13270000D02*
X15680000Y-13310000D01*
X15680000Y-13270000D02*
X15640000Y-13310000D01*
X15665000Y-12440000D02*
X15705000Y-12480000D01*
X15705000Y-12440000D02*
X15665000Y-12480000D01*
X15845000Y-13720000D02*
X15885000Y-13760000D01*
X15885000Y-13720000D02*
X15845000Y-13760000D01*
X15935000Y-12705000D02*
X15975000Y-12745000D01*
X15975000Y-12705000D02*
X15935000Y-12745000D01*
X16035000Y-13715000D02*
X16075000Y-13755000D01*
X16075000Y-13715000D02*
X16035000Y-13755000D01*
X16080000Y-15020000D02*
X16120000Y-15060000D01*
X16120000Y-15020000D02*
X16080000Y-15060000D01*
X16850000Y-14980000D02*
X16890000Y-15020000D01*
X16890000Y-14980000D02*
X16850000Y-15020000D01*
X17160000Y-11390000D02*
X17200000Y-11430000D01*
X17200000Y-11390000D02*
X17160000Y-11430000D01*
X17160000Y-14200000D02*
X17200000Y-14240000D01*
X17200000Y-14200000D02*
X17160000Y-14240000D01*
X17170000Y-12090000D02*
X17210000Y-12130000D01*
X17210000Y-12090000D02*
X17170000Y-12130000D01*
X17180000Y-13510000D02*
X17220000Y-13550000D01*
X17220000Y-13510000D02*
X17180000Y-13550000D01*
X17210000Y-12890000D02*
X17250000Y-12930000D01*
X17250000Y-12890000D02*
X17210000Y-12930000D01*
X11215742Y-12971000D02*
G75*
G02*
X11134462Y-12971000I-40640J0D01*
G01*
X11134462Y-12971000D02*
G75*
G02*
X11215742Y-12971000I40640J0D01*
G01*
X11215742Y-13225000D02*
G75*
G02*
X11134462Y-13225000I-40640J0D01*
G01*
X11134462Y-13225000D02*
G75*
G02*
X11215742Y-13225000I40640J0D01*
G01*
X11415640Y-12971000D02*
G75*
G02*
X11334360Y-12971000I-40640J0D01*
G01*
X11334360Y-12971000D02*
G75*
G02*
X11415640Y-12971000I40640J0D01*
G01*
X11415640Y-13225000D02*
G75*
G02*
X11334360Y-13225000I-40640J0D01*
G01*
X11334360Y-13225000D02*
G75*
G02*
X11415640Y-13225000I40640J0D01*
G01*
X12265000Y-12643089D02*
X12265000Y-12742911D01*
X12215089Y-12693000D02*
X12314911Y-12693000D01*
X12265000Y-12897089D02*
X12265000Y-12996911D01*
X12215089Y-12947000D02*
X12314911Y-12947000D01*
D13*
X16593921Y-11469921D02*
X16593921Y-11398079D01*
X16522079Y-11398079D01*
X16522079Y-11469921D01*
X16593921Y-11469921D01*
X16593921Y-11749321D02*
X16593921Y-11677479D01*
X16522079Y-11677479D01*
X16522079Y-11749321D01*
X16593921Y-11749321D01*
X16593921Y-12016021D02*
X16593921Y-11944179D01*
X16522079Y-11944179D01*
X16522079Y-12016021D01*
X16593921Y-12016021D01*
X16593921Y-12295421D02*
X16593921Y-12223579D01*
X16522079Y-12223579D01*
X16522079Y-12295421D01*
X16593921Y-12295421D01*
X16593921Y-12574821D02*
X16593921Y-12502979D01*
X16522079Y-12502979D01*
X16522079Y-12574821D01*
X16593921Y-12574821D01*
X16593921Y-12854221D02*
X16593921Y-12782379D01*
X16522079Y-12782379D01*
X16522079Y-12854221D01*
X16593921Y-12854221D01*
X16593921Y-13120921D02*
X16593921Y-13049079D01*
X16522079Y-13049079D01*
X16522079Y-13120921D01*
X16593921Y-13120921D01*
X16593921Y-13400321D02*
X16593921Y-13328479D01*
X16522079Y-13328479D01*
X16522079Y-13400321D01*
X16593921Y-13400321D01*
X16593921Y-13679721D02*
X16593921Y-13607879D01*
X16522079Y-13607879D01*
X16522079Y-13679721D01*
X16593921Y-13679721D01*
X16593921Y-13959121D02*
X16593921Y-13887279D01*
X16522079Y-13887279D01*
X16522079Y-13959121D01*
X16593921Y-13959121D01*
X16593921Y-14225821D02*
X16593921Y-14153979D01*
X16522079Y-14153979D01*
X16522079Y-14225821D01*
X16593921Y-14225821D01*
X16593921Y-14505221D02*
X16593921Y-14433379D01*
X16522079Y-14433379D01*
X16522079Y-14505221D01*
X16593921Y-14505221D01*
X16593921Y-14784621D02*
X16593921Y-14712779D01*
X16522079Y-14712779D01*
X16522079Y-14784621D01*
X16593921Y-14784621D01*
X16877921Y-11627401D02*
X16877921Y-11555559D01*
X16806079Y-11555559D01*
X16806079Y-11627401D01*
X16877921Y-11627401D01*
X16877921Y-11881401D02*
X16877921Y-11809559D01*
X16806079Y-11809559D01*
X16806079Y-11881401D01*
X16877921Y-11881401D01*
X16877921Y-12160801D02*
X16877921Y-12088959D01*
X16806079Y-12088959D01*
X16806079Y-12160801D01*
X16877921Y-12160801D01*
X16877921Y-12435121D02*
X16877921Y-12363279D01*
X16806079Y-12363279D01*
X16806079Y-12435121D01*
X16877921Y-12435121D01*
X16877921Y-12709441D02*
X16877921Y-12637599D01*
X16806079Y-12637599D01*
X16806079Y-12709441D01*
X16877921Y-12709441D01*
X16877921Y-12988841D02*
X16877921Y-12916999D01*
X16806079Y-12916999D01*
X16806079Y-12988841D01*
X16877921Y-12988841D01*
X16877921Y-13263161D02*
X16877921Y-13191319D01*
X16806079Y-13191319D01*
X16806079Y-13263161D01*
X16877921Y-13263161D01*
X16877921Y-13537481D02*
X16877921Y-13465639D01*
X16806079Y-13465639D01*
X16806079Y-13537481D01*
X16877921Y-13537481D01*
X16877921Y-13821961D02*
X16877921Y-13750119D01*
X16806079Y-13750119D01*
X16806079Y-13821961D01*
X16877921Y-13821961D01*
X16877921Y-14091201D02*
X16877921Y-14019359D01*
X16806079Y-14019359D01*
X16806079Y-14091201D01*
X16877921Y-14091201D01*
X16877921Y-14365521D02*
X16877921Y-14293679D01*
X16806079Y-14293679D01*
X16806079Y-14365521D01*
X16877921Y-14365521D01*
X16877921Y-14644921D02*
X16877921Y-14573079D01*
X16806079Y-14573079D01*
X16806079Y-14644921D01*
X16877921Y-14644921D01*
D14*
X12865000Y-10895000D02*
X12920000Y-10840000D01*
X12865000Y-10785000D01*
X12810000Y-10840000D01*
X12865000Y-10895000D01*
X13119000Y-10895000D02*
X13174000Y-10840000D01*
X13119000Y-10785000D01*
X13064000Y-10840000D01*
X13119000Y-10895000D01*
X13881000Y-10895000D02*
X13936000Y-10840000D01*
X13881000Y-10785000D01*
X13826000Y-10840000D01*
X13881000Y-10895000D01*
X14135000Y-10895000D02*
X14190000Y-10840000D01*
X14135000Y-10785000D01*
X14080000Y-10840000D01*
X14135000Y-10895000D01*
X14389000Y-10895000D02*
X14444000Y-10840000D01*
X14389000Y-10785000D01*
X14334000Y-10840000D01*
X14389000Y-10895000D01*
D15*
X10790038Y-12382990D02*
X11020162Y-12613114D01*
X11020162Y-12382990D02*
X10790038Y-12613114D01*
X11020162Y-12498052D02*
G75*
G02*
X10790038Y-12498052I-115062J0D01*
G01*
X10790038Y-12498052D02*
G75*
G02*
X11020162Y-12498052I115062J0D01*
G01*
X10790038Y-13582886D02*
X11020162Y-13813010D01*
X11020162Y-13582886D02*
X10790038Y-13813010D01*
X11020162Y-13697948D02*
G75*
G02*
X10790038Y-13697948I-115062J0D01*
G01*
X10790038Y-13697948D02*
G75*
G02*
X11020162Y-13697948I115062J0D01*
G01*
D16*
X16540500Y-10580500D02*
X16859500Y-10899500D01*
X16859500Y-10580500D02*
X16540500Y-10899500D01*
X16700000Y-10580500D02*
X16700000Y-10899500D01*
X16540500Y-10740000D02*
X16859500Y-10740000D01*
X16540500Y-15290500D02*
X16859500Y-15609500D01*
X16859500Y-15290500D02*
X16540500Y-15609500D01*
X16700000Y-15290500D02*
X16700000Y-15609500D01*
X16540500Y-15450000D02*
X16859500Y-15450000D01*
D11*
X10260772Y-16421489D02*
X10260772Y-16221489D01*
X10260772Y-16221489D02*
X10308391Y-16221489D01*
X10308391Y-16221489D02*
X10336962Y-16231013D01*
X10336962Y-16231013D02*
X10356010Y-16250060D01*
X10356010Y-16250060D02*
X10365534Y-16269108D01*
X10365534Y-16269108D02*
X10375058Y-16307203D01*
X10375058Y-16307203D02*
X10375058Y-16335774D01*
X10375058Y-16335774D02*
X10365534Y-16373870D01*
X10365534Y-16373870D02*
X10356010Y-16392917D01*
X10356010Y-16392917D02*
X10336962Y-16411965D01*
X10336962Y-16411965D02*
X10308391Y-16421489D01*
X10308391Y-16421489D02*
X10260772Y-16421489D01*
X10460772Y-16421489D02*
X10460772Y-16288155D01*
X10460772Y-16326251D02*
X10470296Y-16307203D01*
X10470296Y-16307203D02*
X10479819Y-16297679D01*
X10479819Y-16297679D02*
X10498867Y-16288155D01*
X10498867Y-16288155D02*
X10517915Y-16288155D01*
X10584581Y-16421489D02*
X10584581Y-16288155D01*
X10584581Y-16221489D02*
X10575058Y-16231013D01*
X10575058Y-16231013D02*
X10584581Y-16240536D01*
X10584581Y-16240536D02*
X10594105Y-16231013D01*
X10594105Y-16231013D02*
X10584581Y-16221489D01*
X10584581Y-16221489D02*
X10584581Y-16240536D01*
X10708391Y-16421489D02*
X10689343Y-16411965D01*
X10689343Y-16411965D02*
X10679819Y-16392917D01*
X10679819Y-16392917D02*
X10679819Y-16221489D01*
X10813153Y-16421489D02*
X10794105Y-16411965D01*
X10794105Y-16411965D02*
X10784581Y-16392917D01*
X10784581Y-16392917D02*
X10784581Y-16221489D01*
X11041724Y-16421489D02*
X11041724Y-16221489D01*
X11041724Y-16221489D02*
X11108391Y-16364346D01*
X11108391Y-16364346D02*
X11175058Y-16221489D01*
X11175058Y-16221489D02*
X11175058Y-16421489D01*
X11356010Y-16421489D02*
X11356010Y-16316727D01*
X11356010Y-16316727D02*
X11346486Y-16297679D01*
X11346486Y-16297679D02*
X11327438Y-16288155D01*
X11327438Y-16288155D02*
X11289343Y-16288155D01*
X11289343Y-16288155D02*
X11270296Y-16297679D01*
X11356010Y-16411965D02*
X11336962Y-16421489D01*
X11336962Y-16421489D02*
X11289343Y-16421489D01*
X11289343Y-16421489D02*
X11270296Y-16411965D01*
X11270296Y-16411965D02*
X11260772Y-16392917D01*
X11260772Y-16392917D02*
X11260772Y-16373870D01*
X11260772Y-16373870D02*
X11270296Y-16354822D01*
X11270296Y-16354822D02*
X11289343Y-16345298D01*
X11289343Y-16345298D02*
X11336962Y-16345298D01*
X11336962Y-16345298D02*
X11356010Y-16335774D01*
X11451248Y-16288155D02*
X11451248Y-16488155D01*
X11451248Y-16297679D02*
X11470296Y-16288155D01*
X11470296Y-16288155D02*
X11508391Y-16288155D01*
X11508391Y-16288155D02*
X11527438Y-16297679D01*
X11527438Y-16297679D02*
X11536962Y-16307203D01*
X11536962Y-16307203D02*
X11546486Y-16326251D01*
X11546486Y-16326251D02*
X11546486Y-16383393D01*
X11546486Y-16383393D02*
X11536962Y-16402441D01*
X11536962Y-16402441D02*
X11527438Y-16411965D01*
X11527438Y-16411965D02*
X11508391Y-16421489D01*
X11508391Y-16421489D02*
X11470296Y-16421489D01*
X11470296Y-16421489D02*
X11451248Y-16411965D01*
X11632200Y-16402441D02*
X11641724Y-16411965D01*
X11641724Y-16411965D02*
X11632200Y-16421489D01*
X11632200Y-16421489D02*
X11622677Y-16411965D01*
X11622677Y-16411965D02*
X11632200Y-16402441D01*
X11632200Y-16402441D02*
X11632200Y-16421489D01*
X11632200Y-16297679D02*
X11641724Y-16307203D01*
X11641724Y-16307203D02*
X11632200Y-16316727D01*
X11632200Y-16316727D02*
X11622677Y-16307203D01*
X11622677Y-16307203D02*
X11632200Y-16297679D01*
X11632200Y-16297679D02*
X11632200Y-16316727D01*
D12*
X9959995Y-16730005D02*
X9999995Y-16770005D01*
X9999995Y-16730005D02*
X9959995Y-16770005D01*
D11*
X10298867Y-16641489D02*
X10317915Y-16641489D01*
X10317915Y-16641489D02*
X10336962Y-16651013D01*
X10336962Y-16651013D02*
X10346486Y-16660536D01*
X10346486Y-16660536D02*
X10356010Y-16679584D01*
X10356010Y-16679584D02*
X10365534Y-16717679D01*
X10365534Y-16717679D02*
X10365534Y-16765298D01*
X10365534Y-16765298D02*
X10356010Y-16803394D01*
X10356010Y-16803394D02*
X10346486Y-16822441D01*
X10346486Y-16822441D02*
X10336962Y-16831965D01*
X10336962Y-16831965D02*
X10317915Y-16841489D01*
X10317915Y-16841489D02*
X10298867Y-16841489D01*
X10298867Y-16841489D02*
X10279819Y-16831965D01*
X10279819Y-16831965D02*
X10270296Y-16822441D01*
X10270296Y-16822441D02*
X10260772Y-16803394D01*
X10260772Y-16803394D02*
X10251248Y-16765298D01*
X10251248Y-16765298D02*
X10251248Y-16717679D01*
X10251248Y-16717679D02*
X10260772Y-16679584D01*
X10260772Y-16679584D02*
X10270296Y-16660536D01*
X10270296Y-16660536D02*
X10279819Y-16651013D01*
X10279819Y-16651013D02*
X10298867Y-16641489D01*
X10451248Y-16822441D02*
X10460772Y-16831965D01*
X10460772Y-16831965D02*
X10451248Y-16841489D01*
X10451248Y-16841489D02*
X10441724Y-16831965D01*
X10441724Y-16831965D02*
X10451248Y-16822441D01*
X10451248Y-16822441D02*
X10451248Y-16841489D01*
X10632200Y-16708155D02*
X10632200Y-16841489D01*
X10584581Y-16631965D02*
X10536962Y-16774822D01*
X10536962Y-16774822D02*
X10660772Y-16774822D01*
X10775058Y-16641489D02*
X10794105Y-16641489D01*
X10794105Y-16641489D02*
X10813153Y-16651013D01*
X10813153Y-16651013D02*
X10822677Y-16660536D01*
X10822677Y-16660536D02*
X10832200Y-16679584D01*
X10832200Y-16679584D02*
X10841724Y-16717679D01*
X10841724Y-16717679D02*
X10841724Y-16765298D01*
X10841724Y-16765298D02*
X10832200Y-16803394D01*
X10832200Y-16803394D02*
X10822677Y-16822441D01*
X10822677Y-16822441D02*
X10813153Y-16831965D01*
X10813153Y-16831965D02*
X10794105Y-16841489D01*
X10794105Y-16841489D02*
X10775058Y-16841489D01*
X10775058Y-16841489D02*
X10756010Y-16831965D01*
X10756010Y-16831965D02*
X10746486Y-16822441D01*
X10746486Y-16822441D02*
X10736962Y-16803394D01*
X10736962Y-16803394D02*
X10727439Y-16765298D01*
X10727439Y-16765298D02*
X10727439Y-16717679D01*
X10727439Y-16717679D02*
X10736962Y-16679584D01*
X10736962Y-16679584D02*
X10746486Y-16660536D01*
X10746486Y-16660536D02*
X10756010Y-16651013D01*
X10756010Y-16651013D02*
X10775058Y-16641489D01*
X10965534Y-16641489D02*
X10984581Y-16641489D01*
X10984581Y-16641489D02*
X11003629Y-16651013D01*
X11003629Y-16651013D02*
X11013153Y-16660536D01*
X11013153Y-16660536D02*
X11022677Y-16679584D01*
X11022677Y-16679584D02*
X11032200Y-16717679D01*
X11032200Y-16717679D02*
X11032200Y-16765298D01*
X11032200Y-16765298D02*
X11022677Y-16803394D01*
X11022677Y-16803394D02*
X11013153Y-16822441D01*
X11013153Y-16822441D02*
X11003629Y-16831965D01*
X11003629Y-16831965D02*
X10984581Y-16841489D01*
X10984581Y-16841489D02*
X10965534Y-16841489D01*
X10965534Y-16841489D02*
X10946486Y-16831965D01*
X10946486Y-16831965D02*
X10936962Y-16822441D01*
X10936962Y-16822441D02*
X10927439Y-16803394D01*
X10927439Y-16803394D02*
X10917915Y-16765298D01*
X10917915Y-16765298D02*
X10917915Y-16717679D01*
X10917915Y-16717679D02*
X10927439Y-16679584D01*
X10927439Y-16679584D02*
X10936962Y-16660536D01*
X10936962Y-16660536D02*
X10946486Y-16651013D01*
X10946486Y-16651013D02*
X10965534Y-16641489D01*
X11117915Y-16841489D02*
X11117915Y-16708155D01*
X11117915Y-16727203D02*
X11127439Y-16717679D01*
X11127439Y-16717679D02*
X11146486Y-16708155D01*
X11146486Y-16708155D02*
X11175058Y-16708155D01*
X11175058Y-16708155D02*
X11194105Y-16717679D01*
X11194105Y-16717679D02*
X11203629Y-16736727D01*
X11203629Y-16736727D02*
X11203629Y-16841489D01*
X11203629Y-16736727D02*
X11213153Y-16717679D01*
X11213153Y-16717679D02*
X11232200Y-16708155D01*
X11232200Y-16708155D02*
X11260772Y-16708155D01*
X11260772Y-16708155D02*
X11279819Y-16717679D01*
X11279819Y-16717679D02*
X11289343Y-16736727D01*
X11289343Y-16736727D02*
X11289343Y-16841489D01*
X11384581Y-16841489D02*
X11384581Y-16708155D01*
X11384581Y-16727203D02*
X11394105Y-16717679D01*
X11394105Y-16717679D02*
X11413153Y-16708155D01*
X11413153Y-16708155D02*
X11441724Y-16708155D01*
X11441724Y-16708155D02*
X11460772Y-16717679D01*
X11460772Y-16717679D02*
X11470296Y-16736727D01*
X11470296Y-16736727D02*
X11470296Y-16841489D01*
X11470296Y-16736727D02*
X11479819Y-16717679D01*
X11479819Y-16717679D02*
X11498867Y-16708155D01*
X11498867Y-16708155D02*
X11527438Y-16708155D01*
X11527438Y-16708155D02*
X11546486Y-16717679D01*
X11546486Y-16717679D02*
X11556010Y-16736727D01*
X11556010Y-16736727D02*
X11556010Y-16841489D01*
X11946486Y-16631965D02*
X11775058Y-16889108D01*
X12203629Y-16641489D02*
X12222677Y-16641489D01*
X12222677Y-16641489D02*
X12241724Y-16651013D01*
X12241724Y-16651013D02*
X12251248Y-16660536D01*
X12251248Y-16660536D02*
X12260772Y-16679584D01*
X12260772Y-16679584D02*
X12270296Y-16717679D01*
X12270296Y-16717679D02*
X12270296Y-16765298D01*
X12270296Y-16765298D02*
X12260772Y-16803394D01*
X12260772Y-16803394D02*
X12251248Y-16822441D01*
X12251248Y-16822441D02*
X12241724Y-16831965D01*
X12241724Y-16831965D02*
X12222677Y-16841489D01*
X12222677Y-16841489D02*
X12203629Y-16841489D01*
X12203629Y-16841489D02*
X12184581Y-16831965D01*
X12184581Y-16831965D02*
X12175058Y-16822441D01*
X12175058Y-16822441D02*
X12165534Y-16803394D01*
X12165534Y-16803394D02*
X12156010Y-16765298D01*
X12156010Y-16765298D02*
X12156010Y-16717679D01*
X12156010Y-16717679D02*
X12165534Y-16679584D01*
X12165534Y-16679584D02*
X12175058Y-16660536D01*
X12175058Y-16660536D02*
X12184581Y-16651013D01*
X12184581Y-16651013D02*
X12203629Y-16641489D01*
X12356010Y-16822441D02*
X12365534Y-16831965D01*
X12365534Y-16831965D02*
X12356010Y-16841489D01*
X12356010Y-16841489D02*
X12346486Y-16831965D01*
X12346486Y-16831965D02*
X12356010Y-16822441D01*
X12356010Y-16822441D02*
X12356010Y-16841489D01*
X12489343Y-16641489D02*
X12508391Y-16641489D01*
X12508391Y-16641489D02*
X12527439Y-16651013D01*
X12527439Y-16651013D02*
X12536962Y-16660536D01*
X12536962Y-16660536D02*
X12546486Y-16679584D01*
X12546486Y-16679584D02*
X12556010Y-16717679D01*
X12556010Y-16717679D02*
X12556010Y-16765298D01*
X12556010Y-16765298D02*
X12546486Y-16803394D01*
X12546486Y-16803394D02*
X12536962Y-16822441D01*
X12536962Y-16822441D02*
X12527439Y-16831965D01*
X12527439Y-16831965D02*
X12508391Y-16841489D01*
X12508391Y-16841489D02*
X12489343Y-16841489D01*
X12489343Y-16841489D02*
X12470296Y-16831965D01*
X12470296Y-16831965D02*
X12460772Y-16822441D01*
X12460772Y-16822441D02*
X12451248Y-16803394D01*
X12451248Y-16803394D02*
X12441724Y-16765298D01*
X12441724Y-16765298D02*
X12441724Y-16717679D01*
X12441724Y-16717679D02*
X12451248Y-16679584D01*
X12451248Y-16679584D02*
X12460772Y-16660536D01*
X12460772Y-16660536D02*
X12470296Y-16651013D01*
X12470296Y-16651013D02*
X12489343Y-16641489D01*
X12746486Y-16841489D02*
X12632201Y-16841489D01*
X12689343Y-16841489D02*
X12689343Y-16641489D01*
X12689343Y-16641489D02*
X12670296Y-16670060D01*
X12670296Y-16670060D02*
X12651248Y-16689108D01*
X12651248Y-16689108D02*
X12632201Y-16698632D01*
X12927439Y-16641489D02*
X12832201Y-16641489D01*
X12832201Y-16641489D02*
X12822677Y-16736727D01*
X12822677Y-16736727D02*
X12832201Y-16727203D01*
X12832201Y-16727203D02*
X12851248Y-16717679D01*
X12851248Y-16717679D02*
X12898867Y-16717679D01*
X12898867Y-16717679D02*
X12917915Y-16727203D01*
X12917915Y-16727203D02*
X12927439Y-16736727D01*
X12927439Y-16736727D02*
X12936962Y-16755774D01*
X12936962Y-16755774D02*
X12936962Y-16803394D01*
X12936962Y-16803394D02*
X12927439Y-16822441D01*
X12927439Y-16822441D02*
X12917915Y-16831965D01*
X12917915Y-16831965D02*
X12898867Y-16841489D01*
X12898867Y-16841489D02*
X12851248Y-16841489D01*
X12851248Y-16841489D02*
X12832201Y-16831965D01*
X12832201Y-16831965D02*
X12822677Y-16822441D01*
X13003629Y-16641489D02*
X13136962Y-16641489D01*
X13136962Y-16641489D02*
X13051248Y-16841489D01*
X13203629Y-16641489D02*
X13203629Y-16679584D01*
X13279820Y-16641489D02*
X13279820Y-16679584D01*
X13575058Y-16917679D02*
X13565534Y-16908155D01*
X13565534Y-16908155D02*
X13546486Y-16879584D01*
X13546486Y-16879584D02*
X13536963Y-16860536D01*
X13536963Y-16860536D02*
X13527439Y-16831965D01*
X13527439Y-16831965D02*
X13517915Y-16784346D01*
X13517915Y-16784346D02*
X13517915Y-16746251D01*
X13517915Y-16746251D02*
X13527439Y-16698632D01*
X13527439Y-16698632D02*
X13536963Y-16670060D01*
X13536963Y-16670060D02*
X13546486Y-16651013D01*
X13546486Y-16651013D02*
X13565534Y-16622441D01*
X13565534Y-16622441D02*
X13575058Y-16612917D01*
X13660772Y-16841489D02*
X13698867Y-16841489D01*
X13698867Y-16841489D02*
X13717915Y-16831965D01*
X13717915Y-16831965D02*
X13727439Y-16822441D01*
X13727439Y-16822441D02*
X13746486Y-16793870D01*
X13746486Y-16793870D02*
X13756010Y-16755774D01*
X13756010Y-16755774D02*
X13756010Y-16679584D01*
X13756010Y-16679584D02*
X13746486Y-16660536D01*
X13746486Y-16660536D02*
X13736963Y-16651013D01*
X13736963Y-16651013D02*
X13717915Y-16641489D01*
X13717915Y-16641489D02*
X13679820Y-16641489D01*
X13679820Y-16641489D02*
X13660772Y-16651013D01*
X13660772Y-16651013D02*
X13651248Y-16660536D01*
X13651248Y-16660536D02*
X13641724Y-16679584D01*
X13641724Y-16679584D02*
X13641724Y-16727203D01*
X13641724Y-16727203D02*
X13651248Y-16746251D01*
X13651248Y-16746251D02*
X13660772Y-16755774D01*
X13660772Y-16755774D02*
X13679820Y-16765298D01*
X13679820Y-16765298D02*
X13717915Y-16765298D01*
X13717915Y-16765298D02*
X13736963Y-16755774D01*
X13736963Y-16755774D02*
X13746486Y-16746251D01*
X13746486Y-16746251D02*
X13756010Y-16727203D01*
X13822677Y-16641489D02*
X13946486Y-16641489D01*
X13946486Y-16641489D02*
X13879820Y-16717679D01*
X13879820Y-16717679D02*
X13908391Y-16717679D01*
X13908391Y-16717679D02*
X13927439Y-16727203D01*
X13927439Y-16727203D02*
X13936963Y-16736727D01*
X13936963Y-16736727D02*
X13946486Y-16755774D01*
X13946486Y-16755774D02*
X13946486Y-16803394D01*
X13946486Y-16803394D02*
X13936963Y-16822441D01*
X13936963Y-16822441D02*
X13927439Y-16831965D01*
X13927439Y-16831965D02*
X13908391Y-16841489D01*
X13908391Y-16841489D02*
X13851248Y-16841489D01*
X13851248Y-16841489D02*
X13832201Y-16831965D01*
X13832201Y-16831965D02*
X13822677Y-16822441D01*
X14184582Y-16841489D02*
X14184582Y-16641489D01*
X14270296Y-16841489D02*
X14270296Y-16736727D01*
X14270296Y-16736727D02*
X14260772Y-16717679D01*
X14260772Y-16717679D02*
X14241725Y-16708155D01*
X14241725Y-16708155D02*
X14213153Y-16708155D01*
X14213153Y-16708155D02*
X14194105Y-16717679D01*
X14194105Y-16717679D02*
X14184582Y-16727203D01*
X14394105Y-16841489D02*
X14375058Y-16831965D01*
X14375058Y-16831965D02*
X14365534Y-16822441D01*
X14365534Y-16822441D02*
X14356010Y-16803394D01*
X14356010Y-16803394D02*
X14356010Y-16746251D01*
X14356010Y-16746251D02*
X14365534Y-16727203D01*
X14365534Y-16727203D02*
X14375058Y-16717679D01*
X14375058Y-16717679D02*
X14394105Y-16708155D01*
X14394105Y-16708155D02*
X14422677Y-16708155D01*
X14422677Y-16708155D02*
X14441725Y-16717679D01*
X14441725Y-16717679D02*
X14451248Y-16727203D01*
X14451248Y-16727203D02*
X14460772Y-16746251D01*
X14460772Y-16746251D02*
X14460772Y-16803394D01*
X14460772Y-16803394D02*
X14451248Y-16822441D01*
X14451248Y-16822441D02*
X14441725Y-16831965D01*
X14441725Y-16831965D02*
X14422677Y-16841489D01*
X14422677Y-16841489D02*
X14394105Y-16841489D01*
X14575058Y-16841489D02*
X14556010Y-16831965D01*
X14556010Y-16831965D02*
X14546486Y-16812917D01*
X14546486Y-16812917D02*
X14546486Y-16641489D01*
X14727439Y-16831965D02*
X14708391Y-16841489D01*
X14708391Y-16841489D02*
X14670296Y-16841489D01*
X14670296Y-16841489D02*
X14651248Y-16831965D01*
X14651248Y-16831965D02*
X14641725Y-16812917D01*
X14641725Y-16812917D02*
X14641725Y-16736727D01*
X14641725Y-16736727D02*
X14651248Y-16717679D01*
X14651248Y-16717679D02*
X14670296Y-16708155D01*
X14670296Y-16708155D02*
X14708391Y-16708155D01*
X14708391Y-16708155D02*
X14727439Y-16717679D01*
X14727439Y-16717679D02*
X14736963Y-16736727D01*
X14736963Y-16736727D02*
X14736963Y-16755774D01*
X14736963Y-16755774D02*
X14641725Y-16774822D01*
X14813153Y-16831965D02*
X14832201Y-16841489D01*
X14832201Y-16841489D02*
X14870296Y-16841489D01*
X14870296Y-16841489D02*
X14889344Y-16831965D01*
X14889344Y-16831965D02*
X14898867Y-16812917D01*
X14898867Y-16812917D02*
X14898867Y-16803394D01*
X14898867Y-16803394D02*
X14889344Y-16784346D01*
X14889344Y-16784346D02*
X14870296Y-16774822D01*
X14870296Y-16774822D02*
X14841725Y-16774822D01*
X14841725Y-16774822D02*
X14822677Y-16765298D01*
X14822677Y-16765298D02*
X14813153Y-16746251D01*
X14813153Y-16746251D02*
X14813153Y-16736727D01*
X14813153Y-16736727D02*
X14822677Y-16717679D01*
X14822677Y-16717679D02*
X14841725Y-16708155D01*
X14841725Y-16708155D02*
X14870296Y-16708155D01*
X14870296Y-16708155D02*
X14889344Y-16717679D01*
X14965534Y-16917679D02*
X14975058Y-16908155D01*
X14975058Y-16908155D02*
X14994106Y-16879584D01*
X14994106Y-16879584D02*
X15003629Y-16860536D01*
X15003629Y-16860536D02*
X15013153Y-16831965D01*
X15013153Y-16831965D02*
X15022677Y-16784346D01*
X15022677Y-16784346D02*
X15022677Y-16746251D01*
X15022677Y-16746251D02*
X15013153Y-16698632D01*
X15013153Y-16698632D02*
X15003629Y-16670060D01*
X15003629Y-16670060D02*
X14994106Y-16651013D01*
X14994106Y-16651013D02*
X14975058Y-16622441D01*
X14975058Y-16622441D02*
X14965534Y-16612917D01*
D12*
X9999995Y-17014005D02*
G75*
G02*
X9918715Y-17014005I-40640J0D01*
G01*
X9918715Y-17014005D02*
G75*
G02*
X9999995Y-17014005I40640J0D01*
G01*
D11*
X10298867Y-16905489D02*
X10317915Y-16905489D01*
X10317915Y-16905489D02*
X10336962Y-16915013D01*
X10336962Y-16915013D02*
X10346486Y-16924536D01*
X10346486Y-16924536D02*
X10356010Y-16943584D01*
X10356010Y-16943584D02*
X10365534Y-16981679D01*
X10365534Y-16981679D02*
X10365534Y-17029298D01*
X10365534Y-17029298D02*
X10356010Y-17067394D01*
X10356010Y-17067394D02*
X10346486Y-17086441D01*
X10346486Y-17086441D02*
X10336962Y-17095965D01*
X10336962Y-17095965D02*
X10317915Y-17105489D01*
X10317915Y-17105489D02*
X10298867Y-17105489D01*
X10298867Y-17105489D02*
X10279819Y-17095965D01*
X10279819Y-17095965D02*
X10270296Y-17086441D01*
X10270296Y-17086441D02*
X10260772Y-17067394D01*
X10260772Y-17067394D02*
X10251248Y-17029298D01*
X10251248Y-17029298D02*
X10251248Y-16981679D01*
X10251248Y-16981679D02*
X10260772Y-16943584D01*
X10260772Y-16943584D02*
X10270296Y-16924536D01*
X10270296Y-16924536D02*
X10279819Y-16915013D01*
X10279819Y-16915013D02*
X10298867Y-16905489D01*
X10451248Y-17086441D02*
X10460772Y-17095965D01*
X10460772Y-17095965D02*
X10451248Y-17105489D01*
X10451248Y-17105489D02*
X10441724Y-17095965D01*
X10441724Y-17095965D02*
X10451248Y-17086441D01*
X10451248Y-17086441D02*
X10451248Y-17105489D01*
X10575058Y-16991203D02*
X10556010Y-16981679D01*
X10556010Y-16981679D02*
X10546486Y-16972155D01*
X10546486Y-16972155D02*
X10536962Y-16953108D01*
X10536962Y-16953108D02*
X10536962Y-16943584D01*
X10536962Y-16943584D02*
X10546486Y-16924536D01*
X10546486Y-16924536D02*
X10556010Y-16915013D01*
X10556010Y-16915013D02*
X10575058Y-16905489D01*
X10575058Y-16905489D02*
X10613153Y-16905489D01*
X10613153Y-16905489D02*
X10632200Y-16915013D01*
X10632200Y-16915013D02*
X10641724Y-16924536D01*
X10641724Y-16924536D02*
X10651248Y-16943584D01*
X10651248Y-16943584D02*
X10651248Y-16953108D01*
X10651248Y-16953108D02*
X10641724Y-16972155D01*
X10641724Y-16972155D02*
X10632200Y-16981679D01*
X10632200Y-16981679D02*
X10613153Y-16991203D01*
X10613153Y-16991203D02*
X10575058Y-16991203D01*
X10575058Y-16991203D02*
X10556010Y-17000727D01*
X10556010Y-17000727D02*
X10546486Y-17010251D01*
X10546486Y-17010251D02*
X10536962Y-17029298D01*
X10536962Y-17029298D02*
X10536962Y-17067394D01*
X10536962Y-17067394D02*
X10546486Y-17086441D01*
X10546486Y-17086441D02*
X10556010Y-17095965D01*
X10556010Y-17095965D02*
X10575058Y-17105489D01*
X10575058Y-17105489D02*
X10613153Y-17105489D01*
X10613153Y-17105489D02*
X10632200Y-17095965D01*
X10632200Y-17095965D02*
X10641724Y-17086441D01*
X10641724Y-17086441D02*
X10651248Y-17067394D01*
X10651248Y-17067394D02*
X10651248Y-17029298D01*
X10651248Y-17029298D02*
X10641724Y-17010251D01*
X10641724Y-17010251D02*
X10632200Y-17000727D01*
X10632200Y-17000727D02*
X10613153Y-16991203D01*
X10841724Y-17105489D02*
X10727439Y-17105489D01*
X10784581Y-17105489D02*
X10784581Y-16905489D01*
X10784581Y-16905489D02*
X10765534Y-16934060D01*
X10765534Y-16934060D02*
X10746486Y-16953108D01*
X10746486Y-16953108D02*
X10727439Y-16962632D01*
X10908391Y-16905489D02*
X11032200Y-16905489D01*
X11032200Y-16905489D02*
X10965534Y-16981679D01*
X10965534Y-16981679D02*
X10994105Y-16981679D01*
X10994105Y-16981679D02*
X11013153Y-16991203D01*
X11013153Y-16991203D02*
X11022677Y-17000727D01*
X11022677Y-17000727D02*
X11032200Y-17019775D01*
X11032200Y-17019775D02*
X11032200Y-17067394D01*
X11032200Y-17067394D02*
X11022677Y-17086441D01*
X11022677Y-17086441D02*
X11013153Y-17095965D01*
X11013153Y-17095965D02*
X10994105Y-17105489D01*
X10994105Y-17105489D02*
X10936962Y-17105489D01*
X10936962Y-17105489D02*
X10917915Y-17095965D01*
X10917915Y-17095965D02*
X10908391Y-17086441D01*
X11117915Y-17105489D02*
X11117915Y-16972155D01*
X11117915Y-16991203D02*
X11127439Y-16981679D01*
X11127439Y-16981679D02*
X11146486Y-16972155D01*
X11146486Y-16972155D02*
X11175058Y-16972155D01*
X11175058Y-16972155D02*
X11194105Y-16981679D01*
X11194105Y-16981679D02*
X11203629Y-17000727D01*
X11203629Y-17000727D02*
X11203629Y-17105489D01*
X11203629Y-17000727D02*
X11213153Y-16981679D01*
X11213153Y-16981679D02*
X11232200Y-16972155D01*
X11232200Y-16972155D02*
X11260772Y-16972155D01*
X11260772Y-16972155D02*
X11279819Y-16981679D01*
X11279819Y-16981679D02*
X11289343Y-17000727D01*
X11289343Y-17000727D02*
X11289343Y-17105489D01*
X11384581Y-17105489D02*
X11384581Y-16972155D01*
X11384581Y-16991203D02*
X11394105Y-16981679D01*
X11394105Y-16981679D02*
X11413153Y-16972155D01*
X11413153Y-16972155D02*
X11441724Y-16972155D01*
X11441724Y-16972155D02*
X11460772Y-16981679D01*
X11460772Y-16981679D02*
X11470296Y-17000727D01*
X11470296Y-17000727D02*
X11470296Y-17105489D01*
X11470296Y-17000727D02*
X11479819Y-16981679D01*
X11479819Y-16981679D02*
X11498867Y-16972155D01*
X11498867Y-16972155D02*
X11527438Y-16972155D01*
X11527438Y-16972155D02*
X11546486Y-16981679D01*
X11546486Y-16981679D02*
X11556010Y-17000727D01*
X11556010Y-17000727D02*
X11556010Y-17105489D01*
X11946486Y-16895965D02*
X11775058Y-17153108D01*
X12203629Y-16905489D02*
X12222677Y-16905489D01*
X12222677Y-16905489D02*
X12241724Y-16915013D01*
X12241724Y-16915013D02*
X12251248Y-16924536D01*
X12251248Y-16924536D02*
X12260772Y-16943584D01*
X12260772Y-16943584D02*
X12270296Y-16981679D01*
X12270296Y-16981679D02*
X12270296Y-17029298D01*
X12270296Y-17029298D02*
X12260772Y-17067394D01*
X12260772Y-17067394D02*
X12251248Y-17086441D01*
X12251248Y-17086441D02*
X12241724Y-17095965D01*
X12241724Y-17095965D02*
X12222677Y-17105489D01*
X12222677Y-17105489D02*
X12203629Y-17105489D01*
X12203629Y-17105489D02*
X12184581Y-17095965D01*
X12184581Y-17095965D02*
X12175058Y-17086441D01*
X12175058Y-17086441D02*
X12165534Y-17067394D01*
X12165534Y-17067394D02*
X12156010Y-17029298D01*
X12156010Y-17029298D02*
X12156010Y-16981679D01*
X12156010Y-16981679D02*
X12165534Y-16943584D01*
X12165534Y-16943584D02*
X12175058Y-16924536D01*
X12175058Y-16924536D02*
X12184581Y-16915013D01*
X12184581Y-16915013D02*
X12203629Y-16905489D01*
X12356010Y-17086441D02*
X12365534Y-17095965D01*
X12365534Y-17095965D02*
X12356010Y-17105489D01*
X12356010Y-17105489D02*
X12346486Y-17095965D01*
X12346486Y-17095965D02*
X12356010Y-17086441D01*
X12356010Y-17086441D02*
X12356010Y-17105489D01*
X12489343Y-16905489D02*
X12508391Y-16905489D01*
X12508391Y-16905489D02*
X12527439Y-16915013D01*
X12527439Y-16915013D02*
X12536962Y-16924536D01*
X12536962Y-16924536D02*
X12546486Y-16943584D01*
X12546486Y-16943584D02*
X12556010Y-16981679D01*
X12556010Y-16981679D02*
X12556010Y-17029298D01*
X12556010Y-17029298D02*
X12546486Y-17067394D01*
X12546486Y-17067394D02*
X12536962Y-17086441D01*
X12536962Y-17086441D02*
X12527439Y-17095965D01*
X12527439Y-17095965D02*
X12508391Y-17105489D01*
X12508391Y-17105489D02*
X12489343Y-17105489D01*
X12489343Y-17105489D02*
X12470296Y-17095965D01*
X12470296Y-17095965D02*
X12460772Y-17086441D01*
X12460772Y-17086441D02*
X12451248Y-17067394D01*
X12451248Y-17067394D02*
X12441724Y-17029298D01*
X12441724Y-17029298D02*
X12441724Y-16981679D01*
X12441724Y-16981679D02*
X12451248Y-16943584D01*
X12451248Y-16943584D02*
X12460772Y-16924536D01*
X12460772Y-16924536D02*
X12470296Y-16915013D01*
X12470296Y-16915013D02*
X12489343Y-16905489D01*
X12622677Y-16905489D02*
X12746486Y-16905489D01*
X12746486Y-16905489D02*
X12679820Y-16981679D01*
X12679820Y-16981679D02*
X12708391Y-16981679D01*
X12708391Y-16981679D02*
X12727439Y-16991203D01*
X12727439Y-16991203D02*
X12736962Y-17000727D01*
X12736962Y-17000727D02*
X12746486Y-17019775D01*
X12746486Y-17019775D02*
X12746486Y-17067394D01*
X12746486Y-17067394D02*
X12736962Y-17086441D01*
X12736962Y-17086441D02*
X12727439Y-17095965D01*
X12727439Y-17095965D02*
X12708391Y-17105489D01*
X12708391Y-17105489D02*
X12651248Y-17105489D01*
X12651248Y-17105489D02*
X12632201Y-17095965D01*
X12632201Y-17095965D02*
X12622677Y-17086441D01*
X12822677Y-16924536D02*
X12832201Y-16915013D01*
X12832201Y-16915013D02*
X12851248Y-16905489D01*
X12851248Y-16905489D02*
X12898867Y-16905489D01*
X12898867Y-16905489D02*
X12917915Y-16915013D01*
X12917915Y-16915013D02*
X12927439Y-16924536D01*
X12927439Y-16924536D02*
X12936962Y-16943584D01*
X12936962Y-16943584D02*
X12936962Y-16962632D01*
X12936962Y-16962632D02*
X12927439Y-16991203D01*
X12927439Y-16991203D02*
X12813153Y-17105489D01*
X12813153Y-17105489D02*
X12936962Y-17105489D01*
X13060772Y-16905489D02*
X13079820Y-16905489D01*
X13079820Y-16905489D02*
X13098867Y-16915013D01*
X13098867Y-16915013D02*
X13108391Y-16924536D01*
X13108391Y-16924536D02*
X13117915Y-16943584D01*
X13117915Y-16943584D02*
X13127439Y-16981679D01*
X13127439Y-16981679D02*
X13127439Y-17029298D01*
X13127439Y-17029298D02*
X13117915Y-17067394D01*
X13117915Y-17067394D02*
X13108391Y-17086441D01*
X13108391Y-17086441D02*
X13098867Y-17095965D01*
X13098867Y-17095965D02*
X13079820Y-17105489D01*
X13079820Y-17105489D02*
X13060772Y-17105489D01*
X13060772Y-17105489D02*
X13041724Y-17095965D01*
X13041724Y-17095965D02*
X13032201Y-17086441D01*
X13032201Y-17086441D02*
X13022677Y-17067394D01*
X13022677Y-17067394D02*
X13013153Y-17029298D01*
X13013153Y-17029298D02*
X13013153Y-16981679D01*
X13013153Y-16981679D02*
X13022677Y-16943584D01*
X13022677Y-16943584D02*
X13032201Y-16924536D01*
X13032201Y-16924536D02*
X13041724Y-16915013D01*
X13041724Y-16915013D02*
X13060772Y-16905489D01*
X13203629Y-16905489D02*
X13203629Y-16943584D01*
X13279820Y-16905489D02*
X13279820Y-16943584D01*
X13575058Y-17181679D02*
X13565534Y-17172155D01*
X13565534Y-17172155D02*
X13546486Y-17143584D01*
X13546486Y-17143584D02*
X13536963Y-17124536D01*
X13536963Y-17124536D02*
X13527439Y-17095965D01*
X13527439Y-17095965D02*
X13517915Y-17048346D01*
X13517915Y-17048346D02*
X13517915Y-17010251D01*
X13517915Y-17010251D02*
X13527439Y-16962632D01*
X13527439Y-16962632D02*
X13536963Y-16934060D01*
X13536963Y-16934060D02*
X13546486Y-16915013D01*
X13546486Y-16915013D02*
X13565534Y-16886441D01*
X13565534Y-16886441D02*
X13575058Y-16876917D01*
X13736963Y-16972155D02*
X13736963Y-17105489D01*
X13689343Y-16895965D02*
X13641724Y-17038822D01*
X13641724Y-17038822D02*
X13765534Y-17038822D01*
X13994105Y-17105489D02*
X13994105Y-16905489D01*
X14079820Y-17105489D02*
X14079820Y-17000727D01*
X14079820Y-17000727D02*
X14070296Y-16981679D01*
X14070296Y-16981679D02*
X14051248Y-16972155D01*
X14051248Y-16972155D02*
X14022677Y-16972155D01*
X14022677Y-16972155D02*
X14003629Y-16981679D01*
X14003629Y-16981679D02*
X13994105Y-16991203D01*
X14203629Y-17105489D02*
X14184582Y-17095965D01*
X14184582Y-17095965D02*
X14175058Y-17086441D01*
X14175058Y-17086441D02*
X14165534Y-17067394D01*
X14165534Y-17067394D02*
X14165534Y-17010251D01*
X14165534Y-17010251D02*
X14175058Y-16991203D01*
X14175058Y-16991203D02*
X14184582Y-16981679D01*
X14184582Y-16981679D02*
X14203629Y-16972155D01*
X14203629Y-16972155D02*
X14232201Y-16972155D01*
X14232201Y-16972155D02*
X14251248Y-16981679D01*
X14251248Y-16981679D02*
X14260772Y-16991203D01*
X14260772Y-16991203D02*
X14270296Y-17010251D01*
X14270296Y-17010251D02*
X14270296Y-17067394D01*
X14270296Y-17067394D02*
X14260772Y-17086441D01*
X14260772Y-17086441D02*
X14251248Y-17095965D01*
X14251248Y-17095965D02*
X14232201Y-17105489D01*
X14232201Y-17105489D02*
X14203629Y-17105489D01*
X14384582Y-17105489D02*
X14365534Y-17095965D01*
X14365534Y-17095965D02*
X14356010Y-17076917D01*
X14356010Y-17076917D02*
X14356010Y-16905489D01*
X14536963Y-17095965D02*
X14517915Y-17105489D01*
X14517915Y-17105489D02*
X14479820Y-17105489D01*
X14479820Y-17105489D02*
X14460772Y-17095965D01*
X14460772Y-17095965D02*
X14451248Y-17076917D01*
X14451248Y-17076917D02*
X14451248Y-17000727D01*
X14451248Y-17000727D02*
X14460772Y-16981679D01*
X14460772Y-16981679D02*
X14479820Y-16972155D01*
X14479820Y-16972155D02*
X14517915Y-16972155D01*
X14517915Y-16972155D02*
X14536963Y-16981679D01*
X14536963Y-16981679D02*
X14546486Y-17000727D01*
X14546486Y-17000727D02*
X14546486Y-17019775D01*
X14546486Y-17019775D02*
X14451248Y-17038822D01*
X14622677Y-17095965D02*
X14641725Y-17105489D01*
X14641725Y-17105489D02*
X14679820Y-17105489D01*
X14679820Y-17105489D02*
X14698867Y-17095965D01*
X14698867Y-17095965D02*
X14708391Y-17076917D01*
X14708391Y-17076917D02*
X14708391Y-17067394D01*
X14708391Y-17067394D02*
X14698867Y-17048346D01*
X14698867Y-17048346D02*
X14679820Y-17038822D01*
X14679820Y-17038822D02*
X14651248Y-17038822D01*
X14651248Y-17038822D02*
X14632201Y-17029298D01*
X14632201Y-17029298D02*
X14622677Y-17010251D01*
X14622677Y-17010251D02*
X14622677Y-17000727D01*
X14622677Y-17000727D02*
X14632201Y-16981679D01*
X14632201Y-16981679D02*
X14651248Y-16972155D01*
X14651248Y-16972155D02*
X14679820Y-16972155D01*
X14679820Y-16972155D02*
X14698867Y-16981679D01*
X14775058Y-17181679D02*
X14784582Y-17172155D01*
X14784582Y-17172155D02*
X14803629Y-17143584D01*
X14803629Y-17143584D02*
X14813153Y-17124536D01*
X14813153Y-17124536D02*
X14822677Y-17095965D01*
X14822677Y-17095965D02*
X14832201Y-17048346D01*
X14832201Y-17048346D02*
X14832201Y-17010251D01*
X14832201Y-17010251D02*
X14822677Y-16962632D01*
X14822677Y-16962632D02*
X14813153Y-16934060D01*
X14813153Y-16934060D02*
X14803629Y-16915013D01*
X14803629Y-16915013D02*
X14784582Y-16886441D01*
X14784582Y-16886441D02*
X14775058Y-16876917D01*
D12*
X9950084Y-17228094D02*
X9950084Y-17327916D01*
X9900173Y-17278005D02*
X9999995Y-17278005D01*
D11*
X10298867Y-17169489D02*
X10317915Y-17169489D01*
X10317915Y-17169489D02*
X10336962Y-17179013D01*
X10336962Y-17179013D02*
X10346486Y-17188536D01*
X10346486Y-17188536D02*
X10356010Y-17207584D01*
X10356010Y-17207584D02*
X10365534Y-17245679D01*
X10365534Y-17245679D02*
X10365534Y-17293298D01*
X10365534Y-17293298D02*
X10356010Y-17331394D01*
X10356010Y-17331394D02*
X10346486Y-17350441D01*
X10346486Y-17350441D02*
X10336962Y-17359965D01*
X10336962Y-17359965D02*
X10317915Y-17369489D01*
X10317915Y-17369489D02*
X10298867Y-17369489D01*
X10298867Y-17369489D02*
X10279819Y-17359965D01*
X10279819Y-17359965D02*
X10270296Y-17350441D01*
X10270296Y-17350441D02*
X10260772Y-17331394D01*
X10260772Y-17331394D02*
X10251248Y-17293298D01*
X10251248Y-17293298D02*
X10251248Y-17245679D01*
X10251248Y-17245679D02*
X10260772Y-17207584D01*
X10260772Y-17207584D02*
X10270296Y-17188536D01*
X10270296Y-17188536D02*
X10279819Y-17179013D01*
X10279819Y-17179013D02*
X10298867Y-17169489D01*
X10451248Y-17350441D02*
X10460772Y-17359965D01*
X10460772Y-17359965D02*
X10451248Y-17369489D01*
X10451248Y-17369489D02*
X10441724Y-17359965D01*
X10441724Y-17359965D02*
X10451248Y-17350441D01*
X10451248Y-17350441D02*
X10451248Y-17369489D01*
X10556010Y-17369489D02*
X10594105Y-17369489D01*
X10594105Y-17369489D02*
X10613153Y-17359965D01*
X10613153Y-17359965D02*
X10622677Y-17350441D01*
X10622677Y-17350441D02*
X10641724Y-17321870D01*
X10641724Y-17321870D02*
X10651248Y-17283775D01*
X10651248Y-17283775D02*
X10651248Y-17207584D01*
X10651248Y-17207584D02*
X10641724Y-17188536D01*
X10641724Y-17188536D02*
X10632200Y-17179013D01*
X10632200Y-17179013D02*
X10613153Y-17169489D01*
X10613153Y-17169489D02*
X10575058Y-17169489D01*
X10575058Y-17169489D02*
X10556010Y-17179013D01*
X10556010Y-17179013D02*
X10546486Y-17188536D01*
X10546486Y-17188536D02*
X10536962Y-17207584D01*
X10536962Y-17207584D02*
X10536962Y-17255203D01*
X10536962Y-17255203D02*
X10546486Y-17274251D01*
X10546486Y-17274251D02*
X10556010Y-17283775D01*
X10556010Y-17283775D02*
X10575058Y-17293298D01*
X10575058Y-17293298D02*
X10613153Y-17293298D01*
X10613153Y-17293298D02*
X10632200Y-17283775D01*
X10632200Y-17283775D02*
X10641724Y-17274251D01*
X10641724Y-17274251D02*
X10651248Y-17255203D01*
X10746486Y-17369489D02*
X10784581Y-17369489D01*
X10784581Y-17369489D02*
X10803629Y-17359965D01*
X10803629Y-17359965D02*
X10813153Y-17350441D01*
X10813153Y-17350441D02*
X10832200Y-17321870D01*
X10832200Y-17321870D02*
X10841724Y-17283775D01*
X10841724Y-17283775D02*
X10841724Y-17207584D01*
X10841724Y-17207584D02*
X10832200Y-17188536D01*
X10832200Y-17188536D02*
X10822677Y-17179013D01*
X10822677Y-17179013D02*
X10803629Y-17169489D01*
X10803629Y-17169489D02*
X10765534Y-17169489D01*
X10765534Y-17169489D02*
X10746486Y-17179013D01*
X10746486Y-17179013D02*
X10736962Y-17188536D01*
X10736962Y-17188536D02*
X10727439Y-17207584D01*
X10727439Y-17207584D02*
X10727439Y-17255203D01*
X10727439Y-17255203D02*
X10736962Y-17274251D01*
X10736962Y-17274251D02*
X10746486Y-17283775D01*
X10746486Y-17283775D02*
X10765534Y-17293298D01*
X10765534Y-17293298D02*
X10803629Y-17293298D01*
X10803629Y-17293298D02*
X10822677Y-17283775D01*
X10822677Y-17283775D02*
X10832200Y-17274251D01*
X10832200Y-17274251D02*
X10841724Y-17255203D01*
X10956010Y-17255203D02*
X10936962Y-17245679D01*
X10936962Y-17245679D02*
X10927439Y-17236155D01*
X10927439Y-17236155D02*
X10917915Y-17217108D01*
X10917915Y-17217108D02*
X10917915Y-17207584D01*
X10917915Y-17207584D02*
X10927439Y-17188536D01*
X10927439Y-17188536D02*
X10936962Y-17179013D01*
X10936962Y-17179013D02*
X10956010Y-17169489D01*
X10956010Y-17169489D02*
X10994105Y-17169489D01*
X10994105Y-17169489D02*
X11013153Y-17179013D01*
X11013153Y-17179013D02*
X11022677Y-17188536D01*
X11022677Y-17188536D02*
X11032200Y-17207584D01*
X11032200Y-17207584D02*
X11032200Y-17217108D01*
X11032200Y-17217108D02*
X11022677Y-17236155D01*
X11022677Y-17236155D02*
X11013153Y-17245679D01*
X11013153Y-17245679D02*
X10994105Y-17255203D01*
X10994105Y-17255203D02*
X10956010Y-17255203D01*
X10956010Y-17255203D02*
X10936962Y-17264727D01*
X10936962Y-17264727D02*
X10927439Y-17274251D01*
X10927439Y-17274251D02*
X10917915Y-17293298D01*
X10917915Y-17293298D02*
X10917915Y-17331394D01*
X10917915Y-17331394D02*
X10927439Y-17350441D01*
X10927439Y-17350441D02*
X10936962Y-17359965D01*
X10936962Y-17359965D02*
X10956010Y-17369489D01*
X10956010Y-17369489D02*
X10994105Y-17369489D01*
X10994105Y-17369489D02*
X11013153Y-17359965D01*
X11013153Y-17359965D02*
X11022677Y-17350441D01*
X11022677Y-17350441D02*
X11032200Y-17331394D01*
X11032200Y-17331394D02*
X11032200Y-17293298D01*
X11032200Y-17293298D02*
X11022677Y-17274251D01*
X11022677Y-17274251D02*
X11013153Y-17264727D01*
X11013153Y-17264727D02*
X10994105Y-17255203D01*
X11117915Y-17369489D02*
X11117915Y-17236155D01*
X11117915Y-17255203D02*
X11127439Y-17245679D01*
X11127439Y-17245679D02*
X11146486Y-17236155D01*
X11146486Y-17236155D02*
X11175058Y-17236155D01*
X11175058Y-17236155D02*
X11194105Y-17245679D01*
X11194105Y-17245679D02*
X11203629Y-17264727D01*
X11203629Y-17264727D02*
X11203629Y-17369489D01*
X11203629Y-17264727D02*
X11213153Y-17245679D01*
X11213153Y-17245679D02*
X11232200Y-17236155D01*
X11232200Y-17236155D02*
X11260772Y-17236155D01*
X11260772Y-17236155D02*
X11279819Y-17245679D01*
X11279819Y-17245679D02*
X11289343Y-17264727D01*
X11289343Y-17264727D02*
X11289343Y-17369489D01*
X11384581Y-17369489D02*
X11384581Y-17236155D01*
X11384581Y-17255203D02*
X11394105Y-17245679D01*
X11394105Y-17245679D02*
X11413153Y-17236155D01*
X11413153Y-17236155D02*
X11441724Y-17236155D01*
X11441724Y-17236155D02*
X11460772Y-17245679D01*
X11460772Y-17245679D02*
X11470296Y-17264727D01*
X11470296Y-17264727D02*
X11470296Y-17369489D01*
X11470296Y-17264727D02*
X11479819Y-17245679D01*
X11479819Y-17245679D02*
X11498867Y-17236155D01*
X11498867Y-17236155D02*
X11527438Y-17236155D01*
X11527438Y-17236155D02*
X11546486Y-17245679D01*
X11546486Y-17245679D02*
X11556010Y-17264727D01*
X11556010Y-17264727D02*
X11556010Y-17369489D01*
X11946486Y-17159965D02*
X11775058Y-17417108D01*
X12203629Y-17169489D02*
X12222677Y-17169489D01*
X12222677Y-17169489D02*
X12241724Y-17179013D01*
X12241724Y-17179013D02*
X12251248Y-17188536D01*
X12251248Y-17188536D02*
X12260772Y-17207584D01*
X12260772Y-17207584D02*
X12270296Y-17245679D01*
X12270296Y-17245679D02*
X12270296Y-17293298D01*
X12270296Y-17293298D02*
X12260772Y-17331394D01*
X12260772Y-17331394D02*
X12251248Y-17350441D01*
X12251248Y-17350441D02*
X12241724Y-17359965D01*
X12241724Y-17359965D02*
X12222677Y-17369489D01*
X12222677Y-17369489D02*
X12203629Y-17369489D01*
X12203629Y-17369489D02*
X12184581Y-17359965D01*
X12184581Y-17359965D02*
X12175058Y-17350441D01*
X12175058Y-17350441D02*
X12165534Y-17331394D01*
X12165534Y-17331394D02*
X12156010Y-17293298D01*
X12156010Y-17293298D02*
X12156010Y-17245679D01*
X12156010Y-17245679D02*
X12165534Y-17207584D01*
X12165534Y-17207584D02*
X12175058Y-17188536D01*
X12175058Y-17188536D02*
X12184581Y-17179013D01*
X12184581Y-17179013D02*
X12203629Y-17169489D01*
X12356010Y-17350441D02*
X12365534Y-17359965D01*
X12365534Y-17359965D02*
X12356010Y-17369489D01*
X12356010Y-17369489D02*
X12346486Y-17359965D01*
X12346486Y-17359965D02*
X12356010Y-17350441D01*
X12356010Y-17350441D02*
X12356010Y-17369489D01*
X12489343Y-17169489D02*
X12508391Y-17169489D01*
X12508391Y-17169489D02*
X12527439Y-17179013D01*
X12527439Y-17179013D02*
X12536962Y-17188536D01*
X12536962Y-17188536D02*
X12546486Y-17207584D01*
X12546486Y-17207584D02*
X12556010Y-17245679D01*
X12556010Y-17245679D02*
X12556010Y-17293298D01*
X12556010Y-17293298D02*
X12546486Y-17331394D01*
X12546486Y-17331394D02*
X12536962Y-17350441D01*
X12536962Y-17350441D02*
X12527439Y-17359965D01*
X12527439Y-17359965D02*
X12508391Y-17369489D01*
X12508391Y-17369489D02*
X12489343Y-17369489D01*
X12489343Y-17369489D02*
X12470296Y-17359965D01*
X12470296Y-17359965D02*
X12460772Y-17350441D01*
X12460772Y-17350441D02*
X12451248Y-17331394D01*
X12451248Y-17331394D02*
X12441724Y-17293298D01*
X12441724Y-17293298D02*
X12441724Y-17245679D01*
X12441724Y-17245679D02*
X12451248Y-17207584D01*
X12451248Y-17207584D02*
X12460772Y-17188536D01*
X12460772Y-17188536D02*
X12470296Y-17179013D01*
X12470296Y-17179013D02*
X12489343Y-17169489D01*
X12622677Y-17169489D02*
X12746486Y-17169489D01*
X12746486Y-17169489D02*
X12679820Y-17245679D01*
X12679820Y-17245679D02*
X12708391Y-17245679D01*
X12708391Y-17245679D02*
X12727439Y-17255203D01*
X12727439Y-17255203D02*
X12736962Y-17264727D01*
X12736962Y-17264727D02*
X12746486Y-17283775D01*
X12746486Y-17283775D02*
X12746486Y-17331394D01*
X12746486Y-17331394D02*
X12736962Y-17350441D01*
X12736962Y-17350441D02*
X12727439Y-17359965D01*
X12727439Y-17359965D02*
X12708391Y-17369489D01*
X12708391Y-17369489D02*
X12651248Y-17369489D01*
X12651248Y-17369489D02*
X12632201Y-17359965D01*
X12632201Y-17359965D02*
X12622677Y-17350441D01*
X12841724Y-17369489D02*
X12879820Y-17369489D01*
X12879820Y-17369489D02*
X12898867Y-17359965D01*
X12898867Y-17359965D02*
X12908391Y-17350441D01*
X12908391Y-17350441D02*
X12927439Y-17321870D01*
X12927439Y-17321870D02*
X12936962Y-17283775D01*
X12936962Y-17283775D02*
X12936962Y-17207584D01*
X12936962Y-17207584D02*
X12927439Y-17188536D01*
X12927439Y-17188536D02*
X12917915Y-17179013D01*
X12917915Y-17179013D02*
X12898867Y-17169489D01*
X12898867Y-17169489D02*
X12860772Y-17169489D01*
X12860772Y-17169489D02*
X12841724Y-17179013D01*
X12841724Y-17179013D02*
X12832201Y-17188536D01*
X12832201Y-17188536D02*
X12822677Y-17207584D01*
X12822677Y-17207584D02*
X12822677Y-17255203D01*
X12822677Y-17255203D02*
X12832201Y-17274251D01*
X12832201Y-17274251D02*
X12841724Y-17283775D01*
X12841724Y-17283775D02*
X12860772Y-17293298D01*
X12860772Y-17293298D02*
X12898867Y-17293298D01*
X12898867Y-17293298D02*
X12917915Y-17283775D01*
X12917915Y-17283775D02*
X12927439Y-17274251D01*
X12927439Y-17274251D02*
X12936962Y-17255203D01*
X13003629Y-17169489D02*
X13127439Y-17169489D01*
X13127439Y-17169489D02*
X13060772Y-17245679D01*
X13060772Y-17245679D02*
X13089343Y-17245679D01*
X13089343Y-17245679D02*
X13108391Y-17255203D01*
X13108391Y-17255203D02*
X13117915Y-17264727D01*
X13117915Y-17264727D02*
X13127439Y-17283775D01*
X13127439Y-17283775D02*
X13127439Y-17331394D01*
X13127439Y-17331394D02*
X13117915Y-17350441D01*
X13117915Y-17350441D02*
X13108391Y-17359965D01*
X13108391Y-17359965D02*
X13089343Y-17369489D01*
X13089343Y-17369489D02*
X13032201Y-17369489D01*
X13032201Y-17369489D02*
X13013153Y-17359965D01*
X13013153Y-17359965D02*
X13003629Y-17350441D01*
X13203629Y-17169489D02*
X13203629Y-17207584D01*
X13279820Y-17169489D02*
X13279820Y-17207584D01*
X13575058Y-17445679D02*
X13565534Y-17436155D01*
X13565534Y-17436155D02*
X13546486Y-17407584D01*
X13546486Y-17407584D02*
X13536963Y-17388536D01*
X13536963Y-17388536D02*
X13527439Y-17359965D01*
X13527439Y-17359965D02*
X13517915Y-17312346D01*
X13517915Y-17312346D02*
X13517915Y-17274251D01*
X13517915Y-17274251D02*
X13527439Y-17226632D01*
X13527439Y-17226632D02*
X13536963Y-17198060D01*
X13536963Y-17198060D02*
X13546486Y-17179013D01*
X13546486Y-17179013D02*
X13565534Y-17150441D01*
X13565534Y-17150441D02*
X13575058Y-17140917D01*
X13641724Y-17188536D02*
X13651248Y-17179013D01*
X13651248Y-17179013D02*
X13670296Y-17169489D01*
X13670296Y-17169489D02*
X13717915Y-17169489D01*
X13717915Y-17169489D02*
X13736963Y-17179013D01*
X13736963Y-17179013D02*
X13746486Y-17188536D01*
X13746486Y-17188536D02*
X13756010Y-17207584D01*
X13756010Y-17207584D02*
X13756010Y-17226632D01*
X13756010Y-17226632D02*
X13746486Y-17255203D01*
X13746486Y-17255203D02*
X13632201Y-17369489D01*
X13632201Y-17369489D02*
X13756010Y-17369489D01*
X13994105Y-17369489D02*
X13994105Y-17169489D01*
X14079820Y-17369489D02*
X14079820Y-17264727D01*
X14079820Y-17264727D02*
X14070296Y-17245679D01*
X14070296Y-17245679D02*
X14051248Y-17236155D01*
X14051248Y-17236155D02*
X14022677Y-17236155D01*
X14022677Y-17236155D02*
X14003629Y-17245679D01*
X14003629Y-17245679D02*
X13994105Y-17255203D01*
X14203629Y-17369489D02*
X14184582Y-17359965D01*
X14184582Y-17359965D02*
X14175058Y-17350441D01*
X14175058Y-17350441D02*
X14165534Y-17331394D01*
X14165534Y-17331394D02*
X14165534Y-17274251D01*
X14165534Y-17274251D02*
X14175058Y-17255203D01*
X14175058Y-17255203D02*
X14184582Y-17245679D01*
X14184582Y-17245679D02*
X14203629Y-17236155D01*
X14203629Y-17236155D02*
X14232201Y-17236155D01*
X14232201Y-17236155D02*
X14251248Y-17245679D01*
X14251248Y-17245679D02*
X14260772Y-17255203D01*
X14260772Y-17255203D02*
X14270296Y-17274251D01*
X14270296Y-17274251D02*
X14270296Y-17331394D01*
X14270296Y-17331394D02*
X14260772Y-17350441D01*
X14260772Y-17350441D02*
X14251248Y-17359965D01*
X14251248Y-17359965D02*
X14232201Y-17369489D01*
X14232201Y-17369489D02*
X14203629Y-17369489D01*
X14384582Y-17369489D02*
X14365534Y-17359965D01*
X14365534Y-17359965D02*
X14356010Y-17340917D01*
X14356010Y-17340917D02*
X14356010Y-17169489D01*
X14536963Y-17359965D02*
X14517915Y-17369489D01*
X14517915Y-17369489D02*
X14479820Y-17369489D01*
X14479820Y-17369489D02*
X14460772Y-17359965D01*
X14460772Y-17359965D02*
X14451248Y-17340917D01*
X14451248Y-17340917D02*
X14451248Y-17264727D01*
X14451248Y-17264727D02*
X14460772Y-17245679D01*
X14460772Y-17245679D02*
X14479820Y-17236155D01*
X14479820Y-17236155D02*
X14517915Y-17236155D01*
X14517915Y-17236155D02*
X14536963Y-17245679D01*
X14536963Y-17245679D02*
X14546486Y-17264727D01*
X14546486Y-17264727D02*
X14546486Y-17283775D01*
X14546486Y-17283775D02*
X14451248Y-17302822D01*
X14622677Y-17359965D02*
X14641725Y-17369489D01*
X14641725Y-17369489D02*
X14679820Y-17369489D01*
X14679820Y-17369489D02*
X14698867Y-17359965D01*
X14698867Y-17359965D02*
X14708391Y-17340917D01*
X14708391Y-17340917D02*
X14708391Y-17331394D01*
X14708391Y-17331394D02*
X14698867Y-17312346D01*
X14698867Y-17312346D02*
X14679820Y-17302822D01*
X14679820Y-17302822D02*
X14651248Y-17302822D01*
X14651248Y-17302822D02*
X14632201Y-17293298D01*
X14632201Y-17293298D02*
X14622677Y-17274251D01*
X14622677Y-17274251D02*
X14622677Y-17264727D01*
X14622677Y-17264727D02*
X14632201Y-17245679D01*
X14632201Y-17245679D02*
X14651248Y-17236155D01*
X14651248Y-17236155D02*
X14679820Y-17236155D01*
X14679820Y-17236155D02*
X14698867Y-17245679D01*
X14775058Y-17445679D02*
X14784582Y-17436155D01*
X14784582Y-17436155D02*
X14803629Y-17407584D01*
X14803629Y-17407584D02*
X14813153Y-17388536D01*
X14813153Y-17388536D02*
X14822677Y-17359965D01*
X14822677Y-17359965D02*
X14832201Y-17312346D01*
X14832201Y-17312346D02*
X14832201Y-17274251D01*
X14832201Y-17274251D02*
X14822677Y-17226632D01*
X14822677Y-17226632D02*
X14813153Y-17198060D01*
X14813153Y-17198060D02*
X14803629Y-17179013D01*
X14803629Y-17179013D02*
X14784582Y-17150441D01*
X14784582Y-17150441D02*
X14775058Y-17140917D01*
D13*
X9985116Y-17577926D02*
X9985116Y-17506084D01*
X9913274Y-17506084D01*
X9913274Y-17577926D01*
X9985116Y-17577926D01*
D11*
X10365534Y-17633489D02*
X10251248Y-17633489D01*
X10308391Y-17633489D02*
X10308391Y-17433489D01*
X10308391Y-17433489D02*
X10289343Y-17462060D01*
X10289343Y-17462060D02*
X10270296Y-17481108D01*
X10270296Y-17481108D02*
X10251248Y-17490632D01*
X10451248Y-17614441D02*
X10460772Y-17623965D01*
X10460772Y-17623965D02*
X10451248Y-17633489D01*
X10451248Y-17633489D02*
X10441724Y-17623965D01*
X10441724Y-17623965D02*
X10451248Y-17614441D01*
X10451248Y-17614441D02*
X10451248Y-17633489D01*
X10584581Y-17433489D02*
X10603629Y-17433489D01*
X10603629Y-17433489D02*
X10622677Y-17443013D01*
X10622677Y-17443013D02*
X10632200Y-17452536D01*
X10632200Y-17452536D02*
X10641724Y-17471584D01*
X10641724Y-17471584D02*
X10651248Y-17509679D01*
X10651248Y-17509679D02*
X10651248Y-17557298D01*
X10651248Y-17557298D02*
X10641724Y-17595394D01*
X10641724Y-17595394D02*
X10632200Y-17614441D01*
X10632200Y-17614441D02*
X10622677Y-17623965D01*
X10622677Y-17623965D02*
X10603629Y-17633489D01*
X10603629Y-17633489D02*
X10584581Y-17633489D01*
X10584581Y-17633489D02*
X10565534Y-17623965D01*
X10565534Y-17623965D02*
X10556010Y-17614441D01*
X10556010Y-17614441D02*
X10546486Y-17595394D01*
X10546486Y-17595394D02*
X10536962Y-17557298D01*
X10536962Y-17557298D02*
X10536962Y-17509679D01*
X10536962Y-17509679D02*
X10546486Y-17471584D01*
X10546486Y-17471584D02*
X10556010Y-17452536D01*
X10556010Y-17452536D02*
X10565534Y-17443013D01*
X10565534Y-17443013D02*
X10584581Y-17433489D01*
X10841724Y-17633489D02*
X10727439Y-17633489D01*
X10784581Y-17633489D02*
X10784581Y-17433489D01*
X10784581Y-17433489D02*
X10765534Y-17462060D01*
X10765534Y-17462060D02*
X10746486Y-17481108D01*
X10746486Y-17481108D02*
X10727439Y-17490632D01*
X11013153Y-17433489D02*
X10975058Y-17433489D01*
X10975058Y-17433489D02*
X10956010Y-17443013D01*
X10956010Y-17443013D02*
X10946486Y-17452536D01*
X10946486Y-17452536D02*
X10927439Y-17481108D01*
X10927439Y-17481108D02*
X10917915Y-17519203D01*
X10917915Y-17519203D02*
X10917915Y-17595394D01*
X10917915Y-17595394D02*
X10927439Y-17614441D01*
X10927439Y-17614441D02*
X10936962Y-17623965D01*
X10936962Y-17623965D02*
X10956010Y-17633489D01*
X10956010Y-17633489D02*
X10994105Y-17633489D01*
X10994105Y-17633489D02*
X11013153Y-17623965D01*
X11013153Y-17623965D02*
X11022677Y-17614441D01*
X11022677Y-17614441D02*
X11032200Y-17595394D01*
X11032200Y-17595394D02*
X11032200Y-17547775D01*
X11032200Y-17547775D02*
X11022677Y-17528727D01*
X11022677Y-17528727D02*
X11013153Y-17519203D01*
X11013153Y-17519203D02*
X10994105Y-17509679D01*
X10994105Y-17509679D02*
X10956010Y-17509679D01*
X10956010Y-17509679D02*
X10936962Y-17519203D01*
X10936962Y-17519203D02*
X10927439Y-17528727D01*
X10927439Y-17528727D02*
X10917915Y-17547775D01*
X11117915Y-17633489D02*
X11117915Y-17500155D01*
X11117915Y-17519203D02*
X11127439Y-17509679D01*
X11127439Y-17509679D02*
X11146486Y-17500155D01*
X11146486Y-17500155D02*
X11175058Y-17500155D01*
X11175058Y-17500155D02*
X11194105Y-17509679D01*
X11194105Y-17509679D02*
X11203629Y-17528727D01*
X11203629Y-17528727D02*
X11203629Y-17633489D01*
X11203629Y-17528727D02*
X11213153Y-17509679D01*
X11213153Y-17509679D02*
X11232200Y-17500155D01*
X11232200Y-17500155D02*
X11260772Y-17500155D01*
X11260772Y-17500155D02*
X11279819Y-17509679D01*
X11279819Y-17509679D02*
X11289343Y-17528727D01*
X11289343Y-17528727D02*
X11289343Y-17633489D01*
X11384581Y-17633489D02*
X11384581Y-17500155D01*
X11384581Y-17519203D02*
X11394105Y-17509679D01*
X11394105Y-17509679D02*
X11413153Y-17500155D01*
X11413153Y-17500155D02*
X11441724Y-17500155D01*
X11441724Y-17500155D02*
X11460772Y-17509679D01*
X11460772Y-17509679D02*
X11470296Y-17528727D01*
X11470296Y-17528727D02*
X11470296Y-17633489D01*
X11470296Y-17528727D02*
X11479819Y-17509679D01*
X11479819Y-17509679D02*
X11498867Y-17500155D01*
X11498867Y-17500155D02*
X11527438Y-17500155D01*
X11527438Y-17500155D02*
X11546486Y-17509679D01*
X11546486Y-17509679D02*
X11556010Y-17528727D01*
X11556010Y-17528727D02*
X11556010Y-17633489D01*
X11946486Y-17423965D02*
X11775058Y-17681108D01*
X12203629Y-17433489D02*
X12222677Y-17433489D01*
X12222677Y-17433489D02*
X12241724Y-17443013D01*
X12241724Y-17443013D02*
X12251248Y-17452536D01*
X12251248Y-17452536D02*
X12260772Y-17471584D01*
X12260772Y-17471584D02*
X12270296Y-17509679D01*
X12270296Y-17509679D02*
X12270296Y-17557298D01*
X12270296Y-17557298D02*
X12260772Y-17595394D01*
X12260772Y-17595394D02*
X12251248Y-17614441D01*
X12251248Y-17614441D02*
X12241724Y-17623965D01*
X12241724Y-17623965D02*
X12222677Y-17633489D01*
X12222677Y-17633489D02*
X12203629Y-17633489D01*
X12203629Y-17633489D02*
X12184581Y-17623965D01*
X12184581Y-17623965D02*
X12175058Y-17614441D01*
X12175058Y-17614441D02*
X12165534Y-17595394D01*
X12165534Y-17595394D02*
X12156010Y-17557298D01*
X12156010Y-17557298D02*
X12156010Y-17509679D01*
X12156010Y-17509679D02*
X12165534Y-17471584D01*
X12165534Y-17471584D02*
X12175058Y-17452536D01*
X12175058Y-17452536D02*
X12184581Y-17443013D01*
X12184581Y-17443013D02*
X12203629Y-17433489D01*
X12356010Y-17614441D02*
X12365534Y-17623965D01*
X12365534Y-17623965D02*
X12356010Y-17633489D01*
X12356010Y-17633489D02*
X12346486Y-17623965D01*
X12346486Y-17623965D02*
X12356010Y-17614441D01*
X12356010Y-17614441D02*
X12356010Y-17633489D01*
X12489343Y-17433489D02*
X12508391Y-17433489D01*
X12508391Y-17433489D02*
X12527439Y-17443013D01*
X12527439Y-17443013D02*
X12536962Y-17452536D01*
X12536962Y-17452536D02*
X12546486Y-17471584D01*
X12546486Y-17471584D02*
X12556010Y-17509679D01*
X12556010Y-17509679D02*
X12556010Y-17557298D01*
X12556010Y-17557298D02*
X12546486Y-17595394D01*
X12546486Y-17595394D02*
X12536962Y-17614441D01*
X12536962Y-17614441D02*
X12527439Y-17623965D01*
X12527439Y-17623965D02*
X12508391Y-17633489D01*
X12508391Y-17633489D02*
X12489343Y-17633489D01*
X12489343Y-17633489D02*
X12470296Y-17623965D01*
X12470296Y-17623965D02*
X12460772Y-17614441D01*
X12460772Y-17614441D02*
X12451248Y-17595394D01*
X12451248Y-17595394D02*
X12441724Y-17557298D01*
X12441724Y-17557298D02*
X12441724Y-17509679D01*
X12441724Y-17509679D02*
X12451248Y-17471584D01*
X12451248Y-17471584D02*
X12460772Y-17452536D01*
X12460772Y-17452536D02*
X12470296Y-17443013D01*
X12470296Y-17443013D02*
X12489343Y-17433489D01*
X12727439Y-17500155D02*
X12727439Y-17633489D01*
X12679820Y-17423965D02*
X12632201Y-17566822D01*
X12632201Y-17566822D02*
X12756010Y-17566822D01*
X12870296Y-17433489D02*
X12889343Y-17433489D01*
X12889343Y-17433489D02*
X12908391Y-17443013D01*
X12908391Y-17443013D02*
X12917915Y-17452536D01*
X12917915Y-17452536D02*
X12927439Y-17471584D01*
X12927439Y-17471584D02*
X12936962Y-17509679D01*
X12936962Y-17509679D02*
X12936962Y-17557298D01*
X12936962Y-17557298D02*
X12927439Y-17595394D01*
X12927439Y-17595394D02*
X12917915Y-17614441D01*
X12917915Y-17614441D02*
X12908391Y-17623965D01*
X12908391Y-17623965D02*
X12889343Y-17633489D01*
X12889343Y-17633489D02*
X12870296Y-17633489D01*
X12870296Y-17633489D02*
X12851248Y-17623965D01*
X12851248Y-17623965D02*
X12841724Y-17614441D01*
X12841724Y-17614441D02*
X12832201Y-17595394D01*
X12832201Y-17595394D02*
X12822677Y-17557298D01*
X12822677Y-17557298D02*
X12822677Y-17509679D01*
X12822677Y-17509679D02*
X12832201Y-17471584D01*
X12832201Y-17471584D02*
X12841724Y-17452536D01*
X12841724Y-17452536D02*
X12851248Y-17443013D01*
X12851248Y-17443013D02*
X12870296Y-17433489D01*
X13060772Y-17433489D02*
X13079820Y-17433489D01*
X13079820Y-17433489D02*
X13098867Y-17443013D01*
X13098867Y-17443013D02*
X13108391Y-17452536D01*
X13108391Y-17452536D02*
X13117915Y-17471584D01*
X13117915Y-17471584D02*
X13127439Y-17509679D01*
X13127439Y-17509679D02*
X13127439Y-17557298D01*
X13127439Y-17557298D02*
X13117915Y-17595394D01*
X13117915Y-17595394D02*
X13108391Y-17614441D01*
X13108391Y-17614441D02*
X13098867Y-17623965D01*
X13098867Y-17623965D02*
X13079820Y-17633489D01*
X13079820Y-17633489D02*
X13060772Y-17633489D01*
X13060772Y-17633489D02*
X13041724Y-17623965D01*
X13041724Y-17623965D02*
X13032201Y-17614441D01*
X13032201Y-17614441D02*
X13022677Y-17595394D01*
X13022677Y-17595394D02*
X13013153Y-17557298D01*
X13013153Y-17557298D02*
X13013153Y-17509679D01*
X13013153Y-17509679D02*
X13022677Y-17471584D01*
X13022677Y-17471584D02*
X13032201Y-17452536D01*
X13032201Y-17452536D02*
X13041724Y-17443013D01*
X13041724Y-17443013D02*
X13060772Y-17433489D01*
X13203629Y-17433489D02*
X13203629Y-17471584D01*
X13279820Y-17433489D02*
X13279820Y-17471584D01*
X13575058Y-17709679D02*
X13565534Y-17700155D01*
X13565534Y-17700155D02*
X13546486Y-17671584D01*
X13546486Y-17671584D02*
X13536963Y-17652536D01*
X13536963Y-17652536D02*
X13527439Y-17623965D01*
X13527439Y-17623965D02*
X13517915Y-17576346D01*
X13517915Y-17576346D02*
X13517915Y-17538251D01*
X13517915Y-17538251D02*
X13527439Y-17490632D01*
X13527439Y-17490632D02*
X13536963Y-17462060D01*
X13536963Y-17462060D02*
X13546486Y-17443013D01*
X13546486Y-17443013D02*
X13565534Y-17414441D01*
X13565534Y-17414441D02*
X13575058Y-17404917D01*
X13641724Y-17452536D02*
X13651248Y-17443013D01*
X13651248Y-17443013D02*
X13670296Y-17433489D01*
X13670296Y-17433489D02*
X13717915Y-17433489D01*
X13717915Y-17433489D02*
X13736963Y-17443013D01*
X13736963Y-17443013D02*
X13746486Y-17452536D01*
X13746486Y-17452536D02*
X13756010Y-17471584D01*
X13756010Y-17471584D02*
X13756010Y-17490632D01*
X13756010Y-17490632D02*
X13746486Y-17519203D01*
X13746486Y-17519203D02*
X13632201Y-17633489D01*
X13632201Y-17633489D02*
X13756010Y-17633489D01*
X13936963Y-17433489D02*
X13841724Y-17433489D01*
X13841724Y-17433489D02*
X13832201Y-17528727D01*
X13832201Y-17528727D02*
X13841724Y-17519203D01*
X13841724Y-17519203D02*
X13860772Y-17509679D01*
X13860772Y-17509679D02*
X13908391Y-17509679D01*
X13908391Y-17509679D02*
X13927439Y-17519203D01*
X13927439Y-17519203D02*
X13936963Y-17528727D01*
X13936963Y-17528727D02*
X13946486Y-17547775D01*
X13946486Y-17547775D02*
X13946486Y-17595394D01*
X13946486Y-17595394D02*
X13936963Y-17614441D01*
X13936963Y-17614441D02*
X13927439Y-17623965D01*
X13927439Y-17623965D02*
X13908391Y-17633489D01*
X13908391Y-17633489D02*
X13860772Y-17633489D01*
X13860772Y-17633489D02*
X13841724Y-17623965D01*
X13841724Y-17623965D02*
X13832201Y-17614441D01*
X14184582Y-17633489D02*
X14184582Y-17433489D01*
X14270296Y-17633489D02*
X14270296Y-17528727D01*
X14270296Y-17528727D02*
X14260772Y-17509679D01*
X14260772Y-17509679D02*
X14241725Y-17500155D01*
X14241725Y-17500155D02*
X14213153Y-17500155D01*
X14213153Y-17500155D02*
X14194105Y-17509679D01*
X14194105Y-17509679D02*
X14184582Y-17519203D01*
X14394105Y-17633489D02*
X14375058Y-17623965D01*
X14375058Y-17623965D02*
X14365534Y-17614441D01*
X14365534Y-17614441D02*
X14356010Y-17595394D01*
X14356010Y-17595394D02*
X14356010Y-17538251D01*
X14356010Y-17538251D02*
X14365534Y-17519203D01*
X14365534Y-17519203D02*
X14375058Y-17509679D01*
X14375058Y-17509679D02*
X14394105Y-17500155D01*
X14394105Y-17500155D02*
X14422677Y-17500155D01*
X14422677Y-17500155D02*
X14441725Y-17509679D01*
X14441725Y-17509679D02*
X14451248Y-17519203D01*
X14451248Y-17519203D02*
X14460772Y-17538251D01*
X14460772Y-17538251D02*
X14460772Y-17595394D01*
X14460772Y-17595394D02*
X14451248Y-17614441D01*
X14451248Y-17614441D02*
X14441725Y-17623965D01*
X14441725Y-17623965D02*
X14422677Y-17633489D01*
X14422677Y-17633489D02*
X14394105Y-17633489D01*
X14575058Y-17633489D02*
X14556010Y-17623965D01*
X14556010Y-17623965D02*
X14546486Y-17604917D01*
X14546486Y-17604917D02*
X14546486Y-17433489D01*
X14727439Y-17623965D02*
X14708391Y-17633489D01*
X14708391Y-17633489D02*
X14670296Y-17633489D01*
X14670296Y-17633489D02*
X14651248Y-17623965D01*
X14651248Y-17623965D02*
X14641725Y-17604917D01*
X14641725Y-17604917D02*
X14641725Y-17528727D01*
X14641725Y-17528727D02*
X14651248Y-17509679D01*
X14651248Y-17509679D02*
X14670296Y-17500155D01*
X14670296Y-17500155D02*
X14708391Y-17500155D01*
X14708391Y-17500155D02*
X14727439Y-17509679D01*
X14727439Y-17509679D02*
X14736963Y-17528727D01*
X14736963Y-17528727D02*
X14736963Y-17547775D01*
X14736963Y-17547775D02*
X14641725Y-17566822D01*
X14813153Y-17623965D02*
X14832201Y-17633489D01*
X14832201Y-17633489D02*
X14870296Y-17633489D01*
X14870296Y-17633489D02*
X14889344Y-17623965D01*
X14889344Y-17623965D02*
X14898867Y-17604917D01*
X14898867Y-17604917D02*
X14898867Y-17595394D01*
X14898867Y-17595394D02*
X14889344Y-17576346D01*
X14889344Y-17576346D02*
X14870296Y-17566822D01*
X14870296Y-17566822D02*
X14841725Y-17566822D01*
X14841725Y-17566822D02*
X14822677Y-17557298D01*
X14822677Y-17557298D02*
X14813153Y-17538251D01*
X14813153Y-17538251D02*
X14813153Y-17528727D01*
X14813153Y-17528727D02*
X14822677Y-17509679D01*
X14822677Y-17509679D02*
X14841725Y-17500155D01*
X14841725Y-17500155D02*
X14870296Y-17500155D01*
X14870296Y-17500155D02*
X14889344Y-17509679D01*
X14965534Y-17709679D02*
X14975058Y-17700155D01*
X14975058Y-17700155D02*
X14994106Y-17671584D01*
X14994106Y-17671584D02*
X15003629Y-17652536D01*
X15003629Y-17652536D02*
X15013153Y-17623965D01*
X15013153Y-17623965D02*
X15022677Y-17576346D01*
X15022677Y-17576346D02*
X15022677Y-17538251D01*
X15022677Y-17538251D02*
X15013153Y-17490632D01*
X15013153Y-17490632D02*
X15003629Y-17462060D01*
X15003629Y-17462060D02*
X14994106Y-17443013D01*
X14994106Y-17443013D02*
X14975058Y-17414441D01*
X14975058Y-17414441D02*
X14965534Y-17404917D01*
D14*
X9944995Y-17861005D02*
X9999995Y-17806005D01*
X9944995Y-17751005D01*
X9889995Y-17806005D01*
X9944995Y-17861005D01*
D11*
X10365534Y-17897489D02*
X10251248Y-17897489D01*
X10308391Y-17897489D02*
X10308391Y-17697489D01*
X10308391Y-17697489D02*
X10289343Y-17726060D01*
X10289343Y-17726060D02*
X10270296Y-17745108D01*
X10270296Y-17745108D02*
X10251248Y-17754632D01*
X10451248Y-17878441D02*
X10460772Y-17887965D01*
X10460772Y-17887965D02*
X10451248Y-17897489D01*
X10451248Y-17897489D02*
X10441724Y-17887965D01*
X10441724Y-17887965D02*
X10451248Y-17878441D01*
X10451248Y-17878441D02*
X10451248Y-17897489D01*
X10651248Y-17897489D02*
X10536962Y-17897489D01*
X10594105Y-17897489D02*
X10594105Y-17697489D01*
X10594105Y-17697489D02*
X10575058Y-17726060D01*
X10575058Y-17726060D02*
X10556010Y-17745108D01*
X10556010Y-17745108D02*
X10536962Y-17754632D01*
X10775058Y-17697489D02*
X10794105Y-17697489D01*
X10794105Y-17697489D02*
X10813153Y-17707013D01*
X10813153Y-17707013D02*
X10822677Y-17716536D01*
X10822677Y-17716536D02*
X10832200Y-17735584D01*
X10832200Y-17735584D02*
X10841724Y-17773679D01*
X10841724Y-17773679D02*
X10841724Y-17821298D01*
X10841724Y-17821298D02*
X10832200Y-17859394D01*
X10832200Y-17859394D02*
X10822677Y-17878441D01*
X10822677Y-17878441D02*
X10813153Y-17887965D01*
X10813153Y-17887965D02*
X10794105Y-17897489D01*
X10794105Y-17897489D02*
X10775058Y-17897489D01*
X10775058Y-17897489D02*
X10756010Y-17887965D01*
X10756010Y-17887965D02*
X10746486Y-17878441D01*
X10746486Y-17878441D02*
X10736962Y-17859394D01*
X10736962Y-17859394D02*
X10727439Y-17821298D01*
X10727439Y-17821298D02*
X10727439Y-17773679D01*
X10727439Y-17773679D02*
X10736962Y-17735584D01*
X10736962Y-17735584D02*
X10746486Y-17716536D01*
X10746486Y-17716536D02*
X10756010Y-17707013D01*
X10756010Y-17707013D02*
X10775058Y-17697489D01*
X10965534Y-17697489D02*
X10984581Y-17697489D01*
X10984581Y-17697489D02*
X11003629Y-17707013D01*
X11003629Y-17707013D02*
X11013153Y-17716536D01*
X11013153Y-17716536D02*
X11022677Y-17735584D01*
X11022677Y-17735584D02*
X11032200Y-17773679D01*
X11032200Y-17773679D02*
X11032200Y-17821298D01*
X11032200Y-17821298D02*
X11022677Y-17859394D01*
X11022677Y-17859394D02*
X11013153Y-17878441D01*
X11013153Y-17878441D02*
X11003629Y-17887965D01*
X11003629Y-17887965D02*
X10984581Y-17897489D01*
X10984581Y-17897489D02*
X10965534Y-17897489D01*
X10965534Y-17897489D02*
X10946486Y-17887965D01*
X10946486Y-17887965D02*
X10936962Y-17878441D01*
X10936962Y-17878441D02*
X10927439Y-17859394D01*
X10927439Y-17859394D02*
X10917915Y-17821298D01*
X10917915Y-17821298D02*
X10917915Y-17773679D01*
X10917915Y-17773679D02*
X10927439Y-17735584D01*
X10927439Y-17735584D02*
X10936962Y-17716536D01*
X10936962Y-17716536D02*
X10946486Y-17707013D01*
X10946486Y-17707013D02*
X10965534Y-17697489D01*
X11117915Y-17897489D02*
X11117915Y-17764155D01*
X11117915Y-17783203D02*
X11127439Y-17773679D01*
X11127439Y-17773679D02*
X11146486Y-17764155D01*
X11146486Y-17764155D02*
X11175058Y-17764155D01*
X11175058Y-17764155D02*
X11194105Y-17773679D01*
X11194105Y-17773679D02*
X11203629Y-17792727D01*
X11203629Y-17792727D02*
X11203629Y-17897489D01*
X11203629Y-17792727D02*
X11213153Y-17773679D01*
X11213153Y-17773679D02*
X11232200Y-17764155D01*
X11232200Y-17764155D02*
X11260772Y-17764155D01*
X11260772Y-17764155D02*
X11279819Y-17773679D01*
X11279819Y-17773679D02*
X11289343Y-17792727D01*
X11289343Y-17792727D02*
X11289343Y-17897489D01*
X11384581Y-17897489D02*
X11384581Y-17764155D01*
X11384581Y-17783203D02*
X11394105Y-17773679D01*
X11394105Y-17773679D02*
X11413153Y-17764155D01*
X11413153Y-17764155D02*
X11441724Y-17764155D01*
X11441724Y-17764155D02*
X11460772Y-17773679D01*
X11460772Y-17773679D02*
X11470296Y-17792727D01*
X11470296Y-17792727D02*
X11470296Y-17897489D01*
X11470296Y-17792727D02*
X11479819Y-17773679D01*
X11479819Y-17773679D02*
X11498867Y-17764155D01*
X11498867Y-17764155D02*
X11527438Y-17764155D01*
X11527438Y-17764155D02*
X11546486Y-17773679D01*
X11546486Y-17773679D02*
X11556010Y-17792727D01*
X11556010Y-17792727D02*
X11556010Y-17897489D01*
X11946486Y-17687965D02*
X11775058Y-17945108D01*
X12203629Y-17697489D02*
X12222677Y-17697489D01*
X12222677Y-17697489D02*
X12241724Y-17707013D01*
X12241724Y-17707013D02*
X12251248Y-17716536D01*
X12251248Y-17716536D02*
X12260772Y-17735584D01*
X12260772Y-17735584D02*
X12270296Y-17773679D01*
X12270296Y-17773679D02*
X12270296Y-17821298D01*
X12270296Y-17821298D02*
X12260772Y-17859394D01*
X12260772Y-17859394D02*
X12251248Y-17878441D01*
X12251248Y-17878441D02*
X12241724Y-17887965D01*
X12241724Y-17887965D02*
X12222677Y-17897489D01*
X12222677Y-17897489D02*
X12203629Y-17897489D01*
X12203629Y-17897489D02*
X12184581Y-17887965D01*
X12184581Y-17887965D02*
X12175058Y-17878441D01*
X12175058Y-17878441D02*
X12165534Y-17859394D01*
X12165534Y-17859394D02*
X12156010Y-17821298D01*
X12156010Y-17821298D02*
X12156010Y-17773679D01*
X12156010Y-17773679D02*
X12165534Y-17735584D01*
X12165534Y-17735584D02*
X12175058Y-17716536D01*
X12175058Y-17716536D02*
X12184581Y-17707013D01*
X12184581Y-17707013D02*
X12203629Y-17697489D01*
X12356010Y-17878441D02*
X12365534Y-17887965D01*
X12365534Y-17887965D02*
X12356010Y-17897489D01*
X12356010Y-17897489D02*
X12346486Y-17887965D01*
X12346486Y-17887965D02*
X12356010Y-17878441D01*
X12356010Y-17878441D02*
X12356010Y-17897489D01*
X12489343Y-17697489D02*
X12508391Y-17697489D01*
X12508391Y-17697489D02*
X12527439Y-17707013D01*
X12527439Y-17707013D02*
X12536962Y-17716536D01*
X12536962Y-17716536D02*
X12546486Y-17735584D01*
X12546486Y-17735584D02*
X12556010Y-17773679D01*
X12556010Y-17773679D02*
X12556010Y-17821298D01*
X12556010Y-17821298D02*
X12546486Y-17859394D01*
X12546486Y-17859394D02*
X12536962Y-17878441D01*
X12536962Y-17878441D02*
X12527439Y-17887965D01*
X12527439Y-17887965D02*
X12508391Y-17897489D01*
X12508391Y-17897489D02*
X12489343Y-17897489D01*
X12489343Y-17897489D02*
X12470296Y-17887965D01*
X12470296Y-17887965D02*
X12460772Y-17878441D01*
X12460772Y-17878441D02*
X12451248Y-17859394D01*
X12451248Y-17859394D02*
X12441724Y-17821298D01*
X12441724Y-17821298D02*
X12441724Y-17773679D01*
X12441724Y-17773679D02*
X12451248Y-17735584D01*
X12451248Y-17735584D02*
X12460772Y-17716536D01*
X12460772Y-17716536D02*
X12470296Y-17707013D01*
X12470296Y-17707013D02*
X12489343Y-17697489D01*
X12727439Y-17764155D02*
X12727439Y-17897489D01*
X12679820Y-17687965D02*
X12632201Y-17830822D01*
X12632201Y-17830822D02*
X12756010Y-17830822D01*
X12813153Y-17697489D02*
X12936962Y-17697489D01*
X12936962Y-17697489D02*
X12870296Y-17773679D01*
X12870296Y-17773679D02*
X12898867Y-17773679D01*
X12898867Y-17773679D02*
X12917915Y-17783203D01*
X12917915Y-17783203D02*
X12927439Y-17792727D01*
X12927439Y-17792727D02*
X12936962Y-17811775D01*
X12936962Y-17811775D02*
X12936962Y-17859394D01*
X12936962Y-17859394D02*
X12927439Y-17878441D01*
X12927439Y-17878441D02*
X12917915Y-17887965D01*
X12917915Y-17887965D02*
X12898867Y-17897489D01*
X12898867Y-17897489D02*
X12841724Y-17897489D01*
X12841724Y-17897489D02*
X12822677Y-17887965D01*
X12822677Y-17887965D02*
X12813153Y-17878441D01*
X13003629Y-17697489D02*
X13127439Y-17697489D01*
X13127439Y-17697489D02*
X13060772Y-17773679D01*
X13060772Y-17773679D02*
X13089343Y-17773679D01*
X13089343Y-17773679D02*
X13108391Y-17783203D01*
X13108391Y-17783203D02*
X13117915Y-17792727D01*
X13117915Y-17792727D02*
X13127439Y-17811775D01*
X13127439Y-17811775D02*
X13127439Y-17859394D01*
X13127439Y-17859394D02*
X13117915Y-17878441D01*
X13117915Y-17878441D02*
X13108391Y-17887965D01*
X13108391Y-17887965D02*
X13089343Y-17897489D01*
X13089343Y-17897489D02*
X13032201Y-17897489D01*
X13032201Y-17897489D02*
X13013153Y-17887965D01*
X13013153Y-17887965D02*
X13003629Y-17878441D01*
X13203629Y-17697489D02*
X13203629Y-17735584D01*
X13279820Y-17697489D02*
X13279820Y-17735584D01*
X13575058Y-17973679D02*
X13565534Y-17964155D01*
X13565534Y-17964155D02*
X13546486Y-17935584D01*
X13546486Y-17935584D02*
X13536963Y-17916536D01*
X13536963Y-17916536D02*
X13527439Y-17887965D01*
X13527439Y-17887965D02*
X13517915Y-17840346D01*
X13517915Y-17840346D02*
X13517915Y-17802251D01*
X13517915Y-17802251D02*
X13527439Y-17754632D01*
X13527439Y-17754632D02*
X13536963Y-17726060D01*
X13536963Y-17726060D02*
X13546486Y-17707013D01*
X13546486Y-17707013D02*
X13565534Y-17678441D01*
X13565534Y-17678441D02*
X13575058Y-17668917D01*
X13746486Y-17697489D02*
X13651248Y-17697489D01*
X13651248Y-17697489D02*
X13641724Y-17792727D01*
X13641724Y-17792727D02*
X13651248Y-17783203D01*
X13651248Y-17783203D02*
X13670296Y-17773679D01*
X13670296Y-17773679D02*
X13717915Y-17773679D01*
X13717915Y-17773679D02*
X13736963Y-17783203D01*
X13736963Y-17783203D02*
X13746486Y-17792727D01*
X13746486Y-17792727D02*
X13756010Y-17811775D01*
X13756010Y-17811775D02*
X13756010Y-17859394D01*
X13756010Y-17859394D02*
X13746486Y-17878441D01*
X13746486Y-17878441D02*
X13736963Y-17887965D01*
X13736963Y-17887965D02*
X13717915Y-17897489D01*
X13717915Y-17897489D02*
X13670296Y-17897489D01*
X13670296Y-17897489D02*
X13651248Y-17887965D01*
X13651248Y-17887965D02*
X13641724Y-17878441D01*
X13994105Y-17897489D02*
X13994105Y-17697489D01*
X14079820Y-17897489D02*
X14079820Y-17792727D01*
X14079820Y-17792727D02*
X14070296Y-17773679D01*
X14070296Y-17773679D02*
X14051248Y-17764155D01*
X14051248Y-17764155D02*
X14022677Y-17764155D01*
X14022677Y-17764155D02*
X14003629Y-17773679D01*
X14003629Y-17773679D02*
X13994105Y-17783203D01*
X14203629Y-17897489D02*
X14184582Y-17887965D01*
X14184582Y-17887965D02*
X14175058Y-17878441D01*
X14175058Y-17878441D02*
X14165534Y-17859394D01*
X14165534Y-17859394D02*
X14165534Y-17802251D01*
X14165534Y-17802251D02*
X14175058Y-17783203D01*
X14175058Y-17783203D02*
X14184582Y-17773679D01*
X14184582Y-17773679D02*
X14203629Y-17764155D01*
X14203629Y-17764155D02*
X14232201Y-17764155D01*
X14232201Y-17764155D02*
X14251248Y-17773679D01*
X14251248Y-17773679D02*
X14260772Y-17783203D01*
X14260772Y-17783203D02*
X14270296Y-17802251D01*
X14270296Y-17802251D02*
X14270296Y-17859394D01*
X14270296Y-17859394D02*
X14260772Y-17878441D01*
X14260772Y-17878441D02*
X14251248Y-17887965D01*
X14251248Y-17887965D02*
X14232201Y-17897489D01*
X14232201Y-17897489D02*
X14203629Y-17897489D01*
X14384582Y-17897489D02*
X14365534Y-17887965D01*
X14365534Y-17887965D02*
X14356010Y-17868917D01*
X14356010Y-17868917D02*
X14356010Y-17697489D01*
X14536963Y-17887965D02*
X14517915Y-17897489D01*
X14517915Y-17897489D02*
X14479820Y-17897489D01*
X14479820Y-17897489D02*
X14460772Y-17887965D01*
X14460772Y-17887965D02*
X14451248Y-17868917D01*
X14451248Y-17868917D02*
X14451248Y-17792727D01*
X14451248Y-17792727D02*
X14460772Y-17773679D01*
X14460772Y-17773679D02*
X14479820Y-17764155D01*
X14479820Y-17764155D02*
X14517915Y-17764155D01*
X14517915Y-17764155D02*
X14536963Y-17773679D01*
X14536963Y-17773679D02*
X14546486Y-17792727D01*
X14546486Y-17792727D02*
X14546486Y-17811775D01*
X14546486Y-17811775D02*
X14451248Y-17830822D01*
X14622677Y-17887965D02*
X14641725Y-17897489D01*
X14641725Y-17897489D02*
X14679820Y-17897489D01*
X14679820Y-17897489D02*
X14698867Y-17887965D01*
X14698867Y-17887965D02*
X14708391Y-17868917D01*
X14708391Y-17868917D02*
X14708391Y-17859394D01*
X14708391Y-17859394D02*
X14698867Y-17840346D01*
X14698867Y-17840346D02*
X14679820Y-17830822D01*
X14679820Y-17830822D02*
X14651248Y-17830822D01*
X14651248Y-17830822D02*
X14632201Y-17821298D01*
X14632201Y-17821298D02*
X14622677Y-17802251D01*
X14622677Y-17802251D02*
X14622677Y-17792727D01*
X14622677Y-17792727D02*
X14632201Y-17773679D01*
X14632201Y-17773679D02*
X14651248Y-17764155D01*
X14651248Y-17764155D02*
X14679820Y-17764155D01*
X14679820Y-17764155D02*
X14698867Y-17773679D01*
X14775058Y-17973679D02*
X14784582Y-17964155D01*
X14784582Y-17964155D02*
X14803629Y-17935584D01*
X14803629Y-17935584D02*
X14813153Y-17916536D01*
X14813153Y-17916536D02*
X14822677Y-17887965D01*
X14822677Y-17887965D02*
X14832201Y-17840346D01*
X14832201Y-17840346D02*
X14832201Y-17802251D01*
X14832201Y-17802251D02*
X14822677Y-17754632D01*
X14822677Y-17754632D02*
X14813153Y-17726060D01*
X14813153Y-17726060D02*
X14803629Y-17707013D01*
X14803629Y-17707013D02*
X14784582Y-17678441D01*
X14784582Y-17678441D02*
X14775058Y-17668917D01*
X9799995Y-17970005D02*
X9999995Y-18170005D01*
X9999995Y-17970005D02*
X9799995Y-18170005D01*
X9999995Y-18070005D02*
G75*
G02*
X9799995Y-18070005I-100000J0D01*
G01*
X9799995Y-18070005D02*
G75*
G02*
X9999995Y-18070005I100000J0D01*
G01*
X10251248Y-17980536D02*
X10260772Y-17971013D01*
X10260772Y-17971013D02*
X10279819Y-17961489D01*
X10279819Y-17961489D02*
X10327439Y-17961489D01*
X10327439Y-17961489D02*
X10346486Y-17971013D01*
X10346486Y-17971013D02*
X10356010Y-17980536D01*
X10356010Y-17980536D02*
X10365534Y-17999584D01*
X10365534Y-17999584D02*
X10365534Y-18018632D01*
X10365534Y-18018632D02*
X10356010Y-18047203D01*
X10356010Y-18047203D02*
X10241724Y-18161489D01*
X10241724Y-18161489D02*
X10365534Y-18161489D01*
X10451248Y-18142441D02*
X10460772Y-18151965D01*
X10460772Y-18151965D02*
X10451248Y-18161489D01*
X10451248Y-18161489D02*
X10441724Y-18151965D01*
X10441724Y-18151965D02*
X10451248Y-18142441D01*
X10451248Y-18142441D02*
X10451248Y-18161489D01*
X10527439Y-17961489D02*
X10651248Y-17961489D01*
X10651248Y-17961489D02*
X10584581Y-18037679D01*
X10584581Y-18037679D02*
X10613153Y-18037679D01*
X10613153Y-18037679D02*
X10632200Y-18047203D01*
X10632200Y-18047203D02*
X10641724Y-18056727D01*
X10641724Y-18056727D02*
X10651248Y-18075775D01*
X10651248Y-18075775D02*
X10651248Y-18123394D01*
X10651248Y-18123394D02*
X10641724Y-18142441D01*
X10641724Y-18142441D02*
X10632200Y-18151965D01*
X10632200Y-18151965D02*
X10613153Y-18161489D01*
X10613153Y-18161489D02*
X10556010Y-18161489D01*
X10556010Y-18161489D02*
X10536962Y-18151965D01*
X10536962Y-18151965D02*
X10527439Y-18142441D01*
X10775058Y-17961489D02*
X10794105Y-17961489D01*
X10794105Y-17961489D02*
X10813153Y-17971013D01*
X10813153Y-17971013D02*
X10822677Y-17980536D01*
X10822677Y-17980536D02*
X10832200Y-17999584D01*
X10832200Y-17999584D02*
X10841724Y-18037679D01*
X10841724Y-18037679D02*
X10841724Y-18085298D01*
X10841724Y-18085298D02*
X10832200Y-18123394D01*
X10832200Y-18123394D02*
X10822677Y-18142441D01*
X10822677Y-18142441D02*
X10813153Y-18151965D01*
X10813153Y-18151965D02*
X10794105Y-18161489D01*
X10794105Y-18161489D02*
X10775058Y-18161489D01*
X10775058Y-18161489D02*
X10756010Y-18151965D01*
X10756010Y-18151965D02*
X10746486Y-18142441D01*
X10746486Y-18142441D02*
X10736962Y-18123394D01*
X10736962Y-18123394D02*
X10727439Y-18085298D01*
X10727439Y-18085298D02*
X10727439Y-18037679D01*
X10727439Y-18037679D02*
X10736962Y-17999584D01*
X10736962Y-17999584D02*
X10746486Y-17980536D01*
X10746486Y-17980536D02*
X10756010Y-17971013D01*
X10756010Y-17971013D02*
X10775058Y-17961489D01*
X11032200Y-18161489D02*
X10917915Y-18161489D01*
X10975058Y-18161489D02*
X10975058Y-17961489D01*
X10975058Y-17961489D02*
X10956010Y-17990060D01*
X10956010Y-17990060D02*
X10936962Y-18009108D01*
X10936962Y-18009108D02*
X10917915Y-18018632D01*
X11117915Y-18161489D02*
X11117915Y-18028155D01*
X11117915Y-18047203D02*
X11127439Y-18037679D01*
X11127439Y-18037679D02*
X11146486Y-18028155D01*
X11146486Y-18028155D02*
X11175058Y-18028155D01*
X11175058Y-18028155D02*
X11194105Y-18037679D01*
X11194105Y-18037679D02*
X11203629Y-18056727D01*
X11203629Y-18056727D02*
X11203629Y-18161489D01*
X11203629Y-18056727D02*
X11213153Y-18037679D01*
X11213153Y-18037679D02*
X11232200Y-18028155D01*
X11232200Y-18028155D02*
X11260772Y-18028155D01*
X11260772Y-18028155D02*
X11279819Y-18037679D01*
X11279819Y-18037679D02*
X11289343Y-18056727D01*
X11289343Y-18056727D02*
X11289343Y-18161489D01*
X11384581Y-18161489D02*
X11384581Y-18028155D01*
X11384581Y-18047203D02*
X11394105Y-18037679D01*
X11394105Y-18037679D02*
X11413153Y-18028155D01*
X11413153Y-18028155D02*
X11441724Y-18028155D01*
X11441724Y-18028155D02*
X11460772Y-18037679D01*
X11460772Y-18037679D02*
X11470296Y-18056727D01*
X11470296Y-18056727D02*
X11470296Y-18161489D01*
X11470296Y-18056727D02*
X11479819Y-18037679D01*
X11479819Y-18037679D02*
X11498867Y-18028155D01*
X11498867Y-18028155D02*
X11527438Y-18028155D01*
X11527438Y-18028155D02*
X11546486Y-18037679D01*
X11546486Y-18037679D02*
X11556010Y-18056727D01*
X11556010Y-18056727D02*
X11556010Y-18161489D01*
X11946486Y-17951965D02*
X11775058Y-18209108D01*
X12203629Y-17961489D02*
X12222677Y-17961489D01*
X12222677Y-17961489D02*
X12241724Y-17971013D01*
X12241724Y-17971013D02*
X12251248Y-17980536D01*
X12251248Y-17980536D02*
X12260772Y-17999584D01*
X12260772Y-17999584D02*
X12270296Y-18037679D01*
X12270296Y-18037679D02*
X12270296Y-18085298D01*
X12270296Y-18085298D02*
X12260772Y-18123394D01*
X12260772Y-18123394D02*
X12251248Y-18142441D01*
X12251248Y-18142441D02*
X12241724Y-18151965D01*
X12241724Y-18151965D02*
X12222677Y-18161489D01*
X12222677Y-18161489D02*
X12203629Y-18161489D01*
X12203629Y-18161489D02*
X12184581Y-18151965D01*
X12184581Y-18151965D02*
X12175058Y-18142441D01*
X12175058Y-18142441D02*
X12165534Y-18123394D01*
X12165534Y-18123394D02*
X12156010Y-18085298D01*
X12156010Y-18085298D02*
X12156010Y-18037679D01*
X12156010Y-18037679D02*
X12165534Y-17999584D01*
X12165534Y-17999584D02*
X12175058Y-17980536D01*
X12175058Y-17980536D02*
X12184581Y-17971013D01*
X12184581Y-17971013D02*
X12203629Y-17961489D01*
X12356010Y-18142441D02*
X12365534Y-18151965D01*
X12365534Y-18151965D02*
X12356010Y-18161489D01*
X12356010Y-18161489D02*
X12346486Y-18151965D01*
X12346486Y-18151965D02*
X12356010Y-18142441D01*
X12356010Y-18142441D02*
X12356010Y-18161489D01*
X12489343Y-17961489D02*
X12508391Y-17961489D01*
X12508391Y-17961489D02*
X12527439Y-17971013D01*
X12527439Y-17971013D02*
X12536962Y-17980536D01*
X12536962Y-17980536D02*
X12546486Y-17999584D01*
X12546486Y-17999584D02*
X12556010Y-18037679D01*
X12556010Y-18037679D02*
X12556010Y-18085298D01*
X12556010Y-18085298D02*
X12546486Y-18123394D01*
X12546486Y-18123394D02*
X12536962Y-18142441D01*
X12536962Y-18142441D02*
X12527439Y-18151965D01*
X12527439Y-18151965D02*
X12508391Y-18161489D01*
X12508391Y-18161489D02*
X12489343Y-18161489D01*
X12489343Y-18161489D02*
X12470296Y-18151965D01*
X12470296Y-18151965D02*
X12460772Y-18142441D01*
X12460772Y-18142441D02*
X12451248Y-18123394D01*
X12451248Y-18123394D02*
X12441724Y-18085298D01*
X12441724Y-18085298D02*
X12441724Y-18037679D01*
X12441724Y-18037679D02*
X12451248Y-17999584D01*
X12451248Y-17999584D02*
X12460772Y-17980536D01*
X12460772Y-17980536D02*
X12470296Y-17971013D01*
X12470296Y-17971013D02*
X12489343Y-17961489D01*
X12651248Y-18161489D02*
X12689343Y-18161489D01*
X12689343Y-18161489D02*
X12708391Y-18151965D01*
X12708391Y-18151965D02*
X12717915Y-18142441D01*
X12717915Y-18142441D02*
X12736962Y-18113870D01*
X12736962Y-18113870D02*
X12746486Y-18075775D01*
X12746486Y-18075775D02*
X12746486Y-17999584D01*
X12746486Y-17999584D02*
X12736962Y-17980536D01*
X12736962Y-17980536D02*
X12727439Y-17971013D01*
X12727439Y-17971013D02*
X12708391Y-17961489D01*
X12708391Y-17961489D02*
X12670296Y-17961489D01*
X12670296Y-17961489D02*
X12651248Y-17971013D01*
X12651248Y-17971013D02*
X12641724Y-17980536D01*
X12641724Y-17980536D02*
X12632201Y-17999584D01*
X12632201Y-17999584D02*
X12632201Y-18047203D01*
X12632201Y-18047203D02*
X12641724Y-18066251D01*
X12641724Y-18066251D02*
X12651248Y-18075775D01*
X12651248Y-18075775D02*
X12670296Y-18085298D01*
X12670296Y-18085298D02*
X12708391Y-18085298D01*
X12708391Y-18085298D02*
X12727439Y-18075775D01*
X12727439Y-18075775D02*
X12736962Y-18066251D01*
X12736962Y-18066251D02*
X12746486Y-18047203D01*
X12870296Y-17961489D02*
X12889343Y-17961489D01*
X12889343Y-17961489D02*
X12908391Y-17971013D01*
X12908391Y-17971013D02*
X12917915Y-17980536D01*
X12917915Y-17980536D02*
X12927439Y-17999584D01*
X12927439Y-17999584D02*
X12936962Y-18037679D01*
X12936962Y-18037679D02*
X12936962Y-18085298D01*
X12936962Y-18085298D02*
X12927439Y-18123394D01*
X12927439Y-18123394D02*
X12917915Y-18142441D01*
X12917915Y-18142441D02*
X12908391Y-18151965D01*
X12908391Y-18151965D02*
X12889343Y-18161489D01*
X12889343Y-18161489D02*
X12870296Y-18161489D01*
X12870296Y-18161489D02*
X12851248Y-18151965D01*
X12851248Y-18151965D02*
X12841724Y-18142441D01*
X12841724Y-18142441D02*
X12832201Y-18123394D01*
X12832201Y-18123394D02*
X12822677Y-18085298D01*
X12822677Y-18085298D02*
X12822677Y-18037679D01*
X12822677Y-18037679D02*
X12832201Y-17999584D01*
X12832201Y-17999584D02*
X12841724Y-17980536D01*
X12841724Y-17980536D02*
X12851248Y-17971013D01*
X12851248Y-17971013D02*
X12870296Y-17961489D01*
X13108391Y-17961489D02*
X13070296Y-17961489D01*
X13070296Y-17961489D02*
X13051248Y-17971013D01*
X13051248Y-17971013D02*
X13041724Y-17980536D01*
X13041724Y-17980536D02*
X13022677Y-18009108D01*
X13022677Y-18009108D02*
X13013153Y-18047203D01*
X13013153Y-18047203D02*
X13013153Y-18123394D01*
X13013153Y-18123394D02*
X13022677Y-18142441D01*
X13022677Y-18142441D02*
X13032201Y-18151965D01*
X13032201Y-18151965D02*
X13051248Y-18161489D01*
X13051248Y-18161489D02*
X13089343Y-18161489D01*
X13089343Y-18161489D02*
X13108391Y-18151965D01*
X13108391Y-18151965D02*
X13117915Y-18142441D01*
X13117915Y-18142441D02*
X13127439Y-18123394D01*
X13127439Y-18123394D02*
X13127439Y-18075775D01*
X13127439Y-18075775D02*
X13117915Y-18056727D01*
X13117915Y-18056727D02*
X13108391Y-18047203D01*
X13108391Y-18047203D02*
X13089343Y-18037679D01*
X13089343Y-18037679D02*
X13051248Y-18037679D01*
X13051248Y-18037679D02*
X13032201Y-18047203D01*
X13032201Y-18047203D02*
X13022677Y-18056727D01*
X13022677Y-18056727D02*
X13013153Y-18075775D01*
X13203629Y-17961489D02*
X13203629Y-17999584D01*
X13279820Y-17961489D02*
X13279820Y-17999584D01*
X13575058Y-18237679D02*
X13565534Y-18228155D01*
X13565534Y-18228155D02*
X13546486Y-18199584D01*
X13546486Y-18199584D02*
X13536963Y-18180536D01*
X13536963Y-18180536D02*
X13527439Y-18151965D01*
X13527439Y-18151965D02*
X13517915Y-18104346D01*
X13517915Y-18104346D02*
X13517915Y-18066251D01*
X13517915Y-18066251D02*
X13527439Y-18018632D01*
X13527439Y-18018632D02*
X13536963Y-17990060D01*
X13536963Y-17990060D02*
X13546486Y-17971013D01*
X13546486Y-17971013D02*
X13565534Y-17942441D01*
X13565534Y-17942441D02*
X13575058Y-17932917D01*
X13641724Y-17980536D02*
X13651248Y-17971013D01*
X13651248Y-17971013D02*
X13670296Y-17961489D01*
X13670296Y-17961489D02*
X13717915Y-17961489D01*
X13717915Y-17961489D02*
X13736963Y-17971013D01*
X13736963Y-17971013D02*
X13746486Y-17980536D01*
X13746486Y-17980536D02*
X13756010Y-17999584D01*
X13756010Y-17999584D02*
X13756010Y-18018632D01*
X13756010Y-18018632D02*
X13746486Y-18047203D01*
X13746486Y-18047203D02*
X13632201Y-18161489D01*
X13632201Y-18161489D02*
X13756010Y-18161489D01*
X13994105Y-18161489D02*
X13994105Y-17961489D01*
X14079820Y-18161489D02*
X14079820Y-18056727D01*
X14079820Y-18056727D02*
X14070296Y-18037679D01*
X14070296Y-18037679D02*
X14051248Y-18028155D01*
X14051248Y-18028155D02*
X14022677Y-18028155D01*
X14022677Y-18028155D02*
X14003629Y-18037679D01*
X14003629Y-18037679D02*
X13994105Y-18047203D01*
X14203629Y-18161489D02*
X14184582Y-18151965D01*
X14184582Y-18151965D02*
X14175058Y-18142441D01*
X14175058Y-18142441D02*
X14165534Y-18123394D01*
X14165534Y-18123394D02*
X14165534Y-18066251D01*
X14165534Y-18066251D02*
X14175058Y-18047203D01*
X14175058Y-18047203D02*
X14184582Y-18037679D01*
X14184582Y-18037679D02*
X14203629Y-18028155D01*
X14203629Y-18028155D02*
X14232201Y-18028155D01*
X14232201Y-18028155D02*
X14251248Y-18037679D01*
X14251248Y-18037679D02*
X14260772Y-18047203D01*
X14260772Y-18047203D02*
X14270296Y-18066251D01*
X14270296Y-18066251D02*
X14270296Y-18123394D01*
X14270296Y-18123394D02*
X14260772Y-18142441D01*
X14260772Y-18142441D02*
X14251248Y-18151965D01*
X14251248Y-18151965D02*
X14232201Y-18161489D01*
X14232201Y-18161489D02*
X14203629Y-18161489D01*
X14384582Y-18161489D02*
X14365534Y-18151965D01*
X14365534Y-18151965D02*
X14356010Y-18132917D01*
X14356010Y-18132917D02*
X14356010Y-17961489D01*
X14536963Y-18151965D02*
X14517915Y-18161489D01*
X14517915Y-18161489D02*
X14479820Y-18161489D01*
X14479820Y-18161489D02*
X14460772Y-18151965D01*
X14460772Y-18151965D02*
X14451248Y-18132917D01*
X14451248Y-18132917D02*
X14451248Y-18056727D01*
X14451248Y-18056727D02*
X14460772Y-18037679D01*
X14460772Y-18037679D02*
X14479820Y-18028155D01*
X14479820Y-18028155D02*
X14517915Y-18028155D01*
X14517915Y-18028155D02*
X14536963Y-18037679D01*
X14536963Y-18037679D02*
X14546486Y-18056727D01*
X14546486Y-18056727D02*
X14546486Y-18075775D01*
X14546486Y-18075775D02*
X14451248Y-18094822D01*
X14622677Y-18151965D02*
X14641725Y-18161489D01*
X14641725Y-18161489D02*
X14679820Y-18161489D01*
X14679820Y-18161489D02*
X14698867Y-18151965D01*
X14698867Y-18151965D02*
X14708391Y-18132917D01*
X14708391Y-18132917D02*
X14708391Y-18123394D01*
X14708391Y-18123394D02*
X14698867Y-18104346D01*
X14698867Y-18104346D02*
X14679820Y-18094822D01*
X14679820Y-18094822D02*
X14651248Y-18094822D01*
X14651248Y-18094822D02*
X14632201Y-18085298D01*
X14632201Y-18085298D02*
X14622677Y-18066251D01*
X14622677Y-18066251D02*
X14622677Y-18056727D01*
X14622677Y-18056727D02*
X14632201Y-18037679D01*
X14632201Y-18037679D02*
X14651248Y-18028155D01*
X14651248Y-18028155D02*
X14679820Y-18028155D01*
X14679820Y-18028155D02*
X14698867Y-18037679D01*
X14775058Y-18237679D02*
X14784582Y-18228155D01*
X14784582Y-18228155D02*
X14803629Y-18199584D01*
X14803629Y-18199584D02*
X14813153Y-18180536D01*
X14813153Y-18180536D02*
X14822677Y-18151965D01*
X14822677Y-18151965D02*
X14832201Y-18104346D01*
X14832201Y-18104346D02*
X14832201Y-18066251D01*
X14832201Y-18066251D02*
X14822677Y-18018632D01*
X14822677Y-18018632D02*
X14813153Y-17990060D01*
X14813153Y-17990060D02*
X14803629Y-17971013D01*
X14803629Y-17971013D02*
X14784582Y-17942441D01*
X14784582Y-17942441D02*
X14775058Y-17932917D01*
X9799995Y-18290005D02*
X9999995Y-18490005D01*
X9999995Y-18290005D02*
X9799995Y-18490005D01*
X9899995Y-18290005D02*
X9899995Y-18490005D01*
X9799995Y-18390005D02*
X9999995Y-18390005D01*
X10241724Y-18281489D02*
X10365534Y-18281489D01*
X10365534Y-18281489D02*
X10298867Y-18357679D01*
X10298867Y-18357679D02*
X10327439Y-18357679D01*
X10327439Y-18357679D02*
X10346486Y-18367203D01*
X10346486Y-18367203D02*
X10356010Y-18376727D01*
X10356010Y-18376727D02*
X10365534Y-18395775D01*
X10365534Y-18395775D02*
X10365534Y-18443394D01*
X10365534Y-18443394D02*
X10356010Y-18462441D01*
X10356010Y-18462441D02*
X10346486Y-18471965D01*
X10346486Y-18471965D02*
X10327439Y-18481489D01*
X10327439Y-18481489D02*
X10270296Y-18481489D01*
X10270296Y-18481489D02*
X10251248Y-18471965D01*
X10251248Y-18471965D02*
X10241724Y-18462441D01*
X10451248Y-18462441D02*
X10460772Y-18471965D01*
X10460772Y-18471965D02*
X10451248Y-18481489D01*
X10451248Y-18481489D02*
X10441724Y-18471965D01*
X10441724Y-18471965D02*
X10451248Y-18462441D01*
X10451248Y-18462441D02*
X10451248Y-18481489D01*
X10651248Y-18481489D02*
X10536962Y-18481489D01*
X10594105Y-18481489D02*
X10594105Y-18281489D01*
X10594105Y-18281489D02*
X10575058Y-18310060D01*
X10575058Y-18310060D02*
X10556010Y-18329108D01*
X10556010Y-18329108D02*
X10536962Y-18338632D01*
X10746486Y-18481489D02*
X10784581Y-18481489D01*
X10784581Y-18481489D02*
X10803629Y-18471965D01*
X10803629Y-18471965D02*
X10813153Y-18462441D01*
X10813153Y-18462441D02*
X10832200Y-18433870D01*
X10832200Y-18433870D02*
X10841724Y-18395775D01*
X10841724Y-18395775D02*
X10841724Y-18319584D01*
X10841724Y-18319584D02*
X10832200Y-18300536D01*
X10832200Y-18300536D02*
X10822677Y-18291013D01*
X10822677Y-18291013D02*
X10803629Y-18281489D01*
X10803629Y-18281489D02*
X10765534Y-18281489D01*
X10765534Y-18281489D02*
X10746486Y-18291013D01*
X10746486Y-18291013D02*
X10736962Y-18300536D01*
X10736962Y-18300536D02*
X10727439Y-18319584D01*
X10727439Y-18319584D02*
X10727439Y-18367203D01*
X10727439Y-18367203D02*
X10736962Y-18386251D01*
X10736962Y-18386251D02*
X10746486Y-18395775D01*
X10746486Y-18395775D02*
X10765534Y-18405298D01*
X10765534Y-18405298D02*
X10803629Y-18405298D01*
X10803629Y-18405298D02*
X10822677Y-18395775D01*
X10822677Y-18395775D02*
X10832200Y-18386251D01*
X10832200Y-18386251D02*
X10841724Y-18367203D01*
X10965534Y-18281489D02*
X10984581Y-18281489D01*
X10984581Y-18281489D02*
X11003629Y-18291013D01*
X11003629Y-18291013D02*
X11013153Y-18300536D01*
X11013153Y-18300536D02*
X11022677Y-18319584D01*
X11022677Y-18319584D02*
X11032200Y-18357679D01*
X11032200Y-18357679D02*
X11032200Y-18405298D01*
X11032200Y-18405298D02*
X11022677Y-18443394D01*
X11022677Y-18443394D02*
X11013153Y-18462441D01*
X11013153Y-18462441D02*
X11003629Y-18471965D01*
X11003629Y-18471965D02*
X10984581Y-18481489D01*
X10984581Y-18481489D02*
X10965534Y-18481489D01*
X10965534Y-18481489D02*
X10946486Y-18471965D01*
X10946486Y-18471965D02*
X10936962Y-18462441D01*
X10936962Y-18462441D02*
X10927439Y-18443394D01*
X10927439Y-18443394D02*
X10917915Y-18405298D01*
X10917915Y-18405298D02*
X10917915Y-18357679D01*
X10917915Y-18357679D02*
X10927439Y-18319584D01*
X10927439Y-18319584D02*
X10936962Y-18300536D01*
X10936962Y-18300536D02*
X10946486Y-18291013D01*
X10946486Y-18291013D02*
X10965534Y-18281489D01*
X11117915Y-18481489D02*
X11117915Y-18348155D01*
X11117915Y-18367203D02*
X11127439Y-18357679D01*
X11127439Y-18357679D02*
X11146486Y-18348155D01*
X11146486Y-18348155D02*
X11175058Y-18348155D01*
X11175058Y-18348155D02*
X11194105Y-18357679D01*
X11194105Y-18357679D02*
X11203629Y-18376727D01*
X11203629Y-18376727D02*
X11203629Y-18481489D01*
X11203629Y-18376727D02*
X11213153Y-18357679D01*
X11213153Y-18357679D02*
X11232200Y-18348155D01*
X11232200Y-18348155D02*
X11260772Y-18348155D01*
X11260772Y-18348155D02*
X11279819Y-18357679D01*
X11279819Y-18357679D02*
X11289343Y-18376727D01*
X11289343Y-18376727D02*
X11289343Y-18481489D01*
X11384581Y-18481489D02*
X11384581Y-18348155D01*
X11384581Y-18367203D02*
X11394105Y-18357679D01*
X11394105Y-18357679D02*
X11413153Y-18348155D01*
X11413153Y-18348155D02*
X11441724Y-18348155D01*
X11441724Y-18348155D02*
X11460772Y-18357679D01*
X11460772Y-18357679D02*
X11470296Y-18376727D01*
X11470296Y-18376727D02*
X11470296Y-18481489D01*
X11470296Y-18376727D02*
X11479819Y-18357679D01*
X11479819Y-18357679D02*
X11498867Y-18348155D01*
X11498867Y-18348155D02*
X11527438Y-18348155D01*
X11527438Y-18348155D02*
X11546486Y-18357679D01*
X11546486Y-18357679D02*
X11556010Y-18376727D01*
X11556010Y-18376727D02*
X11556010Y-18481489D01*
X11946486Y-18271965D02*
X11775058Y-18529108D01*
X12203629Y-18281489D02*
X12222677Y-18281489D01*
X12222677Y-18281489D02*
X12241724Y-18291013D01*
X12241724Y-18291013D02*
X12251248Y-18300536D01*
X12251248Y-18300536D02*
X12260772Y-18319584D01*
X12260772Y-18319584D02*
X12270296Y-18357679D01*
X12270296Y-18357679D02*
X12270296Y-18405298D01*
X12270296Y-18405298D02*
X12260772Y-18443394D01*
X12260772Y-18443394D02*
X12251248Y-18462441D01*
X12251248Y-18462441D02*
X12241724Y-18471965D01*
X12241724Y-18471965D02*
X12222677Y-18481489D01*
X12222677Y-18481489D02*
X12203629Y-18481489D01*
X12203629Y-18481489D02*
X12184581Y-18471965D01*
X12184581Y-18471965D02*
X12175058Y-18462441D01*
X12175058Y-18462441D02*
X12165534Y-18443394D01*
X12165534Y-18443394D02*
X12156010Y-18405298D01*
X12156010Y-18405298D02*
X12156010Y-18357679D01*
X12156010Y-18357679D02*
X12165534Y-18319584D01*
X12165534Y-18319584D02*
X12175058Y-18300536D01*
X12175058Y-18300536D02*
X12184581Y-18291013D01*
X12184581Y-18291013D02*
X12203629Y-18281489D01*
X12356010Y-18462441D02*
X12365534Y-18471965D01*
X12365534Y-18471965D02*
X12356010Y-18481489D01*
X12356010Y-18481489D02*
X12346486Y-18471965D01*
X12346486Y-18471965D02*
X12356010Y-18462441D01*
X12356010Y-18462441D02*
X12356010Y-18481489D01*
X12556010Y-18481489D02*
X12441724Y-18481489D01*
X12498867Y-18481489D02*
X12498867Y-18281489D01*
X12498867Y-18281489D02*
X12479820Y-18310060D01*
X12479820Y-18310060D02*
X12460772Y-18329108D01*
X12460772Y-18329108D02*
X12441724Y-18338632D01*
X12632201Y-18300536D02*
X12641724Y-18291013D01*
X12641724Y-18291013D02*
X12660772Y-18281489D01*
X12660772Y-18281489D02*
X12708391Y-18281489D01*
X12708391Y-18281489D02*
X12727439Y-18291013D01*
X12727439Y-18291013D02*
X12736962Y-18300536D01*
X12736962Y-18300536D02*
X12746486Y-18319584D01*
X12746486Y-18319584D02*
X12746486Y-18338632D01*
X12746486Y-18338632D02*
X12736962Y-18367203D01*
X12736962Y-18367203D02*
X12622677Y-18481489D01*
X12622677Y-18481489D02*
X12746486Y-18481489D01*
X12927439Y-18281489D02*
X12832201Y-18281489D01*
X12832201Y-18281489D02*
X12822677Y-18376727D01*
X12822677Y-18376727D02*
X12832201Y-18367203D01*
X12832201Y-18367203D02*
X12851248Y-18357679D01*
X12851248Y-18357679D02*
X12898867Y-18357679D01*
X12898867Y-18357679D02*
X12917915Y-18367203D01*
X12917915Y-18367203D02*
X12927439Y-18376727D01*
X12927439Y-18376727D02*
X12936962Y-18395775D01*
X12936962Y-18395775D02*
X12936962Y-18443394D01*
X12936962Y-18443394D02*
X12927439Y-18462441D01*
X12927439Y-18462441D02*
X12917915Y-18471965D01*
X12917915Y-18471965D02*
X12898867Y-18481489D01*
X12898867Y-18481489D02*
X12851248Y-18481489D01*
X12851248Y-18481489D02*
X12832201Y-18471965D01*
X12832201Y-18471965D02*
X12822677Y-18462441D01*
X13108391Y-18281489D02*
X13070296Y-18281489D01*
X13070296Y-18281489D02*
X13051248Y-18291013D01*
X13051248Y-18291013D02*
X13041724Y-18300536D01*
X13041724Y-18300536D02*
X13022677Y-18329108D01*
X13022677Y-18329108D02*
X13013153Y-18367203D01*
X13013153Y-18367203D02*
X13013153Y-18443394D01*
X13013153Y-18443394D02*
X13022677Y-18462441D01*
X13022677Y-18462441D02*
X13032201Y-18471965D01*
X13032201Y-18471965D02*
X13051248Y-18481489D01*
X13051248Y-18481489D02*
X13089343Y-18481489D01*
X13089343Y-18481489D02*
X13108391Y-18471965D01*
X13108391Y-18471965D02*
X13117915Y-18462441D01*
X13117915Y-18462441D02*
X13127439Y-18443394D01*
X13127439Y-18443394D02*
X13127439Y-18395775D01*
X13127439Y-18395775D02*
X13117915Y-18376727D01*
X13117915Y-18376727D02*
X13108391Y-18367203D01*
X13108391Y-18367203D02*
X13089343Y-18357679D01*
X13089343Y-18357679D02*
X13051248Y-18357679D01*
X13051248Y-18357679D02*
X13032201Y-18367203D01*
X13032201Y-18367203D02*
X13022677Y-18376727D01*
X13022677Y-18376727D02*
X13013153Y-18395775D01*
X13203629Y-18281489D02*
X13203629Y-18319584D01*
X13279820Y-18281489D02*
X13279820Y-18319584D01*
X13575058Y-18557679D02*
X13565534Y-18548155D01*
X13565534Y-18548155D02*
X13546486Y-18519584D01*
X13546486Y-18519584D02*
X13536963Y-18500536D01*
X13536963Y-18500536D02*
X13527439Y-18471965D01*
X13527439Y-18471965D02*
X13517915Y-18424346D01*
X13517915Y-18424346D02*
X13517915Y-18386251D01*
X13517915Y-18386251D02*
X13527439Y-18338632D01*
X13527439Y-18338632D02*
X13536963Y-18310060D01*
X13536963Y-18310060D02*
X13546486Y-18291013D01*
X13546486Y-18291013D02*
X13565534Y-18262441D01*
X13565534Y-18262441D02*
X13575058Y-18252917D01*
X13641724Y-18300536D02*
X13651248Y-18291013D01*
X13651248Y-18291013D02*
X13670296Y-18281489D01*
X13670296Y-18281489D02*
X13717915Y-18281489D01*
X13717915Y-18281489D02*
X13736963Y-18291013D01*
X13736963Y-18291013D02*
X13746486Y-18300536D01*
X13746486Y-18300536D02*
X13756010Y-18319584D01*
X13756010Y-18319584D02*
X13756010Y-18338632D01*
X13756010Y-18338632D02*
X13746486Y-18367203D01*
X13746486Y-18367203D02*
X13632201Y-18481489D01*
X13632201Y-18481489D02*
X13756010Y-18481489D01*
X13994105Y-18481489D02*
X13994105Y-18281489D01*
X14079820Y-18481489D02*
X14079820Y-18376727D01*
X14079820Y-18376727D02*
X14070296Y-18357679D01*
X14070296Y-18357679D02*
X14051248Y-18348155D01*
X14051248Y-18348155D02*
X14022677Y-18348155D01*
X14022677Y-18348155D02*
X14003629Y-18357679D01*
X14003629Y-18357679D02*
X13994105Y-18367203D01*
X14203629Y-18481489D02*
X14184582Y-18471965D01*
X14184582Y-18471965D02*
X14175058Y-18462441D01*
X14175058Y-18462441D02*
X14165534Y-18443394D01*
X14165534Y-18443394D02*
X14165534Y-18386251D01*
X14165534Y-18386251D02*
X14175058Y-18367203D01*
X14175058Y-18367203D02*
X14184582Y-18357679D01*
X14184582Y-18357679D02*
X14203629Y-18348155D01*
X14203629Y-18348155D02*
X14232201Y-18348155D01*
X14232201Y-18348155D02*
X14251248Y-18357679D01*
X14251248Y-18357679D02*
X14260772Y-18367203D01*
X14260772Y-18367203D02*
X14270296Y-18386251D01*
X14270296Y-18386251D02*
X14270296Y-18443394D01*
X14270296Y-18443394D02*
X14260772Y-18462441D01*
X14260772Y-18462441D02*
X14251248Y-18471965D01*
X14251248Y-18471965D02*
X14232201Y-18481489D01*
X14232201Y-18481489D02*
X14203629Y-18481489D01*
X14384582Y-18481489D02*
X14365534Y-18471965D01*
X14365534Y-18471965D02*
X14356010Y-18452917D01*
X14356010Y-18452917D02*
X14356010Y-18281489D01*
X14536963Y-18471965D02*
X14517915Y-18481489D01*
X14517915Y-18481489D02*
X14479820Y-18481489D01*
X14479820Y-18481489D02*
X14460772Y-18471965D01*
X14460772Y-18471965D02*
X14451248Y-18452917D01*
X14451248Y-18452917D02*
X14451248Y-18376727D01*
X14451248Y-18376727D02*
X14460772Y-18357679D01*
X14460772Y-18357679D02*
X14479820Y-18348155D01*
X14479820Y-18348155D02*
X14517915Y-18348155D01*
X14517915Y-18348155D02*
X14536963Y-18357679D01*
X14536963Y-18357679D02*
X14546486Y-18376727D01*
X14546486Y-18376727D02*
X14546486Y-18395775D01*
X14546486Y-18395775D02*
X14451248Y-18414822D01*
X14622677Y-18471965D02*
X14641725Y-18481489D01*
X14641725Y-18481489D02*
X14679820Y-18481489D01*
X14679820Y-18481489D02*
X14698867Y-18471965D01*
X14698867Y-18471965D02*
X14708391Y-18452917D01*
X14708391Y-18452917D02*
X14708391Y-18443394D01*
X14708391Y-18443394D02*
X14698867Y-18424346D01*
X14698867Y-18424346D02*
X14679820Y-18414822D01*
X14679820Y-18414822D02*
X14651248Y-18414822D01*
X14651248Y-18414822D02*
X14632201Y-18405298D01*
X14632201Y-18405298D02*
X14622677Y-18386251D01*
X14622677Y-18386251D02*
X14622677Y-18376727D01*
X14622677Y-18376727D02*
X14632201Y-18357679D01*
X14632201Y-18357679D02*
X14651248Y-18348155D01*
X14651248Y-18348155D02*
X14679820Y-18348155D01*
X14679820Y-18348155D02*
X14698867Y-18357679D01*
X14775058Y-18557679D02*
X14784582Y-18548155D01*
X14784582Y-18548155D02*
X14803629Y-18519584D01*
X14803629Y-18519584D02*
X14813153Y-18500536D01*
X14813153Y-18500536D02*
X14822677Y-18471965D01*
X14822677Y-18471965D02*
X14832201Y-18424346D01*
X14832201Y-18424346D02*
X14832201Y-18386251D01*
X14832201Y-18386251D02*
X14822677Y-18338632D01*
X14822677Y-18338632D02*
X14813153Y-18310060D01*
X14813153Y-18310060D02*
X14803629Y-18291013D01*
X14803629Y-18291013D02*
X14784582Y-18262441D01*
X14784582Y-18262441D02*
X14775058Y-18252917D01*
M02*
