%TF.GenerationSoftware,KiCad,Pcbnew,8.0.2*%
%TF.CreationDate,2025-12-07T10:49:54+01:00*%
%TF.ProjectId,Helios,48656c69-6f73-42e6-9b69-6361645f7063,rev?*%
%TF.SameCoordinates,Original*%
%TF.FileFunction,Soldermask,Top*%
%TF.FilePolarity,Negative*%
%FSLAX46Y46*%
G04 Gerber Fmt 4.6, Leading zero omitted, Abs format (unit mm)*
G04 Created by KiCad (PCBNEW 8.0.2) date 2025-12-07 10:49:54*
%MOMM*%
%LPD*%
G01*
G04 APERTURE LIST*
G04 Aperture macros list*
%AMRotRect*
0 Rectangle, with rotation*
0 The origin of the aperture is its center*
0 $1 length*
0 $2 width*
0 $3 Rotation angle, in degrees counterclockwise*
0 Add horizontal line*
21,1,$1,$2,0,0,$3*%
G04 Aperture macros list end*
%ADD10C,2.700000*%
%ADD11C,1.900000*%
%ADD12C,1.506220*%
%ADD13R,0.900000X0.500000*%
%ADD14R,3.657600X2.032000*%
%ADD15R,1.016000X2.032000*%
%ADD16R,0.500000X0.600000*%
%ADD17R,0.600000X0.500000*%
%ADD18R,0.797560X0.797560*%
%ADD19R,1.700000X0.900000*%
%ADD20R,0.500000X0.900000*%
%ADD21C,1.524000*%
%ADD22C,2.700020*%
%ADD23C,3.810000*%
%ADD24R,1.524000X1.524000*%
%ADD25R,0.550000X0.800000*%
%ADD26R,0.800100X0.800100*%
%ADD27R,1.400000X0.300000*%
%ADD28R,0.450000X1.450000*%
%ADD29R,1.550000X0.600000*%
%ADD30R,0.250000X1.000000*%
%ADD31R,1.000000X0.250000*%
%ADD32RotRect,5.600700X2.100580X135.000000*%
%ADD33R,2.600960X1.600200*%
%ADD34R,1.600200X2.600960*%
G04 APERTURE END LIST*
D10*
%TO.C,H4*%
X161000000Y-156400000D03*
%TD*%
%TO.C,H3*%
X104000000Y-104400000D03*
%TD*%
%TO.C,H2*%
X104000000Y-156400000D03*
%TD*%
%TO.C,H1*%
X161000000Y-104400000D03*
%TD*%
D11*
%TO.C,U4*%
X143890000Y-108400000D03*
X141350000Y-108400000D03*
X138810000Y-108400000D03*
X131190000Y-108400000D03*
X128650000Y-108400000D03*
%TD*%
D12*
%TO.C,ERASE1*%
X122650000Y-129470000D03*
X122650000Y-126930000D03*
%TD*%
D13*
%TO.C,R32*%
X150800000Y-126550000D03*
X150800000Y-128050000D03*
%TD*%
D14*
%TO.C,U2*%
X121800000Y-122002000D03*
D15*
X121800000Y-115398000D03*
X119514000Y-115398000D03*
X124086000Y-115398000D03*
%TD*%
D16*
%TO.C,C2*%
X107400000Y-122150000D03*
X107400000Y-121050000D03*
%TD*%
%TO.C,C3*%
X114700000Y-114050000D03*
X114700000Y-112950000D03*
%TD*%
%TO.C,C7*%
X125700000Y-111050000D03*
X125700000Y-109950000D03*
%TD*%
%TO.C,C10*%
X145000000Y-142650000D03*
X145000000Y-143750000D03*
%TD*%
%TO.C,C12*%
X138700000Y-138050000D03*
X138700000Y-139150000D03*
%TD*%
%TO.C,C13*%
X154400000Y-145600000D03*
X154400000Y-144500000D03*
%TD*%
%TO.C,C14*%
X155050000Y-133900000D03*
X155050000Y-135000000D03*
%TD*%
%TO.C,C15*%
X153300000Y-117750000D03*
X153300000Y-116650000D03*
%TD*%
D17*
%TO.C,C16*%
X140150000Y-129000000D03*
X141250000Y-129000000D03*
%TD*%
%TO.C,C17*%
X151800000Y-125000000D03*
X150700000Y-125000000D03*
%TD*%
D16*
%TO.C,C18*%
X153300000Y-105950000D03*
X153300000Y-107050000D03*
%TD*%
D17*
%TO.C,C19*%
X135550000Y-138800000D03*
X136650000Y-138800000D03*
%TD*%
D16*
%TO.C,C20*%
X120900000Y-136750000D03*
X120900000Y-135650000D03*
%TD*%
D17*
%TO.C,C21*%
X126050000Y-131200000D03*
X124950000Y-131200000D03*
%TD*%
D16*
%TO.C,C22*%
X129900000Y-145750000D03*
X129900000Y-146850000D03*
%TD*%
D17*
%TO.C,C25*%
X120850000Y-139500000D03*
X119750000Y-139500000D03*
%TD*%
D16*
%TO.C,C26*%
X127200000Y-145750000D03*
X127200000Y-146850000D03*
%TD*%
%TO.C,C27*%
X135500000Y-141850000D03*
X135500000Y-142950000D03*
%TD*%
%TO.C,C28*%
X121000000Y-143250000D03*
X121000000Y-144350000D03*
%TD*%
%TO.C,C29*%
X119400000Y-142750000D03*
X119400000Y-141650000D03*
%TD*%
D17*
%TO.C,C31*%
X117450000Y-140300000D03*
X116350000Y-140300000D03*
%TD*%
%TO.C,C32*%
X124250000Y-145800000D03*
X125350000Y-145800000D03*
%TD*%
D18*
%TO.C,D1*%
X101100000Y-121749300D03*
X101100000Y-120250700D03*
%TD*%
%TO.C,D2*%
X101100000Y-140250700D03*
X101100000Y-141749300D03*
%TD*%
D19*
%TO.C,F1*%
X112200000Y-121800000D03*
X112200000Y-118900000D03*
%TD*%
D13*
%TO.C,L1*%
X112800000Y-115850000D03*
X112800000Y-114350000D03*
%TD*%
D20*
%TO.C,L2*%
X122250000Y-112100000D03*
X123750000Y-112100000D03*
%TD*%
D13*
%TO.C,L3*%
X128750000Y-148450000D03*
X128750000Y-149950000D03*
%TD*%
D21*
%TO.C,P1*%
X113750000Y-129710000D03*
X113750000Y-132250000D03*
X111751020Y-132250000D03*
X111751020Y-129710000D03*
D22*
X109051000Y-124980520D03*
X109051000Y-136979480D03*
%TD*%
D23*
%TO.C,P2*%
X167000000Y-154500000D03*
X167000000Y-107400000D03*
D24*
X165580000Y-114340000D03*
D21*
X165580000Y-117134000D03*
X165580000Y-119801000D03*
X165580000Y-122595000D03*
X165580000Y-125389000D03*
X165580000Y-128183000D03*
X165580000Y-130850000D03*
X165580000Y-133644000D03*
X165580000Y-136438000D03*
X165580000Y-139232000D03*
X165580000Y-141899000D03*
X165580000Y-144693000D03*
X165580000Y-147487000D03*
X168420000Y-115914800D03*
X168420000Y-118454800D03*
X168420000Y-121248800D03*
X168420000Y-123992000D03*
X168420000Y-126735200D03*
X168420000Y-129529200D03*
X168420000Y-132272400D03*
X168420000Y-135015600D03*
X168420000Y-137860400D03*
X168420000Y-140552800D03*
X168420000Y-143296000D03*
X168420000Y-146090000D03*
%TD*%
D20*
%TO.C,R1*%
X117850000Y-136500000D03*
X119350000Y-136500000D03*
%TD*%
%TO.C,R2*%
X118350000Y-134800000D03*
X116850000Y-134800000D03*
%TD*%
%TO.C,R3*%
X162850000Y-113100000D03*
X161350000Y-113100000D03*
%TD*%
%TO.C,R4*%
X162850000Y-114800000D03*
X161350000Y-114800000D03*
%TD*%
%TO.C,R5*%
X161450000Y-118000000D03*
X159950000Y-118000000D03*
%TD*%
%TO.C,R6*%
X161450000Y-119700000D03*
X159950000Y-119700000D03*
%TD*%
D13*
%TO.C,R7*%
X161700000Y-122050000D03*
X161700000Y-123550000D03*
%TD*%
D20*
%TO.C,R8*%
X162750000Y-126000000D03*
X161250000Y-126000000D03*
%TD*%
%TO.C,R9*%
X162750000Y-127800000D03*
X161250000Y-127800000D03*
%TD*%
%TO.C,R10*%
X162750000Y-131000000D03*
X161250000Y-131000000D03*
%TD*%
D13*
%TO.C,R11*%
X162300000Y-147550000D03*
X162300000Y-146050000D03*
%TD*%
D20*
%TO.C,R12*%
X133750000Y-130400000D03*
X135250000Y-130400000D03*
%TD*%
%TO.C,R13*%
X133750000Y-128600000D03*
X135250000Y-128600000D03*
%TD*%
%TO.C,R14*%
X139850000Y-127400000D03*
X141350000Y-127400000D03*
%TD*%
%TO.C,R15*%
X141350000Y-125600000D03*
X139850000Y-125600000D03*
%TD*%
%TO.C,R16*%
X150750000Y-137500000D03*
X149250000Y-137500000D03*
%TD*%
%TO.C,R17*%
X150750000Y-140900000D03*
X149250000Y-140900000D03*
%TD*%
D13*
%TO.C,R18*%
X152700000Y-135050000D03*
X152700000Y-133550000D03*
%TD*%
%TO.C,R19*%
X156400000Y-144450000D03*
X156400000Y-145950000D03*
%TD*%
%TO.C,R20*%
X150300000Y-135050000D03*
X150300000Y-133550000D03*
%TD*%
%TO.C,R21*%
X158400000Y-142450000D03*
X158400000Y-143950000D03*
%TD*%
%TO.C,R22*%
X143200000Y-123450000D03*
X143200000Y-121950000D03*
%TD*%
%TO.C,R23*%
X145100000Y-121950000D03*
X145100000Y-123450000D03*
%TD*%
D20*
%TO.C,R24*%
X150750000Y-139200000D03*
X149250000Y-139200000D03*
%TD*%
%TO.C,R25*%
X150750000Y-142600000D03*
X149250000Y-142600000D03*
%TD*%
D13*
%TO.C,R26*%
X152700000Y-144550000D03*
X152700000Y-146050000D03*
%TD*%
%TO.C,R27*%
X156650000Y-135050000D03*
X156650000Y-133550000D03*
%TD*%
%TO.C,R28*%
X150900000Y-144550000D03*
X150900000Y-146050000D03*
%TD*%
%TO.C,R29*%
X158450000Y-136450000D03*
X158450000Y-134950000D03*
%TD*%
%TO.C,R30*%
X148400000Y-130550000D03*
X148400000Y-132050000D03*
%TD*%
%TO.C,R31*%
X150800000Y-130750000D03*
X150800000Y-129250000D03*
%TD*%
%TO.C,R33*%
X149300000Y-114650000D03*
X149300000Y-113150000D03*
%TD*%
D20*
%TO.C,R34*%
X149750000Y-109900000D03*
X148250000Y-109900000D03*
%TD*%
%TO.C,R35*%
X149750000Y-111600000D03*
X148250000Y-111600000D03*
%TD*%
D13*
%TO.C,R36*%
X151700000Y-118550000D03*
X151700000Y-120050000D03*
%TD*%
D20*
%TO.C,R37*%
X156350000Y-106900000D03*
X154850000Y-106900000D03*
%TD*%
%TO.C,R38*%
X150350000Y-116900000D03*
X151850000Y-116900000D03*
%TD*%
D13*
%TO.C,R39*%
X157100000Y-111050000D03*
X157100000Y-109550000D03*
%TD*%
%TO.C,R40*%
X156700000Y-116950000D03*
X156700000Y-118450000D03*
%TD*%
%TO.C,R41*%
X151700000Y-107150000D03*
X151700000Y-105650000D03*
%TD*%
%TO.C,R42*%
X154900000Y-117050000D03*
X154900000Y-118550000D03*
%TD*%
%TO.C,R43*%
X158900000Y-112350000D03*
X158900000Y-110850000D03*
%TD*%
%TO.C,R44*%
X157100000Y-114150000D03*
X157100000Y-115650000D03*
%TD*%
D20*
%TO.C,R45*%
X110650000Y-153550000D03*
X109150000Y-153550000D03*
%TD*%
%TO.C,R46*%
X110650000Y-151700000D03*
X109150000Y-151700000D03*
%TD*%
%TO.C,R47*%
X106700000Y-147300000D03*
X105200000Y-147300000D03*
%TD*%
%TO.C,R48*%
X106700000Y-145500000D03*
X105200000Y-145500000D03*
%TD*%
D25*
%TO.C,U1*%
X117100000Y-129300000D03*
X118050000Y-129300000D03*
X119000000Y-129300000D03*
X119000000Y-131700000D03*
X118050000Y-131700000D03*
X117100000Y-131700000D03*
%TD*%
D26*
%TO.C,U3*%
X136799240Y-132250000D03*
X136799240Y-134150000D03*
X138798220Y-133200000D03*
%TD*%
D27*
%TO.C,U5*%
X144800000Y-141000000D03*
X144800000Y-140500000D03*
X144800000Y-140000000D03*
X144800000Y-139500000D03*
X144800000Y-139000000D03*
X140400000Y-139000000D03*
X140400000Y-139500000D03*
X140400000Y-140000000D03*
X140400000Y-140500000D03*
X140400000Y-141000000D03*
%TD*%
D28*
%TO.C,U6*%
X152450000Y-142700000D03*
X153100000Y-142700000D03*
X153750000Y-142700000D03*
X154400000Y-142700000D03*
X155050000Y-142700000D03*
X155700000Y-142700000D03*
X156350000Y-142700000D03*
X156350000Y-136800000D03*
X155700000Y-136800000D03*
X155050000Y-136800000D03*
X154400000Y-136800000D03*
X153750000Y-136800000D03*
X153100000Y-136800000D03*
X152450000Y-136800000D03*
%TD*%
D29*
%TO.C,U7*%
X143250000Y-125045000D03*
X143250000Y-126315000D03*
X143250000Y-127585000D03*
X143250000Y-128855000D03*
X148400000Y-128855000D03*
X148400000Y-127585000D03*
X148400000Y-126315000D03*
X148400000Y-125045000D03*
%TD*%
D28*
%TO.C,U8*%
X151350000Y-114850000D03*
X152000000Y-114850000D03*
X152650000Y-114850000D03*
X153300000Y-114850000D03*
X153950000Y-114850000D03*
X154600000Y-114850000D03*
X155250000Y-114850000D03*
X155250000Y-108950000D03*
X154600000Y-108950000D03*
X153950000Y-108950000D03*
X153300000Y-108950000D03*
X152650000Y-108950000D03*
X152000000Y-108950000D03*
X151350000Y-108950000D03*
%TD*%
D30*
%TO.C,U9*%
X124450000Y-144200000D03*
X124950000Y-144200000D03*
X125450000Y-144200000D03*
X125950000Y-144200000D03*
X126450000Y-144200000D03*
X126950000Y-144200000D03*
X127450000Y-144200000D03*
X127950000Y-144200000D03*
X128450000Y-144200000D03*
X128950000Y-144200000D03*
X129450000Y-144200000D03*
X129950000Y-144200000D03*
X130450000Y-144200000D03*
X130950000Y-144200000D03*
X131450000Y-144200000D03*
X131950000Y-144200000D03*
D31*
X133900000Y-142250000D03*
X133900000Y-141750000D03*
X133900000Y-141250000D03*
X133900000Y-140750000D03*
X133900000Y-140250000D03*
X133900000Y-139750000D03*
X133900000Y-139250000D03*
X133900000Y-138750000D03*
X133900000Y-138250000D03*
X133900000Y-137750000D03*
X133900000Y-137250000D03*
X133900000Y-136750000D03*
X133900000Y-136250000D03*
X133900000Y-135750000D03*
X133900000Y-135250000D03*
X133900000Y-134750000D03*
D30*
X131950000Y-132800000D03*
X131450000Y-132800000D03*
X130950000Y-132800000D03*
X130450000Y-132800000D03*
X129950000Y-132800000D03*
X129450000Y-132800000D03*
X128950000Y-132800000D03*
X128450000Y-132800000D03*
X127950000Y-132800000D03*
X127450000Y-132800000D03*
X126950000Y-132800000D03*
X126450000Y-132800000D03*
X125950000Y-132800000D03*
X125450000Y-132800000D03*
X124950000Y-132800000D03*
X124450000Y-132800000D03*
D31*
X122500000Y-134750000D03*
X122500000Y-135250000D03*
X122500000Y-135750000D03*
X122500000Y-136250000D03*
X122500000Y-136750000D03*
X122500000Y-137250000D03*
X122500000Y-137750000D03*
X122500000Y-138250000D03*
X122500000Y-138750000D03*
X122500000Y-139250000D03*
X122500000Y-139750000D03*
X122500000Y-140250000D03*
X122500000Y-140750000D03*
X122500000Y-141250000D03*
X122500000Y-141750000D03*
X122500000Y-142250000D03*
%TD*%
D32*
%TO.C,Y1*%
X118978662Y-148328662D03*
X112121338Y-141471338D03*
%TD*%
D33*
%TO.C,C1*%
X109200860Y-115500000D03*
X105599140Y-115500000D03*
%TD*%
D34*
%TO.C,C4*%
X110900000Y-110800860D03*
X110900000Y-107199140D03*
%TD*%
%TO.C,C6*%
X118700000Y-112100860D03*
X118700000Y-108499140D03*
%TD*%
D33*
%TO.C,C8*%
X140900860Y-117800000D03*
X137299140Y-117800000D03*
%TD*%
%TO.C,C9*%
X132700860Y-117800000D03*
X129099140Y-117800000D03*
%TD*%
D34*
%TO.C,C11*%
X143750000Y-136400860D03*
X143750000Y-132799140D03*
%TD*%
%TO.C,C23*%
X126700000Y-127050860D03*
X126700000Y-123449140D03*
%TD*%
%TO.C,C24*%
X132450000Y-149449140D03*
X132450000Y-153050860D03*
%TD*%
%TO.C,C30*%
X125150000Y-149549140D03*
X125150000Y-153150860D03*
%TD*%
M02*
