%TF.GenerationSoftware,KiCad,Pcbnew,8.0.2*%
%TF.CreationDate,2025-12-07T10:49:54+01:00*%
%TF.ProjectId,Helios,48656c69-6f73-42e6-9b69-6361645f7063,rev?*%
%TF.SameCoordinates,Original*%
%TF.FileFunction,Copper,L2,Bot*%
%TF.FilePolarity,Positive*%
%FSLAX46Y46*%
G04 Gerber Fmt 4.6, Leading zero omitted, Abs format (unit mm)*
G04 Created by KiCad (PCBNEW 8.0.2) date 2025-12-07 10:49:54*
%MOMM*%
%LPD*%
G01*
G04 APERTURE LIST*
%TA.AperFunction,ComponentPad*%
%ADD10C,1.900000*%
%TD*%
%TA.AperFunction,ComponentPad*%
%ADD11C,1.506220*%
%TD*%
%TA.AperFunction,ComponentPad*%
%ADD12C,1.524000*%
%TD*%
%TA.AperFunction,ComponentPad*%
%ADD13C,2.700020*%
%TD*%
%TA.AperFunction,ComponentPad*%
%ADD14C,3.810000*%
%TD*%
%TA.AperFunction,ComponentPad*%
%ADD15R,1.524000X1.524000*%
%TD*%
%TA.AperFunction,ViaPad*%
%ADD16C,0.600000*%
%TD*%
%TA.AperFunction,Conductor*%
%ADD17C,0.250000*%
%TD*%
%TA.AperFunction,Conductor*%
%ADD18C,0.500000*%
%TD*%
G04 APERTURE END LIST*
D10*
%TO.P,U4,7,Vout+*%
%TO.N,/+9V*%
X143890000Y-108400000D03*
%TO.P,U4,6,Vout0*%
%TO.N,GND*%
X141350000Y-108400000D03*
%TO.P,U4,5,Vout-*%
%TO.N,/-9V*%
X138810000Y-108400000D03*
%TO.P,U4,2,GND*%
%TO.N,GND*%
X131190000Y-108400000D03*
%TO.P,U4,1,Vin*%
%TO.N,Net-(U4-Vin)*%
X128650000Y-108400000D03*
%TD*%
D11*
%TO.P,ERASE1,1,P1*%
%TO.N,/Microcontroller/ERASE*%
X122650000Y-129470000D03*
%TO.P,ERASE1,2,P2*%
%TO.N,/3.3V*%
X122650000Y-126930000D03*
%TD*%
D12*
%TO.P,P1,2,D-*%
%TO.N,/D-*%
X113750000Y-129710000D03*
%TO.P,P1,1,VCC*%
%TO.N,Net-(P1-VCC)*%
X113750000Y-132250000D03*
%TO.P,P1,4,GND*%
%TO.N,GND*%
X111751020Y-132250000D03*
%TO.P,P1,3,D+*%
%TO.N,/D+*%
X111751020Y-129710000D03*
D13*
%TO.P,P1,5,shield*%
%TO.N,Net-(P1-shield)*%
X109051000Y-124980520D03*
X109051000Y-136979480D03*
%TD*%
D14*
%TO.P,P2,26,Shield*%
%TO.N,GND*%
X167000000Y-154500000D03*
X167000000Y-107400000D03*
D15*
%TO.P,P2,1,P1*%
%TO.N,Net-(P2-P1)*%
X165580000Y-114340000D03*
D12*
%TO.P,P2,2,P2*%
%TO.N,Net-(P2-P2)*%
X165580000Y-117134000D03*
%TO.P,P2,3,P3*%
%TO.N,Net-(P2-P3)*%
X165580000Y-119801000D03*
%TO.P,P2,4,P4*%
%TO.N,/Interlock*%
X165580000Y-122595000D03*
%TO.P,P2,5,P5*%
%TO.N,Net-(P2-P5)*%
X165580000Y-125389000D03*
%TO.P,P2,6,P6*%
%TO.N,Net-(P2-P6)*%
X165580000Y-128183000D03*
%TO.P,P2,7,P7*%
%TO.N,Net-(P2-P7)*%
X165580000Y-130850000D03*
%TO.P,P2,8,P8*%
%TO.N,GND*%
X165580000Y-133644000D03*
%TO.P,P2,9,P9*%
X165580000Y-136438000D03*
%TO.P,P2,10,P10*%
X165580000Y-139232000D03*
%TO.P,P2,11,P11*%
X165580000Y-141899000D03*
%TO.P,P2,12,P12*%
%TO.N,/ProjReturn*%
X165580000Y-144693000D03*
%TO.P,P2,13,P13*%
%TO.N,Net-(P2-P13)*%
X165580000Y-147487000D03*
%TO.P,P2,14,P14*%
%TO.N,Net-(P2-P14)*%
X168420000Y-115914800D03*
%TO.P,P2,15,P15*%
%TO.N,Net-(P2-P15)*%
X168420000Y-118454800D03*
%TO.P,P2,16,P16*%
%TO.N,GND*%
X168420000Y-121248800D03*
%TO.P,P2,17,P17*%
%TO.N,/Interlock*%
X168420000Y-123992000D03*
%TO.P,P2,18,P18*%
%TO.N,GND*%
X168420000Y-126735200D03*
%TO.P,P2,19,P19*%
X168420000Y-129529200D03*
%TO.P,P2,20,P20*%
X168420000Y-132272400D03*
%TO.P,P2,21,P21*%
X168420000Y-135015600D03*
%TO.P,P2,22,P22*%
X168420000Y-137860400D03*
%TO.P,P2,23,P23*%
X168420000Y-140552800D03*
%TO.P,P2,24,P24*%
X168420000Y-143296000D03*
%TO.P,P2,25,P25*%
X168420000Y-146090000D03*
%TD*%
D16*
%TO.N,GND*%
X128000000Y-131600000D03*
X129100000Y-119100000D03*
X129300000Y-116600000D03*
X140000000Y-119200000D03*
X142900000Y-117100000D03*
X171800000Y-114100000D03*
X171900000Y-121100000D03*
X172300000Y-129100000D03*
X172000000Y-135300000D03*
X171800000Y-142200000D03*
X168700000Y-150000000D03*
X161000000Y-150400000D03*
X148800000Y-151300000D03*
X153400000Y-146500000D03*
X154600000Y-146300000D03*
X156400000Y-146500000D03*
X156600000Y-132900000D03*
X155100000Y-133300000D03*
X152700000Y-133000000D03*
X106600000Y-116950000D03*
X112500000Y-107600000D03*
X117100000Y-108800000D03*
X128250000Y-124650000D03*
X126700000Y-121550000D03*
X131000000Y-153000000D03*
X123700000Y-153050000D03*
X142300000Y-132800000D03*
X140950000Y-138300000D03*
X123700000Y-140550000D03*
X118050000Y-132700000D03*
X149900000Y-130300000D03*
X152700000Y-124850000D03*
X153800000Y-118500000D03*
X152850000Y-105050000D03*
X120050000Y-141250000D03*
X116550000Y-139500000D03*
X118650000Y-139300000D03*
X139050000Y-134150000D03*
X138450000Y-137200000D03*
X136650000Y-138000000D03*
X136350000Y-142900000D03*
X126400000Y-146250000D03*
X129050000Y-146700000D03*
X102350000Y-141900000D03*
X123700000Y-117100000D03*
X124900000Y-130300000D03*
X144100000Y-143750000D03*
X139250000Y-129100000D03*
X146300000Y-123450000D03*
X139000000Y-125600000D03*
X124850000Y-110000000D03*
X115500000Y-112700000D03*
X101650000Y-119300000D03*
X120900000Y-135000000D03*
X108100000Y-121100000D03*
%TO.N,/Microcontroller/VDDOUT*%
X123650000Y-137250000D03*
X126950000Y-137300000D03*
X127950000Y-141400000D03*
X129300000Y-142600000D03*
X132600000Y-140200000D03*
X131350000Y-141350000D03*
%TO.N,*%
X152500000Y-110300000D03*
X154900000Y-110900000D03*
X150700000Y-134100000D03*
X152400000Y-134500000D03*
%TO.N,/+9V*%
X145700000Y-113900000D03*
X148000000Y-114000000D03*
X156850000Y-124600000D03*
X159550000Y-127250000D03*
X155450000Y-140500000D03*
X154400000Y-141500000D03*
%TO.N,/-9V*%
X137200000Y-122200000D03*
X138800000Y-123800000D03*
X152850000Y-131550000D03*
X154150000Y-132450000D03*
%TO.N,/3.3V*%
X130900000Y-129300000D03*
X128100000Y-129000000D03*
%TO.N,/2.5V*%
X134350000Y-148050000D03*
X136400000Y-146050000D03*
X136400000Y-128700000D03*
X137400000Y-127600000D03*
%TO.N,/+X*%
X151400000Y-110300000D03*
X154100000Y-111700000D03*
%TO.N,/+G*%
X160550000Y-137350000D03*
X158650000Y-137400000D03*
%TO.N,/X*%
X129200000Y-131500000D03*
X129000000Y-134950000D03*
%TO.N,/Y*%
X130200000Y-131200000D03*
X130050000Y-134950000D03*
X149250000Y-118900000D03*
X146300000Y-118750000D03*
%TO.N,/!SYNC*%
X137700000Y-139000000D03*
X138800000Y-140700000D03*
%TD*%
D17*
%TO.N,/!SYNC*%
X138800000Y-140100000D02*
X138800000Y-140700000D01*
X137700000Y-139000000D02*
X138800000Y-140100000D01*
%TO.N,/X*%
X129200000Y-134750000D02*
X129000000Y-134950000D01*
X129200000Y-131500000D02*
X129200000Y-134750000D01*
D18*
%TO.N,/3.3V*%
X128100000Y-129000000D02*
X128400000Y-129300000D01*
X128400000Y-129300000D02*
X130900000Y-129300000D01*
%TO.N,/+9V*%
X147900000Y-113900000D02*
X148000000Y-114000000D01*
X145700000Y-113900000D02*
X147900000Y-113900000D01*
D17*
%TO.N,GND*%
X167000000Y-107400000D02*
X167000000Y-109300000D01*
X167000000Y-109300000D02*
X171800000Y-114100000D01*
X171900000Y-121100000D02*
X172300000Y-121500000D01*
X172300000Y-121500000D02*
X172300000Y-129100000D01*
X172000000Y-135300000D02*
X171800000Y-135500000D01*
X171800000Y-135500000D02*
X171800000Y-142200000D01*
X168700000Y-150000000D02*
X168300000Y-150400000D01*
X168300000Y-150400000D02*
X161000000Y-150400000D01*
X116550000Y-139500000D02*
X116550000Y-139450000D01*
X126400000Y-146250000D02*
X126350000Y-146250000D01*
X123700000Y-117100000D02*
X123550000Y-117250000D01*
D18*
%TO.N,Net-(P1-shield)*%
X109051000Y-124980520D02*
X109051000Y-136979480D01*
D17*
%TO.N,/Microcontroller/VDDOUT*%
X123650000Y-137250000D02*
X123700000Y-137300000D01*
X123700000Y-137300000D02*
X126950000Y-137300000D01*
X128100000Y-141400000D02*
X127950000Y-141400000D01*
X129300000Y-142600000D02*
X128100000Y-141400000D01*
X132600000Y-140200000D02*
X131450000Y-141350000D01*
X131450000Y-141350000D02*
X131350000Y-141350000D01*
%TO.N,*%
X154300000Y-110300000D02*
X152500000Y-110300000D01*
X154900000Y-110900000D02*
X154300000Y-110300000D01*
X152000000Y-134100000D02*
X150700000Y-134100000D01*
X152400000Y-134500000D02*
X152000000Y-134100000D01*
%TO.N,/+9V*%
X156900000Y-124600000D02*
X156850000Y-124600000D01*
X159550000Y-127250000D02*
X156900000Y-124600000D01*
X155400000Y-140500000D02*
X155450000Y-140500000D01*
X154400000Y-141500000D02*
X155400000Y-140500000D01*
%TO.N,/-9V*%
X137200000Y-122200000D02*
X138800000Y-123800000D01*
X152850000Y-131550000D02*
X153750000Y-132450000D01*
X153750000Y-132450000D02*
X154150000Y-132450000D01*
%TO.N,/2.5V*%
X134350000Y-148050000D02*
X136350000Y-146050000D01*
X136350000Y-146050000D02*
X136400000Y-146050000D01*
X136400000Y-128600000D02*
X136400000Y-128700000D01*
X137400000Y-127600000D02*
X136400000Y-128600000D01*
%TO.N,/+X*%
X152300000Y-111200000D02*
X151400000Y-110300000D01*
X153600000Y-111200000D02*
X152300000Y-111200000D01*
X154100000Y-111700000D02*
X153600000Y-111200000D01*
%TO.N,/+G*%
X158700000Y-137350000D02*
X160550000Y-137350000D01*
X158650000Y-137400000D02*
X158700000Y-137350000D01*
%TO.N,/Y*%
X149250000Y-118900000D02*
X149100000Y-118750000D01*
X149100000Y-118750000D02*
X146300000Y-118750000D01*
X130000000Y-131250000D02*
X130050000Y-134950000D01*
%TD*%
%TA.AperFunction,Conductor*%
%TO.N,GND*%
G36*
X112794542Y-130567402D02*
G01*
X112839605Y-130596363D01*
X112930219Y-130686977D01*
X112930223Y-130686980D01*
X112930227Y-130686983D01*
X113029786Y-130756695D01*
X113112323Y-130814488D01*
X113218260Y-130863887D01*
X113222373Y-130865805D01*
X113275658Y-130912722D01*
X113295119Y-130980999D01*
X113274577Y-131048959D01*
X113222373Y-131094195D01*
X113112323Y-131145512D01*
X112930222Y-131273020D01*
X112930216Y-131273025D01*
X112773025Y-131430216D01*
X112773020Y-131430222D01*
X112645510Y-131612325D01*
X112565433Y-131784049D01*
X112540335Y-131819893D01*
X112157420Y-132202808D01*
X112157420Y-132196496D01*
X112129725Y-132093135D01*
X112076221Y-132000464D01*
X112000556Y-131924799D01*
X111907885Y-131871295D01*
X111804524Y-131843600D01*
X111798210Y-131843600D01*
X112451623Y-131190185D01*
X112451623Y-131190184D01*
X112388445Y-131145946D01*
X112388440Y-131145943D01*
X112278054Y-131094469D01*
X112224770Y-131047552D01*
X112205309Y-130979275D01*
X112225851Y-130911315D01*
X112278054Y-130866081D01*
X112383400Y-130816958D01*
X112388691Y-130814491D01*
X112388692Y-130814490D01*
X112388697Y-130814488D01*
X112570801Y-130686977D01*
X112661415Y-130596363D01*
X112723727Y-130562337D01*
X112794542Y-130567402D01*
G37*
%TD.AperFunction*%
%TA.AperFunction,Conductor*%
G36*
X174542121Y-100520002D02*
G01*
X174588614Y-100573658D01*
X174600000Y-100626000D01*
X174600000Y-160474000D01*
X174579998Y-160542121D01*
X174526342Y-160588614D01*
X174474000Y-160600000D01*
X100626000Y-160600000D01*
X100557879Y-160579998D01*
X100511386Y-160526342D01*
X100500000Y-160474000D01*
X100500000Y-156274038D01*
X102399500Y-156274038D01*
X102399500Y-156525962D01*
X102438910Y-156774785D01*
X102438911Y-156774790D01*
X102516757Y-157014374D01*
X102516759Y-157014379D01*
X102631130Y-157238845D01*
X102779207Y-157442656D01*
X102779209Y-157442658D01*
X102779211Y-157442661D01*
X102957338Y-157620788D01*
X102957341Y-157620790D01*
X102957344Y-157620793D01*
X103161155Y-157768870D01*
X103385621Y-157883241D01*
X103625215Y-157961090D01*
X103874038Y-158000500D01*
X103874041Y-158000500D01*
X104125959Y-158000500D01*
X104125962Y-158000500D01*
X104374785Y-157961090D01*
X104614379Y-157883241D01*
X104838845Y-157768870D01*
X105042656Y-157620793D01*
X105220793Y-157442656D01*
X105368870Y-157238845D01*
X105483241Y-157014379D01*
X105561090Y-156774785D01*
X105600500Y-156525962D01*
X105600500Y-156274038D01*
X159399500Y-156274038D01*
X159399500Y-156525962D01*
X159438910Y-156774785D01*
X159438911Y-156774790D01*
X159516757Y-157014374D01*
X159516759Y-157014379D01*
X159631130Y-157238845D01*
X159779207Y-157442656D01*
X159779209Y-157442658D01*
X159779211Y-157442661D01*
X159957338Y-157620788D01*
X159957341Y-157620790D01*
X159957344Y-157620793D01*
X160161155Y-157768870D01*
X160385621Y-157883241D01*
X160625215Y-157961090D01*
X160874038Y-158000500D01*
X160874041Y-158000500D01*
X161125959Y-158000500D01*
X161125962Y-158000500D01*
X161374785Y-157961090D01*
X161614379Y-157883241D01*
X161838845Y-157768870D01*
X162042656Y-157620793D01*
X162220793Y-157442656D01*
X162368870Y-157238845D01*
X162483241Y-157014379D01*
X162561090Y-156774785D01*
X162600500Y-156525962D01*
X162600500Y-156274038D01*
X162561090Y-156025215D01*
X162483241Y-155785621D01*
X162368870Y-155561155D01*
X162220793Y-155357344D01*
X162220790Y-155357341D01*
X162220788Y-155357338D01*
X162042661Y-155179211D01*
X162042658Y-155179209D01*
X162042656Y-155179207D01*
X161838845Y-155031130D01*
X161614379Y-154916759D01*
X161614376Y-154916758D01*
X161614374Y-154916757D01*
X161374790Y-154838911D01*
X161374786Y-154838910D01*
X161374785Y-154838910D01*
X161125962Y-154799500D01*
X160874038Y-154799500D01*
X160625215Y-154838910D01*
X160625209Y-154838911D01*
X160385625Y-154916757D01*
X160385619Y-154916760D01*
X160161151Y-155031132D01*
X159957341Y-155179209D01*
X159957338Y-155179211D01*
X159779211Y-155357338D01*
X159779209Y-155357341D01*
X159631132Y-155561151D01*
X159516760Y-155785619D01*
X159516757Y-155785625D01*
X159438911Y-156025209D01*
X159438910Y-156025214D01*
X159438910Y-156025215D01*
X159399500Y-156274038D01*
X105600500Y-156274038D01*
X105561090Y-156025215D01*
X105483241Y-155785621D01*
X105368870Y-155561155D01*
X105220793Y-155357344D01*
X105220790Y-155357341D01*
X105220788Y-155357338D01*
X105042661Y-155179211D01*
X105042658Y-155179209D01*
X105042656Y-155179207D01*
X104838845Y-155031130D01*
X104614379Y-154916759D01*
X104614376Y-154916758D01*
X104614374Y-154916757D01*
X104374790Y-154838911D01*
X104374786Y-154838910D01*
X104374785Y-154838910D01*
X104125962Y-154799500D01*
X103874038Y-154799500D01*
X103625215Y-154838910D01*
X103625209Y-154838911D01*
X103385625Y-154916757D01*
X103385619Y-154916760D01*
X103161151Y-155031132D01*
X102957341Y-155179209D01*
X102957338Y-155179211D01*
X102779211Y-155357338D01*
X102779209Y-155357341D01*
X102631132Y-155561151D01*
X102516760Y-155785619D01*
X102516757Y-155785625D01*
X102438911Y-156025209D01*
X102438910Y-156025214D01*
X102438910Y-156025215D01*
X102399500Y-156274038D01*
X100500000Y-156274038D01*
X100500000Y-154499994D01*
X164582229Y-154499994D01*
X164582229Y-154500005D01*
X164601292Y-154803011D01*
X164601295Y-154803034D01*
X164658187Y-155101270D01*
X164658190Y-155101283D01*
X164752008Y-155390029D01*
X164752013Y-155390042D01*
X164881288Y-155664765D01*
X164881296Y-155664779D01*
X165043978Y-155921125D01*
X165043980Y-155921128D01*
X165123517Y-156017272D01*
X165706947Y-155433841D01*
X165783402Y-155539073D01*
X165960927Y-155716598D01*
X166066156Y-155793051D01*
X165480534Y-156378673D01*
X165480534Y-156378675D01*
X165704487Y-156541387D01*
X165970563Y-156687664D01*
X166252862Y-156799435D01*
X166252880Y-156799440D01*
X166546940Y-156874942D01*
X166546968Y-156874947D01*
X166848172Y-156912998D01*
X166848191Y-156913000D01*
X167151809Y-156913000D01*
X167151827Y-156912998D01*
X167453031Y-156874947D01*
X167453059Y-156874942D01*
X167747119Y-156799440D01*
X167747137Y-156799435D01*
X168029436Y-156687664D01*
X168295507Y-156541390D01*
X168519464Y-156378675D01*
X168519464Y-156378673D01*
X167933842Y-155793051D01*
X168039073Y-155716598D01*
X168216598Y-155539073D01*
X168293051Y-155433842D01*
X168876481Y-156017272D01*
X168876482Y-156017271D01*
X168956018Y-155921130D01*
X168956021Y-155921126D01*
X169118703Y-155664779D01*
X169118711Y-155664765D01*
X169247986Y-155390042D01*
X169247991Y-155390029D01*
X169341809Y-155101283D01*
X169341812Y-155101270D01*
X169398704Y-154803034D01*
X169398707Y-154803011D01*
X169417771Y-154500005D01*
X169417771Y-154499994D01*
X169398707Y-154196988D01*
X169398704Y-154196965D01*
X169341812Y-153898729D01*
X169341809Y-153898716D01*
X169247991Y-153609970D01*
X169247986Y-153609957D01*
X169118711Y-153335234D01*
X169118703Y-153335220D01*
X168956021Y-153078874D01*
X168956019Y-153078871D01*
X168876481Y-152982726D01*
X168293051Y-153566156D01*
X168216598Y-153460927D01*
X168039073Y-153283402D01*
X167933842Y-153206947D01*
X168519464Y-152621325D01*
X168519464Y-152621323D01*
X168295512Y-152458612D01*
X168029436Y-152312335D01*
X167747137Y-152200564D01*
X167747119Y-152200559D01*
X167453059Y-152125057D01*
X167453031Y-152125052D01*
X167151827Y-152087001D01*
X167151809Y-152087000D01*
X166848191Y-152087000D01*
X166848172Y-152087001D01*
X166546968Y-152125052D01*
X166546940Y-152125057D01*
X166252880Y-152200559D01*
X166252862Y-152200564D01*
X165970563Y-152312335D01*
X165704491Y-152458609D01*
X165480534Y-152621323D01*
X165480534Y-152621325D01*
X166066157Y-153206948D01*
X165960927Y-153283402D01*
X165783402Y-153460927D01*
X165706948Y-153566157D01*
X165123517Y-152982726D01*
X165043981Y-153078871D01*
X165043978Y-153078874D01*
X164881296Y-153335220D01*
X164881288Y-153335234D01*
X164752013Y-153609957D01*
X164752008Y-153609970D01*
X164658190Y-153898716D01*
X164658187Y-153898729D01*
X164601295Y-154196965D01*
X164601292Y-154196988D01*
X164582229Y-154499994D01*
X100500000Y-154499994D01*
X100500000Y-148050000D01*
X133536384Y-148050000D01*
X133556783Y-148231047D01*
X133556783Y-148231049D01*
X133556784Y-148231050D01*
X133616957Y-148403015D01*
X133616958Y-148403018D01*
X133713887Y-148557279D01*
X133713888Y-148557281D01*
X133842718Y-148686111D01*
X133842720Y-148686112D01*
X133996981Y-148783041D01*
X133996982Y-148783041D01*
X133996985Y-148783043D01*
X134168953Y-148843217D01*
X134350000Y-148863616D01*
X134531047Y-148843217D01*
X134703015Y-148783043D01*
X134857281Y-148686111D01*
X134986111Y-148557281D01*
X135083043Y-148403015D01*
X135143217Y-148231047D01*
X135148230Y-148186548D01*
X135175732Y-148121096D01*
X135184333Y-148111569D01*
X135808902Y-147487000D01*
X164304647Y-147487000D01*
X164324022Y-147708463D01*
X164367024Y-147868949D01*
X164381559Y-147923193D01*
X164381561Y-147923199D01*
X164475511Y-148124675D01*
X164475512Y-148124677D01*
X164603016Y-148306772D01*
X164603020Y-148306777D01*
X164603023Y-148306781D01*
X164760219Y-148463977D01*
X164760223Y-148463980D01*
X164760227Y-148463983D01*
X164864124Y-148536732D01*
X164942323Y-148591488D01*
X165143804Y-148685440D01*
X165358537Y-148742978D01*
X165580000Y-148762353D01*
X165801463Y-148742978D01*
X166016196Y-148685440D01*
X166217677Y-148591488D01*
X166399781Y-148463977D01*
X166556977Y-148306781D01*
X166684488Y-148124677D01*
X166778440Y-147923196D01*
X166835978Y-147708463D01*
X166855353Y-147487000D01*
X166835978Y-147265537D01*
X166778440Y-147050804D01*
X166684488Y-146849324D01*
X166556977Y-146667219D01*
X166399781Y-146510023D01*
X166399777Y-146510020D01*
X166399772Y-146510016D01*
X166217677Y-146382512D01*
X166217675Y-146382511D01*
X166016199Y-146288561D01*
X166016193Y-146288559D01*
X165974074Y-146277273D01*
X165801463Y-146231022D01*
X165624274Y-146215520D01*
X165579272Y-146197917D01*
X165549569Y-146213530D01*
X165535729Y-146215520D01*
X165358537Y-146231022D01*
X165243463Y-146261856D01*
X165143806Y-146288559D01*
X165143801Y-146288561D01*
X164942323Y-146382512D01*
X164760222Y-146510020D01*
X164760216Y-146510025D01*
X164603025Y-146667216D01*
X164603020Y-146667222D01*
X164475512Y-146849323D01*
X164381561Y-147050801D01*
X164381560Y-147050804D01*
X164324022Y-147265537D01*
X164304647Y-147487000D01*
X135808902Y-147487000D01*
X136405212Y-146890690D01*
X136467522Y-146856666D01*
X136480186Y-146854581D01*
X136581047Y-146843217D01*
X136753015Y-146783043D01*
X136907281Y-146686111D01*
X137036111Y-146557281D01*
X137133043Y-146403015D01*
X137193217Y-146231047D01*
X137209109Y-146090000D01*
X167145149Y-146090000D01*
X167164517Y-146311374D01*
X167222031Y-146526023D01*
X167222033Y-146526027D01*
X167315946Y-146727425D01*
X167360184Y-146790603D01*
X167360185Y-146790603D01*
X167929309Y-146221479D01*
X167946619Y-146286081D01*
X168013498Y-146401920D01*
X168108080Y-146496502D01*
X168223919Y-146563381D01*
X168288519Y-146580690D01*
X167719395Y-147149813D01*
X167719395Y-147149814D01*
X167782575Y-147194053D01*
X167782574Y-147194053D01*
X167983972Y-147287966D01*
X167983976Y-147287968D01*
X168198625Y-147345482D01*
X168420000Y-147364850D01*
X168641374Y-147345482D01*
X168856023Y-147287968D01*
X168856027Y-147287966D01*
X169057425Y-147194053D01*
X169057426Y-147194052D01*
X169120603Y-147149814D01*
X169120603Y-147149812D01*
X168551481Y-146580690D01*
X168616081Y-146563381D01*
X168731920Y-146496502D01*
X168826502Y-146401920D01*
X168893381Y-146286081D01*
X168910690Y-146221481D01*
X169479812Y-146790603D01*
X169479814Y-146790603D01*
X169524052Y-146727426D01*
X169524053Y-146727425D01*
X169617966Y-146526027D01*
X169617968Y-146526023D01*
X169675482Y-146311374D01*
X169694850Y-146090000D01*
X169675482Y-145868625D01*
X169617968Y-145653976D01*
X169617966Y-145653972D01*
X169524051Y-145452571D01*
X169479815Y-145389395D01*
X169479813Y-145389395D01*
X168910690Y-145958518D01*
X168893381Y-145893919D01*
X168826502Y-145778080D01*
X168731920Y-145683498D01*
X168616081Y-145616619D01*
X168551480Y-145599309D01*
X169120603Y-145030185D01*
X169120603Y-145030184D01*
X169057425Y-144985946D01*
X168856027Y-144892033D01*
X168856023Y-144892031D01*
X168641374Y-144834517D01*
X168458535Y-144818521D01*
X168420114Y-144803491D01*
X168395308Y-144816530D01*
X168381464Y-144818521D01*
X168198625Y-144834517D01*
X167983976Y-144892031D01*
X167983972Y-144892033D01*
X167782575Y-144985946D01*
X167719394Y-145030185D01*
X168288518Y-145599309D01*
X168223919Y-145616619D01*
X168108080Y-145683498D01*
X168013498Y-145778080D01*
X167946619Y-145893919D01*
X167929309Y-145958518D01*
X167360185Y-145389394D01*
X167315946Y-145452575D01*
X167222033Y-145653972D01*
X167222031Y-145653976D01*
X167164517Y-145868625D01*
X167145149Y-146090000D01*
X137209109Y-146090000D01*
X137213616Y-146050000D01*
X137193217Y-145868953D01*
X137133043Y-145696985D01*
X137133041Y-145696982D01*
X137133041Y-145696981D01*
X137036112Y-145542720D01*
X137036111Y-145542718D01*
X136907281Y-145413888D01*
X136907279Y-145413887D01*
X136753018Y-145316958D01*
X136753015Y-145316957D01*
X136581050Y-145256784D01*
X136581049Y-145256783D01*
X136581047Y-145256783D01*
X136400000Y-145236384D01*
X136218953Y-145256783D01*
X136218950Y-145256783D01*
X136218949Y-145256784D01*
X136046984Y-145316957D01*
X136046981Y-145316958D01*
X135892720Y-145413887D01*
X135892718Y-145413888D01*
X135763888Y-145542718D01*
X135763887Y-145542720D01*
X135666958Y-145696981D01*
X135666957Y-145696984D01*
X135606782Y-145868953D01*
X135606471Y-145870318D01*
X135606018Y-145871135D01*
X135604446Y-145875631D01*
X135603682Y-145875363D01*
X135572727Y-145931367D01*
X134288439Y-147215655D01*
X134226127Y-147249681D01*
X134213456Y-147251767D01*
X134168960Y-147256782D01*
X134168947Y-147256784D01*
X133996984Y-147316957D01*
X133996981Y-147316958D01*
X133842720Y-147413887D01*
X133842718Y-147413888D01*
X133713888Y-147542718D01*
X133713887Y-147542720D01*
X133616958Y-147696981D01*
X133616957Y-147696984D01*
X133612941Y-147708463D01*
X133556783Y-147868953D01*
X133536384Y-148050000D01*
X100500000Y-148050000D01*
X100500000Y-144693000D01*
X164304647Y-144693000D01*
X164324022Y-144914463D01*
X164343176Y-144985946D01*
X164381559Y-145129193D01*
X164381561Y-145129199D01*
X164475511Y-145330675D01*
X164475512Y-145330677D01*
X164603016Y-145512772D01*
X164603020Y-145512777D01*
X164603023Y-145512781D01*
X164760219Y-145669977D01*
X164760223Y-145669980D01*
X164760227Y-145669983D01*
X164798789Y-145696984D01*
X164942323Y-145797488D01*
X165143804Y-145891440D01*
X165358537Y-145948978D01*
X165535724Y-145964479D01*
X165580726Y-145982082D01*
X165610430Y-145966470D01*
X165624267Y-145964480D01*
X165801463Y-145948978D01*
X166016196Y-145891440D01*
X166217677Y-145797488D01*
X166399781Y-145669977D01*
X166556977Y-145512781D01*
X166684488Y-145330677D01*
X166778440Y-145129196D01*
X166835978Y-144914463D01*
X166855353Y-144693000D01*
X166835978Y-144471537D01*
X166778440Y-144256804D01*
X166684488Y-144055324D01*
X166556977Y-143873219D01*
X166399781Y-143716023D01*
X166399777Y-143716020D01*
X166399772Y-143716016D01*
X166217677Y-143588512D01*
X166217675Y-143588511D01*
X166016199Y-143494561D01*
X166016193Y-143494559D01*
X165958657Y-143479142D01*
X165801463Y-143437022D01*
X165744101Y-143432003D01*
X165621405Y-143421269D01*
X165579693Y-143404952D01*
X165552439Y-143419278D01*
X165538594Y-143421268D01*
X165358547Y-143437020D01*
X165358541Y-143437021D01*
X165143806Y-143494559D01*
X165143801Y-143494561D01*
X164942323Y-143588512D01*
X164760222Y-143716020D01*
X164760216Y-143716025D01*
X164603025Y-143873216D01*
X164603020Y-143873222D01*
X164475512Y-144055323D01*
X164475512Y-144055324D01*
X164381560Y-144256804D01*
X164324022Y-144471537D01*
X164304647Y-144693000D01*
X100500000Y-144693000D01*
X100500000Y-141400000D01*
X127136384Y-141400000D01*
X127156783Y-141581047D01*
X127156783Y-141581049D01*
X127156784Y-141581050D01*
X127216957Y-141753015D01*
X127216958Y-141753018D01*
X127313887Y-141907279D01*
X127313888Y-141907281D01*
X127442718Y-142036111D01*
X127442720Y-142036112D01*
X127596981Y-142133041D01*
X127596982Y-142133041D01*
X127596985Y-142133043D01*
X127768953Y-142193217D01*
X127950000Y-142213616D01*
X127950547Y-142213554D01*
X127950899Y-142213616D01*
X127957076Y-142213616D01*
X127957076Y-142214697D01*
X128020478Y-142225796D01*
X128053761Y-142249665D01*
X128465655Y-142661559D01*
X128499681Y-142723871D01*
X128501767Y-142736543D01*
X128506781Y-142781038D01*
X128506784Y-142781052D01*
X128566957Y-142953015D01*
X128566958Y-142953018D01*
X128663887Y-143107279D01*
X128663888Y-143107281D01*
X128792718Y-143236111D01*
X128792720Y-143236112D01*
X128946981Y-143333041D01*
X128946982Y-143333041D01*
X128946985Y-143333043D01*
X129118953Y-143393217D01*
X129300000Y-143413616D01*
X129481047Y-143393217D01*
X129653015Y-143333043D01*
X129807281Y-143236111D01*
X129936111Y-143107281D01*
X130033043Y-142953015D01*
X130093217Y-142781047D01*
X130113616Y-142600000D01*
X130093217Y-142418953D01*
X130033043Y-142246985D01*
X130033041Y-142246982D01*
X130033041Y-142246981D01*
X129936112Y-142092720D01*
X129936111Y-142092718D01*
X129807281Y-141963888D01*
X129807279Y-141963887D01*
X129653018Y-141866958D01*
X129653015Y-141866957D01*
X129481052Y-141806784D01*
X129481038Y-141806781D01*
X129436543Y-141801767D01*
X129371091Y-141774262D01*
X129361559Y-141765655D01*
X128945904Y-141350000D01*
X130536384Y-141350000D01*
X130556783Y-141531047D01*
X130556783Y-141531049D01*
X130556784Y-141531050D01*
X130616957Y-141703015D01*
X130616958Y-141703018D01*
X130713887Y-141857279D01*
X130713888Y-141857281D01*
X130842718Y-141986111D01*
X130842720Y-141986112D01*
X130996981Y-142083041D01*
X130996982Y-142083041D01*
X130996985Y-142083043D01*
X131168953Y-142143217D01*
X131350000Y-142163616D01*
X131531047Y-142143217D01*
X131703015Y-142083043D01*
X131857281Y-141986111D01*
X131986111Y-141857281D01*
X132083043Y-141703015D01*
X132122070Y-141591479D01*
X132151902Y-141544000D01*
X132661563Y-141034340D01*
X132723873Y-141000317D01*
X132736542Y-140998231D01*
X132781047Y-140993217D01*
X132953015Y-140933043D01*
X133107281Y-140836111D01*
X133236111Y-140707281D01*
X133333043Y-140553015D01*
X133393217Y-140381047D01*
X133413616Y-140200000D01*
X133393217Y-140018953D01*
X133333043Y-139846985D01*
X133333041Y-139846982D01*
X133333041Y-139846981D01*
X133236112Y-139692720D01*
X133236111Y-139692718D01*
X133107281Y-139563888D01*
X133107279Y-139563887D01*
X132953018Y-139466958D01*
X132953015Y-139466957D01*
X132781050Y-139406784D01*
X132781049Y-139406783D01*
X132781047Y-139406783D01*
X132600000Y-139386384D01*
X132418953Y-139406783D01*
X132418950Y-139406783D01*
X132418949Y-139406784D01*
X132246984Y-139466957D01*
X132246981Y-139466958D01*
X132092720Y-139563887D01*
X132092718Y-139563888D01*
X131963888Y-139692718D01*
X131963887Y-139692720D01*
X131866958Y-139846981D01*
X131866957Y-139846984D01*
X131806784Y-140018947D01*
X131806781Y-140018961D01*
X131801768Y-140063451D01*
X131774264Y-140128904D01*
X131765657Y-140138436D01*
X131401136Y-140502958D01*
X131338823Y-140536983D01*
X131326148Y-140539071D01*
X131261526Y-140546352D01*
X131168953Y-140556783D01*
X131168950Y-140556783D01*
X131168950Y-140556784D01*
X130996984Y-140616957D01*
X130996981Y-140616958D01*
X130842720Y-140713887D01*
X130842718Y-140713888D01*
X130713888Y-140842718D01*
X130713887Y-140842720D01*
X130616958Y-140996981D01*
X130616957Y-140996984D01*
X130568275Y-141136112D01*
X130556783Y-141168953D01*
X130536384Y-141350000D01*
X128945904Y-141350000D01*
X128724992Y-141129088D01*
X128695158Y-141081608D01*
X128687877Y-141060800D01*
X128683043Y-141046985D01*
X128683041Y-141046982D01*
X128683041Y-141046981D01*
X128586112Y-140892720D01*
X128586111Y-140892718D01*
X128457281Y-140763888D01*
X128457279Y-140763887D01*
X128303018Y-140666958D01*
X128303015Y-140666957D01*
X128131050Y-140606784D01*
X128131049Y-140606783D01*
X128131047Y-140606783D01*
X127950000Y-140586384D01*
X127768953Y-140606783D01*
X127768950Y-140606783D01*
X127768949Y-140606784D01*
X127596984Y-140666957D01*
X127596981Y-140666958D01*
X127442720Y-140763887D01*
X127442718Y-140763888D01*
X127313888Y-140892718D01*
X127313887Y-140892720D01*
X127216958Y-141046981D01*
X127216957Y-141046984D01*
X127160868Y-141207279D01*
X127156783Y-141218953D01*
X127136384Y-141400000D01*
X100500000Y-141400000D01*
X100500000Y-139000000D01*
X136886384Y-139000000D01*
X136906783Y-139181047D01*
X136906783Y-139181049D01*
X136906784Y-139181050D01*
X136966957Y-139353015D01*
X136966958Y-139353018D01*
X137063887Y-139507279D01*
X137063888Y-139507281D01*
X137192718Y-139636111D01*
X137192720Y-139636112D01*
X137346981Y-139733041D01*
X137346982Y-139733041D01*
X137346985Y-139733043D01*
X137518953Y-139793217D01*
X137563450Y-139798230D01*
X137628902Y-139825732D01*
X137638439Y-139834343D01*
X138032780Y-140228684D01*
X138066806Y-140290996D01*
X138062615Y-140359393D01*
X138006783Y-140518952D01*
X137995434Y-140619680D01*
X137986384Y-140700000D01*
X138006783Y-140881047D01*
X138006783Y-140881049D01*
X138006784Y-140881050D01*
X138066957Y-141053015D01*
X138066958Y-141053018D01*
X138163887Y-141207279D01*
X138163888Y-141207281D01*
X138292718Y-141336111D01*
X138292720Y-141336112D01*
X138446981Y-141433041D01*
X138446982Y-141433041D01*
X138446985Y-141433043D01*
X138618953Y-141493217D01*
X138800000Y-141513616D01*
X138920846Y-141500000D01*
X153586384Y-141500000D01*
X153606783Y-141681047D01*
X153606783Y-141681049D01*
X153606784Y-141681050D01*
X153666957Y-141853015D01*
X153666958Y-141853018D01*
X153763887Y-142007279D01*
X153763888Y-142007281D01*
X153892718Y-142136111D01*
X153892720Y-142136112D01*
X154046981Y-142233041D01*
X154046982Y-142233041D01*
X154046985Y-142233043D01*
X154218953Y-142293217D01*
X154400000Y-142313616D01*
X154581047Y-142293217D01*
X154753015Y-142233043D01*
X154907281Y-142136111D01*
X155036111Y-142007281D01*
X155133043Y-141853015D01*
X155193217Y-141681047D01*
X155198230Y-141636548D01*
X155225732Y-141571097D01*
X155234333Y-141561570D01*
X155455213Y-141340690D01*
X155517523Y-141306666D01*
X155530184Y-141304581D01*
X155631047Y-141293217D01*
X155803015Y-141233043D01*
X155957281Y-141136111D01*
X156086111Y-141007281D01*
X156183043Y-140853015D01*
X156243217Y-140681047D01*
X156263616Y-140500000D01*
X156243217Y-140318953D01*
X156183043Y-140146985D01*
X156183041Y-140146982D01*
X156183041Y-140146981D01*
X156086112Y-139992720D01*
X156086111Y-139992718D01*
X155957281Y-139863888D01*
X155957279Y-139863887D01*
X155803018Y-139766958D01*
X155803015Y-139766957D01*
X155631050Y-139706784D01*
X155631049Y-139706783D01*
X155631047Y-139706783D01*
X155450000Y-139686384D01*
X155268953Y-139706783D01*
X155268950Y-139706783D01*
X155268949Y-139706784D01*
X155096984Y-139766957D01*
X155096981Y-139766958D01*
X154942720Y-139863887D01*
X154942718Y-139863888D01*
X154813888Y-139992718D01*
X154813887Y-139992720D01*
X154716958Y-140146981D01*
X154716957Y-140146984D01*
X154656781Y-140318955D01*
X154656470Y-140320321D01*
X154656017Y-140321139D01*
X154654446Y-140325631D01*
X154653682Y-140325363D01*
X154622727Y-140381366D01*
X154338437Y-140665656D01*
X154276125Y-140699682D01*
X154263452Y-140701768D01*
X154218961Y-140706781D01*
X154218947Y-140706784D01*
X154046984Y-140766957D01*
X154046981Y-140766958D01*
X153892720Y-140863887D01*
X153892718Y-140863888D01*
X153763888Y-140992718D01*
X153763887Y-140992720D01*
X153666958Y-141146981D01*
X153666957Y-141146984D01*
X153611813Y-141304579D01*
X153606783Y-141318953D01*
X153586384Y-141500000D01*
X138920846Y-141500000D01*
X138981047Y-141493217D01*
X139153015Y-141433043D01*
X139307281Y-141336111D01*
X139436111Y-141207281D01*
X139533043Y-141053015D01*
X139593217Y-140881047D01*
X139613616Y-140700000D01*
X139593217Y-140518953D01*
X139533043Y-140346985D01*
X139533041Y-140346982D01*
X139533041Y-140346981D01*
X139452813Y-140219298D01*
X139433500Y-140152262D01*
X139433500Y-140037607D01*
X139433499Y-140037603D01*
X139429791Y-140018961D01*
X139409155Y-139915215D01*
X139361400Y-139799925D01*
X139292071Y-139696167D01*
X139203833Y-139607929D01*
X138827904Y-139232000D01*
X164305149Y-139232000D01*
X164324517Y-139453374D01*
X164382031Y-139668023D01*
X164382033Y-139668027D01*
X164475946Y-139869425D01*
X164520184Y-139932603D01*
X164520185Y-139932603D01*
X165089309Y-139363479D01*
X165106619Y-139428081D01*
X165173498Y-139543920D01*
X165268080Y-139638502D01*
X165383919Y-139705381D01*
X165448519Y-139722690D01*
X164879395Y-140291813D01*
X164879395Y-140291814D01*
X164942575Y-140336053D01*
X164942574Y-140336053D01*
X165143972Y-140429966D01*
X165143977Y-140429968D01*
X165195571Y-140443793D01*
X165256194Y-140480745D01*
X165287215Y-140544605D01*
X165278787Y-140615100D01*
X165233584Y-140669847D01*
X165195571Y-140687207D01*
X165143977Y-140701031D01*
X165143972Y-140701033D01*
X164942575Y-140794946D01*
X164879394Y-140839185D01*
X165448518Y-141408309D01*
X165383919Y-141425619D01*
X165268080Y-141492498D01*
X165173498Y-141587080D01*
X165106619Y-141702919D01*
X165089309Y-141767518D01*
X164520185Y-141198394D01*
X164475946Y-141261575D01*
X164382033Y-141462972D01*
X164382031Y-141462976D01*
X164324517Y-141677625D01*
X164305149Y-141899000D01*
X164324517Y-142120374D01*
X164382031Y-142335023D01*
X164382033Y-142335027D01*
X164475946Y-142536425D01*
X164520184Y-142599603D01*
X164520185Y-142599603D01*
X165089309Y-142030479D01*
X165106619Y-142095081D01*
X165173498Y-142210920D01*
X165268080Y-142305502D01*
X165383919Y-142372381D01*
X165448519Y-142389690D01*
X164879395Y-142958813D01*
X164879395Y-142958814D01*
X164942575Y-143003053D01*
X164942574Y-143003053D01*
X165143972Y-143096966D01*
X165143976Y-143096968D01*
X165358626Y-143154482D01*
X165538593Y-143170227D01*
X165580306Y-143186543D01*
X165607561Y-143172218D01*
X165621406Y-143170227D01*
X165801373Y-143154482D01*
X166016023Y-143096968D01*
X166016027Y-143096966D01*
X166217425Y-143003053D01*
X166217426Y-143003052D01*
X166280603Y-142958814D01*
X166280603Y-142958812D01*
X165711481Y-142389690D01*
X165776081Y-142372381D01*
X165891920Y-142305502D01*
X165986502Y-142210920D01*
X166053381Y-142095081D01*
X166070690Y-142030481D01*
X166639812Y-142599603D01*
X166639814Y-142599603D01*
X166684052Y-142536426D01*
X166684053Y-142536425D01*
X166777966Y-142335027D01*
X166777968Y-142335023D01*
X166835482Y-142120374D01*
X166854850Y-141899000D01*
X166835482Y-141677625D01*
X166777968Y-141462976D01*
X166777966Y-141462972D01*
X166684051Y-141261571D01*
X166639815Y-141198395D01*
X166639813Y-141198395D01*
X166070690Y-141767518D01*
X166053381Y-141702919D01*
X165986502Y-141587080D01*
X165891920Y-141492498D01*
X165776081Y-141425619D01*
X165711480Y-141408309D01*
X166280603Y-140839185D01*
X166280603Y-140839184D01*
X166217425Y-140794946D01*
X166016027Y-140701033D01*
X166016023Y-140701031D01*
X165964428Y-140687207D01*
X165903805Y-140650256D01*
X165872784Y-140586395D01*
X165881212Y-140515901D01*
X165926415Y-140461153D01*
X165964428Y-140443793D01*
X166016023Y-140429968D01*
X166016027Y-140429966D01*
X166217425Y-140336053D01*
X166217426Y-140336052D01*
X166280603Y-140291814D01*
X166280603Y-140291812D01*
X165711481Y-139722690D01*
X165776081Y-139705381D01*
X165891920Y-139638502D01*
X165986502Y-139543920D01*
X166053381Y-139428081D01*
X166070690Y-139363481D01*
X166639812Y-139932603D01*
X166639814Y-139932603D01*
X166684052Y-139869426D01*
X166684053Y-139869425D01*
X166777966Y-139668027D01*
X166777968Y-139668023D01*
X166835482Y-139453374D01*
X166854850Y-139232000D01*
X166835482Y-139010625D01*
X166777968Y-138795976D01*
X166777966Y-138795972D01*
X166684051Y-138594571D01*
X166639815Y-138531395D01*
X166639813Y-138531395D01*
X166070690Y-139100518D01*
X166053381Y-139035919D01*
X165986502Y-138920080D01*
X165891920Y-138825498D01*
X165776081Y-138758619D01*
X165711480Y-138741309D01*
X166280603Y-138172185D01*
X166280603Y-138172184D01*
X166217425Y-138127946D01*
X166016027Y-138034033D01*
X166016023Y-138034031D01*
X165801374Y-137976517D01*
X165618535Y-137960521D01*
X165580114Y-137945491D01*
X165555308Y-137958530D01*
X165541464Y-137960521D01*
X165358625Y-137976517D01*
X165143976Y-138034031D01*
X165143972Y-138034033D01*
X164942575Y-138127946D01*
X164879394Y-138172185D01*
X165448518Y-138741309D01*
X165383919Y-138758619D01*
X165268080Y-138825498D01*
X165173498Y-138920080D01*
X165106619Y-139035919D01*
X165089309Y-139100518D01*
X164520185Y-138531394D01*
X164475946Y-138594575D01*
X164382033Y-138795972D01*
X164382031Y-138795976D01*
X164324517Y-139010625D01*
X164305149Y-139232000D01*
X138827904Y-139232000D01*
X138534343Y-138938439D01*
X138500317Y-138876127D01*
X138498230Y-138863449D01*
X138495896Y-138842737D01*
X138493217Y-138818953D01*
X138433043Y-138646985D01*
X138433041Y-138646982D01*
X138433041Y-138646981D01*
X138336112Y-138492720D01*
X138336111Y-138492718D01*
X138207281Y-138363888D01*
X138207279Y-138363887D01*
X138053018Y-138266958D01*
X138053015Y-138266957D01*
X137881050Y-138206784D01*
X137881049Y-138206783D01*
X137881047Y-138206783D01*
X137700000Y-138186384D01*
X137518953Y-138206783D01*
X137518950Y-138206783D01*
X137518949Y-138206784D01*
X137346984Y-138266957D01*
X137346981Y-138266958D01*
X137192720Y-138363887D01*
X137192718Y-138363888D01*
X137063888Y-138492718D01*
X137063887Y-138492720D01*
X136966958Y-138646981D01*
X136966957Y-138646984D01*
X136927895Y-138758619D01*
X136906783Y-138818953D01*
X136886384Y-139000000D01*
X100500000Y-139000000D01*
X100500000Y-124980520D01*
X107187743Y-124980520D01*
X107206707Y-125245685D01*
X107263217Y-125505458D01*
X107356121Y-125754544D01*
X107394700Y-125825196D01*
X107483528Y-125987873D01*
X107518503Y-126034594D01*
X107642839Y-126200688D01*
X107642842Y-126200691D01*
X107642844Y-126200694D01*
X107830826Y-126388676D01*
X108043647Y-126547992D01*
X108217629Y-126642993D01*
X108226885Y-126648047D01*
X108277087Y-126698249D01*
X108292500Y-126758635D01*
X108292500Y-135201365D01*
X108272498Y-135269486D01*
X108226885Y-135311953D01*
X108043647Y-135412008D01*
X107830831Y-135571319D01*
X107830822Y-135571327D01*
X107642847Y-135759302D01*
X107642839Y-135759311D01*
X107483528Y-135972127D01*
X107356121Y-136205455D01*
X107263217Y-136454541D01*
X107206707Y-136714314D01*
X107187743Y-136979480D01*
X107206707Y-137244645D01*
X107263217Y-137504418D01*
X107356121Y-137753504D01*
X107385486Y-137807281D01*
X107483528Y-137986833D01*
X107555549Y-138083042D01*
X107642839Y-138199648D01*
X107642842Y-138199651D01*
X107642844Y-138199654D01*
X107830826Y-138387636D01*
X108043647Y-138546952D01*
X108276975Y-138674358D01*
X108526060Y-138767262D01*
X108785831Y-138823772D01*
X109051000Y-138842737D01*
X109316169Y-138823772D01*
X109575940Y-138767262D01*
X109825025Y-138674358D01*
X110058353Y-138546952D01*
X110271174Y-138387636D01*
X110459156Y-138199654D01*
X110618472Y-137986833D01*
X110745878Y-137753505D01*
X110838782Y-137504420D01*
X110894128Y-137250000D01*
X122836384Y-137250000D01*
X122856783Y-137431047D01*
X122856783Y-137431049D01*
X122856784Y-137431050D01*
X122916957Y-137603015D01*
X122916958Y-137603018D01*
X123013887Y-137757279D01*
X123013888Y-137757281D01*
X123142718Y-137886111D01*
X123142720Y-137886112D01*
X123296981Y-137983041D01*
X123296982Y-137983041D01*
X123296985Y-137983043D01*
X123468953Y-138043217D01*
X123650000Y-138063616D01*
X123831047Y-138043217D01*
X124003015Y-137983043D01*
X124051126Y-137952812D01*
X124118162Y-137933500D01*
X126402263Y-137933500D01*
X126469299Y-137952813D01*
X126523442Y-137986833D01*
X126596985Y-138033043D01*
X126768953Y-138093217D01*
X126950000Y-138113616D01*
X127131047Y-138093217D01*
X127303015Y-138033043D01*
X127457281Y-137936111D01*
X127586111Y-137807281D01*
X127683043Y-137653015D01*
X127743217Y-137481047D01*
X127752349Y-137400000D01*
X157836384Y-137400000D01*
X157856783Y-137581047D01*
X157856783Y-137581049D01*
X157856784Y-137581050D01*
X157916957Y-137753015D01*
X157916958Y-137753018D01*
X158013887Y-137907279D01*
X158013888Y-137907281D01*
X158142718Y-138036111D01*
X158142720Y-138036112D01*
X158296981Y-138133041D01*
X158296982Y-138133041D01*
X158296985Y-138133043D01*
X158468953Y-138193217D01*
X158650000Y-138213616D01*
X158831047Y-138193217D01*
X159003015Y-138133043D01*
X159157281Y-138036111D01*
X159160351Y-138033041D01*
X159172988Y-138020405D01*
X159235300Y-137986379D01*
X159262083Y-137983500D01*
X160002263Y-137983500D01*
X160069299Y-138002813D01*
X160166067Y-138063616D01*
X160196985Y-138083043D01*
X160368953Y-138143217D01*
X160550000Y-138163616D01*
X160731047Y-138143217D01*
X160903015Y-138083043D01*
X161057281Y-137986111D01*
X161182992Y-137860400D01*
X167145149Y-137860400D01*
X167164517Y-138081774D01*
X167222031Y-138296423D01*
X167222033Y-138296427D01*
X167315946Y-138497825D01*
X167360184Y-138561003D01*
X167360185Y-138561003D01*
X167929309Y-137991879D01*
X167946619Y-138056481D01*
X168013498Y-138172320D01*
X168108080Y-138266902D01*
X168223919Y-138333781D01*
X168288519Y-138351090D01*
X167719395Y-138920213D01*
X167719395Y-138920214D01*
X167782575Y-138964453D01*
X167782574Y-138964453D01*
X167983972Y-139058366D01*
X167983976Y-139058368D01*
X168082969Y-139084893D01*
X168143592Y-139121845D01*
X168174613Y-139185705D01*
X168166185Y-139256200D01*
X168120982Y-139310947D01*
X168082969Y-139328307D01*
X167983976Y-139354831D01*
X167983972Y-139354833D01*
X167782575Y-139448746D01*
X167719394Y-139492985D01*
X168288518Y-140062109D01*
X168223919Y-140079419D01*
X168108080Y-140146298D01*
X168013498Y-140240880D01*
X167946619Y-140356719D01*
X167929309Y-140421318D01*
X167360185Y-139852194D01*
X167315946Y-139915375D01*
X167222033Y-140116772D01*
X167222031Y-140116776D01*
X167164517Y-140331425D01*
X167145149Y-140552800D01*
X167164517Y-140774174D01*
X167222031Y-140988823D01*
X167222033Y-140988827D01*
X167315946Y-141190225D01*
X167360184Y-141253403D01*
X167360185Y-141253403D01*
X167929309Y-140684279D01*
X167946619Y-140748881D01*
X168013498Y-140864720D01*
X168108080Y-140959302D01*
X168223919Y-141026181D01*
X168288519Y-141043490D01*
X167719395Y-141612613D01*
X167719395Y-141612614D01*
X167782575Y-141656853D01*
X167782574Y-141656853D01*
X167983972Y-141750766D01*
X167983976Y-141750768D01*
X168177764Y-141802693D01*
X168238387Y-141839645D01*
X168269408Y-141903505D01*
X168260980Y-141974000D01*
X168215777Y-142028747D01*
X168177764Y-142046107D01*
X167983976Y-142098031D01*
X167983972Y-142098033D01*
X167782575Y-142191946D01*
X167719394Y-142236185D01*
X168288518Y-142805309D01*
X168223919Y-142822619D01*
X168108080Y-142889498D01*
X168013498Y-142984080D01*
X167946619Y-143099919D01*
X167929309Y-143164518D01*
X167360185Y-142595394D01*
X167315946Y-142658575D01*
X167222033Y-142859972D01*
X167222031Y-142859976D01*
X167164517Y-143074625D01*
X167145149Y-143296000D01*
X167164517Y-143517374D01*
X167222031Y-143732023D01*
X167222033Y-143732027D01*
X167315946Y-143933425D01*
X167360184Y-143996603D01*
X167360185Y-143996603D01*
X167929309Y-143427479D01*
X167946619Y-143492081D01*
X168013498Y-143607920D01*
X168108080Y-143702502D01*
X168223919Y-143769381D01*
X168288519Y-143786690D01*
X167719395Y-144355813D01*
X167719395Y-144355814D01*
X167782575Y-144400053D01*
X167782574Y-144400053D01*
X167983972Y-144493966D01*
X167983976Y-144493968D01*
X168198625Y-144551482D01*
X168381464Y-144567479D01*
X168419884Y-144582508D01*
X168444691Y-144569470D01*
X168458535Y-144567479D01*
X168641374Y-144551482D01*
X168856023Y-144493968D01*
X168856027Y-144493966D01*
X169057425Y-144400053D01*
X169057426Y-144400052D01*
X169120603Y-144355814D01*
X169120603Y-144355812D01*
X168551481Y-143786690D01*
X168616081Y-143769381D01*
X168731920Y-143702502D01*
X168826502Y-143607920D01*
X168893381Y-143492081D01*
X168910690Y-143427481D01*
X169479812Y-143996603D01*
X169479814Y-143996603D01*
X169524052Y-143933426D01*
X169524053Y-143933425D01*
X169617966Y-143732027D01*
X169617968Y-143732023D01*
X169675482Y-143517374D01*
X169694850Y-143296000D01*
X169675482Y-143074625D01*
X169617968Y-142859976D01*
X169617966Y-142859972D01*
X169524051Y-142658571D01*
X169479815Y-142595395D01*
X169479813Y-142595395D01*
X168910690Y-143164518D01*
X168893381Y-143099919D01*
X168826502Y-142984080D01*
X168731920Y-142889498D01*
X168616081Y-142822619D01*
X168551480Y-142805309D01*
X169120603Y-142236185D01*
X169120603Y-142236184D01*
X169057425Y-142191946D01*
X168856027Y-142098033D01*
X168856023Y-142098031D01*
X168662235Y-142046107D01*
X168601612Y-142009156D01*
X168570591Y-141945295D01*
X168579019Y-141874800D01*
X168624222Y-141820053D01*
X168662235Y-141802693D01*
X168856023Y-141750768D01*
X168856027Y-141750766D01*
X169057425Y-141656853D01*
X169057426Y-141656852D01*
X169120603Y-141612614D01*
X169120603Y-141612612D01*
X168551481Y-141043490D01*
X168616081Y-141026181D01*
X168731920Y-140959302D01*
X168826502Y-140864720D01*
X168893381Y-140748881D01*
X168910690Y-140684281D01*
X169479812Y-141253403D01*
X169479814Y-141253403D01*
X169524052Y-141190226D01*
X169524053Y-141190225D01*
X169617966Y-140988827D01*
X169617968Y-140988823D01*
X169675482Y-140774174D01*
X169694850Y-140552800D01*
X169675482Y-140331425D01*
X169617968Y-140116776D01*
X169617966Y-140116772D01*
X169524051Y-139915371D01*
X169479815Y-139852195D01*
X169479813Y-139852195D01*
X168910690Y-140421318D01*
X168893381Y-140356719D01*
X168826502Y-140240880D01*
X168731920Y-140146298D01*
X168616081Y-140079419D01*
X168551480Y-140062109D01*
X169120603Y-139492985D01*
X169120603Y-139492984D01*
X169057425Y-139448746D01*
X168856027Y-139354833D01*
X168856023Y-139354831D01*
X168757030Y-139328307D01*
X168696408Y-139291356D01*
X168665386Y-139227495D01*
X168673814Y-139157001D01*
X168719017Y-139102254D01*
X168757030Y-139084893D01*
X168856023Y-139058368D01*
X168856027Y-139058366D01*
X169057425Y-138964453D01*
X169057426Y-138964452D01*
X169120603Y-138920214D01*
X169120603Y-138920212D01*
X168551481Y-138351090D01*
X168616081Y-138333781D01*
X168731920Y-138266902D01*
X168826502Y-138172320D01*
X168893381Y-138056481D01*
X168910690Y-137991881D01*
X169479812Y-138561003D01*
X169479814Y-138561003D01*
X169524052Y-138497826D01*
X169524053Y-138497825D01*
X169617966Y-138296427D01*
X169617968Y-138296423D01*
X169675482Y-138081774D01*
X169694850Y-137860400D01*
X169675482Y-137639025D01*
X169617968Y-137424376D01*
X169617965Y-137424368D01*
X169524051Y-137222971D01*
X169479815Y-137159795D01*
X169479813Y-137159795D01*
X168910690Y-137728918D01*
X168893381Y-137664319D01*
X168826502Y-137548480D01*
X168731920Y-137453898D01*
X168616081Y-137387019D01*
X168551480Y-137369709D01*
X169120603Y-136800585D01*
X169120603Y-136800584D01*
X169057425Y-136756346D01*
X168856027Y-136662433D01*
X168856023Y-136662431D01*
X168641374Y-136604917D01*
X168420000Y-136585549D01*
X168198625Y-136604917D01*
X167983976Y-136662431D01*
X167983972Y-136662433D01*
X167782575Y-136756346D01*
X167719394Y-136800585D01*
X168288518Y-137369709D01*
X168223919Y-137387019D01*
X168108080Y-137453898D01*
X168013498Y-137548480D01*
X167946619Y-137664319D01*
X167929309Y-137728918D01*
X167360185Y-137159794D01*
X167315946Y-137222975D01*
X167222035Y-137424368D01*
X167222031Y-137424376D01*
X167164517Y-137639025D01*
X167145149Y-137860400D01*
X161182992Y-137860400D01*
X161186111Y-137857281D01*
X161283043Y-137703015D01*
X161343217Y-137531047D01*
X161363616Y-137350000D01*
X161343217Y-137168953D01*
X161283043Y-136996985D01*
X161283041Y-136996982D01*
X161283041Y-136996981D01*
X161186112Y-136842720D01*
X161186111Y-136842718D01*
X161057281Y-136713888D01*
X161057279Y-136713887D01*
X160903018Y-136616958D01*
X160903015Y-136616957D01*
X160731050Y-136556784D01*
X160731049Y-136556783D01*
X160731047Y-136556783D01*
X160550000Y-136536384D01*
X160368953Y-136556783D01*
X160368950Y-136556783D01*
X160368949Y-136556784D01*
X160196984Y-136616957D01*
X160196982Y-136616958D01*
X160069299Y-136697187D01*
X160002263Y-136716500D01*
X159118162Y-136716500D01*
X159051126Y-136697187D01*
X159003017Y-136666958D01*
X159003014Y-136666956D01*
X158831050Y-136606784D01*
X158831049Y-136606783D01*
X158831047Y-136606783D01*
X158650000Y-136586384D01*
X158468953Y-136606783D01*
X158468950Y-136606783D01*
X158468949Y-136606784D01*
X158296984Y-136666957D01*
X158296981Y-136666958D01*
X158142720Y-136763887D01*
X158142718Y-136763888D01*
X158013888Y-136892718D01*
X158013887Y-136892720D01*
X157916958Y-137046981D01*
X157916957Y-137046984D01*
X157874279Y-137168953D01*
X157856783Y-137218953D01*
X157836384Y-137400000D01*
X127752349Y-137400000D01*
X127763616Y-137300000D01*
X127743217Y-137118953D01*
X127683043Y-136946985D01*
X127683041Y-136946982D01*
X127683041Y-136946981D01*
X127586112Y-136792720D01*
X127586111Y-136792718D01*
X127457281Y-136663888D01*
X127457279Y-136663887D01*
X127303018Y-136566958D01*
X127303015Y-136566957D01*
X127131050Y-136506784D01*
X127131049Y-136506783D01*
X127131047Y-136506783D01*
X126950000Y-136486384D01*
X126768953Y-136506783D01*
X126768950Y-136506783D01*
X126768949Y-136506784D01*
X126596984Y-136566957D01*
X126596982Y-136566958D01*
X126469299Y-136647187D01*
X126402263Y-136666500D01*
X124262083Y-136666500D01*
X124193962Y-136646498D01*
X124172988Y-136629595D01*
X124157281Y-136613888D01*
X124157279Y-136613887D01*
X124003018Y-136516958D01*
X124003015Y-136516957D01*
X123831050Y-136456784D01*
X123831049Y-136456783D01*
X123831047Y-136456783D01*
X123664342Y-136438000D01*
X164305149Y-136438000D01*
X164324517Y-136659374D01*
X164382031Y-136874023D01*
X164382033Y-136874027D01*
X164475946Y-137075425D01*
X164520184Y-137138603D01*
X164520185Y-137138603D01*
X165089309Y-136569479D01*
X165106619Y-136634081D01*
X165173498Y-136749920D01*
X165268080Y-136844502D01*
X165383919Y-136911381D01*
X165448519Y-136928690D01*
X164879395Y-137497813D01*
X164879395Y-137497814D01*
X164942575Y-137542053D01*
X164942574Y-137542053D01*
X165143972Y-137635966D01*
X165143976Y-137635968D01*
X165358625Y-137693482D01*
X165541464Y-137709479D01*
X165579884Y-137724508D01*
X165604691Y-137711470D01*
X165618535Y-137709479D01*
X165801374Y-137693482D01*
X166016023Y-137635968D01*
X166016027Y-137635966D01*
X166217425Y-137542053D01*
X166217426Y-137542052D01*
X166280603Y-137497814D01*
X166280603Y-137497812D01*
X165711481Y-136928690D01*
X165776081Y-136911381D01*
X165891920Y-136844502D01*
X165986502Y-136749920D01*
X166053381Y-136634081D01*
X166070690Y-136569481D01*
X166639812Y-137138603D01*
X166639814Y-137138603D01*
X166684052Y-137075426D01*
X166684053Y-137075425D01*
X166777966Y-136874027D01*
X166777968Y-136874023D01*
X166835482Y-136659374D01*
X166854850Y-136438000D01*
X166835482Y-136216625D01*
X166777968Y-136001976D01*
X166777966Y-136001972D01*
X166684051Y-135800571D01*
X166639815Y-135737395D01*
X166639813Y-135737395D01*
X166070690Y-136306518D01*
X166053381Y-136241919D01*
X165986502Y-136126080D01*
X165891920Y-136031498D01*
X165776081Y-135964619D01*
X165711480Y-135947309D01*
X166280603Y-135378185D01*
X166280603Y-135378184D01*
X166217425Y-135333946D01*
X166016027Y-135240033D01*
X166016023Y-135240031D01*
X165801374Y-135182517D01*
X165618535Y-135166521D01*
X165580114Y-135151491D01*
X165555308Y-135164530D01*
X165541464Y-135166521D01*
X165358625Y-135182517D01*
X165143976Y-135240031D01*
X165143972Y-135240033D01*
X164942575Y-135333946D01*
X164879394Y-135378185D01*
X165448518Y-135947309D01*
X165383919Y-135964619D01*
X165268080Y-136031498D01*
X165173498Y-136126080D01*
X165106619Y-136241919D01*
X165089309Y-136306518D01*
X164520185Y-135737394D01*
X164475946Y-135800575D01*
X164382033Y-136001972D01*
X164382031Y-136001976D01*
X164324517Y-136216625D01*
X164305149Y-136438000D01*
X123664342Y-136438000D01*
X123650000Y-136436384D01*
X123468953Y-136456783D01*
X123468950Y-136456783D01*
X123468949Y-136456784D01*
X123296984Y-136516957D01*
X123296981Y-136516958D01*
X123142720Y-136613887D01*
X123142718Y-136613888D01*
X123013888Y-136742718D01*
X123013887Y-136742720D01*
X122916958Y-136896981D01*
X122916957Y-136896984D01*
X122881966Y-136996985D01*
X122856783Y-137068953D01*
X122836384Y-137250000D01*
X110894128Y-137250000D01*
X110895292Y-137244649D01*
X110914257Y-136979480D01*
X110895292Y-136714311D01*
X110838782Y-136454540D01*
X110745878Y-136205455D01*
X110618472Y-135972127D01*
X110490047Y-135800571D01*
X110459160Y-135759311D01*
X110459152Y-135759302D01*
X110271177Y-135571327D01*
X110271168Y-135571319D01*
X110161177Y-135488981D01*
X110058353Y-135412008D01*
X109891381Y-135320835D01*
X109875115Y-135311953D01*
X109824913Y-135261751D01*
X109809500Y-135201365D01*
X109809500Y-134950000D01*
X128186384Y-134950000D01*
X128206783Y-135131047D01*
X128206783Y-135131049D01*
X128206784Y-135131050D01*
X128266957Y-135303015D01*
X128266958Y-135303018D01*
X128363887Y-135457279D01*
X128363888Y-135457281D01*
X128492718Y-135586111D01*
X128492720Y-135586112D01*
X128646981Y-135683041D01*
X128646982Y-135683041D01*
X128646985Y-135683043D01*
X128818953Y-135743217D01*
X129000000Y-135763616D01*
X129181047Y-135743217D01*
X129353015Y-135683043D01*
X129457964Y-135617098D01*
X129526285Y-135597793D01*
X129592035Y-135617098D01*
X129696985Y-135683043D01*
X129868953Y-135743217D01*
X130050000Y-135763616D01*
X130231047Y-135743217D01*
X130403015Y-135683043D01*
X130557281Y-135586111D01*
X130686111Y-135457281D01*
X130783043Y-135303015D01*
X130843217Y-135131047D01*
X130863616Y-134950000D01*
X130843217Y-134768953D01*
X130783043Y-134596985D01*
X130783041Y-134596982D01*
X130783041Y-134596981D01*
X130695318Y-134457370D01*
X130676017Y-134392037D01*
X130672071Y-134100000D01*
X149886384Y-134100000D01*
X149906783Y-134281047D01*
X149906783Y-134281049D01*
X149906784Y-134281050D01*
X149966957Y-134453015D01*
X149966958Y-134453018D01*
X150063887Y-134607279D01*
X150063888Y-134607281D01*
X150192718Y-134736111D01*
X150192720Y-134736112D01*
X150346981Y-134833041D01*
X150346982Y-134833041D01*
X150346985Y-134833043D01*
X150518953Y-134893217D01*
X150700000Y-134913616D01*
X150881047Y-134893217D01*
X151053015Y-134833043D01*
X151121807Y-134789817D01*
X151180701Y-134752813D01*
X151247737Y-134733500D01*
X151535735Y-134733500D01*
X151603856Y-134753502D01*
X151650349Y-134807158D01*
X151654664Y-134817884D01*
X151663091Y-134841968D01*
X151666958Y-134853017D01*
X151666958Y-134853018D01*
X151763887Y-135007279D01*
X151763888Y-135007281D01*
X151892718Y-135136111D01*
X151892720Y-135136112D01*
X152046981Y-135233041D01*
X152046982Y-135233041D01*
X152046985Y-135233043D01*
X152218953Y-135293217D01*
X152400000Y-135313616D01*
X152581047Y-135293217D01*
X152753015Y-135233043D01*
X152907281Y-135136111D01*
X153036111Y-135007281D01*
X153133043Y-134853015D01*
X153193217Y-134681047D01*
X153213616Y-134500000D01*
X153193217Y-134318953D01*
X153133043Y-134146985D01*
X153133041Y-134146982D01*
X153133041Y-134146981D01*
X153036112Y-133992720D01*
X153036111Y-133992718D01*
X152907281Y-133863888D01*
X152907279Y-133863887D01*
X152753018Y-133766958D01*
X152753015Y-133766957D01*
X152581052Y-133706784D01*
X152581038Y-133706781D01*
X152536543Y-133701767D01*
X152471091Y-133674262D01*
X152461559Y-133665655D01*
X152439904Y-133644000D01*
X164305149Y-133644000D01*
X164324517Y-133865374D01*
X164382031Y-134080023D01*
X164382033Y-134080027D01*
X164475946Y-134281425D01*
X164520184Y-134344603D01*
X164520185Y-134344603D01*
X165089309Y-133775479D01*
X165106619Y-133840081D01*
X165173498Y-133955920D01*
X165268080Y-134050502D01*
X165383919Y-134117381D01*
X165448519Y-134134690D01*
X164879395Y-134703813D01*
X164879395Y-134703814D01*
X164942575Y-134748053D01*
X164942574Y-134748053D01*
X165143972Y-134841966D01*
X165143976Y-134841968D01*
X165358625Y-134899482D01*
X165541464Y-134915479D01*
X165579884Y-134930508D01*
X165604691Y-134917470D01*
X165618535Y-134915479D01*
X165801374Y-134899482D01*
X166016023Y-134841968D01*
X166016027Y-134841966D01*
X166217425Y-134748053D01*
X166217426Y-134748052D01*
X166280603Y-134703814D01*
X166280603Y-134703812D01*
X165711481Y-134134690D01*
X165776081Y-134117381D01*
X165891920Y-134050502D01*
X165986502Y-133955920D01*
X166053381Y-133840081D01*
X166070690Y-133775481D01*
X166639812Y-134344603D01*
X166639814Y-134344603D01*
X166684052Y-134281426D01*
X166684053Y-134281425D01*
X166777966Y-134080027D01*
X166777968Y-134080023D01*
X166835482Y-133865374D01*
X166854850Y-133644000D01*
X166835482Y-133422625D01*
X166777968Y-133207976D01*
X166777966Y-133207972D01*
X166684051Y-133006571D01*
X166639815Y-132943395D01*
X166639813Y-132943395D01*
X166070690Y-133512518D01*
X166053381Y-133447919D01*
X165986502Y-133332080D01*
X165891920Y-133237498D01*
X165776081Y-133170619D01*
X165711480Y-133153309D01*
X166280603Y-132584185D01*
X166280603Y-132584184D01*
X166217425Y-132539946D01*
X166016027Y-132446033D01*
X166016023Y-132446031D01*
X165801374Y-132388517D01*
X165621405Y-132372772D01*
X165579693Y-132356455D01*
X165552439Y-132370781D01*
X165538594Y-132372772D01*
X165358625Y-132388517D01*
X165143976Y-132446031D01*
X165143972Y-132446033D01*
X164942575Y-132539946D01*
X164879394Y-132584185D01*
X165448518Y-133153309D01*
X165383919Y-133170619D01*
X165268080Y-133237498D01*
X165173498Y-133332080D01*
X165106619Y-133447919D01*
X165089309Y-133512518D01*
X164520185Y-132943394D01*
X164475946Y-133006575D01*
X164382033Y-133207972D01*
X164382031Y-133207976D01*
X164324517Y-133422625D01*
X164305149Y-133644000D01*
X152439904Y-133644000D01*
X152403835Y-133607931D01*
X152403833Y-133607929D01*
X152300075Y-133538600D01*
X152184785Y-133490845D01*
X152111086Y-133476185D01*
X152062396Y-133466500D01*
X152062394Y-133466500D01*
X151247737Y-133466500D01*
X151180701Y-133447187D01*
X151053017Y-133366958D01*
X151053015Y-133366957D01*
X150881050Y-133306784D01*
X150881049Y-133306783D01*
X150881047Y-133306783D01*
X150700000Y-133286384D01*
X150518953Y-133306783D01*
X150518950Y-133306783D01*
X150518949Y-133306784D01*
X150346984Y-133366957D01*
X150346981Y-133366958D01*
X150192720Y-133463887D01*
X150192718Y-133463888D01*
X150063888Y-133592718D01*
X150063887Y-133592720D01*
X149966958Y-133746981D01*
X149966957Y-133746984D01*
X149909375Y-133911546D01*
X149906783Y-133918953D01*
X149886384Y-134100000D01*
X130672071Y-134100000D01*
X130663266Y-133448438D01*
X130642988Y-131947856D01*
X130662067Y-131879472D01*
X130701940Y-131839466D01*
X130707281Y-131836111D01*
X130836111Y-131707281D01*
X130933043Y-131553015D01*
X130934098Y-131550000D01*
X152036384Y-131550000D01*
X152056783Y-131731047D01*
X152056783Y-131731049D01*
X152056784Y-131731050D01*
X152116957Y-131903015D01*
X152116958Y-131903018D01*
X152213887Y-132057279D01*
X152213888Y-132057281D01*
X152342718Y-132186111D01*
X152342720Y-132186112D01*
X152496981Y-132283041D01*
X152496982Y-132283041D01*
X152496985Y-132283043D01*
X152668953Y-132343217D01*
X152713450Y-132348230D01*
X152778902Y-132375732D01*
X152788439Y-132384343D01*
X153257929Y-132853833D01*
X153346167Y-132942071D01*
X153449925Y-133011400D01*
X153565215Y-133059155D01*
X153593402Y-133064761D01*
X153635492Y-133084311D01*
X153636727Y-133082347D01*
X153796981Y-133183041D01*
X153796982Y-133183041D01*
X153796985Y-133183043D01*
X153968953Y-133243217D01*
X154150000Y-133263616D01*
X154331047Y-133243217D01*
X154503015Y-133183043D01*
X154657281Y-133086111D01*
X154786111Y-132957281D01*
X154883043Y-132803015D01*
X154943217Y-132631047D01*
X154963616Y-132450000D01*
X154943217Y-132268953D01*
X154883043Y-132096985D01*
X154883041Y-132096982D01*
X154883041Y-132096981D01*
X154786112Y-131942720D01*
X154786111Y-131942718D01*
X154657281Y-131813888D01*
X154657279Y-131813887D01*
X154503018Y-131716958D01*
X154503015Y-131716957D01*
X154331050Y-131656784D01*
X154331049Y-131656783D01*
X154331047Y-131656783D01*
X154150000Y-131636384D01*
X154149999Y-131636384D01*
X153968955Y-131656782D01*
X153968949Y-131656783D01*
X153957544Y-131660774D01*
X153886640Y-131664389D01*
X153826841Y-131630937D01*
X153684343Y-131488439D01*
X153650317Y-131426127D01*
X153648230Y-131413449D01*
X153644579Y-131381047D01*
X153643217Y-131368953D01*
X153583043Y-131196985D01*
X153583041Y-131196982D01*
X153583041Y-131196981D01*
X153486112Y-131042720D01*
X153486111Y-131042718D01*
X153357281Y-130913888D01*
X153357279Y-130913887D01*
X153203018Y-130816958D01*
X153203015Y-130816957D01*
X153031050Y-130756784D01*
X153031049Y-130756783D01*
X153031047Y-130756783D01*
X152850000Y-130736384D01*
X152668953Y-130756783D01*
X152668950Y-130756783D01*
X152668949Y-130756784D01*
X152496984Y-130816957D01*
X152496981Y-130816958D01*
X152342720Y-130913887D01*
X152342718Y-130913888D01*
X152213888Y-131042718D01*
X152213887Y-131042720D01*
X152116958Y-131196981D01*
X152116957Y-131196984D01*
X152074279Y-131318953D01*
X152056783Y-131368953D01*
X152036384Y-131550000D01*
X130934098Y-131550000D01*
X130993217Y-131381047D01*
X131013616Y-131200000D01*
X130993217Y-131018953D01*
X130933043Y-130846985D01*
X130933041Y-130846982D01*
X130933041Y-130846981D01*
X130836112Y-130692720D01*
X130836111Y-130692718D01*
X130707281Y-130563888D01*
X130707279Y-130563887D01*
X130553018Y-130466958D01*
X130553015Y-130466957D01*
X130381050Y-130406784D01*
X130381049Y-130406783D01*
X130381047Y-130406783D01*
X130200000Y-130386384D01*
X130018953Y-130406783D01*
X130018950Y-130406783D01*
X130018949Y-130406784D01*
X129846984Y-130466957D01*
X129846981Y-130466958D01*
X129692721Y-130563886D01*
X129562057Y-130694550D01*
X129499745Y-130728575D01*
X129431348Y-130724384D01*
X129381047Y-130706783D01*
X129200000Y-130686384D01*
X129018953Y-130706783D01*
X129018950Y-130706783D01*
X129018949Y-130706784D01*
X128846984Y-130766957D01*
X128846981Y-130766958D01*
X128692720Y-130863887D01*
X128692718Y-130863888D01*
X128563888Y-130992718D01*
X128563887Y-130992720D01*
X128466958Y-131146981D01*
X128466957Y-131146984D01*
X128422854Y-131273025D01*
X128406783Y-131318953D01*
X128386384Y-131500000D01*
X128406783Y-131681047D01*
X128406783Y-131681049D01*
X128406784Y-131681050D01*
X128466957Y-131853015D01*
X128466958Y-131853017D01*
X128547187Y-131980701D01*
X128566500Y-132047737D01*
X128566500Y-134197891D01*
X128546498Y-134266012D01*
X128507539Y-134304576D01*
X128492720Y-134313887D01*
X128492714Y-134313892D01*
X128363888Y-134442718D01*
X128363887Y-134442720D01*
X128266958Y-134596981D01*
X128266957Y-134596984D01*
X128212190Y-134753502D01*
X128206783Y-134768953D01*
X128186384Y-134950000D01*
X109809500Y-134950000D01*
X109809500Y-129710000D01*
X110475667Y-129710000D01*
X110495042Y-129931463D01*
X110538384Y-130093215D01*
X110552579Y-130146193D01*
X110552581Y-130146199D01*
X110646531Y-130347675D01*
X110646532Y-130347677D01*
X110774036Y-130529772D01*
X110774040Y-130529777D01*
X110774043Y-130529781D01*
X110931239Y-130686977D01*
X110931243Y-130686980D01*
X110931247Y-130686983D01*
X111030806Y-130756695D01*
X111113343Y-130814488D01*
X111178330Y-130844792D01*
X111223984Y-130866081D01*
X111277269Y-130912998D01*
X111296730Y-130981276D01*
X111276188Y-131049236D01*
X111223985Y-131094470D01*
X111113597Y-131145945D01*
X111050414Y-131190185D01*
X111703829Y-131843600D01*
X111697516Y-131843600D01*
X111594155Y-131871295D01*
X111501484Y-131924799D01*
X111425819Y-132000464D01*
X111372315Y-132093135D01*
X111344620Y-132196496D01*
X111344620Y-132202809D01*
X110691205Y-131549394D01*
X110646966Y-131612575D01*
X110553053Y-131813972D01*
X110553051Y-131813976D01*
X110495537Y-132028625D01*
X110476169Y-132250000D01*
X110495537Y-132471374D01*
X110553051Y-132686023D01*
X110553053Y-132686027D01*
X110646966Y-132887425D01*
X110691204Y-132950603D01*
X110691205Y-132950603D01*
X111344620Y-132297188D01*
X111344620Y-132303504D01*
X111372315Y-132406865D01*
X111425819Y-132499536D01*
X111501484Y-132575201D01*
X111594155Y-132628705D01*
X111697516Y-132656400D01*
X111703830Y-132656400D01*
X111050415Y-133309813D01*
X111050415Y-133309814D01*
X111113595Y-133354053D01*
X111113594Y-133354053D01*
X111314992Y-133447966D01*
X111314996Y-133447968D01*
X111529645Y-133505482D01*
X111751020Y-133524850D01*
X111972394Y-133505482D01*
X112187043Y-133447968D01*
X112187047Y-133447966D01*
X112388445Y-133354053D01*
X112388446Y-133354052D01*
X112451623Y-133309814D01*
X112451623Y-133309812D01*
X111798211Y-132656400D01*
X111804524Y-132656400D01*
X111907885Y-132628705D01*
X112000556Y-132575201D01*
X112076221Y-132499536D01*
X112129725Y-132406865D01*
X112157420Y-132303504D01*
X112157420Y-132297189D01*
X112540333Y-132680102D01*
X112565433Y-132715948D01*
X112645511Y-132887675D01*
X112645512Y-132887677D01*
X112773016Y-133069772D01*
X112773020Y-133069777D01*
X112773023Y-133069781D01*
X112930219Y-133226977D01*
X112930223Y-133226980D01*
X112930227Y-133226983D01*
X113012784Y-133284790D01*
X113112323Y-133354488D01*
X113313804Y-133448440D01*
X113528537Y-133505978D01*
X113750000Y-133525353D01*
X113971463Y-133505978D01*
X114186196Y-133448440D01*
X114387677Y-133354488D01*
X114569781Y-133226977D01*
X114726977Y-133069781D01*
X114854488Y-132887677D01*
X114948440Y-132686196D01*
X115005978Y-132471463D01*
X115025353Y-132250000D01*
X115005978Y-132028537D01*
X114948440Y-131813804D01*
X114854488Y-131612324D01*
X114726977Y-131430219D01*
X114569781Y-131273023D01*
X114569777Y-131273020D01*
X114569772Y-131273016D01*
X114387677Y-131145512D01*
X114387675Y-131145511D01*
X114277627Y-131094195D01*
X114224342Y-131047278D01*
X114204881Y-130979001D01*
X114225423Y-130911041D01*
X114277627Y-130865805D01*
X114281740Y-130863887D01*
X114387677Y-130814488D01*
X114569781Y-130686977D01*
X114726977Y-130529781D01*
X114854488Y-130347677D01*
X114948440Y-130146196D01*
X115005978Y-129931463D01*
X115025353Y-129710000D01*
X115005978Y-129488537D01*
X114948440Y-129273804D01*
X114854488Y-129072324D01*
X114726977Y-128890219D01*
X114569781Y-128733023D01*
X114569777Y-128733020D01*
X114569772Y-128733016D01*
X114387677Y-128605512D01*
X114387675Y-128605511D01*
X114186199Y-128511561D01*
X114186193Y-128511559D01*
X114120882Y-128494059D01*
X113971463Y-128454022D01*
X113750000Y-128434647D01*
X113528537Y-128454022D01*
X113413463Y-128484856D01*
X113313806Y-128511559D01*
X113313801Y-128511561D01*
X113112323Y-128605512D01*
X112930222Y-128733020D01*
X112839605Y-128823637D01*
X112777293Y-128857662D01*
X112706477Y-128852596D01*
X112661415Y-128823637D01*
X112630496Y-128792718D01*
X112570801Y-128733023D01*
X112570797Y-128733020D01*
X112570792Y-128733016D01*
X112388697Y-128605512D01*
X112388695Y-128605511D01*
X112187219Y-128511561D01*
X112187213Y-128511559D01*
X112121902Y-128494059D01*
X111972483Y-128454022D01*
X111751020Y-128434647D01*
X111529557Y-128454022D01*
X111414483Y-128484856D01*
X111314826Y-128511559D01*
X111314821Y-128511561D01*
X111113343Y-128605512D01*
X110931242Y-128733020D01*
X110931236Y-128733025D01*
X110774045Y-128890216D01*
X110774040Y-128890222D01*
X110646532Y-129072323D01*
X110552581Y-129273801D01*
X110552579Y-129273806D01*
X110525876Y-129373463D01*
X110495042Y-129488537D01*
X110475667Y-129710000D01*
X109809500Y-129710000D01*
X109809500Y-126930000D01*
X121383571Y-126930000D01*
X121402811Y-127149913D01*
X121408521Y-127171223D01*
X121459945Y-127363142D01*
X121459947Y-127363147D01*
X121553240Y-127563215D01*
X121679859Y-127744045D01*
X121679862Y-127744049D01*
X121835950Y-127900137D01*
X121835954Y-127900140D01*
X121835955Y-127900141D01*
X122016785Y-128026760D01*
X122096405Y-128063887D01*
X122143408Y-128085805D01*
X122196693Y-128132722D01*
X122216154Y-128200999D01*
X122195612Y-128268959D01*
X122143408Y-128314195D01*
X122016785Y-128373240D01*
X121835958Y-128499856D01*
X121835952Y-128499861D01*
X121679861Y-128655952D01*
X121679856Y-128655958D01*
X121553240Y-128836785D01*
X121459947Y-129036852D01*
X121459945Y-129036857D01*
X121426957Y-129159974D01*
X121402811Y-129250087D01*
X121383571Y-129470000D01*
X121402811Y-129689913D01*
X121417709Y-129745512D01*
X121459945Y-129903142D01*
X121459947Y-129903147D01*
X121553240Y-130103215D01*
X121679859Y-130284045D01*
X121679862Y-130284049D01*
X121835950Y-130440137D01*
X121835954Y-130440140D01*
X121835955Y-130440141D01*
X122016785Y-130566760D01*
X122216856Y-130660054D01*
X122430087Y-130717189D01*
X122650000Y-130736429D01*
X122869913Y-130717189D01*
X123083144Y-130660054D01*
X123283215Y-130566760D01*
X123464045Y-130440141D01*
X123620141Y-130284045D01*
X123746760Y-130103215D01*
X123840054Y-129903144D01*
X123897189Y-129689913D01*
X123916429Y-129470000D01*
X123897189Y-129250087D01*
X123840054Y-129036856D01*
X123822868Y-129000000D01*
X127286384Y-129000000D01*
X127306783Y-129181047D01*
X127306783Y-129181049D01*
X127306784Y-129181050D01*
X127366957Y-129353015D01*
X127366958Y-129353018D01*
X127463887Y-129507279D01*
X127463888Y-129507281D01*
X127592718Y-129636111D01*
X127592720Y-129636112D01*
X127617307Y-129651561D01*
X127746985Y-129733043D01*
X127746989Y-129733044D01*
X127753365Y-129736115D01*
X127752328Y-129738266D01*
X127787899Y-129760580D01*
X127916485Y-129889166D01*
X128040715Y-129972174D01*
X128178753Y-130029351D01*
X128178754Y-130029351D01*
X128178758Y-130029353D01*
X128239643Y-130041462D01*
X128252020Y-130043924D01*
X128252022Y-130043925D01*
X128276335Y-130048761D01*
X128325294Y-130058500D01*
X128325295Y-130058500D01*
X128474705Y-130058500D01*
X130598330Y-130058500D01*
X130639944Y-130065570D01*
X130718953Y-130093217D01*
X130900000Y-130113616D01*
X131081047Y-130093217D01*
X131253015Y-130033043D01*
X131407281Y-129936111D01*
X131536111Y-129807281D01*
X131633043Y-129653015D01*
X131693217Y-129481047D01*
X131713616Y-129300000D01*
X131693217Y-129118953D01*
X131633043Y-128946985D01*
X131633041Y-128946982D01*
X131633041Y-128946981D01*
X131536112Y-128792720D01*
X131536111Y-128792718D01*
X131443393Y-128700000D01*
X135586384Y-128700000D01*
X135606783Y-128881047D01*
X135606783Y-128881049D01*
X135606784Y-128881050D01*
X135666957Y-129053015D01*
X135666958Y-129053018D01*
X135763887Y-129207279D01*
X135763888Y-129207281D01*
X135892718Y-129336111D01*
X135892720Y-129336112D01*
X136046981Y-129433041D01*
X136046982Y-129433041D01*
X136046985Y-129433043D01*
X136218953Y-129493217D01*
X136400000Y-129513616D01*
X136581047Y-129493217D01*
X136753015Y-129433043D01*
X136907281Y-129336111D01*
X137036111Y-129207281D01*
X137133043Y-129053015D01*
X137193217Y-128881047D01*
X137210929Y-128723847D01*
X137238432Y-128658397D01*
X137247030Y-128648872D01*
X137461562Y-128434340D01*
X137523873Y-128400317D01*
X137536542Y-128398231D01*
X137581047Y-128393217D01*
X137753015Y-128333043D01*
X137907281Y-128236111D01*
X137960392Y-128183000D01*
X164304647Y-128183000D01*
X164324022Y-128404463D01*
X164367563Y-128566958D01*
X164381559Y-128619193D01*
X164381561Y-128619199D01*
X164475511Y-128820675D01*
X164475512Y-128820677D01*
X164603016Y-129002772D01*
X164603020Y-129002777D01*
X164603023Y-129002781D01*
X164760219Y-129159977D01*
X164760223Y-129159980D01*
X164760227Y-129159983D01*
X164774519Y-129169990D01*
X164942323Y-129287488D01*
X165143804Y-129381440D01*
X165193638Y-129394793D01*
X165254261Y-129431745D01*
X165285282Y-129495606D01*
X165276854Y-129566100D01*
X165231651Y-129620847D01*
X165193638Y-129638207D01*
X165143806Y-129651559D01*
X165143801Y-129651561D01*
X164942323Y-129745512D01*
X164760222Y-129873020D01*
X164760216Y-129873025D01*
X164603025Y-130030216D01*
X164603020Y-130030222D01*
X164475512Y-130212323D01*
X164381561Y-130413801D01*
X164381559Y-130413806D01*
X164367317Y-130466958D01*
X164324022Y-130628537D01*
X164304647Y-130850000D01*
X164324022Y-131071463D01*
X164355834Y-131190185D01*
X164381559Y-131286193D01*
X164381561Y-131286199D01*
X164475511Y-131487675D01*
X164475512Y-131487677D01*
X164603016Y-131669772D01*
X164603020Y-131669777D01*
X164603023Y-131669781D01*
X164760219Y-131826977D01*
X164760223Y-131826980D01*
X164760227Y-131826983D01*
X164815804Y-131865898D01*
X164942323Y-131954488D01*
X165143804Y-132048440D01*
X165358537Y-132105978D01*
X165538594Y-132121730D01*
X165580306Y-132138046D01*
X165607561Y-132123721D01*
X165621396Y-132121731D01*
X165801463Y-132105978D01*
X166016196Y-132048440D01*
X166217677Y-131954488D01*
X166399781Y-131826977D01*
X166556977Y-131669781D01*
X166684488Y-131487677D01*
X166778440Y-131286196D01*
X166835978Y-131071463D01*
X166855353Y-130850000D01*
X166835978Y-130628537D01*
X166778440Y-130413804D01*
X166684488Y-130212324D01*
X166556977Y-130030219D01*
X166399781Y-129873023D01*
X166399777Y-129873020D01*
X166399772Y-129873016D01*
X166217677Y-129745512D01*
X166217675Y-129745511D01*
X166016199Y-129651561D01*
X166016194Y-129651559D01*
X165987999Y-129644004D01*
X165966359Y-129638206D01*
X165905738Y-129601255D01*
X165874717Y-129537395D01*
X165875697Y-129529200D01*
X167145149Y-129529200D01*
X167164517Y-129750574D01*
X167222031Y-129965223D01*
X167222033Y-129965227D01*
X167315946Y-130166625D01*
X167360184Y-130229803D01*
X167360185Y-130229803D01*
X167929309Y-129660679D01*
X167946619Y-129725281D01*
X168013498Y-129841120D01*
X168108080Y-129935702D01*
X168223919Y-130002581D01*
X168288519Y-130019890D01*
X167719395Y-130589013D01*
X167719395Y-130589014D01*
X167782575Y-130633253D01*
X167782574Y-130633253D01*
X167983972Y-130727166D01*
X167983976Y-130727168D01*
X168177764Y-130779093D01*
X168238387Y-130816045D01*
X168269408Y-130879905D01*
X168260980Y-130950400D01*
X168215777Y-131005147D01*
X168177764Y-131022507D01*
X167983976Y-131074431D01*
X167983972Y-131074433D01*
X167782575Y-131168346D01*
X167719394Y-131212585D01*
X168288518Y-131781709D01*
X168223919Y-131799019D01*
X168108080Y-131865898D01*
X168013498Y-131960480D01*
X167946619Y-132076319D01*
X167929309Y-132140918D01*
X167360185Y-131571794D01*
X167315946Y-131634975D01*
X167222033Y-131836372D01*
X167222031Y-131836376D01*
X167164517Y-132051025D01*
X167145149Y-132272400D01*
X167164517Y-132493774D01*
X167222031Y-132708423D01*
X167222033Y-132708427D01*
X167315946Y-132909825D01*
X167360184Y-132973003D01*
X167360185Y-132973003D01*
X167929309Y-132403879D01*
X167946619Y-132468481D01*
X168013498Y-132584320D01*
X168108080Y-132678902D01*
X168223919Y-132745781D01*
X168288519Y-132763090D01*
X167719395Y-133332213D01*
X167719395Y-133332214D01*
X167782575Y-133376453D01*
X167782574Y-133376453D01*
X167983972Y-133470366D01*
X167983976Y-133470368D01*
X168177764Y-133522293D01*
X168238387Y-133559245D01*
X168269408Y-133623105D01*
X168260980Y-133693600D01*
X168215777Y-133748347D01*
X168177764Y-133765707D01*
X167983976Y-133817631D01*
X167983972Y-133817633D01*
X167782575Y-133911546D01*
X167719394Y-133955785D01*
X168288518Y-134524909D01*
X168223919Y-134542219D01*
X168108080Y-134609098D01*
X168013498Y-134703680D01*
X167946619Y-134819519D01*
X167929309Y-134884118D01*
X167360185Y-134314994D01*
X167315946Y-134378175D01*
X167222033Y-134579572D01*
X167222031Y-134579576D01*
X167164517Y-134794225D01*
X167145149Y-135015600D01*
X167164517Y-135236974D01*
X167222031Y-135451623D01*
X167222033Y-135451627D01*
X167315946Y-135653025D01*
X167360184Y-135716203D01*
X167360185Y-135716203D01*
X167929309Y-135147079D01*
X167946619Y-135211681D01*
X168013498Y-135327520D01*
X168108080Y-135422102D01*
X168223919Y-135488981D01*
X168288519Y-135506290D01*
X167719395Y-136075413D01*
X167719395Y-136075414D01*
X167782575Y-136119653D01*
X167782574Y-136119653D01*
X167983972Y-136213566D01*
X167983976Y-136213568D01*
X168198625Y-136271082D01*
X168420000Y-136290450D01*
X168641374Y-136271082D01*
X168856023Y-136213568D01*
X168856027Y-136213566D01*
X169057425Y-136119653D01*
X169057426Y-136119652D01*
X169120603Y-136075414D01*
X169120603Y-136075412D01*
X168551481Y-135506290D01*
X168616081Y-135488981D01*
X168731920Y-135422102D01*
X168826502Y-135327520D01*
X168893381Y-135211681D01*
X168910690Y-135147081D01*
X169479812Y-135716203D01*
X169479814Y-135716203D01*
X169524052Y-135653026D01*
X169524053Y-135653025D01*
X169617966Y-135451627D01*
X169617968Y-135451623D01*
X169675482Y-135236974D01*
X169694850Y-135015600D01*
X169675482Y-134794225D01*
X169617968Y-134579576D01*
X169617966Y-134579572D01*
X169524051Y-134378171D01*
X169479815Y-134314995D01*
X169479813Y-134314995D01*
X168910690Y-134884118D01*
X168893381Y-134819519D01*
X168826502Y-134703680D01*
X168731920Y-134609098D01*
X168616081Y-134542219D01*
X168551480Y-134524909D01*
X169120603Y-133955785D01*
X169120603Y-133955784D01*
X169057425Y-133911546D01*
X168856027Y-133817633D01*
X168856023Y-133817631D01*
X168662235Y-133765707D01*
X168601612Y-133728756D01*
X168570591Y-133664895D01*
X168579019Y-133594400D01*
X168624222Y-133539653D01*
X168662235Y-133522293D01*
X168856023Y-133470368D01*
X168856027Y-133470366D01*
X169057425Y-133376453D01*
X169057426Y-133376452D01*
X169120603Y-133332214D01*
X169120603Y-133332212D01*
X168551481Y-132763090D01*
X168616081Y-132745781D01*
X168731920Y-132678902D01*
X168826502Y-132584320D01*
X168893381Y-132468481D01*
X168910690Y-132403881D01*
X169479812Y-132973003D01*
X169479814Y-132973003D01*
X169524052Y-132909826D01*
X169524053Y-132909825D01*
X169617966Y-132708427D01*
X169617968Y-132708423D01*
X169675482Y-132493774D01*
X169694850Y-132272400D01*
X169675482Y-132051025D01*
X169617968Y-131836376D01*
X169617966Y-131836372D01*
X169524051Y-131634971D01*
X169479815Y-131571795D01*
X169479813Y-131571795D01*
X168910690Y-132140918D01*
X168893381Y-132076319D01*
X168826502Y-131960480D01*
X168731920Y-131865898D01*
X168616081Y-131799019D01*
X168551480Y-131781709D01*
X169120603Y-131212585D01*
X169120603Y-131212584D01*
X169057425Y-131168346D01*
X168856027Y-131074433D01*
X168856023Y-131074431D01*
X168662235Y-131022507D01*
X168601612Y-130985556D01*
X168570591Y-130921695D01*
X168579019Y-130851200D01*
X168624222Y-130796453D01*
X168662235Y-130779093D01*
X168856023Y-130727168D01*
X168856027Y-130727166D01*
X169057425Y-130633253D01*
X169057426Y-130633252D01*
X169120603Y-130589014D01*
X169120603Y-130589012D01*
X168551481Y-130019890D01*
X168616081Y-130002581D01*
X168731920Y-129935702D01*
X168826502Y-129841120D01*
X168893381Y-129725281D01*
X168910690Y-129660681D01*
X169479812Y-130229803D01*
X169479814Y-130229803D01*
X169524052Y-130166626D01*
X169524053Y-130166625D01*
X169617966Y-129965227D01*
X169617968Y-129965223D01*
X169675482Y-129750574D01*
X169694850Y-129529200D01*
X169675482Y-129307825D01*
X169617968Y-129093176D01*
X169617966Y-129093172D01*
X169524051Y-128891771D01*
X169479815Y-128828595D01*
X169479813Y-128828595D01*
X168910690Y-129397718D01*
X168893381Y-129333119D01*
X168826502Y-129217280D01*
X168731920Y-129122698D01*
X168616081Y-129055819D01*
X168551480Y-129038509D01*
X169120603Y-128469385D01*
X169120603Y-128469384D01*
X169057425Y-128425146D01*
X168856027Y-128331233D01*
X168856023Y-128331231D01*
X168641374Y-128273717D01*
X168458535Y-128257721D01*
X168420114Y-128242691D01*
X168395308Y-128255730D01*
X168381464Y-128257721D01*
X168198625Y-128273717D01*
X167983976Y-128331231D01*
X167983972Y-128331233D01*
X167782575Y-128425146D01*
X167719394Y-128469385D01*
X168288518Y-129038509D01*
X168223919Y-129055819D01*
X168108080Y-129122698D01*
X168013498Y-129217280D01*
X167946619Y-129333119D01*
X167929309Y-129397718D01*
X167360185Y-128828594D01*
X167315946Y-128891775D01*
X167222033Y-129093172D01*
X167222031Y-129093176D01*
X167164517Y-129307825D01*
X167145149Y-129529200D01*
X165875697Y-129529200D01*
X165883145Y-129466900D01*
X165928348Y-129412153D01*
X165966359Y-129394793D01*
X166016196Y-129381440D01*
X166217677Y-129287488D01*
X166399781Y-129159977D01*
X166556977Y-129002781D01*
X166684488Y-128820677D01*
X166778440Y-128619196D01*
X166835978Y-128404463D01*
X166855353Y-128183000D01*
X166835978Y-127961537D01*
X166778440Y-127746804D01*
X166684488Y-127545324D01*
X166556977Y-127363219D01*
X166399781Y-127206023D01*
X166399777Y-127206020D01*
X166399772Y-127206016D01*
X166217677Y-127078512D01*
X166217675Y-127078511D01*
X166016199Y-126984561D01*
X166016193Y-126984559D01*
X165939051Y-126963889D01*
X165801463Y-126927022D01*
X165624274Y-126911520D01*
X165579272Y-126893917D01*
X165549569Y-126909530D01*
X165535729Y-126911520D01*
X165358537Y-126927022D01*
X165248248Y-126956574D01*
X165143806Y-126984559D01*
X165143801Y-126984561D01*
X164942323Y-127078512D01*
X164760222Y-127206020D01*
X164760216Y-127206025D01*
X164603025Y-127363216D01*
X164603020Y-127363222D01*
X164475512Y-127545323D01*
X164381561Y-127746801D01*
X164381559Y-127746806D01*
X164368642Y-127795013D01*
X164324022Y-127961537D01*
X164304647Y-128183000D01*
X137960392Y-128183000D01*
X138036111Y-128107281D01*
X138133043Y-127953015D01*
X138193217Y-127781047D01*
X138213616Y-127600000D01*
X138193217Y-127418953D01*
X138133043Y-127246985D01*
X138133041Y-127246982D01*
X138133041Y-127246981D01*
X138036112Y-127092720D01*
X138036111Y-127092718D01*
X137907281Y-126963888D01*
X137907279Y-126963887D01*
X137753018Y-126866958D01*
X137753015Y-126866957D01*
X137581050Y-126806784D01*
X137581049Y-126806783D01*
X137581047Y-126806783D01*
X137400000Y-126786384D01*
X137218953Y-126806783D01*
X137218950Y-126806783D01*
X137218949Y-126806784D01*
X137046984Y-126866957D01*
X137046981Y-126866958D01*
X136892720Y-126963887D01*
X136892718Y-126963888D01*
X136763888Y-127092718D01*
X136763887Y-127092720D01*
X136666958Y-127246981D01*
X136666957Y-127246984D01*
X136606784Y-127418947D01*
X136606781Y-127418961D01*
X136601768Y-127463451D01*
X136574264Y-127528904D01*
X136565657Y-127538436D01*
X136205999Y-127898095D01*
X136158519Y-127927929D01*
X136046982Y-127966958D01*
X136046981Y-127966958D01*
X135892720Y-128063887D01*
X135892718Y-128063888D01*
X135763888Y-128192718D01*
X135763887Y-128192720D01*
X135666958Y-128346981D01*
X135666957Y-128346984D01*
X135609370Y-128511561D01*
X135606783Y-128518953D01*
X135586384Y-128700000D01*
X131443393Y-128700000D01*
X131407281Y-128663888D01*
X131407279Y-128663887D01*
X131253018Y-128566958D01*
X131253015Y-128566957D01*
X131081050Y-128506784D01*
X131081049Y-128506783D01*
X131081047Y-128506783D01*
X130900000Y-128486384D01*
X130718953Y-128506783D01*
X130718950Y-128506783D01*
X130718949Y-128506784D01*
X130639945Y-128534429D01*
X130598330Y-128541500D01*
X128835691Y-128541500D01*
X128767570Y-128521498D01*
X128741172Y-128497664D01*
X128741115Y-128497722D01*
X128739981Y-128496588D01*
X128737180Y-128494059D01*
X128736109Y-128492716D01*
X128607281Y-128363888D01*
X128607279Y-128363887D01*
X128453018Y-128266958D01*
X128453015Y-128266957D01*
X128281050Y-128206784D01*
X128281049Y-128206783D01*
X128281047Y-128206783D01*
X128100000Y-128186384D01*
X127918953Y-128206783D01*
X127918950Y-128206783D01*
X127918949Y-128206784D01*
X127746984Y-128266957D01*
X127746981Y-128266958D01*
X127592720Y-128363887D01*
X127592718Y-128363888D01*
X127463888Y-128492718D01*
X127463887Y-128492720D01*
X127366958Y-128646981D01*
X127366957Y-128646984D01*
X127315963Y-128792719D01*
X127306783Y-128818953D01*
X127286384Y-129000000D01*
X123822868Y-129000000D01*
X123746760Y-128836786D01*
X123620141Y-128655955D01*
X123464045Y-128499859D01*
X123460993Y-128497722D01*
X123283213Y-128373238D01*
X123156592Y-128314195D01*
X123103306Y-128267278D01*
X123083845Y-128199001D01*
X123104386Y-128131041D01*
X123156592Y-128085805D01*
X123283213Y-128026761D01*
X123283213Y-128026760D01*
X123283215Y-128026760D01*
X123464045Y-127900141D01*
X123620141Y-127744045D01*
X123746760Y-127563215D01*
X123840054Y-127363144D01*
X123897189Y-127149913D01*
X123916429Y-126930000D01*
X123897189Y-126710087D01*
X123840054Y-126496856D01*
X123746760Y-126296786D01*
X123620141Y-126115955D01*
X123464045Y-125959859D01*
X123283215Y-125833240D01*
X123265971Y-125825199D01*
X123083147Y-125739947D01*
X123083142Y-125739945D01*
X122984181Y-125713428D01*
X122869913Y-125682811D01*
X122650000Y-125663571D01*
X122430087Y-125682811D01*
X122372953Y-125698119D01*
X122216857Y-125739945D01*
X122216852Y-125739947D01*
X122016785Y-125833240D01*
X121835958Y-125959856D01*
X121835952Y-125959861D01*
X121679861Y-126115952D01*
X121679856Y-126115958D01*
X121553240Y-126296785D01*
X121459947Y-126496852D01*
X121459945Y-126496857D01*
X121428587Y-126613888D01*
X121402811Y-126710087D01*
X121383571Y-126930000D01*
X109809500Y-126930000D01*
X109809500Y-126758635D01*
X109829502Y-126690514D01*
X109875115Y-126648047D01*
X109881210Y-126644718D01*
X110058353Y-126547992D01*
X110271174Y-126388676D01*
X110459156Y-126200694D01*
X110618472Y-125987873D01*
X110745878Y-125754545D01*
X110838782Y-125505460D01*
X110895292Y-125245689D01*
X110914257Y-124980520D01*
X110895292Y-124715351D01*
X110838782Y-124455580D01*
X110745878Y-124206495D01*
X110618472Y-123973167D01*
X110478648Y-123786384D01*
X110459160Y-123760351D01*
X110459152Y-123760342D01*
X110271177Y-123572367D01*
X110271168Y-123572359D01*
X110103687Y-123446985D01*
X110058353Y-123413048D01*
X109825025Y-123285642D01*
X109825024Y-123285641D01*
X109575938Y-123192737D01*
X109316165Y-123136227D01*
X109051000Y-123117263D01*
X108785834Y-123136227D01*
X108526061Y-123192737D01*
X108276975Y-123285641D01*
X108043647Y-123413048D01*
X107830831Y-123572359D01*
X107830822Y-123572367D01*
X107642847Y-123760342D01*
X107642839Y-123760351D01*
X107483528Y-123973167D01*
X107356121Y-124206495D01*
X107263217Y-124455581D01*
X107206707Y-124715354D01*
X107187743Y-124980520D01*
X100500000Y-124980520D01*
X100500000Y-122200000D01*
X136386384Y-122200000D01*
X136406783Y-122381047D01*
X136406783Y-122381049D01*
X136406784Y-122381050D01*
X136466957Y-122553015D01*
X136466958Y-122553018D01*
X136563887Y-122707279D01*
X136563888Y-122707281D01*
X136692718Y-122836111D01*
X136692720Y-122836112D01*
X136846981Y-122933041D01*
X136846982Y-122933041D01*
X136846985Y-122933043D01*
X137018953Y-122993217D01*
X137063453Y-122998230D01*
X137128904Y-123025734D01*
X137138438Y-123034343D01*
X137965655Y-123861560D01*
X137999681Y-123923872D01*
X138001767Y-123936543D01*
X138006782Y-123981039D01*
X138006784Y-123981052D01*
X138066957Y-124153015D01*
X138066958Y-124153018D01*
X138163887Y-124307279D01*
X138163888Y-124307281D01*
X138292718Y-124436111D01*
X138292720Y-124436112D01*
X138446981Y-124533041D01*
X138446982Y-124533041D01*
X138446985Y-124533043D01*
X138618953Y-124593217D01*
X138800000Y-124613616D01*
X138920846Y-124600000D01*
X156036384Y-124600000D01*
X156056783Y-124781047D01*
X156056783Y-124781049D01*
X156056784Y-124781050D01*
X156116957Y-124953015D01*
X156116958Y-124953018D01*
X156213887Y-125107279D01*
X156213888Y-125107281D01*
X156342718Y-125236111D01*
X156342720Y-125236112D01*
X156496981Y-125333041D01*
X156496982Y-125333041D01*
X156496985Y-125333043D01*
X156668953Y-125393217D01*
X156769802Y-125404579D01*
X156835253Y-125432083D01*
X156844788Y-125440692D01*
X158715655Y-127311559D01*
X158749681Y-127373871D01*
X158751767Y-127386543D01*
X158756781Y-127431038D01*
X158756784Y-127431052D01*
X158816957Y-127603015D01*
X158816958Y-127603018D01*
X158913887Y-127757279D01*
X158913888Y-127757281D01*
X159042718Y-127886111D01*
X159042720Y-127886112D01*
X159196981Y-127983041D01*
X159196982Y-127983041D01*
X159196985Y-127983043D01*
X159368953Y-128043217D01*
X159550000Y-128063616D01*
X159731047Y-128043217D01*
X159903015Y-127983043D01*
X160057281Y-127886111D01*
X160186111Y-127757281D01*
X160283043Y-127603015D01*
X160343217Y-127431047D01*
X160363616Y-127250000D01*
X160343217Y-127068953D01*
X160283043Y-126896985D01*
X160283041Y-126896982D01*
X160283041Y-126896981D01*
X160186112Y-126742720D01*
X160186111Y-126742718D01*
X160057281Y-126613888D01*
X160057279Y-126613887D01*
X159903018Y-126516958D01*
X159903015Y-126516957D01*
X159731052Y-126456784D01*
X159731038Y-126456781D01*
X159686543Y-126451767D01*
X159621091Y-126424262D01*
X159611559Y-126415655D01*
X158584904Y-125389000D01*
X164304647Y-125389000D01*
X164324022Y-125610463D01*
X164362629Y-125754544D01*
X164381559Y-125825193D01*
X164381561Y-125825199D01*
X164475511Y-126026675D01*
X164475512Y-126026677D01*
X164603016Y-126208772D01*
X164603020Y-126208777D01*
X164603023Y-126208781D01*
X164760219Y-126365977D01*
X164760223Y-126365980D01*
X164760227Y-126365983D01*
X164792636Y-126388676D01*
X164942323Y-126493488D01*
X165143804Y-126587440D01*
X165358537Y-126644978D01*
X165535724Y-126660479D01*
X165580726Y-126678082D01*
X165610430Y-126662470D01*
X165624267Y-126660480D01*
X165801463Y-126644978D01*
X166016196Y-126587440D01*
X166217677Y-126493488D01*
X166399781Y-126365977D01*
X166556977Y-126208781D01*
X166684488Y-126026677D01*
X166778440Y-125825196D01*
X166835978Y-125610463D01*
X166855353Y-125389000D01*
X166835978Y-125167537D01*
X166778440Y-124952804D01*
X166684488Y-124751324D01*
X166556977Y-124569219D01*
X166399781Y-124412023D01*
X166399777Y-124412020D01*
X166399772Y-124412016D01*
X166217677Y-124284512D01*
X166217675Y-124284511D01*
X166016199Y-124190561D01*
X166016193Y-124190559D01*
X165974074Y-124179273D01*
X165801463Y-124133022D01*
X165624274Y-124117520D01*
X165579272Y-124099917D01*
X165549569Y-124115530D01*
X165535729Y-124117520D01*
X165358537Y-124133022D01*
X165283923Y-124153015D01*
X165143806Y-124190559D01*
X165143801Y-124190561D01*
X164942323Y-124284512D01*
X164760222Y-124412020D01*
X164760216Y-124412025D01*
X164603025Y-124569216D01*
X164603020Y-124569222D01*
X164475512Y-124751323D01*
X164381561Y-124952801D01*
X164381559Y-124952806D01*
X164374133Y-124980520D01*
X164324022Y-125167537D01*
X164304647Y-125389000D01*
X158584904Y-125389000D01*
X157677273Y-124481369D01*
X157646317Y-124425364D01*
X157645554Y-124425632D01*
X157643980Y-124421136D01*
X157643528Y-124420317D01*
X157643216Y-124418950D01*
X157604141Y-124307281D01*
X157583043Y-124246985D01*
X157583041Y-124246982D01*
X157583041Y-124246981D01*
X157486112Y-124092720D01*
X157486111Y-124092718D01*
X157385393Y-123992000D01*
X167144647Y-123992000D01*
X167164022Y-124213463D01*
X167183060Y-124284512D01*
X167221559Y-124428193D01*
X167221561Y-124428199D01*
X167315511Y-124629675D01*
X167315512Y-124629677D01*
X167443016Y-124811772D01*
X167443020Y-124811777D01*
X167443023Y-124811781D01*
X167600219Y-124968977D01*
X167600223Y-124968980D01*
X167600227Y-124968983D01*
X167616704Y-124980520D01*
X167782323Y-125096488D01*
X167983804Y-125190440D01*
X168176799Y-125242153D01*
X168237420Y-125279104D01*
X168268441Y-125342964D01*
X168260013Y-125413459D01*
X168214810Y-125468206D01*
X168176797Y-125485566D01*
X167983976Y-125537231D01*
X167983972Y-125537233D01*
X167782575Y-125631146D01*
X167719394Y-125675385D01*
X168288518Y-126244509D01*
X168223919Y-126261819D01*
X168108080Y-126328698D01*
X168013498Y-126423280D01*
X167946619Y-126539119D01*
X167929309Y-126603718D01*
X167360185Y-126034594D01*
X167315946Y-126097775D01*
X167222033Y-126299172D01*
X167222031Y-126299176D01*
X167164517Y-126513825D01*
X167145149Y-126735200D01*
X167164517Y-126956574D01*
X167222031Y-127171223D01*
X167222033Y-127171227D01*
X167315946Y-127372625D01*
X167360184Y-127435803D01*
X167360185Y-127435803D01*
X167929309Y-126866679D01*
X167946619Y-126931281D01*
X168013498Y-127047120D01*
X168108080Y-127141702D01*
X168223919Y-127208581D01*
X168288519Y-127225890D01*
X167719395Y-127795013D01*
X167719395Y-127795014D01*
X167782575Y-127839253D01*
X167782574Y-127839253D01*
X167983972Y-127933166D01*
X167983976Y-127933168D01*
X168198625Y-127990682D01*
X168381464Y-128006679D01*
X168419884Y-128021708D01*
X168444691Y-128008670D01*
X168458535Y-128006679D01*
X168641374Y-127990682D01*
X168856023Y-127933168D01*
X168856027Y-127933166D01*
X169057425Y-127839253D01*
X169057426Y-127839252D01*
X169120603Y-127795014D01*
X169120603Y-127795012D01*
X168551481Y-127225890D01*
X168616081Y-127208581D01*
X168731920Y-127141702D01*
X168826502Y-127047120D01*
X168893381Y-126931281D01*
X168910690Y-126866681D01*
X169479812Y-127435803D01*
X169479814Y-127435803D01*
X169524052Y-127372626D01*
X169524053Y-127372625D01*
X169617966Y-127171227D01*
X169617968Y-127171223D01*
X169675482Y-126956574D01*
X169694850Y-126735200D01*
X169675482Y-126513825D01*
X169617968Y-126299176D01*
X169617966Y-126299172D01*
X169524051Y-126097771D01*
X169479815Y-126034595D01*
X169479813Y-126034595D01*
X168910690Y-126603718D01*
X168893381Y-126539119D01*
X168826502Y-126423280D01*
X168731920Y-126328698D01*
X168616081Y-126261819D01*
X168551480Y-126244509D01*
X169120603Y-125675385D01*
X169120603Y-125675384D01*
X169057425Y-125631146D01*
X168856027Y-125537233D01*
X168856023Y-125537231D01*
X168663202Y-125485566D01*
X168602579Y-125448614D01*
X168571558Y-125384754D01*
X168579986Y-125314259D01*
X168625189Y-125259512D01*
X168663196Y-125242154D01*
X168856196Y-125190440D01*
X169057677Y-125096488D01*
X169239781Y-124968977D01*
X169396977Y-124811781D01*
X169524488Y-124629677D01*
X169618440Y-124428196D01*
X169675978Y-124213463D01*
X169695353Y-123992000D01*
X169675978Y-123770537D01*
X169618440Y-123555804D01*
X169524488Y-123354324D01*
X169396977Y-123172219D01*
X169239781Y-123015023D01*
X169239777Y-123015020D01*
X169239772Y-123015016D01*
X169057677Y-122887512D01*
X169057675Y-122887511D01*
X168856199Y-122793561D01*
X168856196Y-122793560D01*
X168663200Y-122741846D01*
X168602579Y-122704895D01*
X168571557Y-122641034D01*
X168579986Y-122570540D01*
X168625189Y-122515793D01*
X168663203Y-122498433D01*
X168856020Y-122446769D01*
X168856027Y-122446766D01*
X169057425Y-122352853D01*
X169057426Y-122352852D01*
X169120603Y-122308614D01*
X169120603Y-122308612D01*
X168551481Y-121739490D01*
X168616081Y-121722181D01*
X168731920Y-121655302D01*
X168826502Y-121560720D01*
X168893381Y-121444881D01*
X168910690Y-121380281D01*
X169479812Y-121949403D01*
X169479814Y-121949403D01*
X169524052Y-121886226D01*
X169524053Y-121886225D01*
X169617966Y-121684827D01*
X169617968Y-121684823D01*
X169675482Y-121470174D01*
X169694850Y-121248800D01*
X169675482Y-121027425D01*
X169617968Y-120812776D01*
X169617966Y-120812772D01*
X169524051Y-120611371D01*
X169479815Y-120548195D01*
X169479813Y-120548195D01*
X168910690Y-121117318D01*
X168893381Y-121052719D01*
X168826502Y-120936880D01*
X168731920Y-120842298D01*
X168616081Y-120775419D01*
X168551480Y-120758109D01*
X169120603Y-120188985D01*
X169120603Y-120188984D01*
X169057425Y-120144746D01*
X168856027Y-120050833D01*
X168856023Y-120050831D01*
X168641374Y-119993317D01*
X168461405Y-119977572D01*
X168419693Y-119961255D01*
X168392439Y-119975581D01*
X168378594Y-119977572D01*
X168198625Y-119993317D01*
X167983976Y-120050831D01*
X167983972Y-120050833D01*
X167782575Y-120144746D01*
X167719394Y-120188985D01*
X168288518Y-120758109D01*
X168223919Y-120775419D01*
X168108080Y-120842298D01*
X168013498Y-120936880D01*
X167946619Y-121052719D01*
X167929309Y-121117318D01*
X167360185Y-120548194D01*
X167315946Y-120611375D01*
X167222033Y-120812772D01*
X167222031Y-120812776D01*
X167164517Y-121027425D01*
X167145149Y-121248800D01*
X167164517Y-121470174D01*
X167222031Y-121684823D01*
X167222033Y-121684827D01*
X167315946Y-121886225D01*
X167360184Y-121949403D01*
X167360185Y-121949403D01*
X167929309Y-121380279D01*
X167946619Y-121444881D01*
X168013498Y-121560720D01*
X168108080Y-121655302D01*
X168223919Y-121722181D01*
X168288519Y-121739490D01*
X167719395Y-122308613D01*
X167719395Y-122308614D01*
X167782575Y-122352853D01*
X167782574Y-122352853D01*
X167983972Y-122446766D01*
X167983979Y-122446769D01*
X168176796Y-122498433D01*
X168237419Y-122535384D01*
X168268441Y-122599245D01*
X168260013Y-122669739D01*
X168214811Y-122724486D01*
X168176798Y-122741847D01*
X167983803Y-122793560D01*
X167983801Y-122793561D01*
X167782323Y-122887512D01*
X167600222Y-123015020D01*
X167600216Y-123015025D01*
X167443025Y-123172216D01*
X167443020Y-123172222D01*
X167315512Y-123354323D01*
X167221561Y-123555801D01*
X167221559Y-123555806D01*
X167217122Y-123572367D01*
X167164022Y-123770537D01*
X167144647Y-123992000D01*
X157385393Y-123992000D01*
X157357281Y-123963888D01*
X157357279Y-123963887D01*
X157203018Y-123866958D01*
X157203015Y-123866957D01*
X157031050Y-123806784D01*
X157031049Y-123806783D01*
X157031047Y-123806783D01*
X156850000Y-123786384D01*
X156668953Y-123806783D01*
X156668950Y-123806783D01*
X156668949Y-123806784D01*
X156496984Y-123866957D01*
X156496981Y-123866958D01*
X156342720Y-123963887D01*
X156342718Y-123963888D01*
X156213888Y-124092718D01*
X156213887Y-124092720D01*
X156116958Y-124246981D01*
X156116957Y-124246984D01*
X156095859Y-124307281D01*
X156056783Y-124418953D01*
X156036384Y-124600000D01*
X138920846Y-124600000D01*
X138981047Y-124593217D01*
X139153015Y-124533043D01*
X139307281Y-124436111D01*
X139436111Y-124307281D01*
X139533043Y-124153015D01*
X139593217Y-123981047D01*
X139613616Y-123800000D01*
X139593217Y-123618953D01*
X139533043Y-123446985D01*
X139533041Y-123446982D01*
X139533041Y-123446981D01*
X139436112Y-123292720D01*
X139436111Y-123292718D01*
X139307281Y-123163888D01*
X139307279Y-123163887D01*
X139153018Y-123066958D01*
X139153015Y-123066957D01*
X138981052Y-123006784D01*
X138981048Y-123006783D01*
X138981047Y-123006783D01*
X138981041Y-123006782D01*
X138981039Y-123006782D01*
X138936543Y-123001767D01*
X138871091Y-122974262D01*
X138861560Y-122965655D01*
X138490905Y-122595000D01*
X164304647Y-122595000D01*
X164324022Y-122816463D01*
X164370273Y-122989074D01*
X164381559Y-123031193D01*
X164381561Y-123031199D01*
X164475511Y-123232675D01*
X164475512Y-123232677D01*
X164603016Y-123414772D01*
X164603020Y-123414777D01*
X164603023Y-123414781D01*
X164760219Y-123571977D01*
X164760223Y-123571980D01*
X164760227Y-123571983D01*
X164827302Y-123618949D01*
X164942323Y-123699488D01*
X165143804Y-123793440D01*
X165358537Y-123850978D01*
X165535724Y-123866479D01*
X165580726Y-123884082D01*
X165610430Y-123868470D01*
X165624267Y-123866480D01*
X165801463Y-123850978D01*
X166016196Y-123793440D01*
X166217677Y-123699488D01*
X166399781Y-123571977D01*
X166556977Y-123414781D01*
X166684488Y-123232677D01*
X166778440Y-123031196D01*
X166835978Y-122816463D01*
X166855353Y-122595000D01*
X166835978Y-122373537D01*
X166778440Y-122158804D01*
X166684488Y-121957324D01*
X166556977Y-121775219D01*
X166399781Y-121618023D01*
X166399777Y-121618020D01*
X166399772Y-121618016D01*
X166217677Y-121490512D01*
X166217675Y-121490511D01*
X166016199Y-121396561D01*
X166016193Y-121396559D01*
X165974074Y-121385273D01*
X165801463Y-121339022D01*
X165624274Y-121323520D01*
X165579272Y-121305917D01*
X165549569Y-121321530D01*
X165535729Y-121323520D01*
X165358537Y-121339022D01*
X165243463Y-121369856D01*
X165143806Y-121396559D01*
X165143801Y-121396561D01*
X164942323Y-121490512D01*
X164760222Y-121618020D01*
X164760216Y-121618025D01*
X164603025Y-121775216D01*
X164603020Y-121775222D01*
X164475512Y-121957323D01*
X164381561Y-122158801D01*
X164381560Y-122158804D01*
X164324022Y-122373537D01*
X164304647Y-122595000D01*
X138490905Y-122595000D01*
X138034343Y-122138438D01*
X138000317Y-122076126D01*
X137998232Y-122063464D01*
X137993217Y-122018953D01*
X137933043Y-121846985D01*
X137933041Y-121846982D01*
X137933041Y-121846981D01*
X137836112Y-121692720D01*
X137836111Y-121692718D01*
X137707281Y-121563888D01*
X137707279Y-121563887D01*
X137553018Y-121466958D01*
X137553015Y-121466957D01*
X137381050Y-121406784D01*
X137381049Y-121406783D01*
X137381047Y-121406783D01*
X137200000Y-121386384D01*
X137018953Y-121406783D01*
X137018950Y-121406783D01*
X137018949Y-121406784D01*
X136846984Y-121466957D01*
X136846981Y-121466958D01*
X136692720Y-121563887D01*
X136692718Y-121563888D01*
X136563888Y-121692718D01*
X136563887Y-121692720D01*
X136466958Y-121846981D01*
X136466957Y-121846984D01*
X136428348Y-121957324D01*
X136406783Y-122018953D01*
X136386384Y-122200000D01*
X100500000Y-122200000D01*
X100500000Y-118750000D01*
X145486384Y-118750000D01*
X145506783Y-118931047D01*
X145506783Y-118931049D01*
X145506784Y-118931050D01*
X145566957Y-119103015D01*
X145566958Y-119103018D01*
X145663887Y-119257279D01*
X145663888Y-119257281D01*
X145792718Y-119386111D01*
X145792720Y-119386112D01*
X145946981Y-119483041D01*
X145946982Y-119483041D01*
X145946985Y-119483043D01*
X146118953Y-119543217D01*
X146300000Y-119563616D01*
X146481047Y-119543217D01*
X146653015Y-119483043D01*
X146752703Y-119420405D01*
X146780701Y-119402813D01*
X146847737Y-119383500D01*
X148537917Y-119383500D01*
X148606038Y-119403502D01*
X148627012Y-119420405D01*
X148742718Y-119536111D01*
X148742720Y-119536112D01*
X148896981Y-119633041D01*
X148896982Y-119633041D01*
X148896985Y-119633043D01*
X149068953Y-119693217D01*
X149250000Y-119713616D01*
X149431047Y-119693217D01*
X149603015Y-119633043D01*
X149757281Y-119536111D01*
X149886111Y-119407281D01*
X149983043Y-119253015D01*
X150043217Y-119081047D01*
X150063616Y-118900000D01*
X150043217Y-118718953D01*
X149983043Y-118546985D01*
X149983041Y-118546982D01*
X149983041Y-118546981D01*
X149886112Y-118392720D01*
X149886111Y-118392718D01*
X149757281Y-118263888D01*
X149757279Y-118263887D01*
X149603018Y-118166958D01*
X149603015Y-118166957D01*
X149431050Y-118106784D01*
X149431049Y-118106783D01*
X149431047Y-118106783D01*
X149250000Y-118086384D01*
X149249999Y-118086384D01*
X149068957Y-118106782D01*
X149068954Y-118106782D01*
X149068953Y-118106783D01*
X149061386Y-118109430D01*
X149019776Y-118116500D01*
X146847737Y-118116500D01*
X146780701Y-118097187D01*
X146653017Y-118016958D01*
X146653015Y-118016957D01*
X146481050Y-117956784D01*
X146481049Y-117956783D01*
X146481047Y-117956783D01*
X146300000Y-117936384D01*
X146118953Y-117956783D01*
X146118950Y-117956783D01*
X146118949Y-117956784D01*
X145946984Y-118016957D01*
X145946981Y-118016958D01*
X145792720Y-118113887D01*
X145792718Y-118113888D01*
X145663888Y-118242718D01*
X145663887Y-118242720D01*
X145566958Y-118396981D01*
X145566957Y-118396984D01*
X145512626Y-118552255D01*
X145506783Y-118568953D01*
X145486384Y-118750000D01*
X100500000Y-118750000D01*
X100500000Y-117134000D01*
X164304647Y-117134000D01*
X164324022Y-117355463D01*
X164356807Y-117477816D01*
X164381559Y-117570193D01*
X164381561Y-117570199D01*
X164475511Y-117771675D01*
X164475512Y-117771677D01*
X164603016Y-117953772D01*
X164603020Y-117953777D01*
X164603023Y-117953781D01*
X164760219Y-118110977D01*
X164760223Y-118110980D01*
X164760227Y-118110983D01*
X164840166Y-118166957D01*
X164942323Y-118238488D01*
X165143804Y-118332440D01*
X165193638Y-118345793D01*
X165254261Y-118382745D01*
X165285282Y-118446606D01*
X165276854Y-118517100D01*
X165231651Y-118571847D01*
X165193638Y-118589207D01*
X165143806Y-118602559D01*
X165143801Y-118602561D01*
X164942323Y-118696512D01*
X164760222Y-118824020D01*
X164760216Y-118824025D01*
X164603025Y-118981216D01*
X164603020Y-118981222D01*
X164475512Y-119163323D01*
X164381561Y-119364801D01*
X164381559Y-119364806D01*
X164363615Y-119431774D01*
X164324022Y-119579537D01*
X164304647Y-119801000D01*
X164324022Y-120022463D01*
X164331624Y-120050833D01*
X164381559Y-120237193D01*
X164381561Y-120237199D01*
X164475511Y-120438675D01*
X164475512Y-120438677D01*
X164603016Y-120620772D01*
X164603020Y-120620777D01*
X164603023Y-120620781D01*
X164760219Y-120777977D01*
X164760223Y-120777980D01*
X164760227Y-120777983D01*
X164809911Y-120812772D01*
X164942323Y-120905488D01*
X165143804Y-120999440D01*
X165358537Y-121056978D01*
X165535724Y-121072479D01*
X165580726Y-121090082D01*
X165610430Y-121074470D01*
X165624267Y-121072480D01*
X165801463Y-121056978D01*
X166016196Y-120999440D01*
X166217677Y-120905488D01*
X166399781Y-120777977D01*
X166556977Y-120620781D01*
X166684488Y-120438677D01*
X166778440Y-120237196D01*
X166835978Y-120022463D01*
X166855353Y-119801000D01*
X166835978Y-119579537D01*
X166778440Y-119364804D01*
X166684488Y-119163324D01*
X166556977Y-118981219D01*
X166399781Y-118824023D01*
X166399777Y-118824020D01*
X166399772Y-118824016D01*
X166217677Y-118696512D01*
X166217675Y-118696511D01*
X166016199Y-118602561D01*
X166016194Y-118602559D01*
X165987999Y-118595004D01*
X165966359Y-118589206D01*
X165905738Y-118552255D01*
X165874717Y-118488395D01*
X165883145Y-118417900D01*
X165928348Y-118363153D01*
X165966359Y-118345793D01*
X166016196Y-118332440D01*
X166217677Y-118238488D01*
X166399781Y-118110977D01*
X166556977Y-117953781D01*
X166684488Y-117771677D01*
X166778440Y-117570196D01*
X166835978Y-117355463D01*
X166855353Y-117134000D01*
X166835978Y-116912537D01*
X166778440Y-116697804D01*
X166684488Y-116496324D01*
X166556977Y-116314219D01*
X166399781Y-116157023D01*
X166399777Y-116157020D01*
X166399772Y-116157016D01*
X166217677Y-116029512D01*
X166217675Y-116029511D01*
X166016199Y-115935561D01*
X166016193Y-115935559D01*
X165938719Y-115914800D01*
X167144647Y-115914800D01*
X167164022Y-116136263D01*
X167210273Y-116308874D01*
X167221559Y-116350993D01*
X167221561Y-116350999D01*
X167315511Y-116552475D01*
X167315512Y-116552477D01*
X167443016Y-116734572D01*
X167443020Y-116734577D01*
X167443023Y-116734581D01*
X167600219Y-116891777D01*
X167600223Y-116891780D01*
X167600227Y-116891783D01*
X167629867Y-116912537D01*
X167782323Y-117019288D01*
X167892373Y-117070605D01*
X167945658Y-117117522D01*
X167965119Y-117185799D01*
X167944577Y-117253759D01*
X167892373Y-117298995D01*
X167782323Y-117350312D01*
X167600222Y-117477820D01*
X167600216Y-117477825D01*
X167443025Y-117635016D01*
X167443020Y-117635022D01*
X167315512Y-117817123D01*
X167221561Y-118018601D01*
X167221559Y-118018606D01*
X167196807Y-118110983D01*
X167164022Y-118233337D01*
X167144647Y-118454800D01*
X167164022Y-118676263D01*
X167203615Y-118824025D01*
X167221559Y-118890993D01*
X167221561Y-118890999D01*
X167315511Y-119092475D01*
X167315512Y-119092477D01*
X167443016Y-119274572D01*
X167443020Y-119274577D01*
X167443023Y-119274581D01*
X167600219Y-119431777D01*
X167600223Y-119431780D01*
X167600227Y-119431783D01*
X167673431Y-119483041D01*
X167782323Y-119559288D01*
X167983804Y-119653240D01*
X168198537Y-119710778D01*
X168378594Y-119726530D01*
X168420306Y-119742846D01*
X168447561Y-119728521D01*
X168461396Y-119726531D01*
X168641463Y-119710778D01*
X168856196Y-119653240D01*
X169057677Y-119559288D01*
X169239781Y-119431777D01*
X169396977Y-119274581D01*
X169524488Y-119092477D01*
X169618440Y-118890996D01*
X169675978Y-118676263D01*
X169695353Y-118454800D01*
X169675978Y-118233337D01*
X169618440Y-118018604D01*
X169524488Y-117817124D01*
X169396977Y-117635019D01*
X169239781Y-117477823D01*
X169239777Y-117477820D01*
X169239772Y-117477816D01*
X169057677Y-117350312D01*
X169057675Y-117350311D01*
X168947627Y-117298995D01*
X168894342Y-117252078D01*
X168874881Y-117183801D01*
X168895423Y-117115841D01*
X168947627Y-117070605D01*
X169057677Y-117019288D01*
X169239781Y-116891777D01*
X169396977Y-116734581D01*
X169524488Y-116552477D01*
X169618440Y-116350996D01*
X169675978Y-116136263D01*
X169695353Y-115914800D01*
X169675978Y-115693337D01*
X169618440Y-115478604D01*
X169524488Y-115277124D01*
X169396977Y-115095019D01*
X169239781Y-114937823D01*
X169239777Y-114937820D01*
X169239772Y-114937816D01*
X169057677Y-114810312D01*
X169057675Y-114810311D01*
X168856199Y-114716361D01*
X168856193Y-114716359D01*
X168814074Y-114705073D01*
X168641463Y-114658822D01*
X168420000Y-114639447D01*
X168198537Y-114658822D01*
X168083463Y-114689656D01*
X167983806Y-114716359D01*
X167983801Y-114716361D01*
X167782323Y-114810312D01*
X167600222Y-114937820D01*
X167600216Y-114937825D01*
X167443025Y-115095016D01*
X167443020Y-115095022D01*
X167315512Y-115277123D01*
X167282365Y-115348207D01*
X167221560Y-115478604D01*
X167164022Y-115693337D01*
X167144647Y-115914800D01*
X165938719Y-115914800D01*
X165801463Y-115878022D01*
X165618559Y-115862020D01*
X165581385Y-115847479D01*
X165565956Y-115857396D01*
X165541443Y-115862020D01*
X165358537Y-115878022D01*
X165243463Y-115908856D01*
X165143806Y-115935559D01*
X165143801Y-115935561D01*
X164942323Y-116029512D01*
X164760222Y-116157020D01*
X164760216Y-116157025D01*
X164603025Y-116314216D01*
X164603020Y-116314222D01*
X164475512Y-116496323D01*
X164381561Y-116697801D01*
X164381559Y-116697806D01*
X164371705Y-116734583D01*
X164324022Y-116912537D01*
X164304647Y-117134000D01*
X100500000Y-117134000D01*
X100500000Y-113900000D01*
X144886384Y-113900000D01*
X144906783Y-114081047D01*
X144906783Y-114081049D01*
X144906784Y-114081050D01*
X144966957Y-114253015D01*
X144966958Y-114253018D01*
X145063887Y-114407279D01*
X145063888Y-114407281D01*
X145192718Y-114536111D01*
X145192720Y-114536112D01*
X145346981Y-114633041D01*
X145346982Y-114633041D01*
X145346985Y-114633043D01*
X145518953Y-114693217D01*
X145700000Y-114713616D01*
X145881047Y-114693217D01*
X145960055Y-114665570D01*
X146001670Y-114658500D01*
X147492051Y-114658500D01*
X147559086Y-114677812D01*
X147646985Y-114733043D01*
X147818953Y-114793217D01*
X148000000Y-114813616D01*
X148181047Y-114793217D01*
X148353015Y-114733043D01*
X148507281Y-114636111D01*
X148636111Y-114507281D01*
X148733043Y-114353015D01*
X148793217Y-114181047D01*
X148813616Y-114000000D01*
X148793217Y-113818953D01*
X148733043Y-113646985D01*
X148733041Y-113646982D01*
X148733041Y-113646981D01*
X148659128Y-113529350D01*
X164309500Y-113529350D01*
X164309500Y-115150649D01*
X164316009Y-115211196D01*
X164316011Y-115211204D01*
X164367110Y-115348202D01*
X164367112Y-115348207D01*
X164454738Y-115465261D01*
X164571792Y-115552887D01*
X164571794Y-115552888D01*
X164571796Y-115552889D01*
X164630875Y-115574924D01*
X164708795Y-115603988D01*
X164708803Y-115603990D01*
X164769350Y-115610499D01*
X164769355Y-115610499D01*
X164769362Y-115610500D01*
X164769368Y-115610500D01*
X165530458Y-115610500D01*
X165581115Y-115625374D01*
X165604715Y-115612970D01*
X165629542Y-115610500D01*
X166390632Y-115610500D01*
X166390638Y-115610500D01*
X166390645Y-115610499D01*
X166390649Y-115610499D01*
X166451196Y-115603990D01*
X166451199Y-115603989D01*
X166451201Y-115603989D01*
X166588204Y-115552889D01*
X166705261Y-115465261D01*
X166792889Y-115348204D01*
X166843989Y-115211201D01*
X166850500Y-115150638D01*
X166850500Y-113529362D01*
X166846561Y-113492719D01*
X166843990Y-113468803D01*
X166843988Y-113468795D01*
X166792889Y-113331797D01*
X166792887Y-113331792D01*
X166705261Y-113214738D01*
X166588207Y-113127112D01*
X166588202Y-113127110D01*
X166451204Y-113076011D01*
X166451196Y-113076009D01*
X166390649Y-113069500D01*
X166390638Y-113069500D01*
X164769362Y-113069500D01*
X164769350Y-113069500D01*
X164708803Y-113076009D01*
X164708795Y-113076011D01*
X164571797Y-113127110D01*
X164571792Y-113127112D01*
X164454738Y-113214738D01*
X164367112Y-113331792D01*
X164367110Y-113331797D01*
X164316011Y-113468795D01*
X164316009Y-113468803D01*
X164309500Y-113529350D01*
X148659128Y-113529350D01*
X148636112Y-113492720D01*
X148636111Y-113492718D01*
X148507281Y-113363888D01*
X148507279Y-113363887D01*
X148353018Y-113266958D01*
X148353015Y-113266957D01*
X148294275Y-113246403D01*
X148265887Y-113232238D01*
X148259286Y-113227827D01*
X148227687Y-113214738D01*
X148121247Y-113170649D01*
X148047976Y-113156074D01*
X148047975Y-113156073D01*
X147974711Y-113141500D01*
X147974706Y-113141500D01*
X146001670Y-113141500D01*
X145960055Y-113134429D01*
X145939138Y-113127110D01*
X145881047Y-113106783D01*
X145700000Y-113086384D01*
X145518953Y-113106783D01*
X145518950Y-113106783D01*
X145518949Y-113106784D01*
X145346984Y-113166957D01*
X145346981Y-113166958D01*
X145192720Y-113263887D01*
X145192718Y-113263888D01*
X145063888Y-113392718D01*
X145063887Y-113392720D01*
X144966958Y-113546981D01*
X144966957Y-113546984D01*
X144931966Y-113646985D01*
X144906783Y-113718953D01*
X144886384Y-113900000D01*
X100500000Y-113900000D01*
X100500000Y-110300000D01*
X150586384Y-110300000D01*
X150606783Y-110481047D01*
X150606783Y-110481049D01*
X150606784Y-110481050D01*
X150666957Y-110653015D01*
X150666958Y-110653018D01*
X150763887Y-110807279D01*
X150763888Y-110807281D01*
X150892718Y-110936111D01*
X150892720Y-110936112D01*
X151046981Y-111033041D01*
X151046982Y-111033041D01*
X151046985Y-111033043D01*
X151218953Y-111093217D01*
X151263450Y-111098230D01*
X151328902Y-111125732D01*
X151338439Y-111134343D01*
X151807929Y-111603833D01*
X151896167Y-111692071D01*
X151999925Y-111761400D01*
X152115215Y-111809155D01*
X152237606Y-111833500D01*
X153200744Y-111833500D01*
X153268865Y-111853502D01*
X153315358Y-111907158D01*
X153319673Y-111917885D01*
X153366957Y-112053015D01*
X153366958Y-112053018D01*
X153463887Y-112207279D01*
X153463888Y-112207281D01*
X153592718Y-112336111D01*
X153592720Y-112336112D01*
X153746981Y-112433041D01*
X153746982Y-112433041D01*
X153746985Y-112433043D01*
X153918953Y-112493217D01*
X154100000Y-112513616D01*
X154281047Y-112493217D01*
X154453015Y-112433043D01*
X154607281Y-112336111D01*
X154736111Y-112207281D01*
X154833043Y-112053015D01*
X154893217Y-111881047D01*
X154900986Y-111812085D01*
X154928488Y-111746635D01*
X154987012Y-111706441D01*
X155012081Y-111700987D01*
X155081047Y-111693217D01*
X155253015Y-111633043D01*
X155407281Y-111536111D01*
X155536111Y-111407281D01*
X155633043Y-111253015D01*
X155693217Y-111081047D01*
X155713616Y-110900000D01*
X155693217Y-110718953D01*
X155633043Y-110546985D01*
X155633041Y-110546982D01*
X155633041Y-110546981D01*
X155536112Y-110392720D01*
X155536111Y-110392718D01*
X155407281Y-110263888D01*
X155407279Y-110263887D01*
X155253018Y-110166958D01*
X155253015Y-110166957D01*
X155081052Y-110106784D01*
X155081038Y-110106781D01*
X155036543Y-110101767D01*
X154971091Y-110074262D01*
X154961559Y-110065655D01*
X154703835Y-109807931D01*
X154703833Y-109807929D01*
X154600075Y-109738600D01*
X154484785Y-109690845D01*
X154411086Y-109676185D01*
X154362396Y-109666500D01*
X154362394Y-109666500D01*
X153047737Y-109666500D01*
X152980701Y-109647187D01*
X152853017Y-109566958D01*
X152853015Y-109566957D01*
X152681050Y-109506784D01*
X152681049Y-109506783D01*
X152681047Y-109506783D01*
X152500000Y-109486384D01*
X152318953Y-109506783D01*
X152318950Y-109506783D01*
X152318949Y-109506784D01*
X152146986Y-109566956D01*
X152017036Y-109648609D01*
X151948714Y-109667914D01*
X151882964Y-109648609D01*
X151785970Y-109587664D01*
X151753015Y-109566957D01*
X151753014Y-109566956D01*
X151753013Y-109566956D01*
X151581050Y-109506784D01*
X151581049Y-109506783D01*
X151581047Y-109506783D01*
X151400000Y-109486384D01*
X151218953Y-109506783D01*
X151218950Y-109506783D01*
X151218949Y-109506784D01*
X151046984Y-109566957D01*
X151046981Y-109566958D01*
X150892720Y-109663887D01*
X150892718Y-109663888D01*
X150763888Y-109792718D01*
X150763887Y-109792720D01*
X150666958Y-109946981D01*
X150666957Y-109946984D01*
X150612797Y-110101767D01*
X150606783Y-110118953D01*
X150586384Y-110300000D01*
X100500000Y-110300000D01*
X100500000Y-108400000D01*
X127186501Y-108400000D01*
X127206461Y-108640887D01*
X127206463Y-108640896D01*
X127265795Y-108875193D01*
X127265798Y-108875200D01*
X127301120Y-108955726D01*
X127362891Y-109096549D01*
X127448814Y-109228064D01*
X127495095Y-109298902D01*
X127658792Y-109476725D01*
X127658797Y-109476729D01*
X127658799Y-109476731D01*
X127849541Y-109625191D01*
X127849542Y-109625192D01*
X128062119Y-109740233D01*
X128062121Y-109740234D01*
X128163223Y-109774942D01*
X128290732Y-109818716D01*
X128529145Y-109858500D01*
X128529149Y-109858500D01*
X128770851Y-109858500D01*
X128770855Y-109858500D01*
X129009268Y-109818716D01*
X129237881Y-109740233D01*
X129450458Y-109625192D01*
X129641201Y-109476731D01*
X129673738Y-109441387D01*
X129739424Y-109370032D01*
X129804906Y-109298900D01*
X129814816Y-109283730D01*
X129868819Y-109237644D01*
X129939166Y-109228068D01*
X129945493Y-109231015D01*
X129994673Y-109236115D01*
X130665016Y-108565771D01*
X130677482Y-108612292D01*
X130749890Y-108737708D01*
X130852292Y-108840110D01*
X130977708Y-108912518D01*
X131024226Y-108924982D01*
X130353052Y-109596157D01*
X130389808Y-109624766D01*
X130389818Y-109624772D01*
X130602321Y-109739774D01*
X130602323Y-109739775D01*
X130830850Y-109818228D01*
X130830859Y-109818230D01*
X131069191Y-109858000D01*
X131310809Y-109858000D01*
X131549140Y-109818230D01*
X131549149Y-109818228D01*
X131777676Y-109739775D01*
X131777678Y-109739774D01*
X131990187Y-109624769D01*
X132026946Y-109596157D01*
X132026947Y-109596156D01*
X131355773Y-108924982D01*
X131402292Y-108912518D01*
X131527708Y-108840110D01*
X131630110Y-108737708D01*
X131702518Y-108612292D01*
X131714982Y-108565773D01*
X132385324Y-109236115D01*
X132385325Y-109236115D01*
X132476668Y-109096306D01*
X132573726Y-108875037D01*
X132573729Y-108875030D01*
X132633041Y-108640813D01*
X132633043Y-108640804D01*
X132652996Y-108400000D01*
X137346501Y-108400000D01*
X137366461Y-108640887D01*
X137366463Y-108640896D01*
X137425795Y-108875193D01*
X137425798Y-108875200D01*
X137461120Y-108955726D01*
X137522891Y-109096549D01*
X137608814Y-109228064D01*
X137655095Y-109298902D01*
X137818792Y-109476725D01*
X137818797Y-109476729D01*
X137818799Y-109476731D01*
X138009541Y-109625191D01*
X138009542Y-109625192D01*
X138222119Y-109740233D01*
X138222121Y-109740234D01*
X138323223Y-109774942D01*
X138450732Y-109818716D01*
X138689145Y-109858500D01*
X138689149Y-109858500D01*
X138930851Y-109858500D01*
X138930855Y-109858500D01*
X139169268Y-109818716D01*
X139397881Y-109740233D01*
X139610458Y-109625192D01*
X139801201Y-109476731D01*
X139833738Y-109441387D01*
X139899424Y-109370032D01*
X139964906Y-109298900D01*
X139974816Y-109283730D01*
X140028819Y-109237644D01*
X140099166Y-109228068D01*
X140105493Y-109231015D01*
X140154673Y-109236115D01*
X140825016Y-108565771D01*
X140837482Y-108612292D01*
X140909890Y-108737708D01*
X141012292Y-108840110D01*
X141137708Y-108912518D01*
X141184226Y-108924982D01*
X140513052Y-109596157D01*
X140549808Y-109624766D01*
X140549818Y-109624772D01*
X140762321Y-109739774D01*
X140762323Y-109739775D01*
X140990850Y-109818228D01*
X140990859Y-109818230D01*
X141229191Y-109858000D01*
X141470809Y-109858000D01*
X141709140Y-109818230D01*
X141709149Y-109818228D01*
X141937676Y-109739775D01*
X141937678Y-109739774D01*
X142150187Y-109624769D01*
X142186946Y-109596157D01*
X142186947Y-109596156D01*
X141515773Y-108924982D01*
X141562292Y-108912518D01*
X141687708Y-108840110D01*
X141790110Y-108737708D01*
X141862518Y-108612292D01*
X141874983Y-108565772D01*
X142545326Y-109236115D01*
X142604998Y-109229927D01*
X142605275Y-109232598D01*
X142638550Y-109228064D01*
X142702912Y-109258032D01*
X142725182Y-109283729D01*
X142735091Y-109298896D01*
X142735100Y-109298907D01*
X142898792Y-109476725D01*
X142898797Y-109476729D01*
X142898799Y-109476731D01*
X143089541Y-109625191D01*
X143089542Y-109625192D01*
X143302119Y-109740233D01*
X143302121Y-109740234D01*
X143403223Y-109774942D01*
X143530732Y-109818716D01*
X143769145Y-109858500D01*
X143769149Y-109858500D01*
X144010851Y-109858500D01*
X144010855Y-109858500D01*
X144249268Y-109818716D01*
X144477881Y-109740233D01*
X144690458Y-109625192D01*
X144881201Y-109476731D01*
X144913738Y-109441387D01*
X145003979Y-109343357D01*
X145044906Y-109298900D01*
X145177109Y-109096549D01*
X145274203Y-108875197D01*
X145333539Y-108640884D01*
X145353499Y-108400000D01*
X145333539Y-108159116D01*
X145293570Y-108001283D01*
X145274204Y-107924806D01*
X145274201Y-107924799D01*
X145177110Y-107703454D01*
X145177109Y-107703451D01*
X145044906Y-107501100D01*
X145044905Y-107501099D01*
X145044904Y-107501097D01*
X144951832Y-107399994D01*
X164582229Y-107399994D01*
X164582229Y-107400005D01*
X164601292Y-107703011D01*
X164601295Y-107703034D01*
X164658187Y-108001270D01*
X164658190Y-108001283D01*
X164752008Y-108290029D01*
X164752013Y-108290042D01*
X164881288Y-108564765D01*
X164881296Y-108564779D01*
X165043978Y-108821125D01*
X165043980Y-108821128D01*
X165123517Y-108917272D01*
X165706947Y-108333841D01*
X165783402Y-108439073D01*
X165960927Y-108616598D01*
X166066156Y-108693051D01*
X165480534Y-109278673D01*
X165480534Y-109278675D01*
X165704487Y-109441387D01*
X165970563Y-109587664D01*
X166252862Y-109699435D01*
X166252880Y-109699440D01*
X166546940Y-109774942D01*
X166546968Y-109774947D01*
X166848172Y-109812998D01*
X166848191Y-109813000D01*
X167151809Y-109813000D01*
X167151827Y-109812998D01*
X167453031Y-109774947D01*
X167453059Y-109774942D01*
X167747119Y-109699440D01*
X167747137Y-109699435D01*
X168029436Y-109587664D01*
X168295507Y-109441390D01*
X168519464Y-109278675D01*
X168519464Y-109278673D01*
X167933842Y-108693051D01*
X168039073Y-108616598D01*
X168216598Y-108439073D01*
X168293051Y-108333842D01*
X168876481Y-108917272D01*
X168876482Y-108917271D01*
X168956018Y-108821130D01*
X168956021Y-108821126D01*
X169118703Y-108564779D01*
X169118711Y-108564765D01*
X169247986Y-108290042D01*
X169247991Y-108290029D01*
X169341809Y-108001283D01*
X169341812Y-108001270D01*
X169398704Y-107703034D01*
X169398707Y-107703011D01*
X169417771Y-107400005D01*
X169417771Y-107399994D01*
X169398707Y-107096988D01*
X169398704Y-107096965D01*
X169341812Y-106798729D01*
X169341809Y-106798716D01*
X169247991Y-106509970D01*
X169247986Y-106509957D01*
X169118711Y-106235234D01*
X169118703Y-106235220D01*
X168956021Y-105978874D01*
X168956019Y-105978871D01*
X168876481Y-105882726D01*
X168293051Y-106466156D01*
X168216598Y-106360927D01*
X168039073Y-106183402D01*
X167933842Y-106106947D01*
X168519464Y-105521325D01*
X168519464Y-105521323D01*
X168295512Y-105358612D01*
X168029436Y-105212335D01*
X167747137Y-105100564D01*
X167747119Y-105100559D01*
X167453059Y-105025057D01*
X167453031Y-105025052D01*
X167151827Y-104987001D01*
X167151809Y-104987000D01*
X166848191Y-104987000D01*
X166848172Y-104987001D01*
X166546968Y-105025052D01*
X166546940Y-105025057D01*
X166252880Y-105100559D01*
X166252862Y-105100564D01*
X165970563Y-105212335D01*
X165704491Y-105358609D01*
X165480534Y-105521323D01*
X165480534Y-105521325D01*
X166066157Y-106106948D01*
X165960927Y-106183402D01*
X165783402Y-106360927D01*
X165706948Y-106466157D01*
X165123517Y-105882726D01*
X165043981Y-105978871D01*
X165043978Y-105978874D01*
X164881296Y-106235220D01*
X164881288Y-106235234D01*
X164752013Y-106509957D01*
X164752008Y-106509970D01*
X164658190Y-106798716D01*
X164658187Y-106798729D01*
X164601295Y-107096965D01*
X164601292Y-107096988D01*
X164582229Y-107399994D01*
X144951832Y-107399994D01*
X144881207Y-107323274D01*
X144690458Y-107174808D01*
X144690457Y-107174807D01*
X144477880Y-107059766D01*
X144477878Y-107059765D01*
X144249272Y-106981285D01*
X144249265Y-106981283D01*
X144147230Y-106964256D01*
X144010855Y-106941500D01*
X143769145Y-106941500D01*
X143649832Y-106961409D01*
X143530734Y-106981283D01*
X143530727Y-106981285D01*
X143302121Y-107059765D01*
X143302119Y-107059766D01*
X143089542Y-107174807D01*
X143089541Y-107174808D01*
X142898792Y-107323274D01*
X142735100Y-107501092D01*
X142735090Y-107501104D01*
X142725180Y-107516273D01*
X142671175Y-107562359D01*
X142600827Y-107571931D01*
X142594498Y-107568983D01*
X142545325Y-107563883D01*
X141874982Y-108234226D01*
X141862518Y-108187708D01*
X141790110Y-108062292D01*
X141687708Y-107959890D01*
X141562292Y-107887482D01*
X141515772Y-107875017D01*
X142186947Y-107203842D01*
X142150184Y-107175228D01*
X142150181Y-107175227D01*
X141937678Y-107060225D01*
X141937676Y-107060224D01*
X141709149Y-106981771D01*
X141709140Y-106981769D01*
X141470809Y-106942000D01*
X141229191Y-106942000D01*
X140990859Y-106981769D01*
X140990850Y-106981771D01*
X140762325Y-107060224D01*
X140549808Y-107175233D01*
X140513052Y-107203841D01*
X140513051Y-107203842D01*
X141184226Y-107875017D01*
X141137708Y-107887482D01*
X141012292Y-107959890D01*
X140909890Y-108062292D01*
X140837482Y-108187708D01*
X140825016Y-108234227D01*
X140154672Y-107563883D01*
X140095001Y-107570072D01*
X140094723Y-107567398D01*
X140061392Y-107571926D01*
X139997044Y-107541929D01*
X139974818Y-107516272D01*
X139964906Y-107501100D01*
X139964899Y-107501092D01*
X139801207Y-107323274D01*
X139610458Y-107174808D01*
X139610457Y-107174807D01*
X139397880Y-107059766D01*
X139397878Y-107059765D01*
X139169272Y-106981285D01*
X139169265Y-106981283D01*
X139067230Y-106964256D01*
X138930855Y-106941500D01*
X138689145Y-106941500D01*
X138569832Y-106961409D01*
X138450734Y-106981283D01*
X138450727Y-106981285D01*
X138222121Y-107059765D01*
X138222119Y-107059766D01*
X138009542Y-107174807D01*
X138009541Y-107174808D01*
X137818792Y-107323274D01*
X137655095Y-107501097D01*
X137522889Y-107703454D01*
X137425798Y-107924799D01*
X137425795Y-107924806D01*
X137366463Y-108159103D01*
X137366461Y-108159112D01*
X137346501Y-108400000D01*
X132652996Y-108400000D01*
X132633043Y-108159195D01*
X132633041Y-108159186D01*
X132573729Y-107924969D01*
X132573726Y-107924962D01*
X132476668Y-107703693D01*
X132385325Y-107563883D01*
X131714982Y-108234226D01*
X131702518Y-108187708D01*
X131630110Y-108062292D01*
X131527708Y-107959890D01*
X131402292Y-107887482D01*
X131355772Y-107875017D01*
X132026947Y-107203842D01*
X131990184Y-107175228D01*
X131990181Y-107175227D01*
X131777678Y-107060225D01*
X131777676Y-107060224D01*
X131549149Y-106981771D01*
X131549140Y-106981769D01*
X131310809Y-106942000D01*
X131069191Y-106942000D01*
X130830859Y-106981769D01*
X130830850Y-106981771D01*
X130602325Y-107060224D01*
X130389808Y-107175233D01*
X130353052Y-107203841D01*
X130353051Y-107203842D01*
X131024226Y-107875017D01*
X130977708Y-107887482D01*
X130852292Y-107959890D01*
X130749890Y-108062292D01*
X130677482Y-108187708D01*
X130665016Y-108234227D01*
X129994672Y-107563883D01*
X129935001Y-107570072D01*
X129934723Y-107567398D01*
X129901392Y-107571926D01*
X129837044Y-107541929D01*
X129814818Y-107516272D01*
X129804906Y-107501100D01*
X129804899Y-107501092D01*
X129641207Y-107323274D01*
X129450458Y-107174808D01*
X129450457Y-107174807D01*
X129237880Y-107059766D01*
X129237878Y-107059765D01*
X129009272Y-106981285D01*
X129009265Y-106981283D01*
X128907230Y-106964256D01*
X128770855Y-106941500D01*
X128529145Y-106941500D01*
X128409832Y-106961409D01*
X128290734Y-106981283D01*
X128290727Y-106981285D01*
X128062121Y-107059765D01*
X128062119Y-107059766D01*
X127849542Y-107174807D01*
X127849541Y-107174808D01*
X127658792Y-107323274D01*
X127495095Y-107501097D01*
X127362889Y-107703454D01*
X127265798Y-107924799D01*
X127265795Y-107924806D01*
X127206463Y-108159103D01*
X127206461Y-108159112D01*
X127186501Y-108400000D01*
X100500000Y-108400000D01*
X100500000Y-104274038D01*
X102399500Y-104274038D01*
X102399500Y-104525962D01*
X102438910Y-104774785D01*
X102438911Y-104774790D01*
X102507863Y-104987000D01*
X102516759Y-105014379D01*
X102631130Y-105238845D01*
X102779207Y-105442656D01*
X102779209Y-105442658D01*
X102779211Y-105442661D01*
X102957338Y-105620788D01*
X102957341Y-105620790D01*
X102957344Y-105620793D01*
X103161155Y-105768870D01*
X103385621Y-105883241D01*
X103625215Y-105961090D01*
X103874038Y-106000500D01*
X103874041Y-106000500D01*
X104125959Y-106000500D01*
X104125962Y-106000500D01*
X104374785Y-105961090D01*
X104614379Y-105883241D01*
X104838845Y-105768870D01*
X105042656Y-105620793D01*
X105220793Y-105442656D01*
X105368870Y-105238845D01*
X105483241Y-105014379D01*
X105561090Y-104774785D01*
X105600500Y-104525962D01*
X105600500Y-104274038D01*
X159399500Y-104274038D01*
X159399500Y-104525962D01*
X159438910Y-104774785D01*
X159438911Y-104774790D01*
X159507863Y-104987000D01*
X159516759Y-105014379D01*
X159631130Y-105238845D01*
X159779207Y-105442656D01*
X159779209Y-105442658D01*
X159779211Y-105442661D01*
X159957338Y-105620788D01*
X159957341Y-105620790D01*
X159957344Y-105620793D01*
X160161155Y-105768870D01*
X160385621Y-105883241D01*
X160625215Y-105961090D01*
X160874038Y-106000500D01*
X160874041Y-106000500D01*
X161125959Y-106000500D01*
X161125962Y-106000500D01*
X161374785Y-105961090D01*
X161614379Y-105883241D01*
X161838845Y-105768870D01*
X162042656Y-105620793D01*
X162220793Y-105442656D01*
X162368870Y-105238845D01*
X162483241Y-105014379D01*
X162561090Y-104774785D01*
X162600500Y-104525962D01*
X162600500Y-104274038D01*
X162561090Y-104025215D01*
X162483241Y-103785621D01*
X162368870Y-103561155D01*
X162220793Y-103357344D01*
X162220790Y-103357341D01*
X162220788Y-103357338D01*
X162042661Y-103179211D01*
X162042658Y-103179209D01*
X162042656Y-103179207D01*
X161838845Y-103031130D01*
X161614379Y-102916759D01*
X161614376Y-102916758D01*
X161614374Y-102916757D01*
X161374790Y-102838911D01*
X161374786Y-102838910D01*
X161374785Y-102838910D01*
X161125962Y-102799500D01*
X160874038Y-102799500D01*
X160625215Y-102838910D01*
X160625209Y-102838911D01*
X160385625Y-102916757D01*
X160385619Y-102916760D01*
X160161151Y-103031132D01*
X159957341Y-103179209D01*
X159957338Y-103179211D01*
X159779211Y-103357338D01*
X159779209Y-103357341D01*
X159631132Y-103561151D01*
X159516760Y-103785619D01*
X159516757Y-103785625D01*
X159438911Y-104025209D01*
X159438910Y-104025214D01*
X159438910Y-104025215D01*
X159399500Y-104274038D01*
X105600500Y-104274038D01*
X105561090Y-104025215D01*
X105483241Y-103785621D01*
X105368870Y-103561155D01*
X105220793Y-103357344D01*
X105220790Y-103357341D01*
X105220788Y-103357338D01*
X105042661Y-103179211D01*
X105042658Y-103179209D01*
X105042656Y-103179207D01*
X104838845Y-103031130D01*
X104614379Y-102916759D01*
X104614376Y-102916758D01*
X104614374Y-102916757D01*
X104374790Y-102838911D01*
X104374786Y-102838910D01*
X104374785Y-102838910D01*
X104125962Y-102799500D01*
X103874038Y-102799500D01*
X103625215Y-102838910D01*
X103625209Y-102838911D01*
X103385625Y-102916757D01*
X103385619Y-102916760D01*
X103161151Y-103031132D01*
X102957341Y-103179209D01*
X102957338Y-103179211D01*
X102779211Y-103357338D01*
X102779209Y-103357341D01*
X102631132Y-103561151D01*
X102516760Y-103785619D01*
X102516757Y-103785625D01*
X102438911Y-104025209D01*
X102438910Y-104025214D01*
X102438910Y-104025215D01*
X102399500Y-104274038D01*
X100500000Y-104274038D01*
X100500000Y-100626000D01*
X100520002Y-100557879D01*
X100573658Y-100511386D01*
X100626000Y-100500000D01*
X174474000Y-100500000D01*
X174542121Y-100520002D01*
G37*
%TD.AperFunction*%
%TD*%
M02*
