%TF.GenerationSoftware,KiCad,Pcbnew,8.0.2*%
%TF.CreationDate,2025-12-13T20:04:36+01:00*%
%TF.ProjectId,Helios,48656c69-6f73-42e6-9b69-6361645f7063,rev?*%
%TF.SameCoordinates,Original*%
%TF.FileFunction,Copper,L2,Bot*%
%TF.FilePolarity,Positive*%
%FSLAX46Y46*%
G04 Gerber Fmt 4.6, Leading zero omitted, Abs format (unit mm)*
G04 Created by KiCad (PCBNEW 8.0.2) date 2025-12-13 20:04:36*
%MOMM*%
%LPD*%
G01*
G04 APERTURE LIST*
%TA.AperFunction,ComponentPad*%
%ADD10C,1.524000*%
%TD*%
%TA.AperFunction,ComponentPad*%
%ADD11C,3.300000*%
%TD*%
%TA.AperFunction,ComponentPad*%
%ADD12R,1.524000X1.524000*%
%TD*%
%TA.AperFunction,ComponentPad*%
%ADD13C,1.620000*%
%TD*%
%TA.AperFunction,ComponentPad*%
%ADD14C,4.200000*%
%TD*%
%TA.AperFunction,ComponentPad*%
%ADD15C,1.506220*%
%TD*%
%TA.AperFunction,ComponentPad*%
%ADD16C,1.900000*%
%TD*%
%TA.AperFunction,ViaPad*%
%ADD17C,0.600000*%
%TD*%
%TA.AperFunction,Conductor*%
%ADD18C,0.250000*%
%TD*%
%TA.AperFunction,Conductor*%
%ADD19C,0.500000*%
%TD*%
G04 APERTURE END LIST*
D10*
%TO.P,P1,1,VCC*%
%TO.N,Net-(P1-VCC)*%
X113750000Y-132250000D03*
%TO.P,P1,2,D-*%
%TO.N,/D-*%
X113750000Y-129710000D03*
%TO.P,P1,3,D+*%
%TO.N,/D+*%
X111751020Y-129710000D03*
%TO.P,P1,4,GND*%
%TO.N,GND*%
X111751020Y-132250000D03*
D11*
%TO.P,P1,5,shield*%
%TO.N,Net-(P1-shield)*%
X109051000Y-136979480D03*
X109051000Y-124980520D03*
%TD*%
D12*
%TO.P,P2,1,P1*%
%TO.N,Net-(P2-P1)*%
X165580000Y-114340000D03*
D13*
%TO.P,P2,2,P2*%
%TO.N,Net-(P2-P2)*%
X165580000Y-117134000D03*
%TO.P,P2,3,P3*%
%TO.N,Net-(P2-P3)*%
X165580000Y-119801000D03*
%TO.P,P2,4,P4*%
%TO.N,/Interlock*%
X165580000Y-122595000D03*
%TO.P,P2,5,P5*%
%TO.N,Net-(P2-P5)*%
X165580000Y-125389000D03*
%TO.P,P2,6,P6*%
%TO.N,Net-(P2-P6)*%
X165580000Y-128183000D03*
%TO.P,P2,7,P7*%
%TO.N,Net-(P2-P7)*%
X165580000Y-130850000D03*
%TO.P,P2,8,P8*%
%TO.N,GND*%
X165580000Y-133644000D03*
%TO.P,P2,9,P9*%
X165580000Y-136438000D03*
%TO.P,P2,10,P10*%
X165580000Y-139232000D03*
%TO.P,P2,11,P11*%
X165580000Y-141899000D03*
%TO.P,P2,12,P12*%
%TO.N,/ProjReturn*%
X165580000Y-144693000D03*
%TO.P,P2,13,P13*%
%TO.N,Net-(P2-P13)*%
X165580000Y-147487000D03*
%TO.P,P2,14,P14*%
%TO.N,Net-(P2-P14)*%
X168420000Y-115700000D03*
%TO.P,P2,15,P15*%
%TO.N,Net-(P2-P15)*%
X168420000Y-118454800D03*
%TO.P,P2,16,P16*%
%TO.N,GND*%
X168420000Y-121248800D03*
%TO.P,P2,17,P17*%
%TO.N,/Interlock*%
X168420000Y-123992000D03*
%TO.P,P2,18,P18*%
%TO.N,GND*%
X168420000Y-126735200D03*
%TO.P,P2,19,P19*%
X168420000Y-129529200D03*
%TO.P,P2,20,P20*%
X168420000Y-132272400D03*
%TO.P,P2,21,P21*%
X168420000Y-135015600D03*
%TO.P,P2,22,P22*%
X168420000Y-137860400D03*
%TO.P,P2,23,P23*%
X168420000Y-140552800D03*
%TO.P,P2,24,P24*%
X168420000Y-143296000D03*
%TO.P,P2,25,P25*%
X168420000Y-146090000D03*
D14*
%TO.P,P2,26,Shield*%
X167000000Y-154500000D03*
X167000000Y-107400000D03*
%TD*%
D15*
%TO.P,ERASE1,1,P1*%
%TO.N,/Microcontroller/ERASE*%
X122650000Y-129470000D03*
%TO.P,ERASE1,2,P2*%
%TO.N,/3.3V*%
X122650000Y-126930000D03*
%TD*%
D16*
%TO.P,U4,1,Vin*%
%TO.N,Net-(U4-Vin)*%
X128650000Y-108400000D03*
%TO.P,U4,2,GND*%
%TO.N,GND*%
X131190000Y-108400000D03*
%TO.P,U4,5,Vout-*%
%TO.N,/-9V*%
X138810000Y-108400000D03*
%TO.P,U4,6,Vout0*%
%TO.N,GND*%
X141350000Y-108400000D03*
%TO.P,U4,7,Vout+*%
%TO.N,/+9V*%
X143890000Y-108400000D03*
%TD*%
D17*
%TO.N,*%
X150700000Y-134100000D03*
X152500000Y-110300000D03*
X152400000Y-134500000D03*
X154900000Y-110900000D03*
%TO.N,GND*%
X171900000Y-121100000D03*
X120050000Y-141250000D03*
X117100000Y-108800000D03*
X123700000Y-117100000D03*
X139250000Y-129100000D03*
X161000000Y-150400000D03*
X124900000Y-130300000D03*
X144100000Y-143750000D03*
X171800000Y-142200000D03*
X106600000Y-116950000D03*
X138450000Y-137200000D03*
X136650000Y-138000000D03*
X142900000Y-117100000D03*
X118650000Y-139300000D03*
X129050000Y-146700000D03*
X172300000Y-129100000D03*
X168700000Y-150000000D03*
X128000000Y-131600000D03*
X152850000Y-105050000D03*
X131000000Y-153000000D03*
X171800000Y-114100000D03*
X153800000Y-118500000D03*
X140000000Y-119200000D03*
X139000000Y-125600000D03*
X152700000Y-124850000D03*
X102350000Y-141900000D03*
X155100000Y-133300000D03*
X129300000Y-116600000D03*
X101200000Y-122700000D03*
X136350000Y-142900000D03*
X123700000Y-153050000D03*
X153400000Y-146500000D03*
X123700000Y-140550000D03*
X124850000Y-110000000D03*
X126700000Y-121550000D03*
X148800000Y-151300000D03*
X116550000Y-139500000D03*
X156600000Y-132900000D03*
X115500000Y-112700000D03*
X154600000Y-146300000D03*
X129100000Y-119100000D03*
X128250000Y-124650000D03*
X152700000Y-133000000D03*
X142300000Y-132800000D03*
X172000000Y-135300000D03*
X156400000Y-146500000D03*
X118050000Y-132700000D03*
X120900000Y-135000000D03*
X126300000Y-146300000D03*
X146300000Y-123450000D03*
X112500000Y-107600000D03*
X139050000Y-134150000D03*
X140950000Y-138300000D03*
X149900000Y-130300000D03*
X108100000Y-121100000D03*
%TO.N,/Microcontroller/VDDOUT*%
X131350000Y-141350000D03*
X123650000Y-137250000D03*
X127950000Y-141400000D03*
X126950000Y-137300000D03*
X129300000Y-142600000D03*
X132600000Y-140200000D03*
%TO.N,/+9V*%
X148000000Y-114000000D03*
X159550000Y-127250000D03*
X155450000Y-140500000D03*
X145700000Y-113900000D03*
X154400000Y-141500000D03*
X156850000Y-124600000D03*
%TO.N,/-9V*%
X154150000Y-132450000D03*
X137200000Y-122200000D03*
X138800000Y-123800000D03*
X152850000Y-131550000D03*
%TO.N,/3.3V*%
X130900000Y-129300000D03*
X128100000Y-129000000D03*
%TO.N,/2.5V*%
X136400000Y-128700000D03*
X137400000Y-127600000D03*
X136400000Y-146050000D03*
X134350000Y-148050000D03*
%TO.N,/+X*%
X151400000Y-110300000D03*
X154100000Y-111700000D03*
%TO.N,/+G*%
X160550000Y-137350000D03*
X158650000Y-137400000D03*
%TO.N,/X*%
X129200000Y-131500000D03*
X129000000Y-134950000D03*
%TO.N,/Y*%
X149250000Y-118900000D03*
X146300000Y-118750000D03*
X130050000Y-134950000D03*
X130200000Y-131200000D03*
%TO.N,/!SYNC*%
X138800000Y-140700000D03*
X137700000Y-139000000D03*
%TD*%
D18*
%TO.N,*%
X154900000Y-110900000D02*
X154300000Y-110300000D01*
X154300000Y-110300000D02*
X152500000Y-110300000D01*
X152400000Y-134500000D02*
X152000000Y-134100000D01*
X152000000Y-134100000D02*
X150700000Y-134100000D01*
%TO.N,GND*%
X123700000Y-117100000D02*
X123550000Y-117250000D01*
X116550000Y-139500000D02*
X116550000Y-139450000D01*
X167000000Y-109300000D02*
X171800000Y-114100000D01*
X171900000Y-121100000D02*
X172300000Y-121500000D01*
X172300000Y-121500000D02*
X172300000Y-129100000D01*
X172000000Y-135300000D02*
X171800000Y-135500000D01*
X171800000Y-135500000D02*
X171800000Y-142200000D01*
X168700000Y-150000000D02*
X168300000Y-150400000D01*
X168300000Y-150400000D02*
X161000000Y-150400000D01*
X167000000Y-107400000D02*
X167000000Y-109300000D01*
X126300000Y-146300000D02*
X126350000Y-146250000D01*
D19*
%TO.N,Net-(P1-shield)*%
X109051000Y-124980520D02*
X109051000Y-136979480D01*
D18*
%TO.N,/Microcontroller/VDDOUT*%
X132600000Y-140200000D02*
X131450000Y-141350000D01*
X131450000Y-141350000D02*
X131350000Y-141350000D01*
X123650000Y-137250000D02*
X123700000Y-137300000D01*
X123700000Y-137300000D02*
X126950000Y-137300000D01*
X129300000Y-142600000D02*
X128100000Y-141400000D01*
X128100000Y-141400000D02*
X127950000Y-141400000D01*
%TO.N,/+9V*%
X154400000Y-141500000D02*
X155400000Y-140500000D01*
X155400000Y-140500000D02*
X155450000Y-140500000D01*
X159550000Y-127250000D02*
X156900000Y-124600000D01*
X156900000Y-124600000D02*
X156850000Y-124600000D01*
D19*
X147900000Y-113900000D02*
X148000000Y-114000000D01*
X145700000Y-113900000D02*
X147900000Y-113900000D01*
D18*
%TO.N,/-9V*%
X137200000Y-122200000D02*
X138800000Y-123800000D01*
X152850000Y-131550000D02*
X153750000Y-132450000D01*
X153750000Y-132450000D02*
X154150000Y-132450000D01*
D19*
%TO.N,/3.3V*%
X128100000Y-129000000D02*
X128400000Y-129300000D01*
X128400000Y-129300000D02*
X130900000Y-129300000D01*
D18*
%TO.N,/2.5V*%
X137400000Y-127600000D02*
X136400000Y-128600000D01*
X136400000Y-128600000D02*
X136400000Y-128700000D01*
X134350000Y-148050000D02*
X136350000Y-146050000D01*
X136350000Y-146050000D02*
X136400000Y-146050000D01*
%TO.N,/+X*%
X154100000Y-111700000D02*
X153600000Y-111200000D01*
X153600000Y-111200000D02*
X152300000Y-111200000D01*
X152300000Y-111200000D02*
X151400000Y-110300000D01*
%TO.N,/+G*%
X158650000Y-137400000D02*
X158700000Y-137350000D01*
X158700000Y-137350000D02*
X160550000Y-137350000D01*
%TO.N,/X*%
X129200000Y-134750000D02*
X129000000Y-134950000D01*
X129200000Y-131500000D02*
X129200000Y-134750000D01*
%TO.N,/Y*%
X149250000Y-118900000D02*
X149100000Y-118750000D01*
X149100000Y-118750000D02*
X146300000Y-118750000D01*
X130000000Y-131250000D02*
X130050000Y-134950000D01*
%TO.N,/!SYNC*%
X138800000Y-140100000D02*
X138800000Y-140700000D01*
X137700000Y-139000000D02*
X138800000Y-140100000D01*
%TD*%
%TA.AperFunction,Conductor*%
%TO.N,GND*%
G36*
X112794542Y-130567402D02*
G01*
X112839605Y-130596363D01*
X112930219Y-130686977D01*
X112930223Y-130686980D01*
X112930227Y-130686983D01*
X113029786Y-130756695D01*
X113112323Y-130814488D01*
X113218260Y-130863887D01*
X113222373Y-130865805D01*
X113275658Y-130912722D01*
X113295119Y-130980999D01*
X113274577Y-131048959D01*
X113222373Y-131094195D01*
X113112323Y-131145512D01*
X112930222Y-131273020D01*
X112930216Y-131273025D01*
X112773025Y-131430216D01*
X112773020Y-131430222D01*
X112645510Y-131612325D01*
X112565433Y-131784049D01*
X112540335Y-131819893D01*
X112157420Y-132202808D01*
X112157420Y-132196496D01*
X112129725Y-132093135D01*
X112076221Y-132000464D01*
X112000556Y-131924799D01*
X111907885Y-131871295D01*
X111804524Y-131843600D01*
X111798210Y-131843600D01*
X112451623Y-131190185D01*
X112451623Y-131190184D01*
X112388445Y-131145946D01*
X112388440Y-131145943D01*
X112278054Y-131094469D01*
X112224770Y-131047552D01*
X112205309Y-130979275D01*
X112225851Y-130911315D01*
X112278054Y-130866081D01*
X112383400Y-130816958D01*
X112388691Y-130814491D01*
X112388692Y-130814490D01*
X112388697Y-130814488D01*
X112570801Y-130686977D01*
X112661415Y-130596363D01*
X112723727Y-130562337D01*
X112794542Y-130567402D01*
G37*
%TD.AperFunction*%
%TA.AperFunction,Conductor*%
G36*
X174542121Y-100520002D02*
G01*
X174588614Y-100573658D01*
X174600000Y-100626000D01*
X174600000Y-160474000D01*
X174579998Y-160542121D01*
X174526342Y-160588614D01*
X174474000Y-160600000D01*
X100626000Y-160600000D01*
X100557879Y-160579998D01*
X100511386Y-160526342D01*
X100500000Y-160474000D01*
X100500000Y-156274038D01*
X102399500Y-156274038D01*
X102399500Y-156525962D01*
X102419188Y-156650265D01*
X102438911Y-156774790D01*
X102493559Y-156942977D01*
X102516759Y-157014379D01*
X102631130Y-157238845D01*
X102779207Y-157442656D01*
X102779209Y-157442658D01*
X102779211Y-157442661D01*
X102957338Y-157620788D01*
X102957341Y-157620790D01*
X102957344Y-157620793D01*
X103161155Y-157768870D01*
X103385621Y-157883241D01*
X103625215Y-157961090D01*
X103874038Y-158000500D01*
X103874041Y-158000500D01*
X104125959Y-158000500D01*
X104125962Y-158000500D01*
X104374785Y-157961090D01*
X104614379Y-157883241D01*
X104838845Y-157768870D01*
X105042656Y-157620793D01*
X105220793Y-157442656D01*
X105368870Y-157238845D01*
X105483241Y-157014379D01*
X105561090Y-156774785D01*
X105600500Y-156525962D01*
X105600500Y-156274038D01*
X159399500Y-156274038D01*
X159399500Y-156525962D01*
X159419188Y-156650265D01*
X159438911Y-156774790D01*
X159493559Y-156942977D01*
X159516759Y-157014379D01*
X159631130Y-157238845D01*
X159779207Y-157442656D01*
X159779209Y-157442658D01*
X159779211Y-157442661D01*
X159957338Y-157620788D01*
X159957341Y-157620790D01*
X159957344Y-157620793D01*
X160161155Y-157768870D01*
X160385621Y-157883241D01*
X160625215Y-157961090D01*
X160874038Y-158000500D01*
X160874041Y-158000500D01*
X161125959Y-158000500D01*
X161125962Y-158000500D01*
X161374785Y-157961090D01*
X161614379Y-157883241D01*
X161838845Y-157768870D01*
X162042656Y-157620793D01*
X162220793Y-157442656D01*
X162368870Y-157238845D01*
X162483241Y-157014379D01*
X162561090Y-156774785D01*
X162600500Y-156525962D01*
X162600500Y-156274038D01*
X162561090Y-156025215D01*
X162483241Y-155785621D01*
X162368870Y-155561155D01*
X162220793Y-155357344D01*
X162220790Y-155357341D01*
X162220788Y-155357338D01*
X162042661Y-155179211D01*
X162042658Y-155179209D01*
X162042656Y-155179207D01*
X161838845Y-155031130D01*
X161614379Y-154916759D01*
X161614376Y-154916758D01*
X161614374Y-154916757D01*
X161374790Y-154838911D01*
X161374786Y-154838910D01*
X161374785Y-154838910D01*
X161125962Y-154799500D01*
X160874038Y-154799500D01*
X160625215Y-154838910D01*
X160625209Y-154838911D01*
X160385625Y-154916757D01*
X160385619Y-154916760D01*
X160161151Y-155031132D01*
X159957341Y-155179209D01*
X159957338Y-155179211D01*
X159779211Y-155357338D01*
X159779209Y-155357341D01*
X159631132Y-155561151D01*
X159516760Y-155785619D01*
X159516757Y-155785625D01*
X159438911Y-156025209D01*
X159438910Y-156025214D01*
X159438910Y-156025215D01*
X159399500Y-156274038D01*
X105600500Y-156274038D01*
X105561090Y-156025215D01*
X105483241Y-155785621D01*
X105368870Y-155561155D01*
X105220793Y-155357344D01*
X105220790Y-155357341D01*
X105220788Y-155357338D01*
X105042661Y-155179211D01*
X105042658Y-155179209D01*
X105042656Y-155179207D01*
X104838845Y-155031130D01*
X104614379Y-154916759D01*
X104614376Y-154916758D01*
X104614374Y-154916757D01*
X104374790Y-154838911D01*
X104374786Y-154838910D01*
X104374785Y-154838910D01*
X104125962Y-154799500D01*
X103874038Y-154799500D01*
X103625215Y-154838910D01*
X103625209Y-154838911D01*
X103385625Y-154916757D01*
X103385619Y-154916760D01*
X103161151Y-155031132D01*
X102957341Y-155179209D01*
X102957338Y-155179211D01*
X102779211Y-155357338D01*
X102779209Y-155357341D01*
X102631132Y-155561151D01*
X102516760Y-155785619D01*
X102516757Y-155785625D01*
X102438911Y-156025209D01*
X102438910Y-156025214D01*
X102438910Y-156025215D01*
X102399500Y-156274038D01*
X100500000Y-156274038D01*
X100500000Y-154499998D01*
X164387233Y-154499998D01*
X164387233Y-154500001D01*
X164406282Y-154814931D01*
X164406283Y-154814934D01*
X164463154Y-155125273D01*
X164557022Y-155426506D01*
X164686504Y-155714202D01*
X164686507Y-155714208D01*
X164849734Y-155984220D01*
X164984522Y-156156265D01*
X164984523Y-156156266D01*
X165706947Y-155433841D01*
X165783402Y-155539073D01*
X165960927Y-155716598D01*
X166066156Y-155793051D01*
X165343732Y-156515475D01*
X165343733Y-156515476D01*
X165515779Y-156650265D01*
X165785791Y-156813492D01*
X165785797Y-156813495D01*
X166073493Y-156942977D01*
X166374726Y-157036845D01*
X166685065Y-157093716D01*
X166685068Y-157093717D01*
X166999999Y-157112767D01*
X167000001Y-157112767D01*
X167314931Y-157093717D01*
X167314934Y-157093716D01*
X167625273Y-157036845D01*
X167926506Y-156942977D01*
X168214202Y-156813495D01*
X168214208Y-156813492D01*
X168484220Y-156650265D01*
X168656265Y-156515475D01*
X168656266Y-156515475D01*
X167933842Y-155793051D01*
X168039073Y-155716598D01*
X168216598Y-155539073D01*
X168293051Y-155433842D01*
X169015475Y-156156266D01*
X169015475Y-156156265D01*
X169150265Y-155984220D01*
X169313492Y-155714208D01*
X169313495Y-155714202D01*
X169442977Y-155426506D01*
X169536845Y-155125273D01*
X169593716Y-154814934D01*
X169593717Y-154814931D01*
X169612767Y-154500001D01*
X169612767Y-154499998D01*
X169593717Y-154185068D01*
X169593716Y-154185065D01*
X169536845Y-153874726D01*
X169442977Y-153573493D01*
X169313495Y-153285797D01*
X169313492Y-153285791D01*
X169150265Y-153015779D01*
X169015476Y-152843733D01*
X169015475Y-152843732D01*
X168293051Y-153566156D01*
X168216598Y-153460927D01*
X168039073Y-153283402D01*
X167933842Y-153206947D01*
X168656266Y-152484523D01*
X168656265Y-152484522D01*
X168484220Y-152349734D01*
X168214208Y-152186507D01*
X168214202Y-152186504D01*
X167926506Y-152057022D01*
X167625273Y-151963154D01*
X167314934Y-151906283D01*
X167314931Y-151906282D01*
X167000001Y-151887233D01*
X166999999Y-151887233D01*
X166685068Y-151906282D01*
X166685065Y-151906283D01*
X166374726Y-151963154D01*
X166073493Y-152057022D01*
X165785797Y-152186504D01*
X165785791Y-152186507D01*
X165515785Y-152349731D01*
X165343732Y-152484523D01*
X166066157Y-153206948D01*
X165960927Y-153283402D01*
X165783402Y-153460927D01*
X165706948Y-153566157D01*
X164984523Y-152843732D01*
X164849731Y-153015785D01*
X164686507Y-153285791D01*
X164686504Y-153285797D01*
X164557022Y-153573493D01*
X164463154Y-153874726D01*
X164406283Y-154185065D01*
X164406282Y-154185068D01*
X164387233Y-154499998D01*
X100500000Y-154499998D01*
X100500000Y-148050000D01*
X133536384Y-148050000D01*
X133556783Y-148231047D01*
X133556783Y-148231049D01*
X133556784Y-148231050D01*
X133616957Y-148403015D01*
X133616958Y-148403018D01*
X133713887Y-148557279D01*
X133713888Y-148557281D01*
X133842718Y-148686111D01*
X133842720Y-148686112D01*
X133996981Y-148783041D01*
X133996982Y-148783041D01*
X133996985Y-148783043D01*
X134168953Y-148843217D01*
X134350000Y-148863616D01*
X134531047Y-148843217D01*
X134703015Y-148783043D01*
X134857281Y-148686111D01*
X134986111Y-148557281D01*
X135083043Y-148403015D01*
X135143217Y-148231047D01*
X135148230Y-148186548D01*
X135175732Y-148121096D01*
X135184333Y-148111569D01*
X136405212Y-146890690D01*
X136467522Y-146856666D01*
X136480186Y-146854581D01*
X136581047Y-146843217D01*
X136753015Y-146783043D01*
X136907281Y-146686111D01*
X137036111Y-146557281D01*
X137133043Y-146403015D01*
X137193217Y-146231047D01*
X137213616Y-146050000D01*
X137193217Y-145868953D01*
X137133043Y-145696985D01*
X137133041Y-145696982D01*
X137133041Y-145696981D01*
X137036112Y-145542720D01*
X137036111Y-145542718D01*
X136907281Y-145413888D01*
X136907279Y-145413887D01*
X136753018Y-145316958D01*
X136753015Y-145316957D01*
X136581050Y-145256784D01*
X136581049Y-145256783D01*
X136581047Y-145256783D01*
X136400000Y-145236384D01*
X136218953Y-145256783D01*
X136218950Y-145256783D01*
X136218949Y-145256784D01*
X136046984Y-145316957D01*
X136046981Y-145316958D01*
X135892720Y-145413887D01*
X135892718Y-145413888D01*
X135763888Y-145542718D01*
X135763887Y-145542720D01*
X135666958Y-145696981D01*
X135666957Y-145696984D01*
X135606782Y-145868953D01*
X135606471Y-145870318D01*
X135606018Y-145871135D01*
X135604446Y-145875631D01*
X135603682Y-145875363D01*
X135572727Y-145931367D01*
X134288439Y-147215655D01*
X134226127Y-147249681D01*
X134213456Y-147251767D01*
X134168960Y-147256782D01*
X134168947Y-147256784D01*
X133996984Y-147316957D01*
X133996981Y-147316958D01*
X133842720Y-147413887D01*
X133842718Y-147413888D01*
X133713888Y-147542718D01*
X133713887Y-147542720D01*
X133616958Y-147696981D01*
X133616957Y-147696984D01*
X133616957Y-147696985D01*
X133556783Y-147868953D01*
X133536384Y-148050000D01*
X100500000Y-148050000D01*
X100500000Y-141400000D01*
X127136384Y-141400000D01*
X127156783Y-141581047D01*
X127156783Y-141581049D01*
X127156784Y-141581050D01*
X127216957Y-141753015D01*
X127216958Y-141753018D01*
X127313887Y-141907279D01*
X127313888Y-141907281D01*
X127442718Y-142036111D01*
X127442720Y-142036112D01*
X127596981Y-142133041D01*
X127596982Y-142133041D01*
X127596985Y-142133043D01*
X127768953Y-142193217D01*
X127950000Y-142213616D01*
X127950547Y-142213554D01*
X127950899Y-142213616D01*
X127957076Y-142213616D01*
X127957076Y-142214697D01*
X128020478Y-142225796D01*
X128053761Y-142249665D01*
X128465655Y-142661559D01*
X128499681Y-142723871D01*
X128501767Y-142736543D01*
X128506781Y-142781038D01*
X128506784Y-142781052D01*
X128566957Y-142953015D01*
X128566958Y-142953018D01*
X128663887Y-143107279D01*
X128663888Y-143107281D01*
X128792718Y-143236111D01*
X128792720Y-143236112D01*
X128946981Y-143333041D01*
X128946982Y-143333041D01*
X128946985Y-143333043D01*
X129118953Y-143393217D01*
X129300000Y-143413616D01*
X129481047Y-143393217D01*
X129653015Y-143333043D01*
X129807281Y-143236111D01*
X129936111Y-143107281D01*
X130033043Y-142953015D01*
X130093217Y-142781047D01*
X130113616Y-142600000D01*
X130093217Y-142418953D01*
X130033043Y-142246985D01*
X130033041Y-142246982D01*
X130033041Y-142246981D01*
X129936112Y-142092720D01*
X129936111Y-142092718D01*
X129807281Y-141963888D01*
X129807279Y-141963887D01*
X129653018Y-141866958D01*
X129653015Y-141866957D01*
X129481052Y-141806784D01*
X129481038Y-141806781D01*
X129436543Y-141801767D01*
X129371091Y-141774262D01*
X129361559Y-141765655D01*
X128945904Y-141350000D01*
X130536384Y-141350000D01*
X130556783Y-141531047D01*
X130556783Y-141531049D01*
X130556784Y-141531050D01*
X130616957Y-141703015D01*
X130616958Y-141703018D01*
X130713887Y-141857279D01*
X130713888Y-141857281D01*
X130842718Y-141986111D01*
X130842720Y-141986112D01*
X130996981Y-142083041D01*
X130996982Y-142083041D01*
X130996985Y-142083043D01*
X131168953Y-142143217D01*
X131350000Y-142163616D01*
X131531047Y-142143217D01*
X131703015Y-142083043D01*
X131857281Y-141986111D01*
X131986111Y-141857281D01*
X132083043Y-141703015D01*
X132122070Y-141591479D01*
X132151902Y-141544000D01*
X132661563Y-141034340D01*
X132723873Y-141000317D01*
X132736542Y-140998231D01*
X132781047Y-140993217D01*
X132953015Y-140933043D01*
X133107281Y-140836111D01*
X133236111Y-140707281D01*
X133333043Y-140553015D01*
X133393217Y-140381047D01*
X133413616Y-140200000D01*
X133393217Y-140018953D01*
X133333043Y-139846985D01*
X133333041Y-139846982D01*
X133333041Y-139846981D01*
X133236112Y-139692720D01*
X133236111Y-139692718D01*
X133107281Y-139563888D01*
X133107279Y-139563887D01*
X132953018Y-139466958D01*
X132953015Y-139466957D01*
X132781050Y-139406784D01*
X132781049Y-139406783D01*
X132781047Y-139406783D01*
X132600000Y-139386384D01*
X132418953Y-139406783D01*
X132418950Y-139406783D01*
X132418949Y-139406784D01*
X132246984Y-139466957D01*
X132246981Y-139466958D01*
X132092720Y-139563887D01*
X132092718Y-139563888D01*
X131963888Y-139692718D01*
X131963887Y-139692720D01*
X131866958Y-139846981D01*
X131866957Y-139846984D01*
X131806784Y-140018947D01*
X131806781Y-140018961D01*
X131801768Y-140063451D01*
X131774264Y-140128904D01*
X131765657Y-140138436D01*
X131401136Y-140502958D01*
X131338823Y-140536983D01*
X131326148Y-140539071D01*
X131261526Y-140546352D01*
X131168953Y-140556783D01*
X131168950Y-140556783D01*
X131168950Y-140556784D01*
X130996984Y-140616957D01*
X130996981Y-140616958D01*
X130842720Y-140713887D01*
X130842718Y-140713888D01*
X130713888Y-140842718D01*
X130713887Y-140842720D01*
X130616958Y-140996981D01*
X130616957Y-140996984D01*
X130568275Y-141136112D01*
X130556783Y-141168953D01*
X130536384Y-141350000D01*
X128945904Y-141350000D01*
X128724992Y-141129088D01*
X128695158Y-141081608D01*
X128687877Y-141060800D01*
X128683043Y-141046985D01*
X128683041Y-141046982D01*
X128683041Y-141046981D01*
X128586112Y-140892720D01*
X128586111Y-140892718D01*
X128457281Y-140763888D01*
X128457279Y-140763887D01*
X128303018Y-140666958D01*
X128303015Y-140666957D01*
X128131050Y-140606784D01*
X128131049Y-140606783D01*
X128131047Y-140606783D01*
X127950000Y-140586384D01*
X127768953Y-140606783D01*
X127768950Y-140606783D01*
X127768949Y-140606784D01*
X127596984Y-140666957D01*
X127596981Y-140666958D01*
X127442720Y-140763887D01*
X127442718Y-140763888D01*
X127313888Y-140892718D01*
X127313887Y-140892720D01*
X127216958Y-141046981D01*
X127216957Y-141046984D01*
X127158405Y-141214318D01*
X127156783Y-141218953D01*
X127136384Y-141400000D01*
X100500000Y-141400000D01*
X100500000Y-124980515D01*
X106887456Y-124980515D01*
X106887456Y-124980524D01*
X106907605Y-125275109D01*
X106907606Y-125275115D01*
X106907607Y-125275123D01*
X106935534Y-125409516D01*
X106967684Y-125564230D01*
X106967686Y-125564238D01*
X106987088Y-125618829D01*
X107066573Y-125842478D01*
X107186373Y-126073683D01*
X107202429Y-126104668D01*
X107275405Y-126208052D01*
X107372714Y-126345907D01*
X107574266Y-126561716D01*
X107803327Y-126748070D01*
X108055629Y-126901499D01*
X108216699Y-126971461D01*
X108271210Y-127016945D01*
X108292478Y-127084682D01*
X108292500Y-127087029D01*
X108292500Y-134872969D01*
X108272498Y-134941090D01*
X108218842Y-134987583D01*
X108216699Y-134988537D01*
X108055637Y-135058496D01*
X108055629Y-135058501D01*
X107803737Y-135211681D01*
X107803324Y-135211932D01*
X107574263Y-135398286D01*
X107372714Y-135614093D01*
X107202429Y-135855331D01*
X107066573Y-136117521D01*
X106967686Y-136395761D01*
X106967684Y-136395769D01*
X106938464Y-136536384D01*
X106911969Y-136663889D01*
X106907606Y-136684884D01*
X106907605Y-136684890D01*
X106887456Y-136979475D01*
X106887456Y-136979484D01*
X106907605Y-137274069D01*
X106907606Y-137274075D01*
X106907607Y-137274083D01*
X106912993Y-137300000D01*
X106967684Y-137563190D01*
X106967686Y-137563198D01*
X107046657Y-137785400D01*
X107066573Y-137841438D01*
X107195440Y-138090141D01*
X107202429Y-138103628D01*
X107250917Y-138172320D01*
X107372714Y-138344867D01*
X107574266Y-138560676D01*
X107803327Y-138747030D01*
X108055629Y-138900459D01*
X108326473Y-139018103D01*
X108390059Y-139035919D01*
X108610806Y-139097770D01*
X108610814Y-139097772D01*
X108903341Y-139137979D01*
X108903355Y-139137980D01*
X109198645Y-139137980D01*
X109198658Y-139137979D01*
X109447682Y-139103751D01*
X109491186Y-139097772D01*
X109775527Y-139018103D01*
X109817204Y-139000000D01*
X136886384Y-139000000D01*
X136906783Y-139181047D01*
X136906783Y-139181049D01*
X136906784Y-139181050D01*
X136966957Y-139353015D01*
X136966958Y-139353018D01*
X137063887Y-139507279D01*
X137063888Y-139507281D01*
X137192718Y-139636111D01*
X137192720Y-139636112D01*
X137346981Y-139733041D01*
X137346982Y-139733041D01*
X137346985Y-139733043D01*
X137518953Y-139793217D01*
X137563450Y-139798230D01*
X137628902Y-139825732D01*
X137638439Y-139834343D01*
X138032780Y-140228684D01*
X138066806Y-140290996D01*
X138062615Y-140359393D01*
X138006783Y-140518952D01*
X137995434Y-140619680D01*
X137986384Y-140700000D01*
X138006783Y-140881047D01*
X138006783Y-140881049D01*
X138006784Y-140881050D01*
X138066957Y-141053015D01*
X138066958Y-141053018D01*
X138163887Y-141207279D01*
X138163888Y-141207281D01*
X138292718Y-141336111D01*
X138292720Y-141336112D01*
X138446981Y-141433041D01*
X138446982Y-141433041D01*
X138446985Y-141433043D01*
X138618953Y-141493217D01*
X138800000Y-141513616D01*
X138920846Y-141500000D01*
X153586384Y-141500000D01*
X153606783Y-141681047D01*
X153606783Y-141681049D01*
X153606784Y-141681050D01*
X153666957Y-141853015D01*
X153666958Y-141853018D01*
X153763887Y-142007279D01*
X153763888Y-142007281D01*
X153892718Y-142136111D01*
X153892720Y-142136112D01*
X154046981Y-142233041D01*
X154046982Y-142233041D01*
X154046985Y-142233043D01*
X154218953Y-142293217D01*
X154400000Y-142313616D01*
X154581047Y-142293217D01*
X154753015Y-142233043D01*
X154907281Y-142136111D01*
X155036111Y-142007281D01*
X155133043Y-141853015D01*
X155193217Y-141681047D01*
X155198230Y-141636548D01*
X155225732Y-141571097D01*
X155234333Y-141561570D01*
X155455213Y-141340690D01*
X155517523Y-141306666D01*
X155530184Y-141304581D01*
X155631047Y-141293217D01*
X155803015Y-141233043D01*
X155957281Y-141136111D01*
X156086111Y-141007281D01*
X156183043Y-140853015D01*
X156243217Y-140681047D01*
X156263616Y-140500000D01*
X156243217Y-140318953D01*
X156183043Y-140146985D01*
X156183041Y-140146982D01*
X156183041Y-140146981D01*
X156086112Y-139992720D01*
X156086111Y-139992718D01*
X155957281Y-139863888D01*
X155957279Y-139863887D01*
X155803018Y-139766958D01*
X155803015Y-139766957D01*
X155631050Y-139706784D01*
X155631049Y-139706783D01*
X155631047Y-139706783D01*
X155450000Y-139686384D01*
X155268953Y-139706783D01*
X155268950Y-139706783D01*
X155268949Y-139706784D01*
X155096984Y-139766957D01*
X155096981Y-139766958D01*
X154942720Y-139863887D01*
X154942718Y-139863888D01*
X154813888Y-139992718D01*
X154813887Y-139992720D01*
X154716958Y-140146981D01*
X154716957Y-140146984D01*
X154656781Y-140318955D01*
X154656470Y-140320321D01*
X154656017Y-140321139D01*
X154654446Y-140325631D01*
X154653682Y-140325363D01*
X154622727Y-140381366D01*
X154338437Y-140665656D01*
X154276125Y-140699682D01*
X154263452Y-140701768D01*
X154218961Y-140706781D01*
X154218947Y-140706784D01*
X154046984Y-140766957D01*
X154046981Y-140766958D01*
X153892720Y-140863887D01*
X153892718Y-140863888D01*
X153763888Y-140992718D01*
X153763887Y-140992720D01*
X153666958Y-141146981D01*
X153666957Y-141146984D01*
X153611813Y-141304579D01*
X153606783Y-141318953D01*
X153586384Y-141500000D01*
X138920846Y-141500000D01*
X138981047Y-141493217D01*
X139153015Y-141433043D01*
X139307281Y-141336111D01*
X139436111Y-141207281D01*
X139533043Y-141053015D01*
X139593217Y-140881047D01*
X139613616Y-140700000D01*
X139593217Y-140518953D01*
X139533043Y-140346985D01*
X139533041Y-140346982D01*
X139533041Y-140346981D01*
X139452813Y-140219298D01*
X139433500Y-140152262D01*
X139433500Y-140037607D01*
X139433499Y-140037603D01*
X139429791Y-140018961D01*
X139409155Y-139915215D01*
X139361400Y-139799925D01*
X139292071Y-139696167D01*
X139203833Y-139607929D01*
X138534343Y-138938439D01*
X138500317Y-138876127D01*
X138498230Y-138863449D01*
X138493217Y-138818954D01*
X138493217Y-138818953D01*
X138433043Y-138646985D01*
X138433041Y-138646982D01*
X138433041Y-138646981D01*
X138336112Y-138492720D01*
X138336111Y-138492718D01*
X138207281Y-138363888D01*
X138207279Y-138363887D01*
X138053018Y-138266958D01*
X138053015Y-138266957D01*
X137881050Y-138206784D01*
X137881049Y-138206783D01*
X137881047Y-138206783D01*
X137700000Y-138186384D01*
X137518953Y-138206783D01*
X137518950Y-138206783D01*
X137518949Y-138206784D01*
X137346984Y-138266957D01*
X137346981Y-138266958D01*
X137192720Y-138363887D01*
X137192718Y-138363888D01*
X137063888Y-138492718D01*
X137063887Y-138492720D01*
X136966958Y-138646981D01*
X136966957Y-138646984D01*
X136920590Y-138779496D01*
X136906783Y-138818953D01*
X136886384Y-139000000D01*
X109817204Y-139000000D01*
X110046371Y-138900459D01*
X110298673Y-138747030D01*
X110527734Y-138560676D01*
X110729286Y-138344867D01*
X110899574Y-138103623D01*
X111035427Y-137841438D01*
X111134314Y-137563197D01*
X111194393Y-137274083D01*
X111196040Y-137250000D01*
X122836384Y-137250000D01*
X122856783Y-137431047D01*
X122856783Y-137431049D01*
X122856784Y-137431050D01*
X122916957Y-137603015D01*
X122916958Y-137603018D01*
X123013887Y-137757279D01*
X123013888Y-137757281D01*
X123142718Y-137886111D01*
X123142720Y-137886112D01*
X123296981Y-137983041D01*
X123296982Y-137983041D01*
X123296985Y-137983043D01*
X123468953Y-138043217D01*
X123650000Y-138063616D01*
X123831047Y-138043217D01*
X124003015Y-137983043D01*
X124051126Y-137952812D01*
X124118162Y-137933500D01*
X126402263Y-137933500D01*
X126469299Y-137952813D01*
X126526498Y-137988753D01*
X126596985Y-138033043D01*
X126768953Y-138093217D01*
X126950000Y-138113616D01*
X127131047Y-138093217D01*
X127303015Y-138033043D01*
X127457281Y-137936111D01*
X127586111Y-137807281D01*
X127683043Y-137653015D01*
X127743217Y-137481047D01*
X127752349Y-137400000D01*
X157836384Y-137400000D01*
X157856783Y-137581047D01*
X157856783Y-137581049D01*
X157856784Y-137581050D01*
X157916957Y-137753015D01*
X157916958Y-137753018D01*
X158013887Y-137907279D01*
X158013888Y-137907281D01*
X158142718Y-138036111D01*
X158142720Y-138036112D01*
X158296981Y-138133041D01*
X158296982Y-138133041D01*
X158296985Y-138133043D01*
X158468953Y-138193217D01*
X158650000Y-138213616D01*
X158831047Y-138193217D01*
X159003015Y-138133043D01*
X159157281Y-138036111D01*
X159160351Y-138033041D01*
X159172988Y-138020405D01*
X159235300Y-137986379D01*
X159262083Y-137983500D01*
X160002263Y-137983500D01*
X160069299Y-138002813D01*
X160166067Y-138063616D01*
X160196985Y-138083043D01*
X160368953Y-138143217D01*
X160550000Y-138163616D01*
X160731047Y-138143217D01*
X160903015Y-138083043D01*
X161057281Y-137986111D01*
X161186111Y-137857281D01*
X161283043Y-137703015D01*
X161343217Y-137531047D01*
X161363616Y-137350000D01*
X161343217Y-137168953D01*
X161283043Y-136996985D01*
X161283041Y-136996982D01*
X161283041Y-136996981D01*
X161186112Y-136842720D01*
X161186111Y-136842718D01*
X161057281Y-136713888D01*
X161057279Y-136713887D01*
X160903018Y-136616958D01*
X160903015Y-136616957D01*
X160731050Y-136556784D01*
X160731049Y-136556783D01*
X160731047Y-136556783D01*
X160550000Y-136536384D01*
X160368953Y-136556783D01*
X160368950Y-136556783D01*
X160368949Y-136556784D01*
X160196984Y-136616957D01*
X160196982Y-136616958D01*
X160069299Y-136697187D01*
X160002263Y-136716500D01*
X159118162Y-136716500D01*
X159051126Y-136697187D01*
X159003017Y-136666958D01*
X159003014Y-136666956D01*
X158831050Y-136606784D01*
X158831049Y-136606783D01*
X158831047Y-136606783D01*
X158650000Y-136586384D01*
X158468953Y-136606783D01*
X158468950Y-136606783D01*
X158468949Y-136606784D01*
X158296984Y-136666957D01*
X158296981Y-136666958D01*
X158142720Y-136763887D01*
X158142718Y-136763888D01*
X158013888Y-136892718D01*
X158013887Y-136892720D01*
X157916958Y-137046981D01*
X157916957Y-137046984D01*
X157863806Y-137198883D01*
X157856783Y-137218953D01*
X157836384Y-137400000D01*
X127752349Y-137400000D01*
X127763616Y-137300000D01*
X127743217Y-137118953D01*
X127683043Y-136946985D01*
X127683041Y-136946982D01*
X127683041Y-136946981D01*
X127586112Y-136792720D01*
X127586111Y-136792718D01*
X127457281Y-136663888D01*
X127457279Y-136663887D01*
X127303018Y-136566958D01*
X127303015Y-136566957D01*
X127131050Y-136506784D01*
X127131049Y-136506783D01*
X127131047Y-136506783D01*
X126950000Y-136486384D01*
X126768953Y-136506783D01*
X126768950Y-136506783D01*
X126768949Y-136506784D01*
X126596984Y-136566957D01*
X126596982Y-136566958D01*
X126469299Y-136647187D01*
X126402263Y-136666500D01*
X124262083Y-136666500D01*
X124193962Y-136646498D01*
X124172988Y-136629595D01*
X124157281Y-136613888D01*
X124157279Y-136613887D01*
X124003018Y-136516958D01*
X124003015Y-136516957D01*
X123831050Y-136456784D01*
X123831049Y-136456783D01*
X123831047Y-136456783D01*
X123650000Y-136436384D01*
X123468953Y-136456783D01*
X123468950Y-136456783D01*
X123468949Y-136456784D01*
X123296984Y-136516957D01*
X123296981Y-136516958D01*
X123142720Y-136613887D01*
X123142718Y-136613888D01*
X123013888Y-136742718D01*
X123013887Y-136742720D01*
X122916958Y-136896981D01*
X122916957Y-136896984D01*
X122881966Y-136996985D01*
X122856783Y-137068953D01*
X122836384Y-137250000D01*
X111196040Y-137250000D01*
X111199537Y-137198882D01*
X111214544Y-136979484D01*
X111214544Y-136979475D01*
X111194394Y-136684890D01*
X111194393Y-136684884D01*
X111194393Y-136684877D01*
X111134314Y-136395763D01*
X111035427Y-136117522D01*
X110899574Y-135855337D01*
X110729286Y-135614093D01*
X110527734Y-135398284D01*
X110298673Y-135211930D01*
X110046371Y-135058501D01*
X110046368Y-135058499D01*
X110046362Y-135058496D01*
X109885301Y-134988537D01*
X109839116Y-134950000D01*
X128186384Y-134950000D01*
X128206783Y-135131047D01*
X128206783Y-135131049D01*
X128206784Y-135131050D01*
X128266957Y-135303015D01*
X128266958Y-135303018D01*
X128363887Y-135457279D01*
X128363888Y-135457281D01*
X128492718Y-135586111D01*
X128492720Y-135586112D01*
X128646981Y-135683041D01*
X128646982Y-135683041D01*
X128646985Y-135683043D01*
X128818953Y-135743217D01*
X129000000Y-135763616D01*
X129181047Y-135743217D01*
X129353015Y-135683043D01*
X129457964Y-135617098D01*
X129526285Y-135597793D01*
X129592035Y-135617098D01*
X129696985Y-135683043D01*
X129868953Y-135743217D01*
X130050000Y-135763616D01*
X130231047Y-135743217D01*
X130403015Y-135683043D01*
X130557281Y-135586111D01*
X130686111Y-135457281D01*
X130783043Y-135303015D01*
X130843217Y-135131047D01*
X130863616Y-134950000D01*
X130843217Y-134768953D01*
X130783043Y-134596985D01*
X130783041Y-134596982D01*
X130783041Y-134596981D01*
X130695318Y-134457370D01*
X130676017Y-134392037D01*
X130672071Y-134100000D01*
X149886384Y-134100000D01*
X149906783Y-134281047D01*
X149906783Y-134281049D01*
X149906784Y-134281050D01*
X149966957Y-134453015D01*
X149966958Y-134453018D01*
X150063887Y-134607279D01*
X150063888Y-134607281D01*
X150192718Y-134736111D01*
X150192720Y-134736112D01*
X150346981Y-134833041D01*
X150346982Y-134833041D01*
X150346985Y-134833043D01*
X150518953Y-134893217D01*
X150700000Y-134913616D01*
X150881047Y-134893217D01*
X151053015Y-134833043D01*
X151128109Y-134785858D01*
X151180701Y-134752813D01*
X151247737Y-134733500D01*
X151535735Y-134733500D01*
X151603856Y-134753502D01*
X151650349Y-134807158D01*
X151654664Y-134817884D01*
X151666958Y-134853017D01*
X151666958Y-134853018D01*
X151763887Y-135007279D01*
X151763888Y-135007281D01*
X151892718Y-135136111D01*
X151892720Y-135136112D01*
X152046981Y-135233041D01*
X152046982Y-135233041D01*
X152046985Y-135233043D01*
X152218953Y-135293217D01*
X152400000Y-135313616D01*
X152581047Y-135293217D01*
X152753015Y-135233043D01*
X152907281Y-135136111D01*
X153036111Y-135007281D01*
X153133043Y-134853015D01*
X153193217Y-134681047D01*
X153213616Y-134500000D01*
X153193217Y-134318953D01*
X153133043Y-134146985D01*
X153133041Y-134146982D01*
X153133041Y-134146981D01*
X153036112Y-133992720D01*
X153036111Y-133992718D01*
X152907281Y-133863888D01*
X152907279Y-133863887D01*
X152753018Y-133766958D01*
X152753015Y-133766957D01*
X152581052Y-133706784D01*
X152581038Y-133706781D01*
X152536543Y-133701767D01*
X152471091Y-133674262D01*
X152461559Y-133665655D01*
X152403835Y-133607931D01*
X152403833Y-133607929D01*
X152300075Y-133538600D01*
X152184785Y-133490845D01*
X152111086Y-133476185D01*
X152062396Y-133466500D01*
X152062394Y-133466500D01*
X151247737Y-133466500D01*
X151180701Y-133447187D01*
X151053017Y-133366958D01*
X151053015Y-133366957D01*
X150881050Y-133306784D01*
X150881049Y-133306783D01*
X150881047Y-133306783D01*
X150700000Y-133286384D01*
X150518953Y-133306783D01*
X150518950Y-133306783D01*
X150518949Y-133306784D01*
X150346984Y-133366957D01*
X150346981Y-133366958D01*
X150192720Y-133463887D01*
X150192718Y-133463888D01*
X150063888Y-133592718D01*
X150063887Y-133592720D01*
X149966958Y-133746981D01*
X149966957Y-133746984D01*
X149923976Y-133869819D01*
X149906783Y-133918953D01*
X149886384Y-134100000D01*
X130672071Y-134100000D01*
X130663266Y-133448438D01*
X130642988Y-131947856D01*
X130662067Y-131879472D01*
X130701940Y-131839466D01*
X130707281Y-131836111D01*
X130836111Y-131707281D01*
X130933043Y-131553015D01*
X130934098Y-131550000D01*
X152036384Y-131550000D01*
X152056783Y-131731047D01*
X152056783Y-131731049D01*
X152056784Y-131731050D01*
X152116957Y-131903015D01*
X152116958Y-131903018D01*
X152213887Y-132057279D01*
X152213888Y-132057281D01*
X152342718Y-132186111D01*
X152342720Y-132186112D01*
X152496981Y-132283041D01*
X152496982Y-132283041D01*
X152496985Y-132283043D01*
X152668953Y-132343217D01*
X152713450Y-132348230D01*
X152778902Y-132375732D01*
X152788439Y-132384343D01*
X153257929Y-132853833D01*
X153346167Y-132942071D01*
X153449925Y-133011400D01*
X153565215Y-133059155D01*
X153593402Y-133064761D01*
X153635492Y-133084311D01*
X153636727Y-133082347D01*
X153796981Y-133183041D01*
X153796982Y-133183041D01*
X153796985Y-133183043D01*
X153968953Y-133243217D01*
X154150000Y-133263616D01*
X154331047Y-133243217D01*
X154503015Y-133183043D01*
X154657281Y-133086111D01*
X154786111Y-132957281D01*
X154883043Y-132803015D01*
X154943217Y-132631047D01*
X154963616Y-132450000D01*
X154943217Y-132268953D01*
X154883043Y-132096985D01*
X154883041Y-132096982D01*
X154883041Y-132096981D01*
X154786112Y-131942720D01*
X154786111Y-131942718D01*
X154657281Y-131813888D01*
X154657279Y-131813887D01*
X154503018Y-131716958D01*
X154503015Y-131716957D01*
X154331050Y-131656784D01*
X154331049Y-131656783D01*
X154331047Y-131656783D01*
X154150000Y-131636384D01*
X154149999Y-131636384D01*
X153968955Y-131656782D01*
X153968949Y-131656783D01*
X153957544Y-131660774D01*
X153886640Y-131664389D01*
X153826841Y-131630937D01*
X153684343Y-131488439D01*
X153650317Y-131426127D01*
X153648230Y-131413449D01*
X153644579Y-131381047D01*
X153643217Y-131368953D01*
X153583043Y-131196985D01*
X153583041Y-131196982D01*
X153583041Y-131196981D01*
X153486112Y-131042720D01*
X153486111Y-131042718D01*
X153357281Y-130913888D01*
X153357279Y-130913887D01*
X153203018Y-130816958D01*
X153203015Y-130816957D01*
X153031050Y-130756784D01*
X153031049Y-130756783D01*
X153031047Y-130756783D01*
X152850000Y-130736384D01*
X152668953Y-130756783D01*
X152668950Y-130756783D01*
X152668949Y-130756784D01*
X152496984Y-130816957D01*
X152496981Y-130816958D01*
X152342720Y-130913887D01*
X152342718Y-130913888D01*
X152213888Y-131042718D01*
X152213887Y-131042720D01*
X152116958Y-131196981D01*
X152116957Y-131196984D01*
X152074279Y-131318953D01*
X152056783Y-131368953D01*
X152036384Y-131550000D01*
X130934098Y-131550000D01*
X130993217Y-131381047D01*
X131013616Y-131200000D01*
X130993217Y-131018953D01*
X130933043Y-130846985D01*
X130933041Y-130846982D01*
X130933041Y-130846981D01*
X130836112Y-130692720D01*
X130836111Y-130692718D01*
X130707281Y-130563888D01*
X130707279Y-130563887D01*
X130553018Y-130466958D01*
X130553015Y-130466957D01*
X130381050Y-130406784D01*
X130381049Y-130406783D01*
X130381047Y-130406783D01*
X130200000Y-130386384D01*
X130018953Y-130406783D01*
X130018950Y-130406783D01*
X130018949Y-130406784D01*
X129846984Y-130466957D01*
X129846981Y-130466958D01*
X129692721Y-130563886D01*
X129562057Y-130694550D01*
X129499745Y-130728575D01*
X129431348Y-130724384D01*
X129381047Y-130706783D01*
X129200000Y-130686384D01*
X129018953Y-130706783D01*
X129018950Y-130706783D01*
X129018949Y-130706784D01*
X128846984Y-130766957D01*
X128846981Y-130766958D01*
X128692720Y-130863887D01*
X128692718Y-130863888D01*
X128563888Y-130992718D01*
X128563887Y-130992720D01*
X128466958Y-131146981D01*
X128466957Y-131146984D01*
X128412479Y-131302676D01*
X128406783Y-131318953D01*
X128386384Y-131500000D01*
X128406783Y-131681047D01*
X128406783Y-131681049D01*
X128406784Y-131681050D01*
X128466957Y-131853015D01*
X128466958Y-131853017D01*
X128547187Y-131980701D01*
X128566500Y-132047737D01*
X128566500Y-134197891D01*
X128546498Y-134266012D01*
X128507539Y-134304576D01*
X128492720Y-134313887D01*
X128492714Y-134313892D01*
X128363888Y-134442718D01*
X128363887Y-134442720D01*
X128266958Y-134596981D01*
X128266957Y-134596984D01*
X128212190Y-134753502D01*
X128206783Y-134768953D01*
X128186384Y-134950000D01*
X109839116Y-134950000D01*
X109830789Y-134943052D01*
X109809522Y-134875315D01*
X109809500Y-134872969D01*
X109809500Y-129710000D01*
X110475667Y-129710000D01*
X110495042Y-129931463D01*
X110538384Y-130093215D01*
X110552579Y-130146193D01*
X110552581Y-130146199D01*
X110646531Y-130347675D01*
X110646532Y-130347677D01*
X110774036Y-130529772D01*
X110774040Y-130529777D01*
X110774043Y-130529781D01*
X110931239Y-130686977D01*
X110931243Y-130686980D01*
X110931247Y-130686983D01*
X111030806Y-130756695D01*
X111113343Y-130814488D01*
X111178330Y-130844792D01*
X111223984Y-130866081D01*
X111277269Y-130912998D01*
X111296730Y-130981276D01*
X111276188Y-131049236D01*
X111223985Y-131094470D01*
X111113597Y-131145945D01*
X111050414Y-131190185D01*
X111703829Y-131843600D01*
X111697516Y-131843600D01*
X111594155Y-131871295D01*
X111501484Y-131924799D01*
X111425819Y-132000464D01*
X111372315Y-132093135D01*
X111344620Y-132196496D01*
X111344620Y-132202809D01*
X110691205Y-131549394D01*
X110646966Y-131612575D01*
X110553053Y-131813972D01*
X110553051Y-131813976D01*
X110495537Y-132028625D01*
X110476169Y-132250000D01*
X110495537Y-132471374D01*
X110553051Y-132686023D01*
X110553053Y-132686027D01*
X110646966Y-132887425D01*
X110691204Y-132950603D01*
X110691205Y-132950603D01*
X111344620Y-132297188D01*
X111344620Y-132303504D01*
X111372315Y-132406865D01*
X111425819Y-132499536D01*
X111501484Y-132575201D01*
X111594155Y-132628705D01*
X111697516Y-132656400D01*
X111703830Y-132656400D01*
X111050415Y-133309813D01*
X111050415Y-133309814D01*
X111113595Y-133354053D01*
X111113594Y-133354053D01*
X111314992Y-133447966D01*
X111314996Y-133447968D01*
X111529645Y-133505482D01*
X111751020Y-133524850D01*
X111972394Y-133505482D01*
X112187043Y-133447968D01*
X112187047Y-133447966D01*
X112388445Y-133354053D01*
X112388446Y-133354052D01*
X112451623Y-133309814D01*
X112451623Y-133309812D01*
X111798211Y-132656400D01*
X111804524Y-132656400D01*
X111907885Y-132628705D01*
X112000556Y-132575201D01*
X112076221Y-132499536D01*
X112129725Y-132406865D01*
X112157420Y-132303504D01*
X112157420Y-132297189D01*
X112540333Y-132680102D01*
X112565433Y-132715948D01*
X112645511Y-132887675D01*
X112645512Y-132887677D01*
X112773016Y-133069772D01*
X112773020Y-133069777D01*
X112773023Y-133069781D01*
X112930219Y-133226977D01*
X112930223Y-133226980D01*
X112930227Y-133226983D01*
X113012784Y-133284790D01*
X113112323Y-133354488D01*
X113313804Y-133448440D01*
X113528537Y-133505978D01*
X113750000Y-133525353D01*
X113971463Y-133505978D01*
X114186196Y-133448440D01*
X114387677Y-133354488D01*
X114569781Y-133226977D01*
X114726977Y-133069781D01*
X114854488Y-132887677D01*
X114948440Y-132686196D01*
X115005978Y-132471463D01*
X115025353Y-132250000D01*
X115005978Y-132028537D01*
X114948440Y-131813804D01*
X114854488Y-131612324D01*
X114726977Y-131430219D01*
X114569781Y-131273023D01*
X114569777Y-131273020D01*
X114569772Y-131273016D01*
X114387677Y-131145512D01*
X114387675Y-131145511D01*
X114277627Y-131094195D01*
X114224342Y-131047278D01*
X114204881Y-130979001D01*
X114225423Y-130911041D01*
X114277627Y-130865805D01*
X114281740Y-130863887D01*
X114387677Y-130814488D01*
X114569781Y-130686977D01*
X114726977Y-130529781D01*
X114854488Y-130347677D01*
X114948440Y-130146196D01*
X115005978Y-129931463D01*
X115025353Y-129710000D01*
X115005978Y-129488537D01*
X114948440Y-129273804D01*
X114854488Y-129072324D01*
X114726977Y-128890219D01*
X114569781Y-128733023D01*
X114569777Y-128733020D01*
X114569772Y-128733016D01*
X114387677Y-128605512D01*
X114387675Y-128605511D01*
X114186199Y-128511561D01*
X114186193Y-128511559D01*
X114120882Y-128494059D01*
X113971463Y-128454022D01*
X113750000Y-128434647D01*
X113528537Y-128454022D01*
X113413463Y-128484856D01*
X113313806Y-128511559D01*
X113313801Y-128511561D01*
X113112323Y-128605512D01*
X112930222Y-128733020D01*
X112839605Y-128823637D01*
X112777293Y-128857662D01*
X112706477Y-128852596D01*
X112661415Y-128823637D01*
X112630496Y-128792718D01*
X112570801Y-128733023D01*
X112570797Y-128733020D01*
X112570792Y-128733016D01*
X112388697Y-128605512D01*
X112388695Y-128605511D01*
X112187219Y-128511561D01*
X112187213Y-128511559D01*
X112121902Y-128494059D01*
X111972483Y-128454022D01*
X111751020Y-128434647D01*
X111529557Y-128454022D01*
X111414483Y-128484856D01*
X111314826Y-128511559D01*
X111314821Y-128511561D01*
X111113343Y-128605512D01*
X110931242Y-128733020D01*
X110931236Y-128733025D01*
X110774045Y-128890216D01*
X110774040Y-128890222D01*
X110646532Y-129072323D01*
X110552581Y-129273801D01*
X110552579Y-129273806D01*
X110525876Y-129373463D01*
X110495042Y-129488537D01*
X110475667Y-129710000D01*
X109809500Y-129710000D01*
X109809500Y-127087029D01*
X109829502Y-127018908D01*
X109883158Y-126972415D01*
X109885235Y-126971489D01*
X109980754Y-126930000D01*
X121383571Y-126930000D01*
X121402811Y-127149913D01*
X121412937Y-127187703D01*
X121459945Y-127363142D01*
X121459947Y-127363147D01*
X121553240Y-127563215D01*
X121679859Y-127744045D01*
X121679862Y-127744049D01*
X121835950Y-127900137D01*
X121835954Y-127900140D01*
X121835955Y-127900141D01*
X122016785Y-128026760D01*
X122096405Y-128063887D01*
X122143408Y-128085805D01*
X122196693Y-128132722D01*
X122216154Y-128200999D01*
X122195612Y-128268959D01*
X122143408Y-128314195D01*
X122016785Y-128373240D01*
X121835958Y-128499856D01*
X121835952Y-128499861D01*
X121679861Y-128655952D01*
X121679856Y-128655958D01*
X121553240Y-128836785D01*
X121459947Y-129036852D01*
X121459945Y-129036857D01*
X121424273Y-129169990D01*
X121402811Y-129250087D01*
X121383571Y-129470000D01*
X121402811Y-129689913D01*
X121412288Y-129725281D01*
X121459945Y-129903142D01*
X121459947Y-129903147D01*
X121553240Y-130103215D01*
X121679859Y-130284045D01*
X121679862Y-130284049D01*
X121835950Y-130440137D01*
X121835954Y-130440140D01*
X121835955Y-130440141D01*
X122016785Y-130566760D01*
X122216856Y-130660054D01*
X122430087Y-130717189D01*
X122650000Y-130736429D01*
X122869913Y-130717189D01*
X123083144Y-130660054D01*
X123283215Y-130566760D01*
X123464045Y-130440141D01*
X123620141Y-130284045D01*
X123746760Y-130103215D01*
X123840054Y-129903144D01*
X123897189Y-129689913D01*
X123916429Y-129470000D01*
X123897189Y-129250087D01*
X123840054Y-129036856D01*
X123822868Y-129000000D01*
X127286384Y-129000000D01*
X127306783Y-129181047D01*
X127306783Y-129181049D01*
X127306784Y-129181050D01*
X127366957Y-129353015D01*
X127366958Y-129353018D01*
X127463887Y-129507279D01*
X127463888Y-129507281D01*
X127592718Y-129636111D01*
X127592720Y-129636112D01*
X127710312Y-129710000D01*
X127746985Y-129733043D01*
X127746989Y-129733044D01*
X127753365Y-129736115D01*
X127752328Y-129738266D01*
X127787899Y-129760580D01*
X127916485Y-129889166D01*
X128040715Y-129972174D01*
X128178753Y-130029351D01*
X128178754Y-130029351D01*
X128178758Y-130029353D01*
X128239643Y-130041462D01*
X128252020Y-130043924D01*
X128252022Y-130043925D01*
X128276335Y-130048761D01*
X128325294Y-130058500D01*
X128325295Y-130058500D01*
X128474705Y-130058500D01*
X130598330Y-130058500D01*
X130639944Y-130065570D01*
X130718953Y-130093217D01*
X130900000Y-130113616D01*
X131081047Y-130093217D01*
X131253015Y-130033043D01*
X131407281Y-129936111D01*
X131536111Y-129807281D01*
X131633043Y-129653015D01*
X131693217Y-129481047D01*
X131713616Y-129300000D01*
X131693217Y-129118953D01*
X131633043Y-128946985D01*
X131633041Y-128946982D01*
X131633041Y-128946981D01*
X131536112Y-128792720D01*
X131536111Y-128792718D01*
X131443393Y-128700000D01*
X135586384Y-128700000D01*
X135606783Y-128881047D01*
X135606783Y-128881049D01*
X135606784Y-128881050D01*
X135666957Y-129053015D01*
X135666958Y-129053018D01*
X135763887Y-129207279D01*
X135763888Y-129207281D01*
X135892718Y-129336111D01*
X135892720Y-129336112D01*
X136046981Y-129433041D01*
X136046982Y-129433041D01*
X136046985Y-129433043D01*
X136218953Y-129493217D01*
X136400000Y-129513616D01*
X136581047Y-129493217D01*
X136753015Y-129433043D01*
X136907281Y-129336111D01*
X137036111Y-129207281D01*
X137133043Y-129053015D01*
X137193217Y-128881047D01*
X137210929Y-128723847D01*
X137238432Y-128658397D01*
X137247030Y-128648872D01*
X137461562Y-128434340D01*
X137523873Y-128400317D01*
X137536542Y-128398231D01*
X137581047Y-128393217D01*
X137753015Y-128333043D01*
X137907281Y-128236111D01*
X138036111Y-128107281D01*
X138133043Y-127953015D01*
X138193217Y-127781047D01*
X138213616Y-127600000D01*
X138193217Y-127418953D01*
X138133043Y-127246985D01*
X138133041Y-127246982D01*
X138133041Y-127246981D01*
X138036112Y-127092720D01*
X138036111Y-127092718D01*
X137907281Y-126963888D01*
X137907279Y-126963887D01*
X137753018Y-126866958D01*
X137753015Y-126866957D01*
X137581050Y-126806784D01*
X137581049Y-126806783D01*
X137581047Y-126806783D01*
X137400000Y-126786384D01*
X137218953Y-126806783D01*
X137218950Y-126806783D01*
X137218949Y-126806784D01*
X137046984Y-126866957D01*
X137046981Y-126866958D01*
X136892720Y-126963887D01*
X136892718Y-126963888D01*
X136763888Y-127092718D01*
X136763887Y-127092720D01*
X136666958Y-127246981D01*
X136666957Y-127246984D01*
X136606784Y-127418947D01*
X136606781Y-127418961D01*
X136601768Y-127463451D01*
X136574264Y-127528904D01*
X136565657Y-127538436D01*
X136205999Y-127898095D01*
X136158519Y-127927929D01*
X136046982Y-127966958D01*
X136046981Y-127966958D01*
X135892720Y-128063887D01*
X135892718Y-128063888D01*
X135763888Y-128192718D01*
X135763887Y-128192720D01*
X135666958Y-128346981D01*
X135666957Y-128346984D01*
X135609370Y-128511561D01*
X135606783Y-128518953D01*
X135586384Y-128700000D01*
X131443393Y-128700000D01*
X131407281Y-128663888D01*
X131407279Y-128663887D01*
X131253018Y-128566958D01*
X131253015Y-128566957D01*
X131081050Y-128506784D01*
X131081049Y-128506783D01*
X131081047Y-128506783D01*
X130900000Y-128486384D01*
X130718953Y-128506783D01*
X130718950Y-128506783D01*
X130718949Y-128506784D01*
X130639945Y-128534429D01*
X130598330Y-128541500D01*
X128835691Y-128541500D01*
X128767570Y-128521498D01*
X128741172Y-128497664D01*
X128741115Y-128497722D01*
X128739981Y-128496588D01*
X128737180Y-128494059D01*
X128736109Y-128492716D01*
X128607281Y-128363888D01*
X128607279Y-128363887D01*
X128453018Y-128266958D01*
X128453015Y-128266957D01*
X128281050Y-128206784D01*
X128281049Y-128206783D01*
X128281047Y-128206783D01*
X128100000Y-128186384D01*
X127918953Y-128206783D01*
X127918950Y-128206783D01*
X127918949Y-128206784D01*
X127746984Y-128266957D01*
X127746981Y-128266958D01*
X127592720Y-128363887D01*
X127592718Y-128363888D01*
X127463888Y-128492718D01*
X127463887Y-128492720D01*
X127366958Y-128646981D01*
X127366957Y-128646984D01*
X127315470Y-128794128D01*
X127306783Y-128818953D01*
X127286384Y-129000000D01*
X123822868Y-129000000D01*
X123746760Y-128836786D01*
X123620141Y-128655955D01*
X123464045Y-128499859D01*
X123460993Y-128497722D01*
X123283213Y-128373238D01*
X123156592Y-128314195D01*
X123103306Y-128267278D01*
X123083845Y-128199001D01*
X123104386Y-128131041D01*
X123156592Y-128085805D01*
X123283213Y-128026761D01*
X123283213Y-128026760D01*
X123283215Y-128026760D01*
X123464045Y-127900141D01*
X123620141Y-127744045D01*
X123746760Y-127563215D01*
X123840054Y-127363144D01*
X123897189Y-127149913D01*
X123916429Y-126930000D01*
X123897189Y-126710087D01*
X123840054Y-126496856D01*
X123746760Y-126296786D01*
X123620141Y-126115955D01*
X123464045Y-125959859D01*
X123283215Y-125833240D01*
X123083147Y-125739947D01*
X123083142Y-125739945D01*
X122984181Y-125713428D01*
X122869913Y-125682811D01*
X122650000Y-125663571D01*
X122430087Y-125682811D01*
X122372953Y-125698119D01*
X122216857Y-125739945D01*
X122216852Y-125739947D01*
X122016785Y-125833240D01*
X121835958Y-125959856D01*
X121835952Y-125959861D01*
X121679861Y-126115952D01*
X121679856Y-126115958D01*
X121553240Y-126296785D01*
X121459947Y-126496852D01*
X121459945Y-126496857D01*
X121428587Y-126613888D01*
X121402811Y-126710087D01*
X121383571Y-126930000D01*
X109980754Y-126930000D01*
X110046371Y-126901499D01*
X110298673Y-126748070D01*
X110527734Y-126561716D01*
X110729286Y-126345907D01*
X110899574Y-126104663D01*
X111035427Y-125842478D01*
X111134314Y-125564237D01*
X111194393Y-125275123D01*
X111197061Y-125236112D01*
X111214544Y-124980524D01*
X111214544Y-124980515D01*
X111194394Y-124685930D01*
X111194393Y-124685924D01*
X111194393Y-124685917D01*
X111134314Y-124396803D01*
X111035427Y-124118562D01*
X110899574Y-123856377D01*
X110729286Y-123615133D01*
X110527734Y-123399324D01*
X110298673Y-123212970D01*
X110046371Y-123059541D01*
X110046367Y-123059539D01*
X110046365Y-123059538D01*
X109775528Y-122941897D01*
X109775518Y-122941894D01*
X109491193Y-122862229D01*
X109491185Y-122862227D01*
X109198658Y-122822020D01*
X109198645Y-122822020D01*
X108903355Y-122822020D01*
X108903341Y-122822020D01*
X108610814Y-122862227D01*
X108610806Y-122862229D01*
X108326481Y-122941894D01*
X108326471Y-122941897D01*
X108055634Y-123059538D01*
X107803324Y-123212972D01*
X107574263Y-123399326D01*
X107372714Y-123615133D01*
X107202429Y-123856371D01*
X107066573Y-124118561D01*
X106967686Y-124396801D01*
X106967684Y-124396809D01*
X106939375Y-124533041D01*
X106922632Y-124613616D01*
X106907606Y-124685924D01*
X106907605Y-124685930D01*
X106887456Y-124980515D01*
X100500000Y-124980515D01*
X100500000Y-122200000D01*
X136386384Y-122200000D01*
X136406783Y-122381047D01*
X136406783Y-122381049D01*
X136406784Y-122381050D01*
X136466957Y-122553015D01*
X136466958Y-122553018D01*
X136563887Y-122707279D01*
X136563888Y-122707281D01*
X136692718Y-122836111D01*
X136692720Y-122836112D01*
X136846981Y-122933041D01*
X136846982Y-122933041D01*
X136846985Y-122933043D01*
X137018953Y-122993217D01*
X137063453Y-122998230D01*
X137128904Y-123025734D01*
X137138438Y-123034343D01*
X137965655Y-123861560D01*
X137999681Y-123923872D01*
X138001767Y-123936543D01*
X138006782Y-123981039D01*
X138006784Y-123981052D01*
X138066957Y-124153015D01*
X138066958Y-124153018D01*
X138163887Y-124307279D01*
X138163888Y-124307281D01*
X138292718Y-124436111D01*
X138292720Y-124436112D01*
X138446981Y-124533041D01*
X138446982Y-124533041D01*
X138446985Y-124533043D01*
X138618953Y-124593217D01*
X138800000Y-124613616D01*
X138920846Y-124600000D01*
X156036384Y-124600000D01*
X156056783Y-124781047D01*
X156056783Y-124781049D01*
X156056784Y-124781050D01*
X156116957Y-124953015D01*
X156116958Y-124953018D01*
X156213887Y-125107279D01*
X156213888Y-125107281D01*
X156342718Y-125236111D01*
X156342720Y-125236112D01*
X156496981Y-125333041D01*
X156496982Y-125333041D01*
X156496985Y-125333043D01*
X156668953Y-125393217D01*
X156769802Y-125404579D01*
X156835253Y-125432083D01*
X156844788Y-125440692D01*
X158715655Y-127311559D01*
X158749681Y-127373871D01*
X158751767Y-127386543D01*
X158756781Y-127431038D01*
X158756784Y-127431052D01*
X158816957Y-127603015D01*
X158816958Y-127603018D01*
X158913887Y-127757279D01*
X158913888Y-127757281D01*
X159042718Y-127886111D01*
X159042720Y-127886112D01*
X159196981Y-127983041D01*
X159196982Y-127983041D01*
X159196985Y-127983043D01*
X159368953Y-128043217D01*
X159550000Y-128063616D01*
X159731047Y-128043217D01*
X159903015Y-127983043D01*
X160057281Y-127886111D01*
X160186111Y-127757281D01*
X160283043Y-127603015D01*
X160343217Y-127431047D01*
X160363616Y-127250000D01*
X160343217Y-127068953D01*
X160283043Y-126896985D01*
X160283041Y-126896982D01*
X160283041Y-126896981D01*
X160186112Y-126742720D01*
X160186111Y-126742718D01*
X160057281Y-126613888D01*
X160057279Y-126613887D01*
X159903018Y-126516958D01*
X159903015Y-126516957D01*
X159731052Y-126456784D01*
X159731038Y-126456781D01*
X159686543Y-126451767D01*
X159621091Y-126424262D01*
X159611559Y-126415655D01*
X157677273Y-124481369D01*
X157646317Y-124425364D01*
X157645554Y-124425632D01*
X157643980Y-124421136D01*
X157643528Y-124420317D01*
X157643216Y-124418950D01*
X157638939Y-124406727D01*
X157583043Y-124246985D01*
X157583041Y-124246982D01*
X157583041Y-124246981D01*
X157486112Y-124092720D01*
X157486111Y-124092718D01*
X157357281Y-123963888D01*
X157357279Y-123963887D01*
X157203018Y-123866958D01*
X157203015Y-123866957D01*
X157031050Y-123806784D01*
X157031049Y-123806783D01*
X157031047Y-123806783D01*
X156850000Y-123786384D01*
X156668953Y-123806783D01*
X156668950Y-123806783D01*
X156668949Y-123806784D01*
X156496984Y-123866957D01*
X156496981Y-123866958D01*
X156342720Y-123963887D01*
X156342718Y-123963888D01*
X156213888Y-124092718D01*
X156213887Y-124092720D01*
X156116958Y-124246981D01*
X156116957Y-124246984D01*
X156064534Y-124396803D01*
X156056783Y-124418953D01*
X156036384Y-124600000D01*
X138920846Y-124600000D01*
X138981047Y-124593217D01*
X139153015Y-124533043D01*
X139307281Y-124436111D01*
X139436111Y-124307281D01*
X139533043Y-124153015D01*
X139593217Y-123981047D01*
X139613616Y-123800000D01*
X139593217Y-123618953D01*
X139533043Y-123446985D01*
X139533041Y-123446982D01*
X139533041Y-123446981D01*
X139436112Y-123292720D01*
X139436111Y-123292718D01*
X139307281Y-123163888D01*
X139307279Y-123163887D01*
X139153018Y-123066958D01*
X139153015Y-123066957D01*
X138981052Y-123006784D01*
X138981048Y-123006783D01*
X138981047Y-123006783D01*
X138981041Y-123006782D01*
X138981039Y-123006782D01*
X138936543Y-123001767D01*
X138871091Y-122974262D01*
X138861560Y-122965655D01*
X138034343Y-122138438D01*
X138000317Y-122076126D01*
X137998232Y-122063464D01*
X137993217Y-122018953D01*
X137933043Y-121846985D01*
X137933041Y-121846982D01*
X137933041Y-121846981D01*
X137836112Y-121692720D01*
X137836111Y-121692718D01*
X137707281Y-121563888D01*
X137707279Y-121563887D01*
X137553018Y-121466958D01*
X137553015Y-121466957D01*
X137381050Y-121406784D01*
X137381049Y-121406783D01*
X137381047Y-121406783D01*
X137200000Y-121386384D01*
X137018953Y-121406783D01*
X137018950Y-121406783D01*
X137018949Y-121406784D01*
X136846984Y-121466957D01*
X136846981Y-121466958D01*
X136692720Y-121563887D01*
X136692718Y-121563888D01*
X136563888Y-121692718D01*
X136563887Y-121692720D01*
X136466958Y-121846981D01*
X136466957Y-121846984D01*
X136444797Y-121910316D01*
X136406783Y-122018953D01*
X136386384Y-122200000D01*
X100500000Y-122200000D01*
X100500000Y-118750000D01*
X145486384Y-118750000D01*
X145506783Y-118931047D01*
X145506783Y-118931049D01*
X145506784Y-118931050D01*
X145566957Y-119103015D01*
X145566958Y-119103018D01*
X145663887Y-119257279D01*
X145663888Y-119257281D01*
X145792718Y-119386111D01*
X145792720Y-119386112D01*
X145946981Y-119483041D01*
X145946982Y-119483041D01*
X145946985Y-119483043D01*
X146118953Y-119543217D01*
X146300000Y-119563616D01*
X146481047Y-119543217D01*
X146653015Y-119483043D01*
X146752703Y-119420405D01*
X146780701Y-119402813D01*
X146847737Y-119383500D01*
X148537917Y-119383500D01*
X148606038Y-119403502D01*
X148627012Y-119420405D01*
X148742718Y-119536111D01*
X148742720Y-119536112D01*
X148896981Y-119633041D01*
X148896982Y-119633041D01*
X148896985Y-119633043D01*
X149068953Y-119693217D01*
X149250000Y-119713616D01*
X149431047Y-119693217D01*
X149603015Y-119633043D01*
X149757281Y-119536111D01*
X149886111Y-119407281D01*
X149983043Y-119253015D01*
X150043217Y-119081047D01*
X150063616Y-118900000D01*
X150043217Y-118718953D01*
X149983043Y-118546985D01*
X149983041Y-118546982D01*
X149983041Y-118546981D01*
X149886112Y-118392720D01*
X149886111Y-118392718D01*
X149757281Y-118263888D01*
X149757279Y-118263887D01*
X149603018Y-118166958D01*
X149603015Y-118166957D01*
X149431050Y-118106784D01*
X149431049Y-118106783D01*
X149431047Y-118106783D01*
X149250000Y-118086384D01*
X149249999Y-118086384D01*
X149068957Y-118106782D01*
X149068954Y-118106782D01*
X149068953Y-118106783D01*
X149061386Y-118109430D01*
X149019776Y-118116500D01*
X146847737Y-118116500D01*
X146780701Y-118097187D01*
X146653017Y-118016958D01*
X146653015Y-118016957D01*
X146481050Y-117956784D01*
X146481049Y-117956783D01*
X146481047Y-117956783D01*
X146300000Y-117936384D01*
X146118953Y-117956783D01*
X146118950Y-117956783D01*
X146118949Y-117956784D01*
X145946984Y-118016957D01*
X145946981Y-118016958D01*
X145792720Y-118113887D01*
X145792718Y-118113888D01*
X145663888Y-118242718D01*
X145663887Y-118242720D01*
X145566958Y-118396981D01*
X145566957Y-118396984D01*
X145531761Y-118497571D01*
X145506783Y-118568953D01*
X145486384Y-118750000D01*
X100500000Y-118750000D01*
X100500000Y-117134000D01*
X164256464Y-117134000D01*
X164276571Y-117363829D01*
X164336282Y-117586673D01*
X164336284Y-117586679D01*
X164433784Y-117795768D01*
X164532244Y-117936384D01*
X164566113Y-117984753D01*
X164729247Y-118147887D01*
X164918232Y-118280216D01*
X165052735Y-118342936D01*
X165074972Y-118353305D01*
X165128257Y-118400222D01*
X165147718Y-118468500D01*
X165127176Y-118536459D01*
X165074972Y-118581695D01*
X164918231Y-118654784D01*
X164729250Y-118787110D01*
X164729244Y-118787115D01*
X164566115Y-118950244D01*
X164566110Y-118950250D01*
X164433784Y-119139231D01*
X164336284Y-119348320D01*
X164336282Y-119348326D01*
X164276571Y-119571170D01*
X164256464Y-119801000D01*
X164276571Y-120030829D01*
X164336282Y-120253673D01*
X164336284Y-120253679D01*
X164433784Y-120462768D01*
X164520970Y-120587283D01*
X164566113Y-120651753D01*
X164729247Y-120814887D01*
X164918232Y-120947216D01*
X165127324Y-121044717D01*
X165245167Y-121076293D01*
X165305790Y-121113245D01*
X165336811Y-121177106D01*
X165328383Y-121247600D01*
X165283180Y-121302347D01*
X165245168Y-121319706D01*
X165203811Y-121330788D01*
X165127326Y-121351282D01*
X165127320Y-121351284D01*
X164918231Y-121448784D01*
X164729250Y-121581110D01*
X164729244Y-121581115D01*
X164566115Y-121744244D01*
X164566110Y-121744250D01*
X164433784Y-121933231D01*
X164336284Y-122142320D01*
X164336282Y-122142326D01*
X164276571Y-122365170D01*
X164256464Y-122595000D01*
X164276571Y-122824829D01*
X164336282Y-123047673D01*
X164336284Y-123047679D01*
X164433784Y-123256768D01*
X164458956Y-123292718D01*
X164566113Y-123445753D01*
X164729247Y-123608887D01*
X164918232Y-123741216D01*
X165127324Y-123838717D01*
X165245167Y-123870293D01*
X165305790Y-123907245D01*
X165336811Y-123971106D01*
X165328383Y-124041600D01*
X165283180Y-124096347D01*
X165245168Y-124113706D01*
X165203811Y-124124788D01*
X165127326Y-124145282D01*
X165127320Y-124145284D01*
X164918231Y-124242784D01*
X164729250Y-124375110D01*
X164729244Y-124375115D01*
X164566115Y-124538244D01*
X164566110Y-124538250D01*
X164433784Y-124727231D01*
X164336284Y-124936320D01*
X164336282Y-124936326D01*
X164317644Y-125005884D01*
X164276571Y-125159170D01*
X164256464Y-125389000D01*
X164276571Y-125618830D01*
X164293715Y-125682811D01*
X164336282Y-125841673D01*
X164336284Y-125841679D01*
X164433784Y-126050768D01*
X164479428Y-126115955D01*
X164566113Y-126239753D01*
X164729247Y-126402887D01*
X164918232Y-126535216D01*
X165127324Y-126632717D01*
X165245167Y-126664293D01*
X165305790Y-126701245D01*
X165336811Y-126765106D01*
X165328383Y-126835600D01*
X165283180Y-126890347D01*
X165245168Y-126907706D01*
X165203811Y-126918788D01*
X165127326Y-126939282D01*
X165127320Y-126939284D01*
X164918231Y-127036784D01*
X164729250Y-127169110D01*
X164729244Y-127169115D01*
X164566115Y-127332244D01*
X164566110Y-127332250D01*
X164433784Y-127521231D01*
X164336284Y-127730320D01*
X164336282Y-127730326D01*
X164294539Y-127886112D01*
X164276571Y-127953170D01*
X164256464Y-128183000D01*
X164276571Y-128412830D01*
X164299318Y-128497722D01*
X164336282Y-128635673D01*
X164336284Y-128635679D01*
X164433784Y-128844768D01*
X164505356Y-128946984D01*
X164566113Y-129033753D01*
X164729247Y-129196887D01*
X164918232Y-129329216D01*
X164969276Y-129353018D01*
X165074972Y-129402305D01*
X165128257Y-129449222D01*
X165147718Y-129517500D01*
X165127176Y-129585459D01*
X165074972Y-129630695D01*
X164918231Y-129703784D01*
X164729250Y-129836110D01*
X164729244Y-129836115D01*
X164566115Y-129999244D01*
X164566110Y-129999250D01*
X164433784Y-130188231D01*
X164336284Y-130397320D01*
X164336282Y-130397326D01*
X164290882Y-130566760D01*
X164276571Y-130620170D01*
X164256464Y-130850000D01*
X164273894Y-131049236D01*
X164276571Y-131079829D01*
X164336282Y-131302673D01*
X164336284Y-131302679D01*
X164433784Y-131511768D01*
X164540650Y-131664389D01*
X164566113Y-131700753D01*
X164729247Y-131863887D01*
X164918232Y-131996216D01*
X165127324Y-132093717D01*
X165246134Y-132125552D01*
X165306755Y-132162503D01*
X165337776Y-132226363D01*
X165329348Y-132296858D01*
X165284145Y-132351605D01*
X165246133Y-132368965D01*
X165127494Y-132400754D01*
X165127492Y-132400755D01*
X164918482Y-132498218D01*
X164844928Y-132549719D01*
X165448518Y-133153309D01*
X165383919Y-133170619D01*
X165268080Y-133237498D01*
X165173498Y-133332080D01*
X165106619Y-133447919D01*
X165089309Y-133512518D01*
X164485719Y-132908928D01*
X164434218Y-132982482D01*
X164336755Y-133191492D01*
X164336753Y-133191496D01*
X164277065Y-133414258D01*
X164256965Y-133644000D01*
X164277065Y-133873741D01*
X164336753Y-134096503D01*
X164336755Y-134096507D01*
X164434219Y-134305520D01*
X164485719Y-134379069D01*
X165089309Y-133775479D01*
X165106619Y-133840081D01*
X165173498Y-133955920D01*
X165268080Y-134050502D01*
X165383919Y-134117381D01*
X165448519Y-134134690D01*
X164844929Y-134738279D01*
X164844929Y-134738281D01*
X164918478Y-134789780D01*
X165127491Y-134887244D01*
X165127497Y-134887246D01*
X165247097Y-134919293D01*
X165307720Y-134956245D01*
X165338741Y-135020105D01*
X165330313Y-135090600D01*
X165285110Y-135145347D01*
X165247097Y-135162707D01*
X165127497Y-135194753D01*
X165127492Y-135194755D01*
X164918482Y-135292218D01*
X164844928Y-135343719D01*
X165448518Y-135947309D01*
X165383919Y-135964619D01*
X165268080Y-136031498D01*
X165173498Y-136126080D01*
X165106619Y-136241919D01*
X165089309Y-136306518D01*
X164485719Y-135702928D01*
X164434218Y-135776482D01*
X164336755Y-135985492D01*
X164336753Y-135985496D01*
X164277065Y-136208258D01*
X164256965Y-136438000D01*
X164277065Y-136667741D01*
X164336753Y-136890503D01*
X164336755Y-136890507D01*
X164434219Y-137099520D01*
X164485719Y-137173069D01*
X165089309Y-136569479D01*
X165106619Y-136634081D01*
X165173498Y-136749920D01*
X165268080Y-136844502D01*
X165383919Y-136911381D01*
X165448519Y-136928690D01*
X164844929Y-137532279D01*
X164844929Y-137532281D01*
X164918478Y-137583780D01*
X165127491Y-137681244D01*
X165127497Y-137681246D01*
X165247097Y-137713293D01*
X165307720Y-137750245D01*
X165338741Y-137814105D01*
X165330313Y-137884600D01*
X165285110Y-137939347D01*
X165247097Y-137956707D01*
X165127497Y-137988753D01*
X165127492Y-137988755D01*
X164918482Y-138086218D01*
X164844928Y-138137719D01*
X165448518Y-138741309D01*
X165383919Y-138758619D01*
X165268080Y-138825498D01*
X165173498Y-138920080D01*
X165106619Y-139035919D01*
X165089309Y-139100518D01*
X164485719Y-138496928D01*
X164434218Y-138570482D01*
X164336755Y-138779492D01*
X164336753Y-138779496D01*
X164277065Y-139002258D01*
X164256965Y-139232000D01*
X164277065Y-139461741D01*
X164336753Y-139684503D01*
X164336755Y-139684507D01*
X164434219Y-139893520D01*
X164485719Y-139967069D01*
X165089309Y-139363479D01*
X165106619Y-139428081D01*
X165173498Y-139543920D01*
X165268080Y-139638502D01*
X165383919Y-139705381D01*
X165448519Y-139722690D01*
X164844929Y-140326279D01*
X164844929Y-140326281D01*
X164918478Y-140377780D01*
X165076153Y-140451305D01*
X165129438Y-140498222D01*
X165148899Y-140566499D01*
X165128357Y-140634459D01*
X165076153Y-140679695D01*
X164918482Y-140753218D01*
X164844928Y-140804719D01*
X165448518Y-141408309D01*
X165383919Y-141425619D01*
X165268080Y-141492498D01*
X165173498Y-141587080D01*
X165106619Y-141702919D01*
X165089309Y-141767518D01*
X164485719Y-141163928D01*
X164434218Y-141237482D01*
X164336755Y-141446492D01*
X164336753Y-141446496D01*
X164277065Y-141669258D01*
X164256965Y-141899000D01*
X164277065Y-142128741D01*
X164336753Y-142351503D01*
X164336755Y-142351507D01*
X164434219Y-142560520D01*
X164485719Y-142634069D01*
X165089309Y-142030479D01*
X165106619Y-142095081D01*
X165173498Y-142210920D01*
X165268080Y-142305502D01*
X165383919Y-142372381D01*
X165448519Y-142389690D01*
X164844929Y-142993279D01*
X164844929Y-142993281D01*
X164918478Y-143044780D01*
X165127491Y-143142244D01*
X165127496Y-143142246D01*
X165246132Y-143174034D01*
X165306755Y-143210985D01*
X165337776Y-143274846D01*
X165329348Y-143345340D01*
X165284145Y-143400088D01*
X165246133Y-143417448D01*
X165127323Y-143449283D01*
X165127320Y-143449284D01*
X164918231Y-143546784D01*
X164729250Y-143679110D01*
X164729244Y-143679115D01*
X164566115Y-143842244D01*
X164566110Y-143842250D01*
X164433784Y-144031231D01*
X164336284Y-144240320D01*
X164336282Y-144240326D01*
X164296102Y-144390279D01*
X164276571Y-144463170D01*
X164256464Y-144693000D01*
X164269915Y-144846755D01*
X164276571Y-144922829D01*
X164336282Y-145145673D01*
X164336284Y-145145679D01*
X164433784Y-145354768D01*
X164565389Y-145542720D01*
X164566113Y-145543753D01*
X164729247Y-145706887D01*
X164918232Y-145839216D01*
X165127324Y-145936717D01*
X165245167Y-145968293D01*
X165305790Y-146005245D01*
X165336811Y-146069106D01*
X165328383Y-146139600D01*
X165283180Y-146194347D01*
X165245168Y-146211706D01*
X165203811Y-146222788D01*
X165127326Y-146243282D01*
X165127320Y-146243284D01*
X164918231Y-146340784D01*
X164729250Y-146473110D01*
X164729244Y-146473115D01*
X164566115Y-146636244D01*
X164566110Y-146636250D01*
X164433784Y-146825231D01*
X164336284Y-147034320D01*
X164336282Y-147034326D01*
X164296102Y-147184279D01*
X164276571Y-147257170D01*
X164256464Y-147487000D01*
X164276571Y-147716830D01*
X164336283Y-147939676D01*
X164433784Y-148148768D01*
X164566113Y-148337753D01*
X164729247Y-148500887D01*
X164918232Y-148633216D01*
X165127324Y-148730717D01*
X165350170Y-148790429D01*
X165580000Y-148810536D01*
X165809830Y-148790429D01*
X166032676Y-148730717D01*
X166241768Y-148633216D01*
X166430753Y-148500887D01*
X166593887Y-148337753D01*
X166726216Y-148148768D01*
X166823717Y-147939676D01*
X166883429Y-147716830D01*
X166903536Y-147487000D01*
X166883429Y-147257170D01*
X166823717Y-147034324D01*
X166726216Y-146825232D01*
X166593887Y-146636247D01*
X166430753Y-146473113D01*
X166241768Y-146340784D01*
X166124457Y-146286081D01*
X166032679Y-146243284D01*
X166032673Y-146243282D01*
X165987011Y-146231047D01*
X165914830Y-146211706D01*
X165854209Y-146174755D01*
X165823188Y-146110895D01*
X165831616Y-146040400D01*
X165876819Y-145985653D01*
X165914829Y-145968294D01*
X166032676Y-145936717D01*
X166241768Y-145839216D01*
X166430753Y-145706887D01*
X166593887Y-145543753D01*
X166726216Y-145354768D01*
X166823717Y-145145676D01*
X166883429Y-144922830D01*
X166903536Y-144693000D01*
X166883429Y-144463170D01*
X166823717Y-144240324D01*
X166726216Y-144031232D01*
X166593887Y-143842247D01*
X166430753Y-143679113D01*
X166241768Y-143546784D01*
X166124457Y-143492081D01*
X166032679Y-143449284D01*
X166032676Y-143449283D01*
X165913864Y-143417447D01*
X165853244Y-143380496D01*
X165822222Y-143316635D01*
X165830651Y-143246141D01*
X165875854Y-143191394D01*
X165913868Y-143174034D01*
X166032500Y-143142247D01*
X166032508Y-143142244D01*
X166241516Y-143044782D01*
X166241518Y-143044781D01*
X166315069Y-142993281D01*
X166315069Y-142993278D01*
X165711481Y-142389690D01*
X165776081Y-142372381D01*
X165891920Y-142305502D01*
X165986502Y-142210920D01*
X166053381Y-142095081D01*
X166070690Y-142030481D01*
X166674278Y-142634069D01*
X166674281Y-142634069D01*
X166725781Y-142560518D01*
X166725782Y-142560516D01*
X166823244Y-142351508D01*
X166823246Y-142351503D01*
X166882934Y-142128741D01*
X166903034Y-141899000D01*
X166882934Y-141669258D01*
X166823246Y-141446496D01*
X166823244Y-141446492D01*
X166725782Y-141237483D01*
X166674279Y-141163928D01*
X166070690Y-141767518D01*
X166053381Y-141702919D01*
X165986502Y-141587080D01*
X165891920Y-141492498D01*
X165776081Y-141425619D01*
X165711480Y-141408309D01*
X166315069Y-140804719D01*
X166241520Y-140753219D01*
X166083846Y-140679695D01*
X166030561Y-140632778D01*
X166011100Y-140564501D01*
X166031642Y-140496541D01*
X166083846Y-140451305D01*
X166241516Y-140377782D01*
X166241518Y-140377781D01*
X166315069Y-140326281D01*
X166315069Y-140326278D01*
X165711481Y-139722690D01*
X165776081Y-139705381D01*
X165891920Y-139638502D01*
X165986502Y-139543920D01*
X166053381Y-139428081D01*
X166070690Y-139363481D01*
X166674278Y-139967069D01*
X166674281Y-139967069D01*
X166725781Y-139893518D01*
X166725782Y-139893516D01*
X166823244Y-139684508D01*
X166823246Y-139684503D01*
X166882934Y-139461741D01*
X166903034Y-139232000D01*
X166882934Y-139002258D01*
X166823246Y-138779496D01*
X166823244Y-138779492D01*
X166725782Y-138570483D01*
X166674279Y-138496928D01*
X166070690Y-139100518D01*
X166053381Y-139035919D01*
X165986502Y-138920080D01*
X165891920Y-138825498D01*
X165776081Y-138758619D01*
X165711480Y-138741309D01*
X166315069Y-138137719D01*
X166241520Y-138086219D01*
X166032507Y-137988755D01*
X166032503Y-137988753D01*
X165912902Y-137956707D01*
X165852279Y-137919755D01*
X165821258Y-137855895D01*
X165829686Y-137785400D01*
X165874889Y-137730653D01*
X165912902Y-137713293D01*
X166032503Y-137681246D01*
X166032508Y-137681244D01*
X166241516Y-137583782D01*
X166241518Y-137583781D01*
X166315069Y-137532281D01*
X166315069Y-137532278D01*
X165711481Y-136928690D01*
X165776081Y-136911381D01*
X165891920Y-136844502D01*
X165986502Y-136749920D01*
X166053381Y-136634081D01*
X166070690Y-136569481D01*
X166674278Y-137173069D01*
X166674281Y-137173069D01*
X166725781Y-137099518D01*
X166725782Y-137099516D01*
X166823244Y-136890508D01*
X166823246Y-136890503D01*
X166882934Y-136667741D01*
X166903034Y-136438000D01*
X166882934Y-136208258D01*
X166823246Y-135985496D01*
X166823244Y-135985492D01*
X166725782Y-135776483D01*
X166674279Y-135702928D01*
X166070690Y-136306518D01*
X166053381Y-136241919D01*
X165986502Y-136126080D01*
X165891920Y-136031498D01*
X165776081Y-135964619D01*
X165711480Y-135947309D01*
X166315069Y-135343719D01*
X166241520Y-135292219D01*
X166032507Y-135194755D01*
X166032503Y-135194753D01*
X165912902Y-135162707D01*
X165852279Y-135125755D01*
X165821258Y-135061895D01*
X165829686Y-134991400D01*
X165874889Y-134936653D01*
X165912902Y-134919293D01*
X166032503Y-134887246D01*
X166032508Y-134887244D01*
X166241516Y-134789782D01*
X166241518Y-134789781D01*
X166315069Y-134738281D01*
X166315069Y-134738278D01*
X165711481Y-134134690D01*
X165776081Y-134117381D01*
X165891920Y-134050502D01*
X165986502Y-133955920D01*
X166053381Y-133840081D01*
X166070690Y-133775481D01*
X166674278Y-134379069D01*
X166674281Y-134379069D01*
X166725781Y-134305518D01*
X166725782Y-134305516D01*
X166823244Y-134096508D01*
X166823246Y-134096503D01*
X166882934Y-133873741D01*
X166903034Y-133644000D01*
X166882934Y-133414258D01*
X166823246Y-133191496D01*
X166823244Y-133191492D01*
X166725782Y-132982483D01*
X166674279Y-132908928D01*
X166070690Y-133512518D01*
X166053381Y-133447919D01*
X165986502Y-133332080D01*
X165891920Y-133237498D01*
X165776081Y-133170619D01*
X165711480Y-133153309D01*
X166315069Y-132549719D01*
X166241520Y-132498219D01*
X166032507Y-132400755D01*
X166032502Y-132400753D01*
X165913867Y-132368965D01*
X165853244Y-132332013D01*
X165822223Y-132268152D01*
X165830651Y-132197658D01*
X165875854Y-132142911D01*
X165913861Y-132125553D01*
X166032676Y-132093717D01*
X166241768Y-131996216D01*
X166430753Y-131863887D01*
X166593887Y-131700753D01*
X166726216Y-131511768D01*
X166823717Y-131302676D01*
X166883429Y-131079830D01*
X166903536Y-130850000D01*
X166883429Y-130620170D01*
X166823717Y-130397324D01*
X166726216Y-130188232D01*
X166593887Y-129999247D01*
X166430753Y-129836113D01*
X166241768Y-129703784D01*
X166085026Y-129630694D01*
X166031742Y-129583778D01*
X166012281Y-129515501D01*
X166032823Y-129447541D01*
X166085026Y-129402305D01*
X166241768Y-129329216D01*
X166430753Y-129196887D01*
X166593887Y-129033753D01*
X166726216Y-128844768D01*
X166823717Y-128635676D01*
X166883429Y-128412830D01*
X166903536Y-128183000D01*
X166883429Y-127953170D01*
X166823717Y-127730324D01*
X166726216Y-127521232D01*
X166593887Y-127332247D01*
X166430753Y-127169113D01*
X166241768Y-127036784D01*
X166172290Y-127004386D01*
X166032679Y-126939284D01*
X166032673Y-126939282D01*
X165998032Y-126930000D01*
X165914830Y-126907706D01*
X165854209Y-126870755D01*
X165823188Y-126806895D01*
X165831616Y-126736400D01*
X165876819Y-126681653D01*
X165914829Y-126664294D01*
X166032676Y-126632717D01*
X166241768Y-126535216D01*
X166430753Y-126402887D01*
X166593887Y-126239753D01*
X166726216Y-126050768D01*
X166823717Y-125841676D01*
X166883429Y-125618830D01*
X166903536Y-125389000D01*
X166883429Y-125159170D01*
X166823717Y-124936324D01*
X166726216Y-124727232D01*
X166593887Y-124538247D01*
X166430753Y-124375113D01*
X166241768Y-124242784D01*
X166196830Y-124221829D01*
X166032679Y-124145284D01*
X166032673Y-124145282D01*
X166000347Y-124136620D01*
X165914830Y-124113706D01*
X165854209Y-124076755D01*
X165823188Y-124012895D01*
X165831616Y-123942400D01*
X165876819Y-123887653D01*
X165914829Y-123870294D01*
X166032676Y-123838717D01*
X166241768Y-123741216D01*
X166430753Y-123608887D01*
X166593887Y-123445753D01*
X166726216Y-123256768D01*
X166823717Y-123047676D01*
X166883429Y-122824830D01*
X166903536Y-122595000D01*
X166883429Y-122365170D01*
X166823717Y-122142324D01*
X166726216Y-121933232D01*
X166593887Y-121744247D01*
X166430753Y-121581113D01*
X166241768Y-121448784D01*
X166151699Y-121406784D01*
X166032679Y-121351284D01*
X166032673Y-121351282D01*
X166000347Y-121342620D01*
X165914830Y-121319706D01*
X165854209Y-121282755D01*
X165823188Y-121218895D01*
X165831616Y-121148400D01*
X165876819Y-121093653D01*
X165914829Y-121076294D01*
X166032676Y-121044717D01*
X166241768Y-120947216D01*
X166430753Y-120814887D01*
X166593887Y-120651753D01*
X166726216Y-120462768D01*
X166823717Y-120253676D01*
X166883429Y-120030830D01*
X166903536Y-119801000D01*
X166883429Y-119571170D01*
X166823717Y-119348324D01*
X166726216Y-119139232D01*
X166593887Y-118950247D01*
X166430753Y-118787113D01*
X166241768Y-118654784D01*
X166085026Y-118581694D01*
X166031742Y-118534778D01*
X166012281Y-118466501D01*
X166032823Y-118398541D01*
X166085026Y-118353305D01*
X166241768Y-118280216D01*
X166430753Y-118147887D01*
X166593887Y-117984753D01*
X166726216Y-117795768D01*
X166823717Y-117586676D01*
X166883429Y-117363830D01*
X166903536Y-117134000D01*
X166883429Y-116904170D01*
X166823717Y-116681324D01*
X166726216Y-116472232D01*
X166593887Y-116283247D01*
X166430753Y-116120113D01*
X166241768Y-115987784D01*
X166117483Y-115929829D01*
X166032679Y-115890284D01*
X166032673Y-115890282D01*
X165999751Y-115881460D01*
X165912964Y-115858206D01*
X165852343Y-115821255D01*
X165821322Y-115757395D01*
X165828184Y-115700000D01*
X167096464Y-115700000D01*
X167116571Y-115929829D01*
X167176282Y-116152673D01*
X167176284Y-116152679D01*
X167273784Y-116361768D01*
X167406113Y-116550753D01*
X167569247Y-116713887D01*
X167758232Y-116846216D01*
X167967324Y-116943717D01*
X168012019Y-116955693D01*
X168072642Y-116992645D01*
X168103663Y-117056506D01*
X168095235Y-117127000D01*
X168050032Y-117181747D01*
X168012019Y-117199107D01*
X167967326Y-117211082D01*
X167967320Y-117211084D01*
X167758231Y-117308584D01*
X167569250Y-117440910D01*
X167569244Y-117440915D01*
X167406115Y-117604044D01*
X167406110Y-117604050D01*
X167273784Y-117793031D01*
X167176284Y-118002120D01*
X167176282Y-118002126D01*
X167137225Y-118147889D01*
X167116571Y-118224970D01*
X167096464Y-118454800D01*
X167106450Y-118568949D01*
X167116571Y-118684629D01*
X167176282Y-118907473D01*
X167176284Y-118907479D01*
X167273784Y-119116568D01*
X167372312Y-119257281D01*
X167406113Y-119305553D01*
X167569247Y-119468687D01*
X167758232Y-119601016D01*
X167967324Y-119698517D01*
X168086134Y-119730352D01*
X168146755Y-119767303D01*
X168177776Y-119831163D01*
X168169348Y-119901658D01*
X168124145Y-119956405D01*
X168086133Y-119973765D01*
X167967494Y-120005554D01*
X167967492Y-120005555D01*
X167758482Y-120103018D01*
X167684928Y-120154519D01*
X168288518Y-120758109D01*
X168223919Y-120775419D01*
X168108080Y-120842298D01*
X168013498Y-120936880D01*
X167946619Y-121052719D01*
X167929309Y-121117318D01*
X167325719Y-120513728D01*
X167274218Y-120587282D01*
X167176755Y-120796292D01*
X167176753Y-120796296D01*
X167117065Y-121019058D01*
X167096965Y-121248800D01*
X167117065Y-121478541D01*
X167176753Y-121701303D01*
X167176755Y-121701307D01*
X167274219Y-121910320D01*
X167325719Y-121983869D01*
X167929309Y-121380279D01*
X167946619Y-121444881D01*
X168013498Y-121560720D01*
X168108080Y-121655302D01*
X168223919Y-121722181D01*
X168288519Y-121739490D01*
X167684929Y-122343079D01*
X167684929Y-122343081D01*
X167758478Y-122394580D01*
X167967491Y-122492044D01*
X167967501Y-122492048D01*
X167991336Y-122498434D01*
X168051959Y-122535384D01*
X168082982Y-122599244D01*
X168074555Y-122669739D01*
X168029353Y-122724486D01*
X167991340Y-122741847D01*
X167967332Y-122748280D01*
X167967320Y-122748284D01*
X167758231Y-122845784D01*
X167569250Y-122978110D01*
X167569244Y-122978115D01*
X167406115Y-123141244D01*
X167406110Y-123141250D01*
X167273784Y-123330231D01*
X167176284Y-123539320D01*
X167176283Y-123539324D01*
X167116571Y-123762170D01*
X167096464Y-123992000D01*
X167116571Y-124221830D01*
X167139467Y-124307279D01*
X167176282Y-124444673D01*
X167176284Y-124444679D01*
X167217489Y-124533043D01*
X167273784Y-124653768D01*
X167406113Y-124842753D01*
X167569247Y-125005887D01*
X167758232Y-125138216D01*
X167967324Y-125235717D01*
X167991337Y-125242151D01*
X168051960Y-125279102D01*
X168082982Y-125342962D01*
X168074554Y-125413456D01*
X168029352Y-125468204D01*
X167991340Y-125485564D01*
X167967502Y-125491951D01*
X167967492Y-125491955D01*
X167758482Y-125589418D01*
X167684928Y-125640919D01*
X168288518Y-126244509D01*
X168223919Y-126261819D01*
X168108080Y-126328698D01*
X168013498Y-126423280D01*
X167946619Y-126539119D01*
X167929309Y-126603718D01*
X167325719Y-126000128D01*
X167274218Y-126073682D01*
X167176755Y-126282692D01*
X167176753Y-126282696D01*
X167117065Y-126505458D01*
X167096965Y-126735200D01*
X167117065Y-126964941D01*
X167176753Y-127187703D01*
X167176755Y-127187707D01*
X167274219Y-127396720D01*
X167325719Y-127470269D01*
X167929309Y-126866679D01*
X167946619Y-126931281D01*
X168013498Y-127047120D01*
X168108080Y-127141702D01*
X168223919Y-127208581D01*
X168288519Y-127225890D01*
X167684929Y-127829479D01*
X167684929Y-127829481D01*
X167758478Y-127880980D01*
X167967491Y-127978444D01*
X167967497Y-127978446D01*
X168087097Y-128010493D01*
X168147720Y-128047445D01*
X168178741Y-128111305D01*
X168170313Y-128181800D01*
X168125110Y-128236547D01*
X168087097Y-128253907D01*
X167967497Y-128285953D01*
X167967492Y-128285955D01*
X167758482Y-128383418D01*
X167684928Y-128434919D01*
X168288518Y-129038509D01*
X168223919Y-129055819D01*
X168108080Y-129122698D01*
X168013498Y-129217280D01*
X167946619Y-129333119D01*
X167929309Y-129397718D01*
X167325719Y-128794128D01*
X167274218Y-128867682D01*
X167176755Y-129076692D01*
X167176753Y-129076696D01*
X167117065Y-129299458D01*
X167096965Y-129529200D01*
X167117065Y-129758941D01*
X167176753Y-129981703D01*
X167176755Y-129981707D01*
X167274219Y-130190720D01*
X167325719Y-130264269D01*
X167929309Y-129660679D01*
X167946619Y-129725281D01*
X168013498Y-129841120D01*
X168108080Y-129935702D01*
X168223919Y-130002581D01*
X168288519Y-130019890D01*
X167684929Y-130623479D01*
X167684929Y-130623481D01*
X167758478Y-130674980D01*
X167967491Y-130772444D01*
X167967494Y-130772445D01*
X167992303Y-130779093D01*
X168052925Y-130816045D01*
X168083947Y-130879906D01*
X168075518Y-130950400D01*
X168030315Y-131005147D01*
X167992303Y-131022507D01*
X167967494Y-131029154D01*
X167967492Y-131029155D01*
X167758482Y-131126618D01*
X167684928Y-131178119D01*
X168288518Y-131781709D01*
X168223919Y-131799019D01*
X168108080Y-131865898D01*
X168013498Y-131960480D01*
X167946619Y-132076319D01*
X167929309Y-132140918D01*
X167325719Y-131537328D01*
X167274218Y-131610882D01*
X167176755Y-131819892D01*
X167176755Y-131819893D01*
X167117065Y-132042658D01*
X167096965Y-132272400D01*
X167117065Y-132502141D01*
X167176753Y-132724903D01*
X167176755Y-132724907D01*
X167274219Y-132933920D01*
X167325719Y-133007469D01*
X167929309Y-132403879D01*
X167946619Y-132468481D01*
X168013498Y-132584320D01*
X168108080Y-132678902D01*
X168223919Y-132745781D01*
X168288519Y-132763090D01*
X167684929Y-133366679D01*
X167684929Y-133366681D01*
X167758478Y-133418180D01*
X167967491Y-133515644D01*
X167967494Y-133515645D01*
X167992303Y-133522293D01*
X168052925Y-133559245D01*
X168083947Y-133623106D01*
X168075518Y-133693600D01*
X168030315Y-133748347D01*
X167992303Y-133765707D01*
X167967494Y-133772354D01*
X167967492Y-133772355D01*
X167758482Y-133869818D01*
X167684928Y-133921319D01*
X168288518Y-134524909D01*
X168223919Y-134542219D01*
X168108080Y-134609098D01*
X168013498Y-134703680D01*
X167946619Y-134819519D01*
X167929309Y-134884118D01*
X167325719Y-134280528D01*
X167274218Y-134354082D01*
X167176755Y-134563092D01*
X167176753Y-134563096D01*
X167117065Y-134785858D01*
X167096965Y-135015600D01*
X167117065Y-135245341D01*
X167176753Y-135468103D01*
X167176755Y-135468107D01*
X167274219Y-135677120D01*
X167325719Y-135750669D01*
X167929309Y-135147079D01*
X167946619Y-135211681D01*
X168013498Y-135327520D01*
X168108080Y-135422102D01*
X168223919Y-135488981D01*
X168288519Y-135506290D01*
X167684929Y-136109879D01*
X167684929Y-136109881D01*
X167758478Y-136161380D01*
X167967491Y-136258844D01*
X167967496Y-136258846D01*
X168181892Y-136316293D01*
X168242515Y-136353245D01*
X168273536Y-136417105D01*
X168265108Y-136487600D01*
X168219905Y-136542347D01*
X168181892Y-136559707D01*
X167967496Y-136617153D01*
X167967492Y-136617155D01*
X167758482Y-136714618D01*
X167684928Y-136766119D01*
X168288518Y-137369709D01*
X168223919Y-137387019D01*
X168108080Y-137453898D01*
X168013498Y-137548480D01*
X167946619Y-137664319D01*
X167929309Y-137728918D01*
X167325719Y-137125328D01*
X167274218Y-137198882D01*
X167176755Y-137407892D01*
X167176753Y-137407896D01*
X167117065Y-137630658D01*
X167096965Y-137860400D01*
X167117065Y-138090141D01*
X167176753Y-138312903D01*
X167176755Y-138312907D01*
X167274219Y-138521920D01*
X167325719Y-138595469D01*
X167929309Y-137991879D01*
X167946619Y-138056481D01*
X168013498Y-138172320D01*
X168108080Y-138266902D01*
X168223919Y-138333781D01*
X168288519Y-138351090D01*
X167684929Y-138954679D01*
X167684929Y-138954681D01*
X167758478Y-139006180D01*
X167943388Y-139092405D01*
X167996673Y-139139322D01*
X168016134Y-139207600D01*
X167995592Y-139275559D01*
X167943388Y-139320795D01*
X167758482Y-139407018D01*
X167684928Y-139458519D01*
X168288518Y-140062109D01*
X168223919Y-140079419D01*
X168108080Y-140146298D01*
X168013498Y-140240880D01*
X167946619Y-140356719D01*
X167929309Y-140421318D01*
X167325719Y-139817728D01*
X167274218Y-139891282D01*
X167176755Y-140100292D01*
X167176753Y-140100296D01*
X167117065Y-140323058D01*
X167096965Y-140552800D01*
X167117065Y-140782541D01*
X167176753Y-141005303D01*
X167176755Y-141005307D01*
X167274219Y-141214320D01*
X167325719Y-141287869D01*
X167929309Y-140684279D01*
X167946619Y-140748881D01*
X168013498Y-140864720D01*
X168108080Y-140959302D01*
X168223919Y-141026181D01*
X168288519Y-141043490D01*
X167684929Y-141647079D01*
X167684929Y-141647081D01*
X167758478Y-141698580D01*
X167967491Y-141796044D01*
X167967494Y-141796045D01*
X167992303Y-141802693D01*
X168052925Y-141839645D01*
X168083947Y-141903506D01*
X168075518Y-141974000D01*
X168030315Y-142028747D01*
X167992303Y-142046107D01*
X167967494Y-142052754D01*
X167967492Y-142052755D01*
X167758482Y-142150218D01*
X167684928Y-142201719D01*
X168288518Y-142805309D01*
X168223919Y-142822619D01*
X168108080Y-142889498D01*
X168013498Y-142984080D01*
X167946619Y-143099919D01*
X167929309Y-143164518D01*
X167325719Y-142560928D01*
X167274218Y-142634482D01*
X167176755Y-142843492D01*
X167176753Y-142843496D01*
X167117065Y-143066258D01*
X167096965Y-143296000D01*
X167117065Y-143525741D01*
X167176753Y-143748503D01*
X167176755Y-143748507D01*
X167274219Y-143957520D01*
X167325719Y-144031069D01*
X167929309Y-143427479D01*
X167946619Y-143492081D01*
X168013498Y-143607920D01*
X168108080Y-143702502D01*
X168223919Y-143769381D01*
X168288519Y-143786690D01*
X167684929Y-144390279D01*
X167684929Y-144390281D01*
X167758478Y-144441780D01*
X167967491Y-144539244D01*
X167967497Y-144539246D01*
X168087097Y-144571293D01*
X168147720Y-144608245D01*
X168178741Y-144672105D01*
X168170313Y-144742600D01*
X168125110Y-144797347D01*
X168087097Y-144814707D01*
X167967497Y-144846753D01*
X167967492Y-144846755D01*
X167758482Y-144944218D01*
X167684928Y-144995719D01*
X168288518Y-145599309D01*
X168223919Y-145616619D01*
X168108080Y-145683498D01*
X168013498Y-145778080D01*
X167946619Y-145893919D01*
X167929309Y-145958518D01*
X167325719Y-145354928D01*
X167274218Y-145428482D01*
X167176755Y-145637492D01*
X167176753Y-145637496D01*
X167117065Y-145860258D01*
X167096965Y-146090000D01*
X167117065Y-146319741D01*
X167176753Y-146542503D01*
X167176755Y-146542507D01*
X167274219Y-146751520D01*
X167325719Y-146825069D01*
X167929309Y-146221479D01*
X167946619Y-146286081D01*
X168013498Y-146401920D01*
X168108080Y-146496502D01*
X168223919Y-146563381D01*
X168288519Y-146580690D01*
X167684929Y-147184279D01*
X167684929Y-147184281D01*
X167758478Y-147235780D01*
X167967491Y-147333244D01*
X167967496Y-147333246D01*
X168190258Y-147392934D01*
X168420000Y-147413034D01*
X168649741Y-147392934D01*
X168872503Y-147333246D01*
X168872508Y-147333244D01*
X169081516Y-147235782D01*
X169081518Y-147235781D01*
X169155069Y-147184281D01*
X169155069Y-147184278D01*
X168551481Y-146580690D01*
X168616081Y-146563381D01*
X168731920Y-146496502D01*
X168826502Y-146401920D01*
X168893381Y-146286081D01*
X168910690Y-146221481D01*
X169514278Y-146825069D01*
X169514281Y-146825069D01*
X169565781Y-146751518D01*
X169565782Y-146751516D01*
X169663244Y-146542508D01*
X169663246Y-146542503D01*
X169722934Y-146319741D01*
X169743034Y-146090000D01*
X169722934Y-145860258D01*
X169663246Y-145637496D01*
X169663244Y-145637492D01*
X169565782Y-145428483D01*
X169514279Y-145354928D01*
X168910690Y-145958518D01*
X168893381Y-145893919D01*
X168826502Y-145778080D01*
X168731920Y-145683498D01*
X168616081Y-145616619D01*
X168551480Y-145599309D01*
X169155069Y-144995719D01*
X169081520Y-144944219D01*
X168872507Y-144846755D01*
X168872503Y-144846753D01*
X168752902Y-144814707D01*
X168692279Y-144777755D01*
X168661258Y-144713895D01*
X168669686Y-144643400D01*
X168714889Y-144588653D01*
X168752902Y-144571293D01*
X168872503Y-144539246D01*
X168872508Y-144539244D01*
X169081516Y-144441782D01*
X169081518Y-144441781D01*
X169155069Y-144390281D01*
X169155069Y-144390278D01*
X168551481Y-143786690D01*
X168616081Y-143769381D01*
X168731920Y-143702502D01*
X168826502Y-143607920D01*
X168893381Y-143492081D01*
X168910690Y-143427481D01*
X169514278Y-144031069D01*
X169514281Y-144031069D01*
X169565781Y-143957518D01*
X169565782Y-143957516D01*
X169663244Y-143748508D01*
X169663246Y-143748503D01*
X169722934Y-143525741D01*
X169743034Y-143296000D01*
X169722934Y-143066258D01*
X169663246Y-142843496D01*
X169663244Y-142843492D01*
X169565782Y-142634483D01*
X169514279Y-142560928D01*
X168910690Y-143164518D01*
X168893381Y-143099919D01*
X168826502Y-142984080D01*
X168731920Y-142889498D01*
X168616081Y-142822619D01*
X168551480Y-142805309D01*
X169155069Y-142201719D01*
X169081520Y-142150219D01*
X168872507Y-142052755D01*
X168872503Y-142052753D01*
X168847697Y-142046107D01*
X168787075Y-142009156D01*
X168756053Y-141945295D01*
X168764481Y-141874801D01*
X168809684Y-141820054D01*
X168847697Y-141802693D01*
X168872503Y-141796046D01*
X168872508Y-141796044D01*
X169081516Y-141698582D01*
X169081518Y-141698581D01*
X169155069Y-141647081D01*
X169155069Y-141647078D01*
X168551481Y-141043490D01*
X168616081Y-141026181D01*
X168731920Y-140959302D01*
X168826502Y-140864720D01*
X168893381Y-140748881D01*
X168910690Y-140684281D01*
X169514278Y-141287869D01*
X169514281Y-141287869D01*
X169565781Y-141214318D01*
X169565782Y-141214316D01*
X169663244Y-141005308D01*
X169663246Y-141005303D01*
X169722934Y-140782541D01*
X169743034Y-140552800D01*
X169722934Y-140323058D01*
X169663246Y-140100296D01*
X169663244Y-140100292D01*
X169565782Y-139891283D01*
X169514279Y-139817728D01*
X168910690Y-140421318D01*
X168893381Y-140356719D01*
X168826502Y-140240880D01*
X168731920Y-140146298D01*
X168616081Y-140079419D01*
X168551480Y-140062109D01*
X169155069Y-139458519D01*
X169081520Y-139407019D01*
X168896611Y-139320795D01*
X168843326Y-139273878D01*
X168823865Y-139205600D01*
X168844407Y-139137641D01*
X168896611Y-139092405D01*
X169081516Y-139006182D01*
X169081518Y-139006181D01*
X169155069Y-138954681D01*
X169155069Y-138954678D01*
X168551481Y-138351090D01*
X168616081Y-138333781D01*
X168731920Y-138266902D01*
X168826502Y-138172320D01*
X168893381Y-138056481D01*
X168910690Y-137991881D01*
X169514278Y-138595469D01*
X169514281Y-138595469D01*
X169565781Y-138521918D01*
X169565782Y-138521916D01*
X169663244Y-138312908D01*
X169663246Y-138312903D01*
X169722934Y-138090141D01*
X169743034Y-137860400D01*
X169722934Y-137630658D01*
X169663246Y-137407896D01*
X169663244Y-137407892D01*
X169565782Y-137198883D01*
X169514279Y-137125328D01*
X168910690Y-137728918D01*
X168893381Y-137664319D01*
X168826502Y-137548480D01*
X168731920Y-137453898D01*
X168616081Y-137387019D01*
X168551480Y-137369709D01*
X169155069Y-136766119D01*
X169081520Y-136714619D01*
X168872507Y-136617155D01*
X168872503Y-136617153D01*
X168658107Y-136559707D01*
X168597484Y-136522755D01*
X168566463Y-136458895D01*
X168574891Y-136388400D01*
X168620094Y-136333653D01*
X168658107Y-136316293D01*
X168872503Y-136258846D01*
X168872508Y-136258844D01*
X169081516Y-136161382D01*
X169081518Y-136161381D01*
X169155069Y-136109881D01*
X169155069Y-136109878D01*
X168551481Y-135506290D01*
X168616081Y-135488981D01*
X168731920Y-135422102D01*
X168826502Y-135327520D01*
X168893381Y-135211681D01*
X168910690Y-135147081D01*
X169514278Y-135750669D01*
X169514281Y-135750669D01*
X169565781Y-135677118D01*
X169565782Y-135677116D01*
X169663244Y-135468108D01*
X169663246Y-135468103D01*
X169722934Y-135245341D01*
X169743034Y-135015600D01*
X169722934Y-134785858D01*
X169663246Y-134563096D01*
X169663244Y-134563092D01*
X169565782Y-134354083D01*
X169514279Y-134280528D01*
X168910690Y-134884118D01*
X168893381Y-134819519D01*
X168826502Y-134703680D01*
X168731920Y-134609098D01*
X168616081Y-134542219D01*
X168551480Y-134524909D01*
X169155069Y-133921319D01*
X169081520Y-133869819D01*
X168872507Y-133772355D01*
X168872503Y-133772353D01*
X168847697Y-133765707D01*
X168787075Y-133728756D01*
X168756053Y-133664895D01*
X168764481Y-133594401D01*
X168809684Y-133539654D01*
X168847697Y-133522293D01*
X168872503Y-133515646D01*
X168872508Y-133515644D01*
X169081516Y-133418182D01*
X169081518Y-133418181D01*
X169155069Y-133366681D01*
X169155069Y-133366678D01*
X168551481Y-132763090D01*
X168616081Y-132745781D01*
X168731920Y-132678902D01*
X168826502Y-132584320D01*
X168893381Y-132468481D01*
X168910690Y-132403881D01*
X169514278Y-133007469D01*
X169514281Y-133007469D01*
X169565781Y-132933918D01*
X169565782Y-132933916D01*
X169663244Y-132724908D01*
X169663246Y-132724903D01*
X169722934Y-132502141D01*
X169743034Y-132272400D01*
X169722934Y-132042658D01*
X169663245Y-131819893D01*
X169663244Y-131819892D01*
X169565782Y-131610883D01*
X169514279Y-131537328D01*
X168910690Y-132140918D01*
X168893381Y-132076319D01*
X168826502Y-131960480D01*
X168731920Y-131865898D01*
X168616081Y-131799019D01*
X168551480Y-131781709D01*
X169155069Y-131178119D01*
X169081520Y-131126619D01*
X168872507Y-131029155D01*
X168872503Y-131029153D01*
X168847697Y-131022507D01*
X168787075Y-130985556D01*
X168756053Y-130921695D01*
X168764481Y-130851201D01*
X168809684Y-130796454D01*
X168847697Y-130779093D01*
X168872503Y-130772446D01*
X168872508Y-130772444D01*
X169081516Y-130674982D01*
X169081518Y-130674981D01*
X169155069Y-130623481D01*
X169155069Y-130623478D01*
X168551481Y-130019890D01*
X168616081Y-130002581D01*
X168731920Y-129935702D01*
X168826502Y-129841120D01*
X168893381Y-129725281D01*
X168910690Y-129660681D01*
X169514278Y-130264269D01*
X169514281Y-130264269D01*
X169565781Y-130190718D01*
X169565782Y-130190716D01*
X169663244Y-129981708D01*
X169663246Y-129981703D01*
X169722934Y-129758941D01*
X169743034Y-129529200D01*
X169722934Y-129299458D01*
X169663246Y-129076696D01*
X169663244Y-129076692D01*
X169565782Y-128867683D01*
X169514279Y-128794128D01*
X168910690Y-129397718D01*
X168893381Y-129333119D01*
X168826502Y-129217280D01*
X168731920Y-129122698D01*
X168616081Y-129055819D01*
X168551480Y-129038509D01*
X169155069Y-128434919D01*
X169081520Y-128383419D01*
X168872507Y-128285955D01*
X168872503Y-128285953D01*
X168752902Y-128253907D01*
X168692279Y-128216955D01*
X168661258Y-128153095D01*
X168669686Y-128082600D01*
X168714889Y-128027853D01*
X168752902Y-128010493D01*
X168872503Y-127978446D01*
X168872508Y-127978444D01*
X169081516Y-127880982D01*
X169081518Y-127880981D01*
X169155069Y-127829481D01*
X169155069Y-127829478D01*
X168551481Y-127225890D01*
X168616081Y-127208581D01*
X168731920Y-127141702D01*
X168826502Y-127047120D01*
X168893381Y-126931281D01*
X168910690Y-126866681D01*
X169514278Y-127470269D01*
X169514281Y-127470269D01*
X169565781Y-127396718D01*
X169565782Y-127396716D01*
X169663244Y-127187708D01*
X169663246Y-127187703D01*
X169722934Y-126964941D01*
X169743034Y-126735200D01*
X169722934Y-126505458D01*
X169663246Y-126282696D01*
X169663244Y-126282692D01*
X169565782Y-126073683D01*
X169514279Y-126000128D01*
X168910690Y-126603718D01*
X168893381Y-126539119D01*
X168826502Y-126423280D01*
X168731920Y-126328698D01*
X168616081Y-126261819D01*
X168551480Y-126244509D01*
X169155069Y-125640919D01*
X169081520Y-125589419D01*
X168872507Y-125491955D01*
X168872505Y-125491954D01*
X168848660Y-125485565D01*
X168788038Y-125448613D01*
X168757016Y-125384752D01*
X168765445Y-125314258D01*
X168810649Y-125259511D01*
X168848661Y-125242151D01*
X168872676Y-125235717D01*
X169081768Y-125138216D01*
X169270753Y-125005887D01*
X169433887Y-124842753D01*
X169566216Y-124653768D01*
X169663717Y-124444676D01*
X169723429Y-124221830D01*
X169743536Y-123992000D01*
X169723429Y-123762170D01*
X169663717Y-123539324D01*
X169566216Y-123330232D01*
X169433887Y-123141247D01*
X169270753Y-122978113D01*
X169219031Y-122941897D01*
X169081768Y-122845784D01*
X168872679Y-122748284D01*
X168872665Y-122748279D01*
X168848660Y-122741847D01*
X168788037Y-122704895D01*
X168757016Y-122641034D01*
X168765446Y-122570540D01*
X168810649Y-122515793D01*
X168848664Y-122498433D01*
X168872506Y-122492045D01*
X168872508Y-122492044D01*
X169081516Y-122394582D01*
X169081518Y-122394581D01*
X169155069Y-122343081D01*
X169155069Y-122343078D01*
X168551481Y-121739490D01*
X168616081Y-121722181D01*
X168731920Y-121655302D01*
X168826502Y-121560720D01*
X168893381Y-121444881D01*
X168910690Y-121380281D01*
X169514278Y-121983869D01*
X169514281Y-121983869D01*
X169565781Y-121910318D01*
X169565782Y-121910316D01*
X169663244Y-121701308D01*
X169663246Y-121701303D01*
X169722934Y-121478541D01*
X169743034Y-121248800D01*
X169722934Y-121019058D01*
X169663246Y-120796296D01*
X169663244Y-120796292D01*
X169565782Y-120587283D01*
X169514279Y-120513728D01*
X168910690Y-121117318D01*
X168893381Y-121052719D01*
X168826502Y-120936880D01*
X168731920Y-120842298D01*
X168616081Y-120775419D01*
X168551480Y-120758109D01*
X169155069Y-120154519D01*
X169081520Y-120103019D01*
X168872507Y-120005555D01*
X168872502Y-120005553D01*
X168753867Y-119973765D01*
X168693244Y-119936813D01*
X168662223Y-119872952D01*
X168670651Y-119802458D01*
X168715854Y-119747711D01*
X168753861Y-119730353D01*
X168872676Y-119698517D01*
X169081768Y-119601016D01*
X169270753Y-119468687D01*
X169433887Y-119305553D01*
X169566216Y-119116568D01*
X169663717Y-118907476D01*
X169723429Y-118684630D01*
X169743536Y-118454800D01*
X169723429Y-118224970D01*
X169663717Y-118002124D01*
X169566216Y-117793032D01*
X169433887Y-117604047D01*
X169270753Y-117440913D01*
X169081768Y-117308584D01*
X168872679Y-117211084D01*
X168872674Y-117211082D01*
X168847992Y-117204468D01*
X168827978Y-117199106D01*
X168767357Y-117162155D01*
X168736336Y-117098295D01*
X168744764Y-117027800D01*
X168789967Y-116973053D01*
X168827978Y-116955693D01*
X168872676Y-116943717D01*
X169081768Y-116846216D01*
X169270753Y-116713887D01*
X169433887Y-116550753D01*
X169566216Y-116361768D01*
X169663717Y-116152676D01*
X169723429Y-115929830D01*
X169743536Y-115700000D01*
X169723429Y-115470170D01*
X169663717Y-115247324D01*
X169566216Y-115038232D01*
X169433887Y-114849247D01*
X169270753Y-114686113D01*
X169258899Y-114677813D01*
X169081768Y-114553784D01*
X168872679Y-114456284D01*
X168872673Y-114456282D01*
X168778490Y-114431045D01*
X168649830Y-114396571D01*
X168420000Y-114376464D01*
X168190170Y-114396571D01*
X167967326Y-114456282D01*
X167967320Y-114456284D01*
X167758231Y-114553784D01*
X167569250Y-114686110D01*
X167569244Y-114686115D01*
X167406115Y-114849244D01*
X167406110Y-114849250D01*
X167273784Y-115038231D01*
X167176284Y-115247320D01*
X167176282Y-115247326D01*
X167116571Y-115470170D01*
X167096464Y-115700000D01*
X165828184Y-115700000D01*
X165829750Y-115686900D01*
X165874953Y-115632153D01*
X165942578Y-115610536D01*
X165945577Y-115610500D01*
X166390632Y-115610500D01*
X166390638Y-115610500D01*
X166390645Y-115610499D01*
X166390649Y-115610499D01*
X166451196Y-115603990D01*
X166451199Y-115603989D01*
X166451201Y-115603989D01*
X166588204Y-115552889D01*
X166705261Y-115465261D01*
X166792889Y-115348204D01*
X166843989Y-115211201D01*
X166850500Y-115150638D01*
X166850500Y-113529362D01*
X166846561Y-113492719D01*
X166843990Y-113468803D01*
X166843988Y-113468795D01*
X166792889Y-113331797D01*
X166792887Y-113331792D01*
X166705261Y-113214738D01*
X166588207Y-113127112D01*
X166588202Y-113127110D01*
X166451204Y-113076011D01*
X166451196Y-113076009D01*
X166390649Y-113069500D01*
X166390638Y-113069500D01*
X164769362Y-113069500D01*
X164769350Y-113069500D01*
X164708803Y-113076009D01*
X164708795Y-113076011D01*
X164571797Y-113127110D01*
X164571792Y-113127112D01*
X164454738Y-113214738D01*
X164367112Y-113331792D01*
X164367110Y-113331797D01*
X164316011Y-113468795D01*
X164316009Y-113468803D01*
X164309500Y-113529350D01*
X164309500Y-115150649D01*
X164316009Y-115211196D01*
X164316011Y-115211204D01*
X164367110Y-115348202D01*
X164367112Y-115348207D01*
X164454738Y-115465261D01*
X164571792Y-115552887D01*
X164571794Y-115552888D01*
X164571796Y-115552889D01*
X164630875Y-115574924D01*
X164708795Y-115603988D01*
X164708803Y-115603990D01*
X164769350Y-115610499D01*
X164769355Y-115610499D01*
X164769362Y-115610500D01*
X164769368Y-115610500D01*
X165214423Y-115610500D01*
X165282544Y-115630502D01*
X165329037Y-115684158D01*
X165339141Y-115754432D01*
X165309647Y-115819012D01*
X165249921Y-115857396D01*
X165247073Y-115858195D01*
X165183949Y-115875110D01*
X165127326Y-115890282D01*
X165127320Y-115890284D01*
X164918231Y-115987784D01*
X164729250Y-116120110D01*
X164729244Y-116120115D01*
X164566115Y-116283244D01*
X164566110Y-116283250D01*
X164433784Y-116472231D01*
X164336284Y-116681320D01*
X164336282Y-116681326D01*
X164276571Y-116904170D01*
X164256464Y-117134000D01*
X100500000Y-117134000D01*
X100500000Y-113900000D01*
X144886384Y-113900000D01*
X144906783Y-114081047D01*
X144906783Y-114081049D01*
X144906784Y-114081050D01*
X144966957Y-114253015D01*
X144966958Y-114253018D01*
X145063887Y-114407279D01*
X145063888Y-114407281D01*
X145192718Y-114536111D01*
X145192720Y-114536112D01*
X145346981Y-114633041D01*
X145346982Y-114633041D01*
X145346985Y-114633043D01*
X145518953Y-114693217D01*
X145700000Y-114713616D01*
X145881047Y-114693217D01*
X145960055Y-114665570D01*
X146001670Y-114658500D01*
X147492051Y-114658500D01*
X147559086Y-114677812D01*
X147646985Y-114733043D01*
X147818953Y-114793217D01*
X148000000Y-114813616D01*
X148181047Y-114793217D01*
X148353015Y-114733043D01*
X148507281Y-114636111D01*
X148636111Y-114507281D01*
X148733043Y-114353015D01*
X148793217Y-114181047D01*
X148813616Y-114000000D01*
X148793217Y-113818953D01*
X148733043Y-113646985D01*
X148733041Y-113646982D01*
X148733041Y-113646981D01*
X148636112Y-113492720D01*
X148636111Y-113492718D01*
X148507281Y-113363888D01*
X148507279Y-113363887D01*
X148353018Y-113266958D01*
X148353015Y-113266957D01*
X148294275Y-113246403D01*
X148265887Y-113232238D01*
X148259286Y-113227827D01*
X148227687Y-113214738D01*
X148121247Y-113170649D01*
X148047976Y-113156074D01*
X148047975Y-113156073D01*
X147974711Y-113141500D01*
X147974706Y-113141500D01*
X146001670Y-113141500D01*
X145960055Y-113134429D01*
X145939138Y-113127110D01*
X145881047Y-113106783D01*
X145700000Y-113086384D01*
X145518953Y-113106783D01*
X145518950Y-113106783D01*
X145518949Y-113106784D01*
X145346984Y-113166957D01*
X145346981Y-113166958D01*
X145192720Y-113263887D01*
X145192718Y-113263888D01*
X145063888Y-113392718D01*
X145063887Y-113392720D01*
X144966958Y-113546981D01*
X144966957Y-113546984D01*
X144931966Y-113646985D01*
X144906783Y-113718953D01*
X144886384Y-113900000D01*
X100500000Y-113900000D01*
X100500000Y-110300000D01*
X150586384Y-110300000D01*
X150606783Y-110481047D01*
X150606783Y-110481049D01*
X150606784Y-110481050D01*
X150666957Y-110653015D01*
X150666958Y-110653018D01*
X150763887Y-110807279D01*
X150763888Y-110807281D01*
X150892718Y-110936111D01*
X150892720Y-110936112D01*
X151046981Y-111033041D01*
X151046982Y-111033041D01*
X151046985Y-111033043D01*
X151218953Y-111093217D01*
X151263450Y-111098230D01*
X151328902Y-111125732D01*
X151338439Y-111134343D01*
X151896167Y-111692071D01*
X151999925Y-111761400D01*
X152115215Y-111809155D01*
X152237606Y-111833500D01*
X152362394Y-111833500D01*
X153200744Y-111833500D01*
X153268865Y-111853502D01*
X153315358Y-111907158D01*
X153319673Y-111917885D01*
X153366957Y-112053015D01*
X153366958Y-112053018D01*
X153463887Y-112207279D01*
X153463888Y-112207281D01*
X153592718Y-112336111D01*
X153592720Y-112336112D01*
X153746981Y-112433041D01*
X153746982Y-112433041D01*
X153746985Y-112433043D01*
X153918953Y-112493217D01*
X154100000Y-112513616D01*
X154281047Y-112493217D01*
X154453015Y-112433043D01*
X154607281Y-112336111D01*
X154736111Y-112207281D01*
X154833043Y-112053015D01*
X154893217Y-111881047D01*
X154900986Y-111812085D01*
X154928488Y-111746635D01*
X154987012Y-111706441D01*
X155012081Y-111700987D01*
X155081047Y-111693217D01*
X155253015Y-111633043D01*
X155407281Y-111536111D01*
X155536111Y-111407281D01*
X155633043Y-111253015D01*
X155693217Y-111081047D01*
X155713616Y-110900000D01*
X155693217Y-110718953D01*
X155633043Y-110546985D01*
X155633041Y-110546982D01*
X155633041Y-110546981D01*
X155536112Y-110392720D01*
X155536111Y-110392718D01*
X155407281Y-110263888D01*
X155407279Y-110263887D01*
X155253018Y-110166958D01*
X155253015Y-110166957D01*
X155081052Y-110106784D01*
X155081038Y-110106781D01*
X155036543Y-110101767D01*
X154971091Y-110074262D01*
X154961559Y-110065655D01*
X154703835Y-109807931D01*
X154703833Y-109807929D01*
X154600075Y-109738600D01*
X154484785Y-109690845D01*
X154411086Y-109676185D01*
X154362396Y-109666500D01*
X154362394Y-109666500D01*
X153047737Y-109666500D01*
X152980701Y-109647187D01*
X152853017Y-109566958D01*
X152853015Y-109566957D01*
X152681050Y-109506784D01*
X152681049Y-109506783D01*
X152681047Y-109506783D01*
X152500000Y-109486384D01*
X152318953Y-109506783D01*
X152318950Y-109506783D01*
X152318949Y-109506784D01*
X152146986Y-109566956D01*
X152017036Y-109648609D01*
X151948714Y-109667914D01*
X151882964Y-109648609D01*
X151793016Y-109592091D01*
X151753015Y-109566957D01*
X151753014Y-109566956D01*
X151753013Y-109566956D01*
X151581050Y-109506784D01*
X151581049Y-109506783D01*
X151581047Y-109506783D01*
X151400000Y-109486384D01*
X151218953Y-109506783D01*
X151218950Y-109506783D01*
X151218949Y-109506784D01*
X151046984Y-109566957D01*
X151046981Y-109566958D01*
X150892720Y-109663887D01*
X150892718Y-109663888D01*
X150763888Y-109792718D01*
X150763887Y-109792720D01*
X150666958Y-109946981D01*
X150666957Y-109946984D01*
X150612797Y-110101767D01*
X150606783Y-110118953D01*
X150586384Y-110300000D01*
X100500000Y-110300000D01*
X100500000Y-108400000D01*
X127186501Y-108400000D01*
X127206461Y-108640887D01*
X127206463Y-108640896D01*
X127265795Y-108875193D01*
X127265798Y-108875200D01*
X127301120Y-108955726D01*
X127362891Y-109096549D01*
X127448814Y-109228064D01*
X127495095Y-109298902D01*
X127658792Y-109476725D01*
X127658797Y-109476729D01*
X127658799Y-109476731D01*
X127849541Y-109625191D01*
X127849542Y-109625192D01*
X128062119Y-109740233D01*
X128062121Y-109740234D01*
X128182150Y-109781439D01*
X128290732Y-109818716D01*
X128529145Y-109858500D01*
X128529149Y-109858500D01*
X128770851Y-109858500D01*
X128770855Y-109858500D01*
X129009268Y-109818716D01*
X129237881Y-109740233D01*
X129450458Y-109625192D01*
X129641201Y-109476731D01*
X129804906Y-109298900D01*
X129814816Y-109283730D01*
X129868819Y-109237644D01*
X129939166Y-109228068D01*
X129945493Y-109231015D01*
X129994673Y-109236115D01*
X130665016Y-108565771D01*
X130677482Y-108612292D01*
X130749890Y-108737708D01*
X130852292Y-108840110D01*
X130977708Y-108912518D01*
X131024226Y-108924982D01*
X130353052Y-109596157D01*
X130389808Y-109624766D01*
X130389818Y-109624772D01*
X130602321Y-109739774D01*
X130602323Y-109739775D01*
X130830850Y-109818228D01*
X130830859Y-109818230D01*
X131069191Y-109858000D01*
X131310809Y-109858000D01*
X131549140Y-109818230D01*
X131549149Y-109818228D01*
X131777676Y-109739775D01*
X131777678Y-109739774D01*
X131990187Y-109624769D01*
X132026946Y-109596157D01*
X132026947Y-109596156D01*
X131355773Y-108924982D01*
X131402292Y-108912518D01*
X131527708Y-108840110D01*
X131630110Y-108737708D01*
X131702518Y-108612292D01*
X131714982Y-108565773D01*
X132385324Y-109236115D01*
X132385325Y-109236115D01*
X132476668Y-109096306D01*
X132573726Y-108875037D01*
X132573729Y-108875030D01*
X132633041Y-108640813D01*
X132633043Y-108640804D01*
X132652996Y-108400000D01*
X137346501Y-108400000D01*
X137366461Y-108640887D01*
X137366463Y-108640896D01*
X137425795Y-108875193D01*
X137425798Y-108875200D01*
X137461120Y-108955726D01*
X137522891Y-109096549D01*
X137608814Y-109228064D01*
X137655095Y-109298902D01*
X137818792Y-109476725D01*
X137818797Y-109476729D01*
X137818799Y-109476731D01*
X138009541Y-109625191D01*
X138009542Y-109625192D01*
X138222119Y-109740233D01*
X138222121Y-109740234D01*
X138342150Y-109781439D01*
X138450732Y-109818716D01*
X138689145Y-109858500D01*
X138689149Y-109858500D01*
X138930851Y-109858500D01*
X138930855Y-109858500D01*
X139169268Y-109818716D01*
X139397881Y-109740233D01*
X139610458Y-109625192D01*
X139801201Y-109476731D01*
X139964906Y-109298900D01*
X139974816Y-109283730D01*
X140028819Y-109237644D01*
X140099166Y-109228068D01*
X140105493Y-109231015D01*
X140154673Y-109236115D01*
X140825016Y-108565771D01*
X140837482Y-108612292D01*
X140909890Y-108737708D01*
X141012292Y-108840110D01*
X141137708Y-108912518D01*
X141184226Y-108924982D01*
X140513052Y-109596157D01*
X140549808Y-109624766D01*
X140549818Y-109624772D01*
X140762321Y-109739774D01*
X140762323Y-109739775D01*
X140990850Y-109818228D01*
X140990859Y-109818230D01*
X141229191Y-109858000D01*
X141470809Y-109858000D01*
X141709140Y-109818230D01*
X141709149Y-109818228D01*
X141937676Y-109739775D01*
X141937678Y-109739774D01*
X142150187Y-109624769D01*
X142186946Y-109596157D01*
X142186947Y-109596156D01*
X141515773Y-108924982D01*
X141562292Y-108912518D01*
X141687708Y-108840110D01*
X141790110Y-108737708D01*
X141862518Y-108612292D01*
X141874983Y-108565772D01*
X142545326Y-109236115D01*
X142604998Y-109229927D01*
X142605275Y-109232598D01*
X142638550Y-109228064D01*
X142702912Y-109258032D01*
X142725182Y-109283729D01*
X142735091Y-109298896D01*
X142735100Y-109298907D01*
X142898792Y-109476725D01*
X142898797Y-109476729D01*
X142898799Y-109476731D01*
X143089541Y-109625191D01*
X143089542Y-109625192D01*
X143302119Y-109740233D01*
X143302121Y-109740234D01*
X143422150Y-109781439D01*
X143530732Y-109818716D01*
X143769145Y-109858500D01*
X143769149Y-109858500D01*
X144010851Y-109858500D01*
X144010855Y-109858500D01*
X144249268Y-109818716D01*
X144477881Y-109740233D01*
X144690458Y-109625192D01*
X144881201Y-109476731D01*
X145044906Y-109298900D01*
X145177109Y-109096549D01*
X145274203Y-108875197D01*
X145333539Y-108640884D01*
X145353499Y-108400000D01*
X145333539Y-108159116D01*
X145299645Y-108025273D01*
X145274204Y-107924806D01*
X145274201Y-107924799D01*
X145182146Y-107714934D01*
X145177109Y-107703451D01*
X145044906Y-107501100D01*
X145044905Y-107501099D01*
X145044904Y-107501097D01*
X144951836Y-107399998D01*
X164387233Y-107399998D01*
X164387233Y-107400001D01*
X164406282Y-107714931D01*
X164406283Y-107714934D01*
X164463154Y-108025273D01*
X164557022Y-108326506D01*
X164686504Y-108614202D01*
X164686507Y-108614208D01*
X164849734Y-108884220D01*
X164984522Y-109056265D01*
X164984523Y-109056266D01*
X165706947Y-108333841D01*
X165783402Y-108439073D01*
X165960927Y-108616598D01*
X166066156Y-108693051D01*
X165343732Y-109415475D01*
X165343733Y-109415476D01*
X165515779Y-109550265D01*
X165785791Y-109713492D01*
X165785797Y-109713495D01*
X166073493Y-109842977D01*
X166374726Y-109936845D01*
X166685065Y-109993716D01*
X166685068Y-109993717D01*
X166999999Y-110012767D01*
X167000001Y-110012767D01*
X167314931Y-109993717D01*
X167314934Y-109993716D01*
X167625273Y-109936845D01*
X167926506Y-109842977D01*
X168214202Y-109713495D01*
X168214208Y-109713492D01*
X168484220Y-109550265D01*
X168656265Y-109415475D01*
X168656266Y-109415475D01*
X167933842Y-108693051D01*
X168039073Y-108616598D01*
X168216598Y-108439073D01*
X168293051Y-108333842D01*
X169015475Y-109056266D01*
X169015475Y-109056265D01*
X169150265Y-108884220D01*
X169313492Y-108614208D01*
X169313495Y-108614202D01*
X169442977Y-108326506D01*
X169536845Y-108025273D01*
X169593716Y-107714934D01*
X169593717Y-107714931D01*
X169612767Y-107400001D01*
X169612767Y-107399998D01*
X169593717Y-107085068D01*
X169593716Y-107085065D01*
X169536845Y-106774726D01*
X169442977Y-106473493D01*
X169313495Y-106185797D01*
X169313492Y-106185791D01*
X169150265Y-105915779D01*
X169015476Y-105743733D01*
X169015475Y-105743732D01*
X168293051Y-106466156D01*
X168216598Y-106360927D01*
X168039073Y-106183402D01*
X167933842Y-106106947D01*
X168656266Y-105384523D01*
X168656265Y-105384522D01*
X168484220Y-105249734D01*
X168214208Y-105086507D01*
X168214202Y-105086504D01*
X167926506Y-104957022D01*
X167625273Y-104863154D01*
X167314934Y-104806283D01*
X167314931Y-104806282D01*
X167000001Y-104787233D01*
X166999999Y-104787233D01*
X166685068Y-104806282D01*
X166685065Y-104806283D01*
X166374726Y-104863154D01*
X166073493Y-104957022D01*
X165785797Y-105086504D01*
X165785791Y-105086507D01*
X165515785Y-105249731D01*
X165343732Y-105384523D01*
X166066157Y-106106948D01*
X165960927Y-106183402D01*
X165783402Y-106360927D01*
X165706948Y-106466157D01*
X164984523Y-105743732D01*
X164849731Y-105915785D01*
X164686507Y-106185791D01*
X164686504Y-106185797D01*
X164557022Y-106473493D01*
X164463154Y-106774726D01*
X164406283Y-107085065D01*
X164406282Y-107085068D01*
X164387233Y-107399998D01*
X144951836Y-107399998D01*
X144881207Y-107323274D01*
X144690458Y-107174808D01*
X144690457Y-107174807D01*
X144477880Y-107059766D01*
X144477878Y-107059765D01*
X144249272Y-106981285D01*
X144249265Y-106981283D01*
X144147230Y-106964256D01*
X144010855Y-106941500D01*
X143769145Y-106941500D01*
X143649832Y-106961409D01*
X143530734Y-106981283D01*
X143530727Y-106981285D01*
X143302121Y-107059765D01*
X143302119Y-107059766D01*
X143089542Y-107174807D01*
X143089541Y-107174808D01*
X142898792Y-107323274D01*
X142735100Y-107501092D01*
X142735090Y-107501104D01*
X142725180Y-107516273D01*
X142671175Y-107562359D01*
X142600827Y-107571931D01*
X142594498Y-107568983D01*
X142545325Y-107563883D01*
X141874982Y-108234226D01*
X141862518Y-108187708D01*
X141790110Y-108062292D01*
X141687708Y-107959890D01*
X141562292Y-107887482D01*
X141515772Y-107875017D01*
X142186947Y-107203842D01*
X142150184Y-107175228D01*
X142150181Y-107175227D01*
X141937678Y-107060225D01*
X141937676Y-107060224D01*
X141709149Y-106981771D01*
X141709140Y-106981769D01*
X141470809Y-106942000D01*
X141229191Y-106942000D01*
X140990859Y-106981769D01*
X140990850Y-106981771D01*
X140762325Y-107060224D01*
X140549808Y-107175233D01*
X140513052Y-107203841D01*
X140513051Y-107203842D01*
X141184226Y-107875017D01*
X141137708Y-107887482D01*
X141012292Y-107959890D01*
X140909890Y-108062292D01*
X140837482Y-108187708D01*
X140825016Y-108234227D01*
X140154672Y-107563883D01*
X140095001Y-107570072D01*
X140094723Y-107567398D01*
X140061392Y-107571926D01*
X139997044Y-107541929D01*
X139974818Y-107516272D01*
X139964906Y-107501100D01*
X139964899Y-107501092D01*
X139801207Y-107323274D01*
X139610458Y-107174808D01*
X139610457Y-107174807D01*
X139397880Y-107059766D01*
X139397878Y-107059765D01*
X139169272Y-106981285D01*
X139169265Y-106981283D01*
X139067230Y-106964256D01*
X138930855Y-106941500D01*
X138689145Y-106941500D01*
X138569832Y-106961409D01*
X138450734Y-106981283D01*
X138450727Y-106981285D01*
X138222121Y-107059765D01*
X138222119Y-107059766D01*
X138009542Y-107174807D01*
X138009541Y-107174808D01*
X137818792Y-107323274D01*
X137655095Y-107501097D01*
X137522889Y-107703454D01*
X137425798Y-107924799D01*
X137425795Y-107924806D01*
X137366463Y-108159103D01*
X137366461Y-108159112D01*
X137346501Y-108400000D01*
X132652996Y-108400000D01*
X132633043Y-108159195D01*
X132633041Y-108159186D01*
X132573729Y-107924969D01*
X132573726Y-107924962D01*
X132476668Y-107703693D01*
X132385325Y-107563883D01*
X131714982Y-108234226D01*
X131702518Y-108187708D01*
X131630110Y-108062292D01*
X131527708Y-107959890D01*
X131402292Y-107887482D01*
X131355772Y-107875017D01*
X132026947Y-107203842D01*
X131990184Y-107175228D01*
X131990181Y-107175227D01*
X131777678Y-107060225D01*
X131777676Y-107060224D01*
X131549149Y-106981771D01*
X131549140Y-106981769D01*
X131310809Y-106942000D01*
X131069191Y-106942000D01*
X130830859Y-106981769D01*
X130830850Y-106981771D01*
X130602325Y-107060224D01*
X130389808Y-107175233D01*
X130353052Y-107203841D01*
X130353051Y-107203842D01*
X131024226Y-107875017D01*
X130977708Y-107887482D01*
X130852292Y-107959890D01*
X130749890Y-108062292D01*
X130677482Y-108187708D01*
X130665016Y-108234227D01*
X129994672Y-107563883D01*
X129935001Y-107570072D01*
X129934723Y-107567398D01*
X129901392Y-107571926D01*
X129837044Y-107541929D01*
X129814818Y-107516272D01*
X129804906Y-107501100D01*
X129804899Y-107501092D01*
X129641207Y-107323274D01*
X129450458Y-107174808D01*
X129450457Y-107174807D01*
X129237880Y-107059766D01*
X129237878Y-107059765D01*
X129009272Y-106981285D01*
X129009265Y-106981283D01*
X128907230Y-106964256D01*
X128770855Y-106941500D01*
X128529145Y-106941500D01*
X128409832Y-106961409D01*
X128290734Y-106981283D01*
X128290727Y-106981285D01*
X128062121Y-107059765D01*
X128062119Y-107059766D01*
X127849542Y-107174807D01*
X127849541Y-107174808D01*
X127658792Y-107323274D01*
X127495095Y-107501097D01*
X127362889Y-107703454D01*
X127265798Y-107924799D01*
X127265795Y-107924806D01*
X127206463Y-108159103D01*
X127206461Y-108159112D01*
X127186501Y-108400000D01*
X100500000Y-108400000D01*
X100500000Y-104274038D01*
X102399500Y-104274038D01*
X102399500Y-104525962D01*
X102438910Y-104774785D01*
X102438911Y-104774790D01*
X102516757Y-105014374D01*
X102516759Y-105014379D01*
X102631130Y-105238845D01*
X102779207Y-105442656D01*
X102779209Y-105442658D01*
X102779211Y-105442661D01*
X102957338Y-105620788D01*
X102957341Y-105620790D01*
X102957344Y-105620793D01*
X103161155Y-105768870D01*
X103385621Y-105883241D01*
X103625215Y-105961090D01*
X103874038Y-106000500D01*
X103874041Y-106000500D01*
X104125959Y-106000500D01*
X104125962Y-106000500D01*
X104374785Y-105961090D01*
X104614379Y-105883241D01*
X104838845Y-105768870D01*
X105042656Y-105620793D01*
X105220793Y-105442656D01*
X105368870Y-105238845D01*
X105483241Y-105014379D01*
X105561090Y-104774785D01*
X105600500Y-104525962D01*
X105600500Y-104274038D01*
X159399500Y-104274038D01*
X159399500Y-104525962D01*
X159438910Y-104774785D01*
X159438911Y-104774790D01*
X159516757Y-105014374D01*
X159516759Y-105014379D01*
X159631130Y-105238845D01*
X159779207Y-105442656D01*
X159779209Y-105442658D01*
X159779211Y-105442661D01*
X159957338Y-105620788D01*
X159957341Y-105620790D01*
X159957344Y-105620793D01*
X160161155Y-105768870D01*
X160385621Y-105883241D01*
X160625215Y-105961090D01*
X160874038Y-106000500D01*
X160874041Y-106000500D01*
X161125959Y-106000500D01*
X161125962Y-106000500D01*
X161374785Y-105961090D01*
X161614379Y-105883241D01*
X161838845Y-105768870D01*
X162042656Y-105620793D01*
X162220793Y-105442656D01*
X162368870Y-105238845D01*
X162483241Y-105014379D01*
X162561090Y-104774785D01*
X162600500Y-104525962D01*
X162600500Y-104274038D01*
X162561090Y-104025215D01*
X162483241Y-103785621D01*
X162368870Y-103561155D01*
X162220793Y-103357344D01*
X162220790Y-103357341D01*
X162220788Y-103357338D01*
X162042661Y-103179211D01*
X162042658Y-103179209D01*
X162042656Y-103179207D01*
X161838845Y-103031130D01*
X161614379Y-102916759D01*
X161614376Y-102916758D01*
X161614374Y-102916757D01*
X161374790Y-102838911D01*
X161374786Y-102838910D01*
X161374785Y-102838910D01*
X161125962Y-102799500D01*
X160874038Y-102799500D01*
X160625215Y-102838910D01*
X160625209Y-102838911D01*
X160385625Y-102916757D01*
X160385619Y-102916760D01*
X160161151Y-103031132D01*
X159957341Y-103179209D01*
X159957338Y-103179211D01*
X159779211Y-103357338D01*
X159779209Y-103357341D01*
X159631132Y-103561151D01*
X159516760Y-103785619D01*
X159516757Y-103785625D01*
X159438911Y-104025209D01*
X159438910Y-104025214D01*
X159438910Y-104025215D01*
X159399500Y-104274038D01*
X105600500Y-104274038D01*
X105561090Y-104025215D01*
X105483241Y-103785621D01*
X105368870Y-103561155D01*
X105220793Y-103357344D01*
X105220790Y-103357341D01*
X105220788Y-103357338D01*
X105042661Y-103179211D01*
X105042658Y-103179209D01*
X105042656Y-103179207D01*
X104838845Y-103031130D01*
X104614379Y-102916759D01*
X104614376Y-102916758D01*
X104614374Y-102916757D01*
X104374790Y-102838911D01*
X104374786Y-102838910D01*
X104374785Y-102838910D01*
X104125962Y-102799500D01*
X103874038Y-102799500D01*
X103625215Y-102838910D01*
X103625209Y-102838911D01*
X103385625Y-102916757D01*
X103385619Y-102916760D01*
X103161151Y-103031132D01*
X102957341Y-103179209D01*
X102957338Y-103179211D01*
X102779211Y-103357338D01*
X102779209Y-103357341D01*
X102631132Y-103561151D01*
X102516760Y-103785619D01*
X102516757Y-103785625D01*
X102438911Y-104025209D01*
X102438910Y-104025214D01*
X102438910Y-104025215D01*
X102399500Y-104274038D01*
X100500000Y-104274038D01*
X100500000Y-100626000D01*
X100520002Y-100557879D01*
X100573658Y-100511386D01*
X100626000Y-100500000D01*
X174474000Y-100500000D01*
X174542121Y-100520002D01*
G37*
%TD.AperFunction*%
%TD*%
M02*
